<svg width="338" height="337" viewBox="0 0 338 337" fill="none" xmlns="http://www.w3.org/2000/svg">
<path d="M260.596 178.723H200.577L220.944 130.626H280.963L260.596 178.723Z" fill="black"/>
<path d="M260.595 178.295H203.023C202.237 178.254 201.45 178.254 200.664 178.295C200.63 178.299 200.596 178.299 200.563 178.295L200.934 178.939L202.955 174.144L207.831 162.633L213.692 148.79L218.787 136.759L220.472 132.797L220.987 131.573C221.096 131.364 221.188 131.147 221.263 130.923C221.273 130.895 221.284 130.868 221.297 130.842L220.93 131.054H278.513C279.298 131.095 280.086 131.095 280.871 131.054C280.904 131.053 280.937 131.053 280.969 131.054L280.592 130.411L278.57 135.206L273.697 146.717L267.834 160.56L262.742 172.594C261.918 174.539 261.093 176.485 260.269 178.43L260.235 178.508C260.023 179.01 260.761 179.444 260.973 178.939L262.995 174.144L267.864 162.633L273.724 148.79L278.819 136.759C279.642 134.812 280.465 132.866 281.289 130.923L281.323 130.842C281.359 130.777 281.377 130.703 281.377 130.629C281.376 130.554 281.356 130.481 281.319 130.416C281.281 130.351 281.228 130.297 281.164 130.259C281.1 130.221 281.027 130.2 280.952 130.198H223.383C222.601 130.198 221.816 130.175 221.024 130.198H220.923C220.848 130.198 220.774 130.217 220.709 130.254C220.644 130.291 220.59 130.346 220.552 130.411L218.531 135.206L213.654 146.717L207.794 160.56L202.699 172.594C201.875 174.539 201.05 176.485 200.226 178.43L200.196 178.508C200.159 178.573 200.14 178.646 200.14 178.721C200.14 178.796 200.159 178.869 200.196 178.934C200.233 178.999 200.287 179.053 200.351 179.091C200.415 179.129 200.488 179.15 200.563 179.151H258.149C258.927 179.151 259.713 179.175 260.508 179.151H260.609C260.722 179.149 260.831 179.103 260.91 179.021C260.989 178.94 261.032 178.83 261.03 178.717C261.028 178.603 260.982 178.495 260.9 178.416C260.819 178.337 260.709 178.294 260.595 178.295V178.295Z" fill="black"/>
<path d="M257.415 178.723H197.396L217.759 130.626H277.778L257.415 178.723Z" fill="white"/>
<path d="M257.418 178.295H199.842C199.056 178.254 198.269 178.254 197.483 178.295C197.449 178.299 197.416 178.299 197.382 178.295L197.773 178.936L199.795 174.14L204.667 162.629L210.531 148.786L215.633 136.759L217.318 132.797L217.833 131.573C217.942 131.364 218.034 131.147 218.109 130.923C218.119 130.895 218.131 130.868 218.143 130.842L217.772 131.054H275.332C276.117 131.095 276.905 131.095 277.691 131.054H277.792L277.411 130.411L275.389 135.206L270.513 146.717L264.653 160.56L259.558 172.594C258.736 174.539 257.912 176.485 257.088 178.43L257.054 178.508C256.842 179.01 257.576 179.444 257.792 178.939L259.814 174.144L264.687 162.633L270.56 148.79L275.655 136.759C276.48 134.812 277.304 132.866 278.129 130.923L278.162 130.842C278.198 130.777 278.217 130.703 278.216 130.629C278.215 130.554 278.195 130.481 278.158 130.416C278.121 130.351 278.067 130.297 278.003 130.259C277.939 130.221 277.866 130.2 277.792 130.198H220.209C219.427 130.198 218.642 130.175 217.85 130.198H217.749C217.674 130.197 217.601 130.217 217.536 130.254C217.471 130.291 217.418 130.346 217.382 130.411L215.36 135.206L210.487 146.717L204.624 160.56L199.532 172.594C198.705 174.539 197.881 176.485 197.058 178.43L197.025 178.508C196.989 178.573 196.97 178.647 196.971 178.721C196.972 178.796 196.992 178.869 197.029 178.934C197.066 178.998 197.12 179.052 197.184 179.09C197.248 179.129 197.321 179.149 197.395 179.151H254.965C255.747 179.151 256.532 179.175 257.324 179.151H257.418C257.531 179.151 257.64 179.106 257.721 179.026C257.801 178.946 257.846 178.837 257.846 178.723C257.846 178.61 257.801 178.501 257.721 178.421C257.64 178.34 257.531 178.295 257.418 178.295Z" fill="#18C4FF"/>
<path d="M141.113 227.868C141.742 255.527 136.622 283.014 126.077 308.591C124.011 313.592 121.696 318.825 122.37 324.19C122.44 324.561 122.456 324.94 122.418 325.315C122.081 327.354 119.075 327.152 117.184 326.326C113.796 324.839 110.52 323.106 107.385 321.14C105.922 320.217 104.44 319.196 103.56 317.707C101.943 314.957 103.641 312.315 104.504 309.242C107.2 299.577 108.787 288.925 109.282 278.914C109.505 274.391 109.333 269.856 109.619 265.337C110.225 255.772 112.851 246.444 117.322 237.967" fill="black"/>
<path d="M140.783 227.868C140.904 234.638 140.679 241.41 140.109 248.158C139.536 254.924 138.637 261.65 137.413 268.336C136.18 274.961 134.621 281.514 132.736 287.995C130.842 294.497 128.621 300.898 126.081 307.176C124.82 310.293 123.415 313.373 122.536 316.628C122.09 318.225 121.822 319.866 121.737 321.521C121.701 322.323 121.726 323.126 121.811 323.924C121.878 324.53 122.081 325.272 121.656 325.801C121.08 326.512 119.83 326.438 119.031 326.303C117.646 326.074 116.369 325.379 115.115 324.776C112.08 323.377 109.167 321.726 106.408 319.84C105.222 319 104.049 317.919 103.601 316.487C103.153 315.054 103.601 313.535 104.079 312.153C105.12 309.042 105.984 305.875 106.667 302.667C108.109 296.017 109.09 289.275 109.602 282.489C109.872 278.994 109.939 275.5 109.99 271.995C109.97 268.519 110.138 265.044 110.495 261.586C111.284 255.017 113.04 248.6 115.705 242.543C116.349 241.084 117.029 239.622 117.774 238.21C118.094 237.597 117.164 237.051 116.841 237.664C113.692 243.614 111.44 249.997 110.158 256.606C109.515 259.956 109.121 263.35 108.979 266.759C108.821 270.442 108.898 274.132 108.77 277.818C108.529 284.799 107.754 291.751 106.452 298.613C105.805 302.02 105.03 305.403 104.093 308.743C103.308 311.577 101.488 314.64 102.896 317.568C103.547 318.916 104.716 319.927 105.929 320.79C107.297 321.754 108.76 322.603 110.216 323.425C111.746 324.292 113.306 325.103 114.896 325.858C116.123 326.444 117.373 327.111 118.728 327.344C119.759 327.519 120.955 327.556 121.882 327.007C122.317 326.747 122.652 326.348 122.832 325.875C123.105 325.157 122.92 324.409 122.856 323.668C122.546 320.23 123.456 316.851 124.635 313.653C125.814 310.455 127.236 307.287 128.466 304.076C129.696 300.864 130.869 297.552 131.937 294.243C134.07 287.656 135.853 280.961 137.278 274.186C138.698 267.421 139.768 260.589 140.486 253.714C141.201 246.83 141.545 239.912 141.518 232.99C141.518 231.283 141.491 229.575 141.437 227.868C141.42 227.794 141.378 227.727 141.318 227.68C141.259 227.632 141.184 227.606 141.108 227.606C141.032 227.606 140.958 227.632 140.898 227.68C140.838 227.727 140.797 227.794 140.78 227.868H140.783Z" fill="black"/>
<path d="M140.783 227.868C140.904 234.638 140.679 241.41 140.109 248.158C139.536 254.924 138.637 261.65 137.413 268.336C136.18 274.961 134.621 281.514 132.736 287.995C130.842 294.497 128.621 300.898 126.081 307.176C124.82 310.293 123.415 313.373 122.536 316.628C122.09 318.225 121.822 319.866 121.737 321.521C121.701 322.323 121.726 323.126 121.811 323.924C121.878 324.53 122.081 325.272 121.656 325.801C121.08 326.512 119.83 326.438 119.031 326.303C117.646 326.074 116.369 325.379 115.115 324.776C112.08 323.377 109.167 321.726 106.408 319.84C105.222 319 104.049 317.919 103.601 316.487C103.153 315.054 103.601 313.535 104.079 312.153C105.12 309.042 105.984 305.875 106.667 302.667C108.109 296.017 109.09 289.275 109.602 282.489C109.872 278.994 109.939 275.5 109.99 271.995C109.97 268.519 110.138 265.044 110.495 261.586C111.284 255.017 113.04 248.6 115.705 242.543C116.349 241.084 117.029 239.622 117.774 238.21C118.094 237.597 117.164 237.051 116.841 237.664C113.692 243.614 111.44 249.997 110.158 256.606C109.515 259.956 109.121 263.35 108.979 266.759C108.821 270.442 108.898 274.132 108.77 277.818C108.529 284.799 107.754 291.751 106.452 298.613C105.805 302.02 105.03 305.403 104.093 308.743C103.308 311.577 101.488 314.64 102.896 317.568C103.547 318.916 104.716 319.927 105.929 320.79C107.297 321.754 108.76 322.603 110.216 323.425C111.746 324.292 113.306 325.103 114.896 325.858C116.123 326.444 117.373 327.111 118.728 327.344C119.759 327.519 120.955 327.556 121.882 327.007C122.317 326.747 122.652 326.348 122.832 325.875C123.105 325.157 122.92 324.409 122.856 323.668C122.546 320.23 123.456 316.851 124.635 313.653C125.814 310.455 127.236 307.287 128.466 304.076C129.696 300.864 130.869 297.552 131.937 294.243C134.07 287.656 135.853 280.961 137.278 274.186C138.698 267.421 139.768 260.589 140.486 253.714C141.201 246.83 141.545 239.912 141.518 232.99C141.518 231.283 141.491 229.575 141.437 227.868C141.42 227.794 141.378 227.727 141.318 227.68C141.259 227.632 141.184 227.606 141.108 227.606C141.032 227.606 140.958 227.632 140.898 227.68C140.838 227.727 140.797 227.794 140.78 227.868H140.783Z" fill="black"/>
<path d="M85.9941 317.551H83.9419V235.43H85.9941V317.551Z" fill="black" stroke="black" stroke-width="1.69" stroke-miterlimit="10"/>
<path d="M108.356 327.957H61.5835C61.3723 327.956 61.17 327.872 61.021 327.722C60.8719 327.572 60.7883 327.37 60.7883 327.158V322.805C60.7883 321.347 61.3673 319.949 62.398 318.918C63.4288 317.888 64.8267 317.309 66.2844 317.309H103.655C105.113 317.309 106.511 317.888 107.542 318.918C108.572 319.949 109.151 321.347 109.151 322.805V327.158C109.151 327.37 109.067 327.573 108.917 327.723C108.768 327.873 108.565 327.957 108.353 327.957H108.356Z" fill="black" stroke="black" stroke-width="1.69" stroke-miterlimit="10"/>
<path d="M214.427 328.554H212.375V187.909H214.427V328.554Z" fill="black" stroke="black" stroke-width="1.69" stroke-miterlimit="10"/>
<path d="M156.851 328.554H154.798V187.909H156.851V328.554Z" fill="black" stroke="black" stroke-width="1.69" stroke-miterlimit="10"/>
<path d="M145.915 183.377H293.636V188.489H145.915V183.377Z" fill="black"/>
<path d="M145.915 189.345H287.641C289.555 189.345 291.473 189.378 293.37 189.345H293.619C293.845 189.341 294.061 189.25 294.221 189.09C294.381 188.93 294.472 188.715 294.475 188.489V183.377C294.472 183.151 294.381 182.935 294.221 182.775C294.061 182.616 293.845 182.524 293.619 182.521H151.91C149.999 182.521 148.079 182.484 146.181 182.521H145.929C145.703 182.524 145.487 182.616 145.327 182.775C145.168 182.935 145.076 183.151 145.073 183.377V188.489C145.073 189.587 146.785 189.591 146.785 188.489V183.377L145.929 184.233H287.641C289.542 184.233 291.486 184.351 293.37 184.233H293.619L292.764 183.377V188.489L293.619 187.633H151.91C149.999 187.633 148.079 187.596 146.181 187.633C146.097 187.633 146.013 187.633 145.929 187.633C144.813 187.633 144.813 189.345 145.915 189.345V189.345Z" fill="black"/>
<path d="M182.579 182.069C184.408 182.936 186.45 183.253 188.456 182.984C190.462 182.715 192.348 181.871 193.884 180.553C194.303 180.178 194.692 179.771 195.047 179.336C195.222 179.131 196.145 178.227 196.263 178.962C196.351 179.515 197.19 179.279 197.106 178.73C197.059 178.505 196.945 178.3 196.778 178.143C196.611 177.985 196.399 177.883 196.172 177.85C195.929 177.814 195.68 177.835 195.446 177.912C195.212 177.988 194.999 178.118 194.824 178.292C194.407 178.655 194.09 179.131 193.696 179.518C193.311 179.89 192.895 180.229 192.452 180.529C190.688 181.724 188.598 182.344 186.467 182.305C185.231 182.296 184.01 182.038 182.875 181.547C182.538 181.398 182.235 181.884 182.579 182.056V182.069Z" fill="black"/>
<path d="M199.212 175.495C198.087 174.093 196.455 173.191 194.669 172.984C194.575 172.985 194.484 173.023 194.418 173.09C194.351 173.157 194.313 173.247 194.312 173.342C194.315 173.435 194.353 173.525 194.419 173.591C194.486 173.658 194.575 173.696 194.669 173.699C196.274 173.893 197.748 174.679 198.804 175.903C199.053 176.189 199.437 175.781 199.212 175.495V175.495Z" fill="black"/>
<path d="M197.396 170.238C195.943 170.125 194.482 170.177 193.042 170.393C192.991 170.396 192.942 170.409 192.897 170.433C192.853 170.457 192.814 170.491 192.785 170.532C192.755 170.573 192.735 170.62 192.726 170.67C192.717 170.72 192.719 170.771 192.733 170.82C192.746 170.868 192.771 170.913 192.804 170.952C192.837 170.99 192.879 171.02 192.925 171.04C192.972 171.06 193.022 171.069 193.073 171.066C193.123 171.064 193.172 171.051 193.217 171.027C194.6 170.821 195.999 170.75 197.396 170.814C197.77 170.831 197.763 170.265 197.396 170.238Z" fill="black"/>
<path d="M194.875 167.111C193.79 167.142 192.717 167.338 191.69 167.69C191.61 167.716 191.543 167.771 191.501 167.844C191.459 167.916 191.446 168.002 191.465 168.084C191.491 168.164 191.546 168.231 191.619 168.272C191.692 168.313 191.777 168.325 191.859 168.307C192.828 167.951 193.844 167.743 194.875 167.69C195.246 167.67 195.249 167.097 194.875 167.111V167.111Z" fill="black"/>
<path d="M192.883 163.579C189.911 164.099 187.167 165.509 185.015 167.623C184.647 167.98 185.213 168.547 185.574 168.183C187.634 166.162 190.22 164.761 193.038 164.139C193.405 164.055 193.244 163.519 192.883 163.579V163.579Z" fill="black"/>
<path d="M184.462 164.446C183.253 165.239 182.245 166.303 181.517 167.552C180.816 168.755 180.223 170.248 180.213 171.674C180.213 172.132 180.958 172.263 181.035 171.785C181.119 171.127 181.244 170.476 181.409 169.834C181.598 169.197 181.854 168.583 182.174 168.001C182.822 166.825 183.703 165.793 184.762 164.968C185.059 164.739 184.789 164.233 184.462 164.452V164.446Z" fill="black"/>
<path d="M110.539 180.55C110.317 181.917 110.614 183.319 111.372 184.479C122.735 189.102 133.252 194.999 143.658 201.442C154.599 208.215 167.519 214.982 169.847 228.818C174.424 256.046 175.071 284.504 169.847 311.695C169.443 313.801 169.025 316.038 169.804 318.033C170.313 319.344 171.3 320.446 172.277 321.534C174.299 323.775 172.981 327.401 169.992 327.769C166.188 328.234 162.744 327.546 158.387 326.154C155.145 325.117 151.499 323.711 150.316 320.517C149.794 319.105 149.858 317.548 149.919 316.042C150.882 291.655 140.288 262.159 141.427 237.081C144.46 237.832 138.394 237.755 141.427 237.081C129.788 234.2 105.208 228.744 94.4689 223.417C90.7621 221.58 87.143 219.406 84.4269 216.296C79.6149 210.783 78.2737 203.103 77.6604 195.811C76.6866 184.273 83.8911 179.249 85.5794 167.795" fill="white"/>
<path d="M110.202 180.455C110.035 181.451 110.116 182.473 110.438 183.431C110.559 183.879 110.762 184.3 111.038 184.674C111.375 185.048 112.093 185.196 112.551 185.392C114.91 186.403 117.269 187.484 119.584 188.6C124.167 190.797 128.642 193.206 133.063 195.724C137.282 198.126 141.4 200.68 145.531 203.215C148.793 205.213 152.072 207.194 155.185 209.415C161.376 213.829 167.007 219.44 168.914 227.029C169.507 229.388 169.8 231.834 170.157 234.233C170.555 236.907 170.912 239.591 171.229 242.287C171.851 247.564 172.313 252.858 172.614 258.169C173.219 268.741 173.107 279.342 172.277 289.899C171.852 295.194 171.224 300.465 170.393 305.713C169.985 308.278 169.423 310.822 169.045 313.39C168.708 315.674 168.846 317.854 170.201 319.792C171.283 321.352 173.129 322.592 172.681 324.729C172.524 325.485 172.11 326.164 171.509 326.65C170.69 327.293 169.669 327.357 168.668 327.415C166.324 327.501 163.98 327.234 161.716 326.623C159.494 326.107 157.322 325.39 155.229 324.483C153.463 323.671 151.721 322.528 150.889 320.699C149.918 318.569 150.404 315.934 150.424 313.662C150.439 309.149 150.187 304.64 149.669 300.156C148.638 290.704 146.838 281.36 145.224 272.002C143.61 262.644 142.104 253.212 141.838 243.696C141.777 241.487 141.794 239.28 141.888 237.074C141.887 237.007 141.87 236.94 141.839 236.88C141.809 236.82 141.765 236.767 141.711 236.727C141.657 236.686 141.595 236.658 141.529 236.644C141.463 236.631 141.394 236.633 141.329 236.649C140.992 236.73 140.385 236.815 140.193 237.172C140.001 237.529 140.257 237.846 140.584 237.95C141.056 238.119 142.053 238.176 142.491 237.886C143.617 237.135 141.403 236.609 141.039 236.521C139.493 236.14 137.944 235.763 136.392 235.393C128.352 233.455 120.308 231.514 112.355 229.239C104.891 227.106 97.215 224.859 90.5664 220.734C86.1857 218.015 82.8159 214.331 80.912 209.503C79.1294 205.007 78.3914 200.067 78.0881 195.255C77.8118 190.895 78.8834 186.807 80.6357 182.851C82.3037 179.087 84.2279 175.437 85.2995 171.441C85.6098 170.274 85.8551 169.09 86.0341 167.896C86.1183 167.323 85.2456 167.077 85.1579 167.653C84.5244 171.835 82.9777 175.677 81.1984 179.485C79.5944 182.905 77.9871 186.352 77.4108 190.12C76.7369 194.409 77.3737 198.918 78.1859 203.15C79.0249 207.531 80.5043 211.912 83.2405 215.507C87.9582 221.688 95.8064 224.832 102.954 227.265C110.519 229.839 118.28 231.848 126.033 233.778C129.585 234.665 133.144 235.517 136.702 236.377C138.168 236.714 139.637 237.081 141.103 237.445C141.362 237.558 141.635 237.636 141.915 237.677C141.932 237.677 141.966 237.711 141.976 237.708C141.986 237.704 142.09 237.175 142.03 237.131C142.03 237.131 141.986 237.165 141.929 237.131C141.633 237.094 141.334 237.094 141.039 237.131C140.999 237.131 140.894 237.081 140.864 237.098C140.833 237.115 140.793 237.65 140.881 237.684C141.111 237.64 141.337 237.573 141.555 237.485L140.995 237.057C140.584 246.516 141.75 255.975 143.223 265.299C144.766 275.038 146.724 284.706 148.089 294.472C148.763 299.189 149.265 303.907 149.47 308.662C149.568 310.906 149.595 313.15 149.521 315.401C149.447 317.652 149.271 319.93 150.532 321.888C152.688 325.258 157.436 326.447 161.049 327.404C163.284 328.036 165.594 328.36 167.916 328.368C169.706 328.348 171.562 328.22 172.772 326.741C173.246 326.158 173.559 325.462 173.68 324.722C173.802 323.981 173.728 323.222 173.466 322.518C173.129 321.615 172.439 320.975 171.825 320.247C171.006 319.28 170.282 318.225 170.019 316.961C169.487 314.4 170.397 311.62 170.845 309.107C171.316 306.449 171.735 303.782 172.102 301.107C173.542 290.424 174.196 279.65 174.06 268.871C173.918 258.09 173.099 247.328 171.61 236.649C170.98 232.067 170.555 227.285 168.722 222.995C167.176 219.529 164.969 216.397 162.225 213.775C156.624 208.259 149.575 204.424 142.926 200.343C133.993 194.864 124.82 189.729 115.173 185.611C114.638 185.386 114.102 185.161 113.565 184.937C113.019 184.711 112.248 184.546 111.769 184.206C110.836 183.548 110.758 181.624 110.896 180.627C110.957 180.189 110.286 179.99 110.222 180.442L110.202 180.455Z" fill="black"/>
<path d="M96.9287 118.889C97.8073 117.259 98.5447 115.557 99.1326 113.801C99.8404 111.837 100.389 109.82 100.774 107.769C100.962 106.797 101.063 105.81 101.077 104.82C101.077 104.146 100.005 104.146 100.019 104.82C100.056 107.179 99.4999 109.565 98.8731 111.826C98.2702 114.149 97.423 116.401 96.3458 118.546C96.1436 118.933 96.7164 119.27 96.9287 118.883V118.889Z" fill="black"/>
<path d="M93.4172 119.411L94.9101 115.438C95.0125 115.075 95.2063 114.743 95.4728 114.475C95.8536 114.155 96.3961 114.138 96.8949 114.138C102.785 114.182 108.535 115.938 113.444 119.192C114.29 119.758 115.206 120.621 114.957 121.605L118.836 122.825C120.335 123.297 123.048 125.474 124.204 126.532C125.504 127.728 124.969 127.795 125.551 129.463C126.225 131.431 126.92 133.416 127.172 135.482C127.53 138.4 127.014 141.352 126.397 144.223C125.149 150.017 123.487 155.715 121.423 161.271C120.514 163.717 119.513 166.157 118.037 168.307C116.905 169.955 115.183 176.849 113.754 178.248C111.732 180.239 111.634 180.064 108.821 180.472C99.7524 181.793 98.1417 180.559 96.6388 180.472C91.8638 180.192 93.0668 176.381 88.6423 174.554C85.4612 173.244 82.3812 171.522 80.0695 168.957C78.2735 166.979 77.003 164.577 75.9517 162.127C75.2332 160.578 74.7331 158.937 74.4656 157.251C74.1691 154.936 74.5903 152.59 75.0957 150.309C76.1404 145.622 77.5557 141.005 78.1623 136.24C78.4116 134.279 78.5262 132.284 79.126 130.404C80.083 127.394 82.2565 124.85 84.8984 123.118C87.5403 121.386 90.6271 120.422 93.7576 119.971" fill="black"/>
<path d="M93.7545 119.502L94.8093 116.844C94.9811 116.412 95.1463 115.981 95.3215 115.55C95.4698 115.189 95.6248 114.822 96.0224 114.687C96.3793 114.599 96.7492 114.576 97.1142 114.62C97.5523 114.62 97.9937 114.653 98.4318 114.684C99.2844 114.738 100.137 114.829 100.983 114.963C104.335 115.492 107.575 116.578 110.57 118.175C111.409 118.62 112.231 119.105 113.023 119.627C113.586 120.001 114.549 120.655 114.371 121.45C114.334 121.602 114.356 121.762 114.433 121.898C114.51 122.034 114.636 122.135 114.785 122.181L117.501 123.037C118.161 123.21 118.804 123.446 119.419 123.742C120.584 124.397 121.683 125.166 122.698 126.036C123.395 126.613 124.409 127.3 124.591 128.143C124.699 128.697 124.838 129.245 125.009 129.784C125.306 130.643 125.602 131.502 125.862 132.375C126.421 134.172 126.694 136.046 126.671 137.928C126.592 139.81 126.342 141.68 125.922 143.515C125.158 147.182 124.211 150.811 123.109 154.39C122.034 157.884 120.901 161.433 119.355 164.752C118.979 165.56 118.56 166.347 118.101 167.111C117.818 167.572 117.488 168.01 117.242 168.492C116.808 169.407 116.431 170.348 116.113 171.309C115.705 172.452 115.318 173.601 114.89 174.736C114.581 175.664 114.172 176.556 113.67 177.395C113.602 177.517 113.519 177.63 113.424 177.732C113.218 177.948 112.989 178.147 112.75 178.346C112.412 178.669 112.039 178.954 111.638 179.195C111.509 179.277 111.368 179.339 111.22 179.38C111.017 179.444 110.81 179.494 110.6 179.528C110.054 179.626 109.488 179.673 108.915 179.741C106.219 180.078 103.524 180.415 100.787 180.297C100.393 180.297 100.002 180.246 99.6112 180.202L99.3787 180.172C99.5539 180.196 99.3956 180.172 99.3147 180.172L98.8665 180.094L98.6845 180.067L98.4857 180.041L98.1251 179.983L97.522 179.879C97.2495 179.814 96.9681 179.796 96.6896 179.825H97.0704C96.3223 179.724 95.5675 179.72 94.8598 179.414C94.2455 179.123 93.7138 178.682 93.3131 178.133C92.8043 177.459 92.3729 176.762 91.8304 176.111C91.1998 175.363 90.4281 174.746 89.5592 174.295C88.4067 173.702 87.1801 173.284 86.031 172.667C84.8608 172.061 83.7437 171.358 82.6916 170.565C80.5685 168.883 78.8426 166.753 77.6369 164.327C76.3496 161.857 75.1095 159.101 74.9781 156.28C74.8366 153.247 75.7094 150.235 76.4305 147.327C77.1617 144.368 77.9402 141.416 78.4524 138.41C78.9376 135.59 78.9174 132.591 79.9654 129.895C80.8415 127.647 82.5466 125.676 84.4438 124.213C86.6005 122.552 89.2087 121.518 91.8574 120.941C92.5313 120.79 93.2053 120.665 93.8994 120.564C94.0558 120.52 94.1885 120.416 94.2686 120.274C94.3488 120.133 94.3699 119.966 94.3274 119.809C94.2811 119.654 94.1768 119.523 94.0363 119.442C93.8958 119.362 93.7297 119.339 93.5726 119.378C87.5979 120.261 81.4784 123.152 78.9511 128.968C78.3404 130.477 77.9489 132.066 77.7885 133.686C77.5729 135.394 77.401 137.096 77.091 138.791C76.4575 142.245 75.5139 145.628 74.7321 149.045C73.9503 152.462 73.2831 155.93 74.2772 159.387C74.749 160.94 75.3498 162.45 76.0733 163.903C76.7441 165.336 77.551 166.701 78.4827 167.98C80.3673 170.442 82.7872 172.442 85.5592 173.83C86.2332 174.194 86.9543 174.528 87.6721 174.841C88.303 175.088 88.9136 175.385 89.4985 175.727C90.309 176.28 90.9973 176.993 91.5204 177.823C91.9839 178.604 92.5506 179.32 93.2053 179.95C94.0985 180.664 95.1879 181.091 96.329 181.173C96.4793 181.199 96.6315 181.211 96.784 181.21C96.9895 181.21 96.6458 181.21 96.5852 181.142C96.6671 181.195 96.7609 181.226 96.8581 181.233C97.0232 181.277 97.1951 181.314 97.3602 181.355C97.8305 181.49 98.3088 181.596 98.7924 181.672L98.9912 181.698L99.2001 181.725L99.6854 181.776C100.053 181.81 100.423 181.83 100.794 181.843C101.777 181.878 102.762 181.856 103.743 181.779C105.212 181.668 106.678 181.523 108.123 181.324C108.838 181.227 109.552 181.099 110.263 180.987C110.683 180.928 111.098 180.835 111.503 180.708C112.406 180.398 113.1 179.764 113.768 179.1C114.361 178.499 114.839 177.794 115.18 177.021C116.106 175.043 116.743 172.944 117.505 170.902C117.751 170.145 118.074 169.416 118.469 168.725C119.322 167.403 120.079 166.021 120.733 164.59C122.087 161.422 123.256 158.178 124.234 154.875C125.259 151.557 126.143 148.198 126.886 144.799C127.638 141.352 128.234 137.831 127.584 134.316C127.211 132.621 126.722 130.953 126.121 129.325C125.818 128.432 125.818 127.482 125.201 126.727C124.49 125.854 123.516 125.147 122.62 124.466C121.682 123.689 120.655 123.026 119.56 122.491C118.919 122.228 118.263 122.003 117.596 121.817L115.112 121.036L115.527 121.767C115.928 119.816 113.778 118.657 112.376 117.831C110.735 116.867 109.005 116.062 107.21 115.428C105.373 114.771 103.475 114.293 101.545 114.003C100.609 113.857 99.6663 113.756 98.7182 113.7C97.822 113.592 96.9153 113.604 96.0224 113.737C94.9643 113.962 94.6745 114.872 94.3375 115.786C93.9197 116.96 93.5029 118.139 93.0873 119.32C92.9357 119.745 93.5962 119.91 93.7613 119.502H93.7545Z" fill="black"/>
<path d="M122.158 87.5503C122.559 88.6935 122.719 89.9075 122.627 91.1155C122.583 92.3758 122.475 93.6361 122.438 94.8997C122.367 96.21 122.428 97.5241 122.62 98.8222C122.825 99.979 123.207 101.097 123.752 102.138C123.923 102.383 124.066 102.646 124.177 102.923C124.234 103.193 124.008 103.392 123.813 103.526C123.373 103.762 123.004 104.111 122.744 104.537C122.343 105.37 122.485 106.499 122.458 107.402C122.401 109.289 122.34 111.375 121.424 113.076C121.2 113.536 120.882 113.943 120.491 114.271C120.099 114.6 119.643 114.843 119.152 114.984C117.976 115.294 116.699 115.068 115.533 114.825C114.893 114.694 114.62 115.671 115.264 115.806C117.383 116.247 119.806 116.48 121.45 114.795C122.91 113.282 123.27 111.048 123.412 109.036C123.482 108.025 123.486 106.987 123.52 105.963C123.52 105.451 123.54 104.969 123.974 104.615C124.409 104.261 124.931 104.035 125.12 103.425C125.329 102.751 124.992 102.307 124.696 101.74C124.39 101.173 124.135 100.58 123.934 99.9679C123.557 98.6876 123.364 97.36 123.361 96.0253C123.324 94.4987 123.422 92.9925 123.418 91.4491C123.418 90.0338 123.297 88.6016 122.704 87.3009C122.566 87.001 122.03 87.2166 122.165 87.5267L122.158 87.5503Z" fill="black"/>
<path d="M121.002 98.0103C120.997 98.0112 120.991 98.0135 120.986 98.017C120.982 98.0204 120.978 98.025 120.975 98.0303C120.972 98.0356 120.971 98.0414 120.971 98.0473C120.971 98.0532 120.973 98.059 120.975 98.0642C120.979 98.0713 120.985 98.077 120.993 98.0801C121 98.0831 121.008 98.0835 121.016 98.081C121.04 98.081 121.043 98.017 121.016 98.0103" fill="black"/>
<path d="M120.753 97.6598L120.857 97.616L120.749 97.6598C120.717 97.6815 120.685 97.7051 120.655 97.7306L120.584 97.825L120.537 97.9362L120.52 98.0642L120.537 98.1956C120.55 98.2578 120.581 98.3151 120.625 98.3608C120.645 98.3978 120.675 98.4282 120.712 98.4484C120.758 98.4926 120.815 98.5229 120.878 98.536H121.009C121.145 98.5332 121.275 98.479 121.373 98.3843C121.373 98.3843 121.447 98.2866 121.45 98.2832C121.46 98.2637 121.468 98.2434 121.474 98.2226C121.484 98.2029 121.493 98.1826 121.501 98.1619L121.518 98.0305C121.517 97.984 121.512 97.9376 121.501 97.8924L121.45 97.7744L121.373 97.6733C121.34 97.6424 121.304 97.6153 121.265 97.5924C121.148 97.5286 121.011 97.5106 120.881 97.5419C120.818 97.5543 120.759 97.5848 120.712 97.6295C120.658 97.6647 120.614 97.7135 120.584 97.771L120.534 97.889C120.51 97.9761 120.51 98.068 120.534 98.1552L120.584 98.2731C120.628 98.3468 120.689 98.4083 120.763 98.4517L120.662 98.3742L120.584 98.2731L120.534 98.1518L120.517 98.0204L120.534 97.889L120.584 97.771L120.662 97.6699L120.76 97.5924L120.874 97.5453L121.002 97.5284L121.134 97.5453L121.002 97.5284C120.937 97.5245 120.872 97.5385 120.814 97.5689C120.773 97.5814 120.736 97.6034 120.706 97.6329C120.652 97.6677 120.608 97.7152 120.578 97.771L120.655 97.6733L120.753 97.5992L120.864 97.552L120.989 97.5352L121.11 97.552L121.218 97.5958L121.306 97.6632L121.373 97.7508C121.311 97.6566 121.22 97.5854 121.113 97.5486H120.995C120.918 97.5484 120.843 97.5694 120.776 97.6093L120.753 97.6598Z" fill="black"/>
<path d="M123.119 95.3851C122.768 94.8118 122.207 94.3983 121.555 94.2327C121.198 94.1547 120.83 94.1455 120.47 94.2057C120.271 94.2207 120.079 94.2781 119.904 94.374C119.73 94.4699 119.578 94.6021 119.459 94.7617C119.42 94.8294 119.398 94.9062 119.398 94.9845C119.397 95.0628 119.417 95.1398 119.456 95.208C119.494 95.2762 119.55 95.3331 119.618 95.373C119.685 95.413 119.761 95.4346 119.84 95.4357C119.956 95.436 120.07 95.4131 120.177 95.3683C120.204 95.3683 120.241 95.338 120.194 95.3683L120.305 95.3279C120.429 95.2874 120.551 95.2436 120.675 95.2133L120.773 95.1931C120.804 95.1931 120.881 95.1762 120.807 95.1931C120.872 95.1841 120.937 95.1785 121.002 95.1762C121.066 95.1728 121.13 95.1728 121.194 95.1762H121.292C121.225 95.1762 121.292 95.1762 121.329 95.1762C121.556 95.2122 121.774 95.2887 121.973 95.402C122.182 95.5187 122.366 95.6769 122.512 95.867C122.58 95.9312 122.669 95.969 122.763 95.9736C122.856 95.9781 122.948 95.9493 123.023 95.8921C123.097 95.8349 123.148 95.7531 123.168 95.6615C123.187 95.5698 123.173 95.4742 123.129 95.3919L123.119 95.3851Z" fill="black"/>
<path d="M120.702 107.159C120.672 107.133 120.642 107.105 120.615 107.075L120.517 106.994C120.463 106.957 120.561 107.031 120.517 106.994L120.332 106.836C120.212 106.723 120.1 106.604 119.995 106.479C119.968 106.452 119.948 106.418 119.921 106.391C120.005 106.479 119.921 106.391 119.9 106.361C119.88 106.33 119.809 106.226 119.769 106.158C119.683 106.017 119.606 105.869 119.54 105.717C119.486 105.625 119.399 105.557 119.297 105.528C119.207 105.506 119.113 105.513 119.028 105.548C118.936 105.587 118.861 105.657 118.818 105.746C118.774 105.836 118.765 105.938 118.792 106.034C118.938 106.406 119.15 106.748 119.418 107.045C119.551 107.188 119.698 107.316 119.857 107.429C119.922 107.481 119.991 107.529 120.062 107.574C120.157 107.629 120.258 107.674 120.362 107.708C120.432 107.728 120.507 107.723 120.575 107.696C120.643 107.669 120.7 107.621 120.738 107.559C120.776 107.496 120.793 107.423 120.786 107.351C120.779 107.278 120.748 107.21 120.699 107.156L120.702 107.159Z" fill="black"/>
<path d="M114.947 114.93C114.663 115.437 114.418 115.965 114.216 116.51C113.923 117.184 113.623 117.858 113.336 118.549C112.781 119.756 112.295 120.993 111.881 122.256C111.719 122.815 112.524 123 112.733 122.488C113.229 121.262 113.71 120.028 114.209 118.802C114.479 118.128 114.735 117.454 114.984 116.797C115.221 116.251 115.39 115.678 115.486 115.092C115.517 114.788 115.085 114.721 114.947 114.943V114.93Z" fill="black"/>
<path d="M110.778 98.2596L110.856 98.3135L110.832 98.2967L110.869 98.327C110.914 98.364 110.956 98.4046 110.994 98.4483L111.051 98.5124C111.085 98.5562 111.051 98.5124 111.051 98.5124C111.06 98.5253 111.069 98.5377 111.078 98.5494C111.112 98.6 111.142 98.6471 111.173 98.7011L111.21 98.7752C111.218 98.7891 111.225 98.8038 111.23 98.819C111.23 98.819 111.2 98.7449 111.23 98.7887C111.26 98.8325 111.267 98.8999 111.284 98.9572C111.301 99.0145 111.307 99.0717 111.318 99.129L111.338 99.22C111.338 99.22 111.338 99.2436 111.338 99.2571C111.307 99.129 111.338 99.2874 111.338 99.311C111.363 99.3738 111.406 99.4278 111.462 99.4658C111.518 99.5038 111.584 99.5241 111.651 99.5241C111.719 99.5241 111.785 99.5038 111.841 99.4658C111.897 99.4278 111.94 99.3738 111.965 99.311C112.013 98.9783 111.938 98.6395 111.756 98.3574C111.602 98.0918 111.384 97.8692 111.122 97.7103C111.085 97.6761 111.041 97.6505 110.993 97.6355C110.945 97.6205 110.895 97.6164 110.845 97.6235C110.795 97.6307 110.748 97.6488 110.706 97.6767C110.664 97.7046 110.629 97.7415 110.603 97.7847C110.577 97.8279 110.562 97.8764 110.557 97.9264C110.552 97.9765 110.559 98.027 110.577 98.0741C110.594 98.1213 110.622 98.1639 110.658 98.1989C110.694 98.2339 110.738 98.2604 110.785 98.2765L110.778 98.2596Z" fill="black"/>
<path d="M109.252 211.737C108.915 203.919 107.042 196.209 105.505 188.57C102.647 174.363 103.082 159.077 96.3426 145.911C89.0639 131.728 73.8898 125.507 58.4595 126.208C16.435 128.102 25.6884 186.268 32.1213 212.95C35.7102 227.827 43.7808 238.924 59.4166 241.593C83.005 245.603 107.301 248.518 130.735 243.689C135.567 242.678 140.952 240.862 142.866 236.316C144.746 231.875 142.29 226.544 138.468 223.605C134.647 220.667 129.778 219.524 125.08 218.419C120.383 217.314 112.949 214.837 109.242 211.747" fill="#18C4FF"/>
<path d="M109.548 211.737C109.212 202.672 106.741 193.954 105.286 185.051C103.938 176.913 103.412 168.654 101.758 160.567C100.214 153.028 97.6296 145.49 92.7063 139.462C88.4705 134.269 82.7385 130.488 76.4539 128.247C70.1352 126.043 63.4204 125.207 56.7541 125.794C52.0162 126.192 47.3188 127.395 43.1604 129.757C39.5008 131.87 36.3608 134.777 33.9711 138.262C31.501 141.821 29.7824 145.874 28.5794 150.026C27.3179 154.57 26.5275 159.231 26.2206 163.936C25.8825 168.904 25.8746 173.889 26.197 178.858C26.4868 183.768 27.036 188.657 27.7572 193.52C28.4177 197.961 29.2197 202.377 30.1632 206.766C31.2146 211.706 32.3097 216.667 34.244 221.351C36.5018 226.82 39.8142 231.912 44.4679 235.639C46.8148 237.51 49.4269 239.021 52.2184 240.124C55.5882 241.472 59.0827 242.051 62.631 242.638C71.6452 244.117 80.7032 245.391 89.8117 246.105C98.8562 246.809 107.961 246.958 117.006 246.166C121.509 245.778 125.986 245.139 130.418 244.252C133.679 243.578 137.069 242.695 139.809 240.734C142.549 238.773 144.22 235.817 143.994 232.444C143.765 229.007 141.844 225.758 139.233 223.571C136.234 221.064 132.439 219.76 128.709 218.786C125.262 217.887 121.814 217.128 118.458 215.922C115.371 214.813 112.136 213.496 109.582 211.393C109.104 210.999 108.413 211.683 108.908 212.067C111.439 214.153 114.559 215.494 117.609 216.63C120.841 217.833 124.15 218.652 127.489 219.47C131.27 220.411 135.172 221.583 138.272 224.037C140.925 226.133 142.96 229.405 143.031 232.848C143.196 240.636 133.892 242.621 127.937 243.699C119.176 245.283 110.249 245.812 101.353 245.647C92.3973 245.426 83.4621 244.679 74.5938 243.409C70.1288 242.803 65.6773 242.105 61.2326 241.361C57.9066 240.805 54.6514 240.097 51.5546 238.725C46.2595 236.344 41.775 232.469 38.6517 227.575C35.4605 222.652 33.6172 217.091 32.2862 211.42C31.3539 207.439 30.5226 203.437 29.7925 199.414C28.9669 194.824 28.2896 190.204 27.8077 185.567C27.2879 180.716 27.0269 175.841 27.0259 170.962C27.0045 166.212 27.3742 161.468 28.1312 156.779C28.8658 152.445 30.0048 148.139 31.838 144.132C33.4945 140.378 35.8791 136.99 38.8539 134.164C42.0039 131.292 45.7838 129.198 49.8899 128.052C55.3759 126.471 61.2831 126.32 66.9208 127.041C73.4683 127.86 79.8877 130.107 85.2962 133.929C91.0956 138.023 95.2033 143.789 97.7913 150.36C100.76 157.908 101.872 165.992 102.89 173.992C103.395 177.965 103.884 181.941 104.575 185.887C105.33 190.19 106.357 194.443 107.196 198.729C108.09 203.02 108.675 207.369 108.945 211.744C108.966 212.124 109.555 212.128 109.542 211.744L109.548 211.737Z" fill="#18C4FF"/>
<path d="M288.679 328.554H286.627V187.909H288.679V328.554Z" fill="black" stroke="black" stroke-width="1.69" stroke-miterlimit="10"/>
<path d="M231.104 328.554H229.051V187.909H231.104V328.554Z" fill="black" stroke="black" stroke-width="1.69" stroke-miterlimit="10"/>
<path d="M159.877 228.353C159.341 230.318 158.173 232.053 156.554 233.289C156.234 233.535 156.554 234.085 156.874 233.835C158.617 232.5 159.869 230.626 160.436 228.504C160.455 228.43 160.445 228.352 160.406 228.286C160.368 228.22 160.305 228.172 160.231 228.152C160.158 228.132 160.079 228.142 160.013 228.179C159.946 228.217 159.897 228.279 159.877 228.353V228.353Z" fill="#18C4FF"/>
<path d="M156.399 226.965C155.684 228.831 154.439 230.448 152.817 231.615C152.507 231.837 152.817 232.356 153.117 232.13C154.861 230.875 156.196 229.133 156.955 227.123C157.086 226.786 156.527 226.624 156.399 226.968V226.965Z" fill="#18C4FF"/>
<path d="M115.722 191.909C116.06 193.019 116.114 194.196 115.878 195.333C115.643 196.469 115.126 197.528 114.374 198.412C114.061 198.77 114.58 199.295 114.897 198.935C116.582 197.031 117.239 194.15 116.302 191.747C116.16 191.387 115.598 191.521 115.709 191.909H115.722Z" fill="#18C4FF"/>
<path d="M122.185 124.651C129.12 128.051 133.518 144.226 135.014 154.673C135.139 155.532 135.273 156.459 135.877 157.086C136.396 157.621 137.161 157.827 137.899 158.009L172.499 166.713C174.899 167.316 177.793 168.465 177.992 170.932C179.65 170.238 181.611 171.468 182.373 173.105C183.134 174.743 182.986 176.63 182.835 178.426C182.71 179.912 182.521 181.54 181.446 182.578C180.371 183.616 178.12 183.397 177.847 181.928C177.598 184.711 174.016 185.634 171.226 185.745C159.262 186.286 147.273 185.655 135.432 183.862C132.439 183.407 129.366 182.851 126.798 181.257C123.907 179.471 121.916 176.563 120.12 173.678C113.342 162.757 108.155 150.926 104.716 138.542" fill="black"/>
<path d="M122.037 124.904C123.507 125.739 124.773 126.89 125.744 128.274C126.987 129.985 128.038 131.828 128.878 133.77C130.869 138.188 132.231 142.899 133.285 147.623C133.777 149.834 134.192 152.06 134.529 154.302C134.711 155.529 134.825 156.893 135.904 157.692C136.473 158.062 137.108 158.318 137.774 158.447L140.217 159.054C146.876 160.738 153.537 162.423 160.2 164.108L170.141 166.615C171.509 166.91 172.859 167.283 174.184 167.734C175.195 168.118 176.287 168.664 176.948 169.557C177.249 169.958 177.436 170.433 177.487 170.932C177.514 171.205 177.773 171.512 178.086 171.39C179.172 170.962 180.304 171.39 181.119 172.186C182.059 173.109 182.383 174.423 182.44 175.707C182.496 177.072 182.408 178.438 182.177 179.784C182.002 180.816 181.625 182.143 180.56 182.585C179.765 182.922 178.494 182.794 178.279 181.803C178.154 181.244 177.399 181.432 177.345 181.928C177.099 184.286 174.08 184.991 172.152 185.2C170.545 185.372 168.911 185.368 167.3 185.405C165.473 185.448 163.647 185.465 161.821 185.456C154.541 185.408 147.271 184.93 140.048 184.024C138.289 183.801 136.527 183.559 134.775 183.279C133.177 183.049 131.599 182.693 130.057 182.214C128.563 181.743 127.165 181.011 125.926 180.054C124.748 179.098 123.697 177.995 122.798 176.772C120.857 174.201 119.243 171.357 117.666 168.553C116.02 165.632 114.485 162.657 113.063 159.626C110.202 153.525 107.805 147.217 105.892 140.756C105.668 139.969 105.443 139.183 105.218 138.397C105.178 138.277 105.093 138.177 104.981 138.117C104.87 138.058 104.739 138.043 104.617 138.077C104.495 138.111 104.39 138.19 104.325 138.298C104.259 138.406 104.238 138.536 104.265 138.66C106.131 145.346 108.506 151.88 111.368 158.204C112.79 161.349 114.33 164.437 115.988 167.468C117.577 170.452 119.319 173.352 121.208 176.155C122.98 178.723 125.12 181.075 127.998 182.396C131.112 183.821 134.603 184.212 137.963 184.671C145.381 185.685 152.854 186.248 160.341 186.355C164.048 186.406 167.772 186.403 171.461 186.173C173.662 186.035 176.516 185.5 177.776 183.478C178.073 182.992 178.252 182.444 178.299 181.877L177.365 182.002C177.625 183.184 178.858 183.734 179.98 183.633C181.406 183.498 182.339 182.47 182.797 181.173C183.036 180.432 183.184 179.665 183.239 178.888C183.32 178.059 183.391 177.223 183.401 176.391C183.421 174.76 183.158 173.052 182.076 171.771C181.065 170.582 179.38 169.83 177.851 170.423L178.45 170.878C178.215 168.445 175.896 167.218 173.8 166.541C172.344 166.069 170.831 165.756 169.349 165.382L164.294 164.112C157.554 162.415 150.807 160.731 144.052 159.057L138.997 157.797C138.245 157.66 137.509 157.446 136.8 157.16C136.494 157.003 136.229 156.777 136.026 156.499C135.823 156.222 135.688 155.901 135.631 155.562C135.358 154.447 135.263 153.271 135.068 152.139C134.872 151.006 134.65 149.854 134.411 148.715C133.4 143.913 132.082 139.125 130.148 134.606C129.31 132.586 128.281 130.651 127.075 128.827C126.064 127.344 124.881 125.912 123.368 124.918C123.045 124.704 122.707 124.512 122.357 124.345C122.02 124.186 121.72 124.682 122.061 124.854L122.037 124.904Z" fill="black"/>
<path d="M111.048 101.094C110.563 100.904 110.132 100.598 109.792 100.204C109.453 99.8088 109.215 99.3369 109.1 98.8291C109 98.3185 109.061 97.7894 109.276 97.3154C109.49 96.8413 109.847 96.4458 110.296 96.1838C110.759 95.9496 111.294 95.8979 111.793 96.039C112.292 96.18 112.72 96.5035 112.992 96.9454C113.744 94.3641 116.638 93.2049 118.771 91.5537C120.34 90.3437 121.581 88.76 122.38 86.9472C122.576 87.1274 122.723 87.354 122.808 87.6061C122.893 87.8582 122.913 88.1277 122.866 88.3895C123.506 87.3078 123.91 85.9026 123.273 84.8209C122.583 83.6516 121.056 83.3921 119.759 82.9945C118.188 82.516 116.743 81.6803 115.166 81.2186C112.608 80.4705 109.875 80.7569 107.375 81.596C106.491 81.944 105.582 82.2234 104.655 82.4317C99.0616 83.3786 95.338 86.6103 94.2091 92.3052C93.4745 96.0119 95.0515 99.2368 96.8207 102.415L99.3379 106.923C99.4709 107.285 99.7321 107.585 100.072 107.767C100.412 107.949 100.806 108 101.181 107.911L104.527 107.83C105.18 107.893 105.838 107.775 106.429 107.488C107.019 107.201 107.517 106.756 107.87 106.202L110.566 103.119C110.886 102.803 111.135 102.423 111.297 102.003C111.429 101.572 111.405 101.329 111.034 101.094" fill="black"/>
<path d="M111.193 100.854C109.926 100.258 108.996 98.782 109.666 97.4037C109.794 97.1173 109.997 96.8702 110.252 96.6877C110.507 96.5053 110.806 96.3942 111.119 96.3658C111.423 96.3422 111.727 96.4034 111.999 96.5427C112.27 96.6819 112.497 96.8936 112.655 97.1544C112.697 97.2197 112.756 97.2718 112.825 97.3047C112.895 97.3375 112.973 97.3497 113.05 97.3398C113.126 97.3299 113.198 97.2983 113.257 97.2487C113.316 97.1991 113.36 97.1336 113.383 97.06C114.037 94.9337 116.207 93.8217 117.936 92.6793C120.035 91.3474 121.71 89.4427 122.761 87.1899L122.087 87.2775C122.224 87.4054 122.328 87.5635 122.392 87.7391C122.456 87.9148 122.477 88.103 122.455 88.2885C122.384 88.7468 122.984 89.0837 123.253 88.6255C123.84 87.6145 124.288 86.361 123.927 85.1984C123.59 84.1369 122.704 83.5135 121.71 83.1361C120.574 82.7014 119.395 82.4621 118.269 81.9735C116.999 81.4343 115.749 80.848 114.387 80.5784C111.577 80.0224 108.871 80.6155 106.219 81.5422C105.08 81.9398 103.894 82.0881 102.738 82.415C101.794 82.6789 100.88 83.038 100.009 83.4865C96.4501 85.3365 94.1991 88.9186 93.6701 92.8579C93.3331 95.4425 94.0711 97.9429 95.1764 100.271C95.7695 101.511 96.4535 102.701 97.1241 103.901L98.2193 105.865C98.5188 106.477 98.8564 107.069 99.2302 107.638C100.029 108.716 101.589 108.379 102.765 108.352C104.046 108.322 105.599 108.511 106.755 107.847C107.267 107.524 107.723 107.118 108.103 106.647C108.588 106.101 109.067 105.552 109.545 105.003C110.024 104.453 110.512 103.914 110.987 103.362C111.401 102.954 111.684 102.434 111.803 101.865C111.833 101.647 111.795 101.424 111.694 101.228C111.592 101.032 111.433 100.872 111.237 100.77C110.863 100.531 110.411 101.107 110.758 101.39C110.927 101.535 110.95 101.572 110.89 101.784C110.809 102.045 110.678 102.288 110.506 102.499C110.091 103.035 109.609 103.53 109.158 104.042L107.968 105.39C107.578 105.883 107.149 106.342 106.684 106.765C105.72 107.564 104.352 107.385 103.183 107.412L101.34 107.456C100.716 107.473 100.207 107.496 99.8503 106.913C99.1763 105.808 98.5765 104.635 97.9396 103.503C97.3398 102.428 96.7265 101.36 96.1738 100.258C95.1629 98.2057 94.3575 95.9851 94.4889 93.6565C94.6877 90.1149 96.622 86.6272 99.638 84.7435C101.141 83.8371 102.803 83.2232 104.534 82.9339C105.761 82.7081 106.893 82.2195 108.083 81.869C109.286 81.5034 110.532 81.3006 111.789 81.2659C113.199 81.2347 114.602 81.475 115.921 81.9735C117.208 82.4554 118.431 83.0923 119.752 83.4865C120.726 83.7797 121.929 83.965 122.65 84.7536C123.547 85.7376 123.068 87.1798 122.488 88.1941L123.287 88.5311C123.345 88.1946 123.32 87.8492 123.216 87.5241C123.112 87.1991 122.93 86.9041 122.687 86.6642C122.64 86.6189 122.584 86.5847 122.522 86.5642C122.46 86.5437 122.394 86.5374 122.329 86.5458C122.264 86.5542 122.202 86.5771 122.148 86.6128C122.093 86.6485 122.047 86.696 122.013 86.7519C121.477 87.9828 120.731 89.1115 119.809 90.0879C118.968 90.9291 118.032 91.6698 117.019 92.2952C115.237 93.4645 113.269 94.6911 112.612 96.8511L113.339 96.7567C112.386 95.1055 109.987 95.2909 109.07 96.8612C108.019 98.664 109.174 100.679 110.967 101.38C111.267 101.495 111.479 100.996 111.19 100.858L111.193 100.854Z" fill="black"/>
<path d="M119.523 82.8193C123.048 83.8067 128.021 85.2321 130.33 87.8133C131.641 89.2792 132.402 91.1562 132.931 93.05C133.322 94.4586 133.605 95.948 134.488 97.1241C135.748 98.8089 137.919 99.5099 139.917 100.201C141.915 100.891 144.058 101.835 144.972 103.746C145.44 104.74 145.507 105.869 145.713 106.95C145.918 108.032 146.336 109.161 147.256 109.764C147.819 110.135 148.503 110.259 149.137 110.489C150.428 110.955 151.519 111.854 152.223 113.034C152.926 114.213 153.2 115.6 152.997 116.958C152.794 118.316 152.127 119.562 151.11 120.485C150.092 121.407 148.786 121.948 147.415 122.017C145.393 122.118 143.401 121.174 141.366 121.269C140.436 121.356 139.515 121.523 138.613 121.767C137.173 122.075 135.704 122.228 134.232 122.226C132.992 122.226 131.691 122.087 130.67 121.386C129.962 120.901 129.43 120.173 128.668 119.779C127.597 119.223 126.31 119.442 125.113 119.631C123.145 119.948 121.097 120.153 119.179 119.611C117.262 119.068 115.472 117.639 115.048 115.692C115.799 115.088 116.881 115.57 117.828 115.749C118.436 115.861 119.061 115.836 119.658 115.676C120.255 115.515 120.809 115.224 121.279 114.822C122.798 113.508 123.142 111.321 123.3 109.323C123.459 107.324 123.573 105.168 124.827 103.594C125.002 103.375 125.211 103.129 125.164 102.853C125.124 102.719 125.055 102.596 124.962 102.492C123.348 100.386 123.058 97.5588 123.142 94.9101C123.226 92.2615 123.627 89.5825 123.162 86.9709C123.112 86.6946 122.97 86.3542 122.691 86.3711" fill="black"/>
<path d="M119.435 83.139C122.131 83.9848 124.844 84.8441 127.304 86.2459C128.484 86.8734 129.518 87.744 130.337 88.8002C131.261 90.1396 131.933 91.6368 132.318 93.218C132.749 94.7749 133.09 96.389 134.117 97.6796C135.048 98.8523 136.395 99.5599 137.753 100.116C140.112 101.086 143.58 101.713 144.493 104.497C144.999 106.027 144.884 107.691 145.72 109.12C146.103 109.794 146.694 110.326 147.405 110.636C148.102 110.936 148.864 111.058 149.534 111.418C151.832 112.652 153.046 115.627 152.001 118.067C151.464 119.281 150.52 120.269 149.332 120.86C147.954 121.558 146.471 121.437 145.002 121.13C144.15 120.929 143.288 120.772 142.421 120.658C141.542 120.579 140.657 120.636 139.796 120.827C138.909 121.005 138.033 121.228 137.137 121.356C136.224 121.48 135.305 121.544 134.384 121.548C133.589 121.576 132.794 121.487 132.025 121.282C131.323 121.029 130.689 120.616 130.175 120.075C129.608 119.497 128.895 119.083 128.113 118.876C127.253 118.727 126.374 118.738 125.518 118.906C122.397 119.374 118.896 119.809 116.47 117.329C115.996 116.841 115.665 116.233 115.513 115.57L115.294 116.112C115.776 115.755 116.335 115.887 116.881 116.018C117.446 116.186 118.031 116.281 118.62 116.301C119.831 116.288 120.99 115.805 121.851 114.953C123.536 113.268 123.664 110.748 123.85 108.524C123.947 107.327 124.072 106.077 124.568 104.972C124.81 104.426 125.221 104.015 125.498 103.499C125.835 102.872 125.498 102.444 125.137 101.929C123.712 99.8194 123.543 97.1472 123.651 94.6771C123.725 93.0259 123.904 91.3781 123.907 89.7202C123.909 88.8906 123.854 88.062 123.742 87.24C123.644 86.5661 123.455 85.9157 122.687 85.8416C121.993 85.7708 121.996 86.8525 122.687 86.9266C122.515 86.9098 122.593 86.8424 122.613 87.021C122.633 87.1996 122.67 87.3041 122.691 87.4456C122.748 87.7826 122.782 88.1532 122.808 88.5071C122.859 89.208 122.862 89.9123 122.846 90.6132C122.812 91.9611 122.694 93.309 122.647 94.6771C122.566 97.0023 122.728 99.4285 123.786 101.541C123.907 101.783 124.041 102.018 124.187 102.246C124.291 102.407 124.685 102.785 124.689 102.967C124.692 103.149 124.352 103.439 124.261 103.577C124.096 103.809 123.951 104.055 123.826 104.311C123.36 105.342 123.075 106.446 122.984 107.573C122.741 109.659 122.859 112.025 121.575 113.814C121.209 114.318 120.723 114.722 120.161 114.99C119.599 115.258 118.979 115.381 118.357 115.347C117.178 115.28 115.907 114.495 114.809 115.28C114.719 115.336 114.649 115.419 114.609 115.517C114.569 115.615 114.561 115.723 114.586 115.826C114.942 117.27 115.837 118.524 117.087 119.33C118.529 120.287 120.264 120.618 121.973 120.604C122.902 120.586 123.828 120.505 124.746 120.362C125.61 120.184 126.49 120.102 127.371 120.116C128.234 120.18 128.807 120.655 129.413 121.221C129.996 121.8 130.696 122.248 131.465 122.535C133.15 123.125 135.115 122.973 136.857 122.751C138.717 122.512 140.564 121.777 142.448 121.959C144.21 122.131 145.929 122.828 147.725 122.633C149.172 122.478 150.53 121.858 151.597 120.867C152.675 119.873 153.384 118.543 153.61 117.094C153.835 115.645 153.562 114.162 152.837 112.887C152.142 111.624 151.058 110.619 149.747 110.02C149.019 109.703 148.112 109.605 147.489 109.096C146.975 108.609 146.631 107.97 146.505 107.273C146.289 106.424 146.228 105.548 146.03 104.699C145.846 103.876 145.482 103.104 144.965 102.438C144.025 101.245 142.643 100.53 141.258 99.9812C139.873 99.4319 138.414 99.0713 137.083 98.3974C136.398 98.0699 135.786 97.6065 135.286 97.0353C134.785 96.4641 134.406 95.7971 134.171 95.0748C133.612 93.4303 133.289 91.7421 132.561 90.1515C131.928 88.689 130.944 87.4053 129.696 86.4144C127.381 84.6419 124.429 83.7523 121.649 83.0211C120.975 82.8425 120.301 82.6841 119.627 82.5055C119.55 82.4992 119.472 82.5202 119.408 82.5649C119.344 82.6095 119.297 82.6751 119.276 82.7504C119.255 82.8256 119.26 82.9059 119.292 82.9774C119.324 83.0489 119.379 83.1072 119.449 83.1424L119.435 83.139Z" fill="black"/>
<path d="M108.049 151.64C110.61 156.456 113.029 161.349 115.378 166.272C116.052 167.664 116.635 169.106 117.366 170.464C117.585 170.872 118.303 170.589 118.131 170.127C117.643 168.857 117.006 167.63 116.423 166.4C115.84 165.17 115.257 163.95 114.647 162.737C113.424 160.287 112.15 157.864 110.849 155.452C110.103 154.066 109.346 152.687 108.578 151.317C108.386 150.98 107.864 151.277 108.049 151.627V151.64Z" fill="#18C4FF"/>
<path d="M95.6954 119.789C98.1531 119.94 100.611 120.079 103.068 120.207L106.752 120.399C107.298 120.429 107.84 120.45 108.383 120.51C108.676 120.542 108.968 120.59 109.255 120.655C109.549 120.723 109.835 120.851 110.132 120.891C110.214 120.91 110.3 120.899 110.376 120.86C110.451 120.821 110.51 120.758 110.543 120.68C110.576 120.602 110.58 120.515 110.556 120.434C110.531 120.353 110.479 120.283 110.408 120.237C109.916 119.972 109.372 119.819 108.814 119.789C108.241 119.712 107.665 119.678 107.089 119.651L103.318 119.479C100.777 119.36 98.2362 119.248 95.6954 119.142C95.2876 119.142 95.2944 119.749 95.6954 119.776V119.789Z" fill="#18C4FF"/>
<path d="M112.959 120.905L113.073 120.696C113.097 120.657 113.11 120.613 113.114 120.568C113.125 120.524 113.125 120.477 113.114 120.433C113.105 120.389 113.084 120.348 113.053 120.315C113.028 120.278 112.995 120.248 112.955 120.227L112.874 120.194C112.815 120.177 112.752 120.177 112.692 120.194L112.608 120.227C112.558 120.257 112.516 120.298 112.487 120.349L112.389 120.568C112.364 120.604 112.35 120.648 112.349 120.692C112.337 120.735 112.337 120.781 112.349 120.824C112.359 120.866 112.378 120.905 112.406 120.938C112.43 120.974 112.462 121.003 112.5 121.023L112.581 121.056C112.64 121.072 112.701 121.072 112.76 121.056L112.837 121.023C112.887 120.994 112.929 120.954 112.959 120.905V120.905Z" fill="#18C4FF"/>
<path d="M135.82 158.181C135.67 159.911 135.767 161.654 136.109 163.357C136.187 163.755 136.8 163.586 136.719 163.189C136.385 161.542 136.286 159.856 136.426 158.181C136.46 157.79 135.853 157.794 135.82 158.181Z" fill="#18C4FF"/>
<path d="M138.99 159.135L138.974 162.953C138.996 163.02 139.039 163.079 139.096 163.121C139.154 163.162 139.223 163.185 139.294 163.185C139.365 163.185 139.434 163.162 139.491 163.121C139.549 163.079 139.592 163.02 139.614 162.953L139.597 159.135C139.597 159.054 139.565 158.977 139.508 158.92C139.451 158.863 139.374 158.832 139.294 158.832C139.213 158.832 139.136 158.863 139.079 158.92C139.022 158.977 138.99 159.054 138.99 159.135V159.135Z" fill="#18C4FF"/>
<path d="M146.4 185.56C150.734 185.783 155.081 185.759 159.418 185.635C161.588 185.572 163.756 185.477 165.921 185.352C167.846 185.291 169.766 185.133 171.674 184.876C173.402 184.6 175.289 183.994 176.412 182.565C176.695 182.201 176.223 181.685 175.889 182.042C174.764 183.242 173.305 183.781 171.711 184.064C169.85 184.325 167.975 184.484 166.097 184.539C161.928 184.789 157.757 184.913 153.585 184.957C151.192 184.984 148.8 184.957 146.407 184.957C146.333 184.965 146.264 185 146.214 185.056C146.163 185.112 146.136 185.184 146.136 185.259C146.136 185.334 146.163 185.406 146.214 185.462C146.264 185.517 146.333 185.553 146.407 185.56H146.4Z" fill="#18C4FF"/>
<path d="M163.145 312.106C158.727 311.636 154.259 312.006 149.979 313.198C149.979 314.151 149.959 315.101 149.922 316.042C149.861 317.548 149.797 319.105 150.319 320.517C151.502 323.711 155.148 325.116 158.39 326.154C162.747 327.546 166.191 328.234 169.996 327.768C172.985 327.401 174.292 323.775 172.28 321.534C171.303 320.446 170.316 319.341 169.807 318.033C169.268 316.648 169.308 315.145 169.517 313.652C167.47 312.86 165.327 312.34 163.145 312.106V312.106Z" fill="#18C4FF"/>
<path d="M163.145 311.25C158.649 310.789 154.106 311.172 149.75 312.379C149.571 312.431 149.414 312.54 149.301 312.688C149.188 312.837 149.126 313.018 149.123 313.204C149.123 314.155 149.103 315.101 149.066 316.048C149.008 316.981 149.016 317.917 149.09 318.849C149.229 320.467 149.901 321.993 151 323.189C153.049 325.4 156.156 326.373 158.95 327.233C162.252 328.244 165.689 328.992 169.163 328.712C170.585 328.601 171.927 328.287 172.907 327.169C173.331 326.691 173.654 326.132 173.855 325.527C174.057 324.921 174.133 324.28 174.08 323.644C174.014 322.886 173.761 322.156 173.342 321.521C172.836 320.776 172.152 320.173 171.607 319.442C171.016 318.707 170.593 317.853 170.366 316.938C170.181 315.928 170.171 314.894 170.339 313.882C170.391 313.663 170.358 313.434 170.247 313.239C170.137 313.044 169.957 312.898 169.743 312.83C167.62 312.026 165.403 311.497 163.145 311.257C162.918 311.257 162.701 311.348 162.541 311.508C162.38 311.669 162.29 311.886 162.289 312.113C162.294 312.338 162.386 312.552 162.546 312.711C162.705 312.87 162.92 312.961 163.145 312.965C165.249 313.206 167.314 313.715 169.288 314.481L168.692 313.43C168.446 315.233 168.412 317.039 169.177 318.731C169.537 319.481 169.99 320.182 170.525 320.82C170.97 321.376 171.553 321.898 171.92 322.471C172.175 322.868 172.33 323.321 172.372 323.79C172.414 324.26 172.341 324.733 172.16 325.169C171.978 325.604 171.694 325.989 171.331 326.29C170.968 326.592 170.538 326.801 170.077 326.899C168.655 327.192 167.061 327.105 165.625 326.963C164.029 326.787 162.45 326.473 160.907 326.026C159.405 325.612 157.905 325.15 156.449 324.587C155.245 324.154 154.109 323.548 153.079 322.788C151.87 321.896 151.059 320.565 150.822 319.081C150.716 318.155 150.695 317.221 150.761 316.291C150.801 315.271 150.823 314.248 150.825 313.221L150.198 314.047C154.407 312.886 158.796 312.525 163.138 312.982C163.364 312.981 163.581 312.891 163.741 312.731C163.902 312.572 163.992 312.355 163.994 312.129C163.996 311.901 163.908 311.681 163.749 311.516C163.59 311.352 163.374 311.256 163.145 311.25V311.25Z" fill="#18C4FF"/>
<path d="M168.455 316.759C168.894 316.726 169.335 316.709 169.776 316.699C170.218 316.689 170.669 316.732 171.104 316.699C171.2 316.699 171.291 316.661 171.359 316.593C171.427 316.525 171.465 316.434 171.465 316.338C171.465 316.242 171.427 316.151 171.359 316.083C171.291 316.016 171.2 315.978 171.104 315.978C170.655 315.946 170.204 315.956 169.756 316.008C169.295 316.042 168.833 316.092 168.375 316.156C168.303 316.176 168.241 316.221 168.2 316.283C168.159 316.345 168.142 316.42 168.152 316.493C168.161 316.568 168.197 316.637 168.254 316.688C168.31 316.738 168.383 316.766 168.459 316.766L168.455 316.759Z" fill="black"/>
<path d="M169.234 318.835C169.667 318.917 170.108 318.952 170.549 318.939C170.992 318.94 171.434 318.876 171.859 318.751C171.949 318.739 172.03 318.692 172.084 318.62C172.139 318.548 172.163 318.458 172.151 318.368C172.139 318.279 172.092 318.198 172.02 318.143C171.948 318.089 171.858 318.065 171.768 318.077C171.354 318.127 170.963 318.215 170.549 318.239C170.138 318.266 169.726 318.266 169.315 318.239C168.978 318.208 168.891 318.781 169.234 318.842V318.835Z" fill="black"/>
<path d="M104.821 179.495C105.107 188.189 106.435 196.856 108.298 205.341C108.82 207.727 109.309 210.153 110.047 212.485C110.067 212.559 110.102 212.628 110.149 212.688C110.196 212.749 110.255 212.799 110.322 212.837C110.388 212.875 110.462 212.9 110.538 212.909C110.614 212.919 110.691 212.913 110.765 212.893C110.839 212.872 110.908 212.838 110.968 212.79C111.029 212.743 111.079 212.685 111.117 212.618C111.155 212.551 111.18 212.478 111.189 212.402C111.199 212.326 111.193 212.249 111.173 212.175C110.694 210.048 110.094 207.952 109.606 205.83C109.127 203.758 108.687 201.68 108.285 199.595C107.469 195.36 106.829 191.097 106.28 186.821C105.966 184.384 105.697 181.938 105.434 179.495C105.393 179.111 104.807 179.094 104.821 179.495V179.495Z" fill="black"/>
<path d="M257.731 182.706H190.359L195.279 179.191H260.34V180.098C260.34 180.79 260.065 181.453 259.576 181.942C259.087 182.431 258.423 182.706 257.731 182.706V182.706Z" fill="black"/>
<path d="M257.731 182.278H193.092C192.226 182.278 191.316 182.197 190.454 182.278H190.359L190.575 183.077L193.578 180.93L195.235 179.747C195.298 179.706 195.358 179.66 195.414 179.609C195.566 179.458 195.367 179.7 195.276 179.609H195.316C195.587 179.639 195.861 179.639 196.132 179.609H257.199C258.19 179.609 259.221 179.687 260.212 179.609H260.34L259.912 179.181C259.966 179.747 259.919 180.317 259.774 180.866C259.612 181.277 259.332 181.631 258.968 181.881C258.604 182.132 258.173 182.268 257.731 182.271C257.618 182.271 257.509 182.316 257.429 182.397C257.349 182.477 257.303 182.586 257.303 182.699C257.303 182.813 257.349 182.922 257.429 183.002C257.509 183.082 257.618 183.127 257.731 183.127C258.286 183.123 258.829 182.969 259.303 182.682C259.778 182.395 260.166 181.985 260.427 181.496C260.805 180.762 260.764 179.987 260.764 179.185C260.763 179.072 260.717 178.964 260.637 178.884C260.557 178.804 260.449 178.758 260.336 178.757H195.535C195.25 178.746 194.972 178.842 194.754 179.026L191.047 181.668L190.12 182.342C190.042 182.391 189.982 182.464 189.949 182.55C189.916 182.636 189.911 182.73 189.935 182.819C189.959 182.908 190.011 182.987 190.083 183.044C190.155 183.101 190.244 183.134 190.336 183.137H254.982C255.861 183.137 256.741 183.161 257.62 183.137H257.731C257.845 183.137 257.955 183.092 258.035 183.011C258.116 182.931 258.161 182.822 258.161 182.708C258.161 182.594 258.116 182.484 258.035 182.404C257.955 182.323 257.845 182.278 257.731 182.278V182.278Z" fill="black"/>
<path d="M216.62 180.283H213.122C212.946 180.283 212.802 180.427 212.802 180.603V181.048C212.802 181.225 212.946 181.368 213.122 181.368H216.62C216.797 181.368 216.94 181.225 216.94 181.048V180.603C216.94 180.427 216.797 180.283 216.62 180.283Z" fill="#18C4FF"/>
<path d="M222.426 180.283H218.929C218.752 180.283 218.608 180.427 218.608 180.603V181.048C218.608 181.225 218.752 181.368 218.929 181.368H222.426C222.603 181.368 222.746 181.225 222.746 181.048V180.603C222.746 180.427 222.603 180.283 222.426 180.283Z" fill="#18C4FF"/>
<path d="M228.236 180.283H224.738C224.561 180.283 224.418 180.427 224.418 180.603V181.048C224.418 181.225 224.561 181.368 224.738 181.368H228.236C228.413 181.368 228.556 181.225 228.556 181.048V180.603C228.556 180.427 228.413 180.283 228.236 180.283Z" fill="#18C4FF"/>
<path d="M277.388 305.413C274.833 300.807 272.282 296.153 270.668 291.139C269.054 286.125 268.414 280.672 269.748 275.577C270.176 273.94 271.386 272.012 273.034 272.403C273.623 272.592 274.143 272.952 274.527 273.438C275.894 274.947 276.825 276.798 277.222 278.795L275.928 273.02C275.645 271.759 275.389 270.324 276.11 269.262C276.832 268.201 278.934 268.251 279.079 269.525C276.616 263.193 275.372 256.322 276.019 249.563C276.134 248.387 276.377 247.093 277.324 246.385C278.27 245.677 280.04 246.23 279.942 247.396C280.144 244.983 279.039 242.607 279.16 240.141C279.426 234.823 279.794 229.179 281.495 224.104C282.934 219.807 286.867 214.126 291.915 213.995C298.199 213.846 301.731 222.419 302.924 227.363C305.788 239.241 304.059 251.79 300.733 263.551C301.495 262.442 301.916 261.118 302.792 260.1C303.669 259.082 305.286 258.472 306.347 259.295C307.119 259.898 307.271 260.979 307.284 261.97C307.362 267.898 304.511 273.427 301.734 278.664C302.193 277.512 302.688 276.305 303.648 275.527C304.609 274.748 306.186 274.573 307.018 275.493C307.588 276.127 307.648 277.063 307.598 277.913C307.478 279.916 306.926 281.871 305.98 283.641C306.388 282.654 308.09 283.169 308.339 284.211C308.588 285.252 307.941 286.273 307.328 287.153C308.246 284.6 309.718 282.282 311.638 280.366C311.917 280.03 312.298 279.793 312.723 279.692C313.7 279.557 314.324 280.703 314.533 281.677C315.857 287.813 312.848 294.04 309.31 299.223C307.129 302.408 304.713 305.427 302.3 308.439C301.451 309.501 300.407 310.66 299.045 310.653" fill="#18C4FF"/>
<path d="M277.637 305.258C274.786 300.052 271.925 294.768 270.432 288.986C269.658 286.096 269.33 283.105 269.458 280.116C269.531 278.681 269.746 277.257 270.099 275.864C270.365 274.832 270.843 273.636 271.783 273.043C273.131 272.187 274.338 273.795 275.022 274.785C275.878 276.03 276.472 277.435 276.767 278.917L277.64 278.677L276.767 274.762C276.508 273.606 276.137 272.403 276.093 271.227C276.056 270.364 276.248 269.319 277.182 269.036C277.748 268.865 278.53 268.966 278.624 269.646L279.51 269.4C278.144 265.917 277.19 262.285 276.666 258.58C276.419 256.743 276.297 254.891 276.302 253.037C276.302 252.117 276.346 251.193 276.417 250.273C276.445 249.474 276.576 248.681 276.808 247.915C277.04 247.241 277.515 246.567 278.29 246.54C278.813 246.54 279.467 246.792 279.443 247.396C279.419 247.999 280.366 248.009 280.41 247.396C280.535 245.687 280.073 244.026 279.8 242.365C279.514 240.639 279.699 238.897 279.8 237.165C280.033 233.64 280.393 230.109 281.259 226.678C281.884 223.984 283.029 221.437 284.629 219.18C286.118 217.142 288.177 215.234 290.715 214.685C295.591 213.63 298.866 218.453 300.588 222.281C302.994 227.632 303.732 233.738 303.78 239.541C303.84 246.745 302.647 253.906 300.838 260.858C300.615 261.71 300.383 262.543 300.144 263.402C299.955 264.076 300.861 264.413 301.225 263.857C302.122 262.509 302.573 260.619 304.083 259.813C304.673 259.497 305.461 259.352 306.014 259.813C306.566 260.275 306.651 261.161 306.688 261.835C306.795 265.569 305.616 269.249 304.106 272.618C303.23 274.58 302.233 276.484 301.225 278.381L302.293 278.832C302.711 277.788 303.18 276.554 304.147 275.894C304.881 275.392 306.108 275.22 306.688 276.035C306.96 276.517 307.078 277.071 307.025 277.623C307.006 278.302 306.929 278.978 306.795 279.644C306.536 280.937 306.092 282.185 305.478 283.351L306.489 283.938C306.721 283.449 307.446 283.786 307.678 284.133C308.234 284.959 307.281 286.212 306.833 286.863L307.891 287.307C308.374 285.978 309.012 284.71 309.791 283.53C310.202 282.914 310.652 282.325 311.139 281.767C311.55 281.289 312.019 280.642 312.581 280.339C313.714 279.725 314.078 282.071 314.172 282.697C314.373 284.152 314.357 285.628 314.125 287.078C313.181 293.107 309.437 298.333 305.811 303.061C304.723 304.483 303.608 305.878 302.486 307.273C301.636 308.331 300.602 309.986 299.079 310.026C298.307 310.026 298.304 311.246 299.079 311.229C300.602 311.189 301.714 310.124 302.62 309.009C303.749 307.62 304.854 306.208 305.95 304.793C308.086 302.03 310.196 299.213 311.924 296.173C313.555 293.306 314.869 290.195 315.294 286.906C315.521 285.273 315.491 283.614 315.206 281.99C315.001 280.824 314.442 279.196 313.036 279.085C312.19 279.018 311.567 279.597 311.014 280.163C310.397 280.804 309.824 281.486 309.299 282.206C308.233 283.675 307.381 285.288 306.769 286.997C306.533 287.651 307.476 287.951 307.827 287.446C308.635 286.28 309.633 284.413 308.389 283.189C307.611 282.414 306.031 282.179 305.485 283.348C305.148 284.022 306.132 284.601 306.496 283.934C307.299 282.424 307.833 280.785 308.073 279.092C308.261 277.71 308.437 275.924 307.264 274.907C306.277 274.047 304.76 274.152 303.692 274.802C302.364 275.607 301.741 277.131 301.192 278.509C300.946 279.126 301.953 279.54 302.26 278.96C304.282 275.18 306.303 271.318 307.287 267.126C307.752 265.168 308.11 262.974 307.817 260.962C307.78 260.541 307.659 260.132 307.461 259.759C307.263 259.385 306.992 259.056 306.664 258.789C306.312 258.549 305.909 258.396 305.486 258.342C305.064 258.288 304.635 258.335 304.234 258.479C302 259.19 301.414 261.512 300.245 263.254L301.326 263.709C303.348 256.518 304.777 249.101 304.945 241.613C305.041 237.922 304.783 234.229 304.174 230.587C303.755 227.934 303.046 225.335 302.061 222.837C300.376 218.726 297.374 213.678 292.386 213.469C289.67 213.354 287.207 214.817 285.367 216.721C283.493 218.683 282.055 221.02 281.148 223.578C279.948 226.904 279.423 230.473 279.093 233.977C278.921 235.797 278.813 237.62 278.718 239.443C278.662 240.302 278.687 241.164 278.793 242.017C278.917 242.944 279.13 243.857 279.291 244.777C279.461 245.639 279.523 246.519 279.477 247.396H280.444C280.498 245.977 278.816 245.293 277.63 245.711C275.972 246.27 275.672 248.339 275.537 249.832C275.186 254.124 275.509 258.445 276.494 262.637C277.042 265.024 277.766 267.366 278.658 269.646C278.698 269.754 278.778 269.843 278.881 269.896C278.984 269.948 279.102 269.96 279.214 269.929C279.325 269.898 279.42 269.827 279.482 269.729C279.543 269.631 279.565 269.514 279.544 269.4C279.399 268.467 278.462 267.999 277.586 268.052C277.09 268.069 276.612 268.241 276.218 268.543C275.824 268.845 275.534 269.263 275.389 269.737C274.938 271.085 275.389 272.554 275.676 273.872L276.804 278.903C276.932 279.473 277.792 279.24 277.677 278.664C277.39 277.237 276.838 275.877 276.05 274.654C275.376 273.609 274.415 272.231 273.115 271.958C271.965 271.715 270.988 272.41 270.345 273.306C269.559 274.391 269.253 275.719 269.02 277.013C267.864 283.415 269.495 289.899 272.053 295.752C273.536 299.122 275.332 302.347 277.131 305.558C277.323 305.895 277.852 305.595 277.66 305.248L277.637 305.258Z" fill="#18C4FF"/>
<path d="M268.491 300.426H311.449V319.081C311.449 320.325 311.204 321.557 310.728 322.706C310.252 323.856 309.554 324.9 308.675 325.779C307.795 326.659 306.751 327.357 305.602 327.833C304.452 328.309 303.221 328.554 301.977 328.554H277.974C275.462 328.554 273.052 327.556 271.276 325.779C269.499 324.003 268.501 321.594 268.501 319.081V300.426H268.491Z" fill="white"/>
<path d="M268.491 300.426H311.449V319.081C311.449 320.325 311.204 321.557 310.728 322.706C310.252 323.856 309.554 324.9 308.675 325.779C307.795 326.659 306.751 327.357 305.602 327.833C304.452 328.309 303.221 328.554 301.977 328.554H277.974C275.462 328.554 273.052 327.556 271.276 325.779C269.499 324.003 268.501 321.594 268.501 319.081V300.426H268.491Z" stroke="black" stroke-width="1.69" stroke-miterlimit="10"/>
<path d="M292.319 229.378C290.297 232.872 290.182 237.057 290.688 240.963C291.271 245.462 292.595 249.856 292.544 254.422C292.494 258.988 291.405 263.578 291.638 268.198C291.864 272.727 293.077 277.188 292.649 281.744C292.214 286.364 290.381 291.348 292.278 295.863C292.48 296.349 293.289 296.157 293.083 295.641C291.574 291.597 292.811 287.348 293.363 283.247C293.651 281.069 293.682 278.865 293.454 276.679C293.228 274.435 292.834 272.208 292.602 269.963C292.388 267.705 292.388 265.432 292.602 263.173C292.797 260.905 293.107 258.644 293.245 256.37C293.381 254.136 293.281 251.894 292.949 249.681C292.612 247.457 292.126 245.263 291.732 243.052C290.944 238.631 290.576 233.755 292.885 229.701C292.904 229.631 292.9 229.556 292.873 229.488C292.846 229.42 292.797 229.363 292.735 229.325C292.673 229.287 292.6 229.27 292.527 229.277C292.454 229.284 292.386 229.315 292.332 229.364L292.319 229.378Z" fill="white"/>
<path d="M280.949 277.94C282.206 278.173 283.437 278.532 284.622 279.011C285.778 279.573 286.82 280.344 287.695 281.286C288.555 282.099 289.353 282.974 290.084 283.904C290.782 284.837 291.263 285.913 291.493 287.055C291.581 287.473 292.285 287.392 292.244 286.954C292.019 284.463 289.983 282.442 288.282 280.804C287.329 279.822 286.206 279.022 284.966 278.445C283.72 277.958 282.427 277.601 281.107 277.38C280.733 277.306 280.571 277.872 280.949 277.956V277.94Z" fill="white"/>
<path d="M298.36 268.508C295.865 269.528 293.754 271.307 292.325 273.593C292.072 273.997 292.713 274.371 292.962 273.967C294.307 271.805 296.27 270.097 298.596 269.064C298.906 268.925 298.68 268.39 298.36 268.508V268.508Z" fill="white"/>
<path d="M289.073 252.97C289.825 253.306 290.536 253.727 291.193 254.223C291.833 254.729 292.424 255.293 292.959 255.908C293.023 255.951 293.101 255.97 293.178 255.963C293.255 255.955 293.327 255.921 293.382 255.866C293.437 255.812 293.472 255.74 293.48 255.663C293.488 255.586 293.47 255.508 293.427 255.443C292.887 254.783 292.262 254.199 291.567 253.704C290.885 253.203 290.148 252.783 289.37 252.451C289.302 252.415 289.223 252.407 289.148 252.427C289.074 252.447 289.01 252.494 288.969 252.559C288.93 252.626 288.919 252.706 288.938 252.781C288.958 252.856 289.006 252.92 289.073 252.96V252.97Z" fill="white"/>
<path d="M135.172 34.0344C127.668 35.844 120.16 37.6569 112.797 39.9787C105.808 42.1825 98.9335 44.8312 92.4703 48.2953C86.6114 51.3796 81.1862 55.2253 76.3358 59.7324C73.94 61.9912 71.7395 64.4487 69.758 67.0785C67.8743 69.5856 65.5188 72.7229 66.1051 76.059C66.5971 78.8626 69.3671 80.3925 72.0427 80.3318C75.1227 80.2611 77.5826 78.1449 79.3012 75.7591C79.7606 75.1135 80.1858 74.4442 80.575 73.754C80.6248 73.6647 80.6445 73.5617 80.6312 73.4604C80.6178 73.359 80.5721 73.2646 80.5008 73.1913C76.693 69.8754 71.2036 72.0253 67.2778 73.9562C62.6848 76.2166 58.277 78.8351 54.0952 81.7876C45.7998 87.6433 38.4378 94.7202 32.2591 102.778C28.7487 107.355 25.6499 112.233 22.9989 117.356C22.7226 117.895 23.5347 118.367 23.8144 117.831C33.0102 100.128 47.3401 85.6176 64.9257 76.2005C67.3418 74.9099 69.8153 73.5889 72.4707 72.8711C74.9441 72.1972 77.7949 72.0557 79.8471 73.8416L79.7763 73.2789C78.3341 75.8096 76.2954 78.5324 73.303 79.24C70.806 79.8331 67.6822 78.7986 67.0386 76.0724C66.651 74.4415 67.2677 72.7296 68.0225 71.3008C68.8047 69.8999 69.6971 68.5635 70.6914 67.3043C72.6044 64.7925 74.7222 62.4436 77.0232 60.2816C81.6583 55.9644 86.8309 52.2631 92.413 49.2692C98.5191 45.9331 105.003 43.3451 111.621 41.1817C118.559 38.9105 125.632 37.0942 132.712 35.3284L135.364 34.6545C135.439 34.6222 135.499 34.5643 135.534 34.4912C135.569 34.4182 135.577 34.335 135.555 34.2568C135.534 34.1786 135.485 34.1107 135.418 34.0655C135.351 34.0203 135.269 34.0009 135.189 34.0108L135.172 34.0344Z" fill="#18C4FF"/>
<path d="M159.634 8.42406C159.616 11.3972 158.743 14.3024 157.12 16.7933C155.496 19.2842 153.191 21.2557 150.478 22.4727C148.881 23.1871 147.152 23.5746 145.514 24.1913C143.801 24.8326 142.132 25.5891 140.52 26.4558C139.009 27.2722 137.562 28.2015 136.19 29.2358C135.641 29.6503 134.957 30.0547 134.755 30.7556C134.678 31.041 134.676 31.3412 134.748 31.6277C134.82 31.9142 134.964 32.1777 135.166 32.3933C135.695 32.9561 136.382 32.9089 137.073 32.9089H183.492H188.311C188.569 32.9199 188.826 32.8734 189.064 32.7725C189.302 32.6717 189.514 32.5191 189.686 32.3259C189.881 32.1019 190.015 31.831 190.074 31.5398C190.133 31.2486 190.115 30.947 190.022 30.6646C189.783 29.9907 189.062 29.5627 188.509 29.1482C185.626 27.015 182.448 25.3124 179.074 24.0935C177.467 23.4971 175.772 23.1163 174.208 22.4086C172.858 21.799 171.602 21.0002 170.478 20.0363C168.226 18.0774 166.588 15.5102 165.76 12.643C165.364 11.2715 165.161 9.85155 165.157 8.42406C165.157 8.31055 165.112 8.2017 165.032 8.12144C164.951 8.04118 164.842 7.99609 164.729 7.99609C164.615 7.99609 164.507 8.04118 164.426 8.12144C164.346 8.2017 164.301 8.31055 164.301 8.42406C164.319 11.3474 165.121 14.2124 166.622 16.7211C168.123 19.2297 170.269 21.2902 172.837 22.6883C174.245 23.4499 175.731 23.8846 177.244 24.3732C178.991 24.9389 180.696 25.6235 182.349 26.4221C183.926 27.1805 185.443 28.0557 186.889 29.0404C187.593 29.5018 188.268 30.006 188.91 30.55C189.011 30.6276 189.092 30.7266 189.149 30.8398C189.206 30.9529 189.237 31.0774 189.239 31.2041C189.242 31.3307 189.216 31.4564 189.164 31.5718C189.112 31.6872 189.034 31.7894 188.937 31.871C188.6 32.1406 187.997 32.053 187.59 32.053H141.531C139.87 32.053 138.205 32.053 136.544 32.053C136.403 32.0678 136.261 32.0517 136.127 32.0057C135.993 31.9597 135.871 31.885 135.769 31.7867C135.331 31.3049 135.611 30.7758 136.039 30.4388C136.713 29.9098 137.387 29.4279 138.084 28.9393C141.081 26.9479 144.345 25.3923 147.779 24.3193C149.28 23.8974 150.735 23.3262 152.123 22.6142C154.659 21.2137 156.773 19.1583 158.245 16.6624C159.717 14.1665 160.492 11.3215 160.49 8.42406C160.49 8.31055 160.445 8.2017 160.364 8.12144C160.284 8.04118 160.175 7.99609 160.062 7.99609C159.948 7.99609 159.839 8.04118 159.759 8.12144C159.679 8.2017 159.634 8.31055 159.634 8.42406V8.42406Z" fill="black"/>
<path d="M189.584 34.6615C195.995 36.4876 202.201 38.972 208.101 42.0751C213.745 45.0506 219.258 48.5282 224.08 52.7269C228.687 56.737 232.656 61.6703 234.26 67.6618C235.15 70.9798 235.318 74.4502 234.752 77.8385C234.294 80.5344 233.132 83.7929 230.055 84.3388C229.384 84.4766 228.686 84.3966 228.064 84.1105C227.442 83.8245 226.927 83.3472 226.594 82.7483C225.965 81.6013 225.659 80.3051 225.708 78.9977C225.765 76.4974 226.965 74.1048 228.707 72.3458C230.51 70.4986 232.96 69.4234 235.541 69.3467C238.294 69.3241 240.982 70.1839 243.211 71.7999C248.302 75.3651 250.159 81.6835 249.633 87.6581C249.496 89.2151 249.209 90.7554 248.777 92.2578C248.434 93.498 247.698 94.5931 246.678 95.3783C246.284 95.7039 245.787 95.8783 245.276 95.8702C244.999 95.8205 244.741 95.6986 244.526 95.517C244.311 95.3354 244.148 95.1004 244.053 94.8357C243.588 93.6254 243.501 92.3022 243.804 91.0413C244.107 89.7728 244.668 88.58 245.451 87.5367C246.234 86.4934 247.223 85.6218 248.356 84.9757C250.836 83.5267 253.829 83.3953 256.558 84.1434C262.738 85.8283 266.644 91.2199 269.155 96.7969C269.798 98.2223 270.371 99.6815 270.91 101.151C271.119 101.72 272.042 101.488 271.83 100.898C269.545 94.6908 266.506 88.1838 260.514 84.7736C257.755 83.2032 254.543 82.3945 251.379 82.8966C249.97 83.1418 248.626 83.6672 247.424 84.4416C246.222 85.2161 245.188 86.2239 244.383 87.4054C242.847 89.6361 242.055 92.8341 243.264 95.3648C243.513 95.9316 243.972 96.38 244.545 96.6157C245.117 96.8513 245.759 96.8559 246.334 96.6284C247.578 96.1365 248.535 94.9941 249.141 93.8349C249.859 92.4701 250.135 90.8392 250.365 89.3295C250.625 87.658 250.71 85.9639 250.617 84.2748C250.419 81.0129 249.499 77.7273 247.645 75.0113C244.417 70.27 238.065 67.0384 232.367 68.9828C227.359 70.6912 223.528 76.4738 225.199 81.7576C225.654 83.1965 226.513 84.541 227.993 85.0634C229.324 85.5318 230.87 85.2285 232.06 84.5174C234.887 82.8326 235.585 79.0685 235.851 76.0593C236.168 72.4175 235.673 68.7508 234.402 65.3232C233.249 62.3182 231.597 59.5293 229.516 57.0739C225.28 51.9755 219.703 48.0295 214.082 44.6058C207.994 40.8964 201.514 37.8732 194.76 35.5916C193.102 35.0322 191.432 34.5178 189.749 34.0482C189.67 34.0304 189.586 34.0438 189.517 34.0856C189.447 34.1275 189.396 34.1945 189.374 34.2729C189.353 34.3514 189.362 34.4351 189.4 34.5068C189.439 34.5785 189.503 34.6327 189.581 34.6582L189.584 34.6615Z" fill="#18C4FF"/>
</svg>
