<svg width="217" height="217" viewBox="0 0 217 217" fill="none" xmlns="http://www.w3.org/2000/svg">
<g clip-path="url(#clip0_119_36)">
<path d="M187.971 125.931C178.306 169.518 134.735 197.168 90.8322 187.433C46.9295 177.697 19.1304 134.222 28.7959 90.6341C38.4613 47.0462 82.032 19.3968 125.935 29.132C169.837 38.8673 197.653 82.269 187.971 125.931ZM39.9011 93.0967C31.5745 130.647 55.5234 168.016 93.2812 176.388C131.039 184.761 168.539 161.018 176.866 123.468C185.192 85.9176 161.244 48.5489 123.486 40.1762C85.7279 31.8036 48.2278 55.5463 39.9011 93.0967Z" fill="url(#paint0_linear_119_36)" fill-opacity="0.25"/>
<path d="M149.184 97.4525C150.987 100.238 152.008 103.35 152.187 106.558C152.529 114.063 148.258 121.141 140.109 126.416L118.784 140.221C110.635 145.496 102.47 146.559 95.763 143.175C89.0555 139.791 85.0976 132.56 84.6226 122.895L83.3684 97.6537C82.8935 87.989 86.1228 80.4183 92.4887 76.2973C98.7909 72.2175 107.084 72.3293 115.707 76.7192L138.223 88.1968C143.12 90.5972 146.847 93.8439 149.184 97.4525ZM98.1291 130.503C98.8668 131.642 99.8182 132.554 100.86 133.047C103.818 134.546 108.053 133.692 112.636 130.724L133.962 116.919C138.482 113.993 141.059 110.438 140.838 107.167C140.722 103.918 137.813 100.681 133.044 98.1977L110.528 86.7201C105.695 84.2785 101.396 83.9171 98.6588 85.6891C95.9215 87.4611 94.5323 91.5947 94.7405 96.9401L95.9947 122.182C96.1062 125.703 96.8586 128.54 98.1291 130.503Z" fill="url(#paint1_linear_119_36)" fill-opacity="0.25"/>
</g>
<defs>
<linearGradient id="paint0_linear_119_36" x1="28.7959" y1="90.6341" x2="187.971" y2="125.931" gradientUnits="userSpaceOnUse">
<stop stop-color="#88EAFF"/>
<stop offset="1" stop-color="#00D1FF" stop-opacity="0"/>
</linearGradient>
<linearGradient id="paint1_linear_119_36" x1="80.6825" y1="124.413" x2="141.253" y2="85.2022" gradientUnits="userSpaceOnUse">
<stop stop-color="#88EAFF"/>
<stop offset="1" stop-color="#00D1FF" stop-opacity="0"/>
</linearGradient>
<clipPath id="clip0_119_36">
<rect width="181" height="182" fill="white" transform="translate(0 176.708) rotate(-77.4972)"/>
</clipPath>
</defs>
</svg>
