<svg width="390" height="390" viewBox="0 0 390 390" fill="none" xmlns="http://www.w3.org/2000/svg">
<g clip-path="url(#clip0_119_1660)">
<path d="M353.73 105.374C350.974 104.807 348.129 104.827 345.38 105.433C337.994 107.149 332.542 113.377 328.478 119.781C324.414 126.185 321.068 133.236 315.53 138.396C309.992 143.555 301.221 146.348 294.723 142.432C289.965 139.566 287.489 133.829 282.719 130.982C277.236 127.714 269.88 129.184 264.806 133.049C260.684 136.188 257.786 140.611 255.478 145.287V169.763H353.73V105.374Z" fill="white"/>
<path d="M353.937 104.59C350.427 103.931 346.819 103.986 343.407 105.14C340.601 106.147 338.016 107.682 335.79 109.664C331.067 113.751 327.834 119.153 324.694 124.484C321.555 129.815 318.24 135.576 313.127 139.331C308.677 142.611 302.597 144.643 297.196 142.717C291.661 140.747 289.13 134.854 284.716 131.407C282.369 129.556 279.496 128.496 276.51 128.38C273.479 128.295 270.474 128.951 267.754 130.291C261.998 133.041 258.059 138.481 255.204 144C254.908 144.453 254.725 144.971 254.67 145.509V169.763C254.673 169.978 254.76 170.184 254.912 170.336C255.064 170.488 255.27 170.575 255.485 170.578H349.748C351.023 170.578 352.299 170.602 353.57 170.578H353.73C353.945 170.575 354.151 170.488 354.303 170.336C354.455 170.184 354.542 169.978 354.545 169.763V113.268C354.545 110.678 354.623 108.073 354.545 105.468V105.359C354.545 104.309 352.915 104.309 352.915 105.359V167.158C352.915 167.981 352.849 168.831 352.915 169.654V169.763L353.73 168.944H259.455C258.188 168.944 256.905 168.886 255.637 168.944H255.469L256.285 169.763V145.287L256.171 145.696C258.086 141.855 260.376 138.142 263.531 135.19C266.491 132.417 270.274 130.455 274.349 130.069C276.299 129.861 278.27 130.07 280.133 130.681C281.94 131.336 283.58 132.38 284.938 133.739C287.797 136.469 289.914 139.916 293.101 142.319C299.731 147.33 308.884 144.846 314.878 140.026C318.248 137.319 320.865 133.727 323.173 130.104C325.513 126.419 327.577 122.55 330.006 118.915C332.241 115.569 334.846 112.363 338.052 109.898C341.461 107.281 345.497 105.721 349.826 105.78C351.061 105.804 352.291 105.935 353.504 106.17C354.529 106.353 354.97 104.781 353.937 104.59Z" fill="black"/>
<path d="M221.734 62.439H229.53V120.635H221.734V62.439Z" fill="black"/>
<path d="M229.531 119.82H221.731L222.546 120.635V64.8142C222.546 64.0654 222.612 63.2854 222.546 62.5366V62.4391L221.731 63.2542H229.531L228.716 62.4391V113.49C228.716 115.83 228.641 118.19 228.716 120.53C228.717 120.562 228.717 120.595 228.716 120.627C228.716 121.676 230.35 121.68 230.35 120.627V69.5761C230.35 67.2361 230.424 64.8766 230.35 62.5366C230.348 62.5042 230.348 62.4716 230.35 62.4391C230.347 62.2232 230.259 62.0171 230.106 61.8648C229.953 61.7124 229.747 61.626 229.531 61.624H221.731C221.515 61.627 221.31 61.7139 221.158 61.8661C221.005 62.0183 220.919 62.2239 220.916 62.4391V113.49C220.916 115.83 220.838 118.19 220.916 120.53V120.627C220.919 120.842 221.005 121.048 221.158 121.2C221.31 121.352 221.515 121.439 221.731 121.442H229.531C230.584 121.45 230.584 119.82 229.531 119.82Z" fill="black"/>
<path d="M143.134 103.058H150.93V120.635H143.134V103.058Z" fill="#18C4FF"/>
<path d="M150.93 119.819H143.13L143.945 120.635V103.057L143.13 103.872H150.93L150.114 103.057V120.635C150.114 121.684 151.745 121.688 151.745 120.635V103.057C151.742 102.842 151.655 102.636 151.503 102.484C151.35 102.332 151.145 102.245 150.93 102.242H143.13C142.914 102.245 142.709 102.332 142.557 102.484C142.404 102.636 142.317 102.842 142.314 103.057V120.635C142.317 120.85 142.404 121.055 142.557 121.208C142.709 121.36 142.914 121.447 143.13 121.45H150.93C151.979 121.45 151.983 119.819 150.93 119.819Z" fill="#18C4FF"/>
<path d="M158.854 94.4189H166.651V120.635H158.854V94.4189Z" fill="white"/>
<path d="M166.65 119.82H158.85L159.665 120.635V94.4191L158.85 95.2381H166.65L165.835 94.4191V120.635C165.835 121.684 167.465 121.688 167.465 120.635V94.4191C167.462 94.2039 167.375 93.9983 167.223 93.8461C167.071 93.6939 166.865 93.607 166.65 93.604H158.85C158.635 93.607 158.429 93.6937 158.276 93.8458C158.123 93.9979 158.035 94.2035 158.031 94.4191V120.635C158.034 120.851 158.122 121.057 158.275 121.209C158.428 121.362 158.634 121.448 158.85 121.45H166.65C167.699 121.45 167.699 119.82 166.65 119.82Z" fill="white"/>
<path d="M174.571 96.646H182.367V120.635H174.571V96.646Z" fill="#18C4FF"/>
<path d="M182.371 119.819H174.571L175.39 120.635V96.6457L174.571 97.4608H182.371L181.556 96.6457V120.635C181.556 121.684 183.186 121.688 183.186 120.635V96.6457C183.183 96.43 183.096 96.2241 182.944 96.0712C182.792 95.9184 182.587 95.8307 182.371 95.8267H174.571C174.355 95.8297 174.149 95.9171 173.997 96.0701C173.844 96.2232 173.758 96.4297 173.756 96.6457V120.635C173.759 120.85 173.846 121.055 173.998 121.208C174.15 121.36 174.356 121.447 174.571 121.45H182.371C183.42 121.45 183.42 119.819 182.371 119.819Z" fill="#18C4FF"/>
<path d="M190.292 87.2271H198.088V120.634H190.292V87.2271Z" fill="#18C4FF"/>
<path d="M198.092 119.82H190.292L191.107 120.635V88.5883C191.131 88.1544 191.131 87.7196 191.107 87.2857V87.2272L190.292 88.0423H198.092L197.273 87.2272V116.501C197.273 117.854 197.219 119.231 197.273 120.576C197.275 120.596 197.275 120.615 197.273 120.635C197.273 121.684 198.907 121.688 198.907 120.635V91.3612C198.907 90.0079 198.966 88.6312 198.907 87.2857V87.2272C198.904 87.012 198.817 86.8064 198.665 86.6542C198.513 86.502 198.308 86.4151 198.092 86.4121H190.292C190.077 86.4151 189.871 86.502 189.719 86.6542C189.567 86.8064 189.48 87.012 189.477 87.2272V116.501C189.477 117.854 189.419 119.231 189.477 120.576V120.635C189.48 120.85 189.567 121.055 189.719 121.208C189.871 121.36 190.077 121.447 190.292 121.45H198.092C199.141 121.45 199.141 119.82 198.092 119.82Z" fill="#18C4FF"/>
<path d="M206.013 78.4287H213.809V120.635H206.013V99.5316V78.4287Z" fill="white"/>
<path d="M213.813 119.82H206.013L206.829 120.635V80.1488C206.829 79.6106 206.883 79.0412 206.829 78.503V78.4289L206.013 79.244H213.813L212.995 78.4289V115.44C212.995 117.14 212.928 118.856 212.995 120.561C212.996 120.585 212.996 120.61 212.995 120.635C212.995 121.684 214.629 121.688 214.629 120.635V83.6237C214.629 81.9233 214.695 80.2073 214.629 78.503C214.627 78.4783 214.627 78.4535 214.629 78.4289C214.626 78.2136 214.539 78.0081 214.387 77.8559C214.234 77.7036 214.029 77.6168 213.813 77.6138H206.013C205.798 77.6168 205.593 77.7036 205.44 77.8559C205.288 78.0081 205.201 78.2136 205.198 78.4289V115.44C205.198 117.14 205.132 118.856 205.198 120.561V120.635C205.201 120.85 205.288 121.055 205.44 121.208C205.593 121.36 205.798 121.447 206.013 121.45H213.813C214.863 121.45 214.863 119.82 213.813 119.82Z" fill="white"/>
<path d="M377.691 221.66H123.411C121.071 221.66 118.755 221.746 116.438 221.66C115.128 221.614 114.488 220.678 114.461 219.469C114.434 218.26 114.461 217.082 114.461 215.888V46.3164C114.461 44.9514 114.289 43.3485 116.208 43.1613C116.653 43.1184 117.128 43.1613 117.581 43.1613H375.262C376.007 43.1613 376.755 43.1301 377.5 43.1613C378.865 43.2198 379.415 44.2143 379.45 45.4155C379.501 48.9606 379.45 52.5096 379.45 56.0508V218.478C379.45 219.823 379.641 221.532 377.707 221.66C376.662 221.731 376.654 223.361 377.707 223.291C380.261 223.119 381.08 221.114 381.08 218.946V55.9845C381.08 52.4394 381.112 48.8943 381.08 45.3531C381.08 43.2861 379.848 41.6169 377.641 41.5311C377.017 41.5038 376.389 41.5311 375.765 41.5311H117.421C116.832 41.4972 116.241 41.5142 115.654 41.5818C113.314 41.9718 112.842 44.0154 112.842 45.9693V215.974C112.842 218.809 112.183 223.142 116.309 223.291C118.412 223.369 120.529 223.291 122.635 223.291H377.695C378.74 223.291 378.74 221.66 377.691 221.66Z" fill="black"/>
<path d="M30.3496 159.826C30.386 163.092 30.4809 166.355 30.6343 169.615C30.6655 170.313 30.7279 171.078 31.2193 171.565C31.6218 171.905 32.1103 172.128 32.6311 172.209C47.8723 175.956 64.5526 177.017 78.7642 170.356C79.6495 169.943 80.5621 169.459 81.0652 168.624C81.5098 167.887 81.5644 166.986 81.5956 166.125C81.849 159.411 81.5215 152.689 80.6167 146.032" fill="black"/>
<path d="M30.0498 159.826C30.0654 163.024 30.1356 166.223 30.2604 169.424C30.3072 170.648 30.4866 171.826 31.7424 172.353C32.9124 172.848 34.2735 173.043 35.5098 173.316C41.014 174.573 46.6201 175.332 52.2603 175.586C57.8299 175.844 63.4095 175.378 68.8587 174.197C71.5425 173.597 74.1722 172.777 76.7211 171.744C77.9693 171.305 79.1669 170.734 80.2935 170.04C80.7989 169.691 81.2165 169.23 81.5136 168.693C81.8107 168.156 81.9791 167.557 82.0056 166.943C82.1655 165.282 82.1343 163.582 82.1343 161.912C82.1343 160.121 82.0966 158.331 82.0212 156.542C81.925 152.986 81.5915 149.441 81.0228 145.93C80.9409 145.478 80.1687 145.575 80.2116 146.039C80.4846 149.031 80.8707 152.006 81.0423 155.009C81.2139 158.012 81.2763 161.019 81.2178 164.022C81.2178 164.779 81.1866 165.535 81.1515 166.292C81.1641 166.97 81.0311 167.643 80.7615 168.265C80.2155 169.322 78.948 169.798 77.9262 170.262C75.4982 171.348 72.9845 172.231 70.4109 172.903C60.0291 175.633 49.0506 175.059 38.5908 173.082C37.0776 172.796 35.5709 172.48 34.0707 172.134C33.3872 172.012 32.7124 171.845 32.0505 171.635C31.2705 171.346 31.0872 170.676 31.0248 169.919C30.744 166.569 30.7128 163.18 30.6348 159.826C30.6264 159.753 30.5914 159.685 30.5363 159.636C30.4813 159.587 30.4102 159.56 30.3364 159.56C30.2627 159.56 30.1916 159.587 30.1365 159.636C30.0815 159.685 30.0465 159.753 30.0381 159.826H30.0498Z" fill="black"/>
<path d="M145.716 135.174C144.821 133.216 143.927 131.26 143.032 129.305C142.775 128.739 142.486 128.135 141.948 127.834C141.41 127.534 140.63 127.608 139.971 127.756C137.541 128.306 135.24 129.297 132.951 130.256C126.921 132.771 120.819 135.104 114.644 137.257C113.95 137.499 113.205 137.744 112.491 137.565C111.961 137.387 111.476 137.094 111.072 136.707C103.405 130.308 96.8873 122.648 91.798 114.056C90.4876 111.841 89.2318 109.512 87.2701 107.847C85.8193 106.611 84.0526 105.807 82.2625 105.136C76.859 103.12 71.1009 102.227 65.3404 102.512H64.6189C64.6384 102.562 64.6618 102.609 64.6813 102.66C64.8454 103.029 64.9368 103.426 64.9504 103.83C64.9152 104.294 64.7823 104.746 64.5604 105.156C63.2896 107.85 61.6096 110.331 59.5801 112.511C59.3851 112.755 59.1352 112.949 58.8508 113.077C58.1995 113.315 57.517 112.862 56.971 112.437L53.8861 110.023C53.7949 109.934 53.6772 109.876 53.5507 109.859C53.4131 109.877 53.2854 109.94 53.188 110.039L51.2809 111.63C50.6621 112.201 49.9549 112.669 49.1866 113.014C48.8 113.182 48.3784 113.254 47.958 113.224C47.5375 113.193 47.1308 113.061 46.7725 112.839C46.3548 112.493 46.0157 112.063 45.778 111.575C44.218 108.912 42.658 106.115 42.2992 103.073L33.1225 103.3C33.1225 103.3 25.1197 132.46 27.5221 142.549C29.9245 152.638 38.6566 150.252 43.6291 150.798C48.6016 151.344 84.8911 146.118 85.1797 144.679C85.4683 143.239 84.1267 141.465 84.1306 139.363C84.1345 137.261 88.834 135.268 91.3027 134.683C93.7714 134.098 94.8634 136.243 94.0834 137.163C93.3034 138.084 93.2683 137.085 97.7923 140.654C102.316 144.222 99.8203 146.995 98.3734 149.039C96.9265 151.082 94.2511 150.431 92.695 150.209C91.1389 149.986 88.1281 148.415 88.1281 148.415C89.2123 149.347 99.1261 157.112 100.304 157.931C109.863 164.561 121.59 157.369 129.554 151.64C135.189 147.584 140.217 142.756 145.22 137.943C145.44 137.803 145.628 137.619 145.773 137.403C145.918 137.187 146.017 136.943 146.064 136.686C146.11 136.43 146.103 136.167 146.043 135.913C145.984 135.66 145.872 135.422 145.716 135.213V135.174Z" fill="black"/>
<path d="M146.066 134.968L143.726 129.831C143.149 128.568 142.603 127.199 140.996 127.21C140.252 127.255 139.516 127.398 138.809 127.636C137.892 127.889 136.995 128.201 136.106 128.536C134.433 129.172 132.795 129.89 131.141 130.568C127.73 131.967 124.294 133.311 120.833 134.601C119.102 135.241 117.366 135.868 115.627 136.485C114.847 136.762 113.985 137.175 113.143 137.214C112.156 137.261 111.431 136.481 110.736 135.892C105.714 131.623 101.191 126.799 97.2541 121.513C95.3052 118.883 93.502 116.149 91.8526 113.323C90.2536 110.593 88.6039 107.952 85.8154 106.303C84.196 105.399 82.4829 104.674 80.7064 104.142C78.8143 103.522 76.8801 103.038 74.9188 102.695C71.5155 102.151 68.066 101.952 64.6228 102.102C64.5519 102.104 64.4828 102.124 64.422 102.161C64.3611 102.197 64.3107 102.248 64.2754 102.31C64.2402 102.371 64.2213 102.441 64.2207 102.512C64.2201 102.583 64.2376 102.652 64.2718 102.715C64.4088 102.985 64.4907 103.28 64.5128 103.583C64.5349 103.886 64.4967 104.19 64.4005 104.477C64.1598 105.081 63.8757 105.666 63.5503 106.228C62.4439 108.304 61.0841 110.233 59.5021 111.973C59.0341 112.484 58.6207 112.905 57.9031 112.55C57.3465 112.227 56.8238 111.848 56.3431 111.419L54.8923 110.281C54.5296 110 54.046 109.442 53.5429 109.434C53.1529 109.434 52.8253 109.789 52.5445 110.019L51.0703 111.248C50.2279 111.95 49.2724 112.784 48.1141 112.808C46.7842 112.808 46.2733 111.638 45.7 110.632C44.3506 108.292 43.0324 105.799 42.7009 103.066C42.6944 102.964 42.6513 102.869 42.5795 102.797C42.5077 102.725 42.4122 102.682 42.3109 102.676L33.1342 102.898C33.046 102.901 32.9612 102.932 32.8913 102.986C32.8214 103.04 32.77 103.114 32.7442 103.198C31.9213 106.08 31.1998 109.017 30.5407 111.93C29.1446 117.803 28.0447 123.743 27.2452 129.726C26.8647 132.501 26.6706 135.298 26.6641 138.099C26.6953 140.712 27.0346 143.321 28.2046 145.693C28.8027 146.911 29.6629 147.982 30.7235 148.829C31.7841 149.675 33.0188 150.277 34.3393 150.591C36.7846 151.207 39.3235 151.059 41.8234 151.098C43.2586 151.098 44.6548 151.258 46.1134 151.188C48.1219 151.082 50.1226 150.887 52.1194 150.673C57.5794 150.096 62.9926 149.359 68.4097 148.54C73.0429 147.841 77.6995 147.136 82.2703 146.09C83.2063 145.876 84.4699 145.72 85.2811 145.154C86.0923 144.589 85.4917 143.107 85.2577 142.397C84.934 141.426 84.4777 140.342 84.5596 139.277C84.6103 138.657 85.0978 138.158 85.5424 137.768C86.8411 136.641 88.5649 135.927 90.1795 135.389C91.3144 134.999 93.6583 134.402 93.9313 136.216C94.0327 136.89 93.2839 137.031 93.2995 137.612C93.3151 138.193 94.3603 138.602 94.7425 138.856C95.4796 139.347 96.1972 139.87 96.9031 140.416C97.843 141.133 98.8024 141.89 99.4264 142.912C100.241 144.246 100.05 145.642 99.2977 146.944C98.584 148.189 97.6987 149.628 96.2089 149.944C94.7971 150.24 93.0499 149.916 91.6966 149.46C90.5474 149.06 89.4302 148.574 88.3543 148.005C87.9643 147.802 87.4885 148.329 87.859 148.645C90.1093 150.571 92.5039 152.35 94.84 154.171C96.1777 155.212 97.5115 156.254 98.8609 157.291C100.093 158.28 101.445 159.11 102.886 159.76C107.905 161.881 113.416 160.836 118.279 158.769C123.415 156.574 128.138 153.309 132.514 149.881C135.419 147.6 138.177 145.139 140.872 142.615C142.221 141.352 143.56 140.078 144.889 138.793C145.419 138.286 146.086 137.779 146.375 137.081C146.663 136.383 146.394 135.627 146.086 134.948C145.871 134.472 145.169 134.886 145.384 135.361C145.604 135.732 145.707 136.16 145.68 136.59C145.559 136.964 145.33 137.294 145.021 137.538C144.444 138.103 143.851 138.657 143.274 139.215C142.127 140.314 140.973 141.408 139.811 142.495C137.537 144.604 135.221 146.671 132.791 148.614C128.587 151.999 124.035 155.181 119.141 157.486C114.512 159.666 109.13 161.066 104.114 159.366C101.041 158.321 98.5372 156.043 96.0178 154.078C93.4984 152.112 90.8698 150.178 88.4245 148.075L87.9292 148.715C90.3082 149.944 93.0577 151.102 95.7994 150.829C96.6235 150.771 97.4109 150.466 98.0575 149.951C98.5746 149.456 99.0244 148.895 99.3952 148.282C100.14 147.221 100.819 146.012 100.787 144.679C100.745 142.807 99.3796 141.348 97.9951 140.256C96.8017 139.312 95.5615 138.45 94.2901 137.616C94.2043 137.561 94.0639 137.456 94.06 137.46C93.9898 137.483 94.1146 137.393 94.0912 137.542C94.0912 137.604 94.0912 137.772 94.0717 137.744C94.0522 137.717 94.0015 137.807 94.0912 137.744C94.1224 137.717 94.1497 137.682 94.177 137.655C94.2837 137.55 94.3816 137.436 94.4695 137.315C95.187 136.278 94.4227 134.909 93.4009 134.425C91.9579 133.739 90.1951 134.5 88.8262 135.046C87.3247 135.642 85.7062 136.387 84.583 137.577C84.1375 138.001 83.843 138.56 83.7445 139.168C83.6431 140.127 83.9668 141.141 84.2632 142.042C84.4036 142.471 84.5596 142.9 84.6766 143.341C84.7546 143.747 84.7925 144.16 84.7897 144.573C84.7897 144.452 84.8794 144.523 84.817 144.495C84.7546 144.468 84.934 144.441 84.817 144.495C84.7858 144.495 84.7546 144.534 84.7195 144.55C84.5765 144.618 84.4293 144.676 84.2788 144.725C84.0253 144.811 83.7718 144.885 83.5183 144.955C82.8007 145.154 82.0714 145.322 81.346 145.478C79.2244 145.942 77.0872 146.324 74.9461 146.691C69.4159 147.639 63.8584 148.446 58.2892 149.156C53.9329 149.71 49.5298 150.326 45.1345 150.431C43.4731 150.474 41.8117 150.298 40.1464 150.298C37.6231 150.298 34.9399 150.298 32.6311 149.128C27.3661 146.515 27.2608 139.737 27.5845 134.667C27.9745 128.505 29.1211 122.39 30.4003 116.361C31.2791 112.227 32.258 108.115 33.337 104.025L33.5008 103.409L33.1108 103.709L42.2875 103.483L41.8975 103.093C42.2251 105.768 43.3873 108.194 44.6977 110.503C45.2554 111.493 45.7975 112.843 46.8817 113.373C47.8879 113.865 49.0735 113.607 50.0017 113.077C51.1405 112.429 52.1272 111.458 53.1217 110.62C53.3362 110.444 53.3635 110.347 53.6209 110.394C53.8159 110.429 53.9875 110.624 54.1357 110.741L54.9508 111.38L56.7175 112.761C57.6028 113.443 58.6675 113.931 59.5996 113.069C60.5595 112.138 61.4196 111.109 62.1658 110C63.0411 108.795 63.8234 107.525 64.5058 106.201C64.8706 105.594 65.1464 104.937 65.3248 104.251C65.4044 103.595 65.2862 102.929 64.9855 102.34L64.6306 102.952C67.6991 102.811 70.7741 102.944 73.819 103.35C77.2428 103.846 80.5849 104.799 83.7562 106.182C85.281 106.829 86.6653 107.767 87.8317 108.943C88.8693 110.095 89.7745 111.36 90.5305 112.714C92.1997 115.518 93.9001 118.283 95.8111 120.931C99.5498 126.109 103.839 130.866 108.603 135.12C109.165 135.619 109.731 136.11 110.303 136.594C110.881 137.081 111.473 137.655 112.199 137.9C112.9 138.087 113.642 138.049 114.32 137.791C115.198 137.518 116.056 137.187 116.918 136.882C120.397 135.642 123.852 134.342 127.284 132.982C129.14 132.249 130.992 131.498 132.838 130.728C134.667 129.948 136.488 129.168 138.383 128.599C139.226 128.338 140.185 127.987 141.074 128.018C142.073 128.049 142.42 128.926 142.779 129.71L145.364 135.373C145.583 135.857 146.285 135.443 146.066 134.968Z" fill="black"/>
<path d="M50.5286 112.749C51.4412 112.921 52.0886 113.802 52.268 114.699C52.3907 115.62 52.3431 116.556 52.1276 117.46C50.6651 126.177 49.0817 140.279 47.0069 147.978C46.9328 148.262 47.9273 144.206 48.0287 144.468C48.1271 144.679 48.279 144.86 48.4694 144.994L54.2843 149.83L58.6016 145.15C58.9402 144.898 59.1924 144.547 59.3236 144.145C59.4549 143.744 59.4588 143.312 59.3348 142.908L54.6548 116.614C54.5339 116.087 54.4919 115.546 54.53 115.007C54.6083 114.45 54.852 113.929 55.2296 113.512C55.6071 113.095 56.1011 112.801 56.6477 112.667C56.1446 111.302 54.9278 110.877 53.5784 110.327C52.5176 111.185 51.7454 111.532 51.0785 112.722" fill="#FEFFFF"/>
<path d="M50.4545 113.022C52.0145 113.474 52.0145 115.327 51.839 116.625C51.683 117.706 51.4802 118.782 51.3125 119.858C50.9537 122.163 50.6183 124.472 50.2868 126.781C49.5809 131.648 48.8906 136.531 47.9975 141.359C47.6075 143.528 47.2448 145.782 46.574 147.884L47.4515 148.005C47.4515 148.239 47.4515 148.028 47.4749 147.966C47.51 147.841 47.5334 147.72 47.5646 147.595C47.6621 147.205 47.7596 146.815 47.861 146.453C47.9624 146.09 48.0677 145.673 48.1808 145.283C48.2237 145.142 48.2666 144.998 48.3173 144.858C48.3173 144.803 48.3173 144.713 48.3407 144.783C48.3134 144.631 48.8633 144.702 48.134 144.897L47.7869 144.85C47.6426 144.674 47.6036 144.647 47.6699 144.764C47.6954 144.828 47.7324 144.888 47.7791 144.939C47.8571 145.045 47.946 145.141 48.0443 145.228C48.2939 145.458 48.563 145.661 48.8243 145.879L50.5364 147.307L53.9645 150.158C54.0498 150.241 54.1647 150.288 54.2843 150.288C54.4039 150.288 54.5187 150.241 54.6041 150.158L57.416 147.12L58.7888 145.638C59.1836 145.267 59.5051 144.825 59.7365 144.335C59.8852 143.839 59.896 143.312 59.7677 142.81C59.6468 142.104 59.5181 141.402 59.3777 140.7L58.6562 136.671L55.7702 120.377L55.3568 118.072C55.1841 117.311 55.0539 116.54 54.9668 115.763C54.9059 115.185 55.0558 114.604 55.3889 114.126C55.7221 113.649 56.2161 113.308 56.7803 113.166C56.9041 113.131 57.0092 113.049 57.0727 112.938C57.1363 112.826 57.1531 112.694 57.1196 112.569C56.5151 111.033 55.1423 110.467 53.7149 109.875C53.6306 109.852 53.542 109.852 53.4579 109.875C53.3737 109.898 53.297 109.942 53.2352 110.003C52.2641 110.783 51.2852 111.396 50.6495 112.491C50.5938 112.605 50.5833 112.736 50.62 112.858C50.6567 112.979 50.7379 113.082 50.8474 113.146C50.9568 113.21 51.0865 113.231 51.2103 113.203C51.3342 113.176 51.4431 113.103 51.5153 112.998C52.1003 111.988 53.0402 111.411 53.9294 110.701L53.4497 110.826C54.5105 111.259 55.7312 111.676 56.1797 112.827L56.5151 112.234C56.0413 112.354 55.6006 112.579 55.2253 112.892C54.85 113.206 54.5498 113.599 54.3467 114.044C53.8436 115.143 54.1595 116.302 54.3467 117.437L55.8248 125.787C56.7998 131.291 57.7735 136.794 58.7459 142.295C58.8707 143.005 59.1359 143.746 58.6757 144.386C58.227 144.957 57.7397 145.496 57.2171 146L53.9489 149.534H54.6002L50.2751 145.938C49.6022 145.436 48.9769 144.873 48.407 144.257C48.361 144.187 48.2975 144.13 48.2228 144.092C48.1482 144.055 48.0649 144.037 47.9813 144.041C47.8977 144.046 47.8167 144.072 47.7463 144.117C47.676 144.163 47.6187 144.225 47.5802 144.3C47.237 144.881 47.1278 145.688 46.9601 146.328C46.7818 146.869 46.6513 147.425 46.5701 147.989C46.5272 148.512 47.2994 148.57 47.4476 148.11C48.0036 146.126 48.4386 144.11 48.7502 142.073C49.2104 139.616 49.6121 137.143 49.9904 134.663C50.7704 129.679 51.41 124.675 52.1861 119.691C52.2797 119.086 52.3733 118.482 52.4747 117.877C52.6529 117.076 52.7445 116.257 52.7477 115.436C52.6775 114.133 51.9989 112.706 50.591 112.464C50.5181 112.444 50.4401 112.454 50.3743 112.491C50.3085 112.528 50.2602 112.59 50.24 112.663C50.2198 112.736 50.2294 112.814 50.2667 112.88C50.304 112.946 50.366 112.994 50.4389 113.014L50.4545 113.022Z" fill="white"/>
<path d="M42.1703 78.5537C42.0533 80.086 42.0182 81.6235 42.065 83.1596C42.0811 84.7617 42.2206 86.3603 42.4823 87.941C43.0283 91.061 44.3309 93.9158 46.7723 95.9555C48.216 97.2271 49.9117 98.1799 51.7487 98.7518C53.4888 99.2342 55.3479 99.0274 56.9396 98.1746C58.4579 97.3962 59.808 96.3264 60.9128 95.0262C62.0176 93.726 62.8554 92.2209 63.3785 90.5969C63.8493 88.7631 64.0903 86.878 64.0961 84.9848C64.2085 82.7604 64.202 80.5316 64.0766 78.308C64.0766 78.2045 64.0355 78.1053 63.9624 78.0322C63.8892 77.9591 63.79 77.918 63.6866 77.918C63.5832 77.918 63.484 77.9591 63.4108 78.0322C63.3377 78.1053 63.2966 78.2045 63.2966 78.308C63.1406 81.818 63.4565 85.3943 62.8091 88.8809C62.1949 91.9634 60.4044 94.6856 57.8171 96.4703C56.4287 97.4609 54.7712 98.2097 53.0318 97.9952C51.2222 97.7729 49.5452 96.8057 48.11 95.7293C46.8827 94.8404 45.8491 93.7112 45.0719 92.4104C44.3516 91.1497 43.8257 89.7876 43.5119 88.37C43.1638 86.7465 42.959 85.0957 42.8996 83.4365C42.8138 81.8141 42.8684 80.1761 42.7436 78.5537C42.7436 78.4792 42.714 78.4078 42.6613 78.3551C42.6087 78.3025 42.5373 78.2729 42.4628 78.2729C42.3883 78.2729 42.3169 78.3025 42.2642 78.3551C42.2116 78.4078 42.182 78.4792 42.182 78.5537H42.1703Z" fill="black"/>
<path d="M42.5798 81.1552C42.6226 80.8241 42.5549 80.4882 42.387 80.1997C42.2191 79.9112 41.9606 79.6863 41.6516 79.5601C41.3202 79.435 40.9597 79.4085 40.6136 79.484C40.2676 79.5594 39.9508 79.7335 39.7016 79.9852C39.4317 80.259 39.2227 80.5868 39.0883 80.947C38.9539 81.3073 38.897 81.6919 38.9216 82.0756C38.9122 82.8608 39.1739 83.6253 39.6626 84.2401C39.9911 84.5677 40.3772 84.8321 40.8014 85.0201C41.0003 85.1176 41.1914 85.2073 41.4137 85.2892C41.6434 85.402 41.8949 85.4632 42.1508 85.4686C42.2434 85.4787 42.3366 85.4553 42.4135 85.4026C42.4904 85.35 42.5459 85.2715 42.5699 85.1815C42.594 85.0914 42.585 84.9958 42.5446 84.9118C42.5042 84.8278 42.435 84.7611 42.3497 84.7237C42.1703 84.6223 41.9772 84.5474 41.7764 84.5014C41.593 84.4357 41.4134 84.3602 41.2382 84.2752C40.9072 84.1281 40.6018 83.9293 40.3334 83.6863C40.1138 83.4113 39.9522 83.0946 39.8584 82.7555C39.7645 82.4163 39.7404 82.0616 39.7874 81.7129C39.7975 81.4012 39.8991 81.0993 40.0793 80.8449C40.2596 80.5904 40.5107 80.3945 40.8014 80.2816C40.9326 80.2336 41.0731 80.2166 41.2119 80.232C41.3507 80.2474 41.4841 80.2947 41.6016 80.3703C41.719 80.4459 41.8174 80.5476 41.889 80.6675C41.9606 80.7874 42.0035 80.9223 42.0143 81.0616C42.0143 81.3775 42.533 81.4516 42.5798 81.1396V81.1552Z" fill="black"/>
<path d="M41.3395 82.1615H41.4292H41.4721H41.5072C41.4409 82.1615 41.4643 82.142 41.5072 82.1615C41.5341 82.1756 41.5601 82.1912 41.5852 82.2083C41.6164 82.2278 41.5267 82.1537 41.5852 82.2083L41.6125 82.2317L41.6437 82.2668C41.6788 82.3058 41.6437 82.2668 41.6437 82.2473C41.688 82.2969 41.7213 82.3554 41.7412 82.4189L41.7061 82.3331C41.7061 82.3877 41.749 82.4384 41.7724 82.493L41.7373 82.4072C41.7865 82.5339 41.8256 82.6643 41.8543 82.7972V82.6997V82.7192V82.6217L41.8933 82.532C41.8953 82.541 41.8953 82.5503 41.8933 82.5593L41.9518 82.4813C41.872 82.5543 41.8128 82.6471 41.7802 82.7504C41.7519 82.8674 41.7624 82.9905 41.8102 83.1009C41.8581 83.2114 41.9407 83.3033 42.0454 83.3627C42.1196 83.4036 42.2025 83.4264 42.2872 83.429C42.3585 83.4296 42.4287 83.4108 42.49 83.3744C42.5474 83.3365 42.5965 83.2874 42.6343 83.2301C42.6592 83.1875 42.6752 83.1403 42.6812 83.0913C42.6872 83.0424 42.6832 82.9927 42.6694 82.9454C42.6393 82.856 42.5803 82.7791 42.5017 82.727C42.4338 82.6852 42.3553 82.6635 42.2755 82.6646H42.3769H42.3418L42.4315 82.7036L42.4003 82.6841L42.4744 82.7426L42.4393 82.7075L42.4978 82.7816V82.7504L42.5368 82.8401C42.5351 82.8232 42.5351 82.8062 42.5368 82.7894V82.8908V82.8518V82.9532C42.5346 82.9403 42.5346 82.9271 42.5368 82.9142L42.5017 83.0039C42.499 82.9963 42.499 82.988 42.5017 82.9805L42.4432 83.0585C42.4666 83.0273 42.4978 83 42.5212 82.9649C42.583 82.8889 42.6162 82.7937 42.6148 82.6958C42.6081 82.5979 42.5857 82.5018 42.5485 82.4111C42.5173 82.3214 42.4822 82.2356 42.4432 82.1459C42.401 82.0594 42.3486 81.9782 42.2872 81.9041C42.1812 81.7687 42.0381 81.6671 41.8754 81.6117C41.7126 81.5563 41.5373 81.5495 41.3707 81.5921C41.3065 81.6111 41.2513 81.6525 41.2149 81.7088C41.1786 81.765 41.1635 81.8324 41.1724 81.8987C41.1814 81.9651 41.2137 82.0261 41.2637 82.0707C41.3136 82.1153 41.3779 82.1406 41.4448 82.142L41.3395 82.1615Z" fill="black"/>
<path d="M64.1279 81.077C64.1381 80.9378 64.1805 80.803 64.2516 80.683C64.3228 80.5631 64.4208 80.4612 64.538 80.3856C64.6553 80.31 64.7884 80.2626 64.9271 80.2473C65.0657 80.2319 65.206 80.2489 65.3369 80.297C65.6281 80.4097 65.8797 80.6055 66.0606 80.8599C66.2416 81.1143 66.3439 81.4162 66.3548 81.7282C66.402 82.0773 66.3775 82.4323 66.283 82.7715C66.1885 83.1108 66.0258 83.4273 65.8049 83.7016C65.5386 83.9455 65.2343 84.1444 64.904 84.2906C64.7441 84.3686 64.5764 84.4387 64.4087 84.5011C64.1934 84.5517 63.986 84.6318 63.7925 84.739C63.7072 84.7765 63.638 84.8432 63.5976 84.9272C63.5572 85.0112 63.5482 85.1068 63.5723 85.1969C63.5963 85.2869 63.6518 85.3654 63.7287 85.418C63.8056 85.4707 63.8988 85.4941 63.9914 85.484C64.4044 85.4531 64.8047 85.3277 65.1614 85.1174C65.5454 84.9455 65.9058 84.7253 66.2339 84.4622C66.8107 83.9203 67.1523 83.1741 67.1855 82.3835C67.2408 81.9977 67.2186 81.6048 67.1202 81.2278C67.0217 80.8508 66.8491 80.4972 66.6122 80.1878C66.3953 79.9079 66.1055 79.6932 65.7746 79.5673C65.4436 79.4414 65.0844 79.4091 64.7363 79.474C64.3641 79.5623 64.0372 79.7843 63.8179 80.0978C63.5985 80.4113 63.5021 80.7945 63.5468 81.1745C63.5975 81.4982 64.1201 81.4163 64.1162 81.0965L64.1279 81.077Z" fill="black"/>
<path d="M64.8731 81.6116C64.7065 81.5685 64.531 81.5751 64.3681 81.6305C64.2053 81.686 64.0622 81.7878 63.9566 81.9236C63.8965 81.9951 63.8455 82.0737 63.8045 82.1576C63.7655 82.2434 63.7265 82.3331 63.6953 82.4228C63.658 82.5163 63.6357 82.615 63.629 82.7153C63.6259 82.7978 63.6477 82.8793 63.6914 82.9493C63.7265 83 63.7655 83.0312 63.8006 83.078L63.7421 83V83.0234L63.707 82.9337C63.7092 82.9466 63.7092 82.9598 63.707 82.9727V82.8713C63.7087 82.8843 63.7087 82.8974 63.707 82.9103V82.8089C63.7087 82.8258 63.7087 82.8428 63.707 82.8596L63.746 82.7699L63.7265 82.8011L63.785 82.727L63.7499 82.7621L63.824 82.7036L63.7928 82.7231L63.8825 82.6841H63.8474H63.9488C63.869 82.6835 63.7907 82.7051 63.7226 82.7465C63.642 82.7965 63.5824 82.8742 63.5549 82.9649C63.5408 83.0122 63.5367 83.0619 63.5427 83.1109C63.5488 83.1599 63.5649 83.2071 63.59 83.2496C63.6264 83.3068 63.6742 83.3559 63.7304 83.3939C63.7936 83.4293 63.8647 83.4481 63.9371 83.4485C64.019 83.4472 64.0994 83.4258 64.1711 83.3861C64.2648 83.336 64.341 83.2584 64.3895 83.1638C64.4559 83.0453 64.4754 82.9061 64.4441 82.7738C64.4138 82.6685 64.3543 82.5738 64.2725 82.5008L64.331 82.5788C64.329 82.5698 64.329 82.5605 64.331 82.5515L64.37 82.6412V82.7387V82.6802V82.7777C64.3969 82.6444 64.436 82.5138 64.487 82.3877L64.4519 82.4735L64.5182 82.3136L64.4831 82.3994C64.495 82.3684 64.5094 82.3385 64.526 82.3097C64.526 82.3097 64.5611 82.2317 64.5767 82.2278C64.5923 82.2239 64.526 82.2902 64.5767 82.2551L64.6079 82.22C64.6173 82.2087 64.6277 82.1982 64.6391 82.1888C64.6781 82.1498 64.5923 82.22 64.6391 82.1888L64.7054 82.1459C64.7054 82.1459 64.7678 82.1186 64.7054 82.1459C64.643 82.1732 64.7054 82.1459 64.7054 82.1459H64.7483H64.7288H64.8185C64.8917 82.1455 64.9619 82.116 65.0135 82.064C65.0562 82.0191 65.0835 81.9617 65.0915 81.9002C65.1006 81.8341 65.0855 81.7668 65.0489 81.7109C65.0124 81.655 64.9568 81.6142 64.8926 81.596L64.8731 81.6116Z" fill="black"/>
<path d="M48.3604 82.0405C48.3127 82.0325 48.2639 82.0325 48.2161 82.0405C48.1353 82.0656 48.0618 82.1097 48.0016 82.1692L47.9626 82.2082C47.9287 82.2468 47.8986 82.2886 47.8729 82.333C47.8477 82.3782 47.8293 82.4268 47.8183 82.4773C47.8183 82.5202 47.8183 82.567 47.7988 82.6138C47.8023 82.661 47.8088 82.7079 47.8183 82.7542C47.8283 82.8038 47.8468 82.8513 47.8729 82.8946C47.928 82.9835 48.0044 83.0573 48.0952 83.1091C48.1421 83.1355 48.1918 83.1565 48.2434 83.1715C48.2945 83.184 48.3469 83.1906 48.3994 83.191C48.4454 83.1881 48.491 83.1816 48.5359 83.1715H48.5593C48.6457 83.1448 48.7246 83.098 48.7894 83.035C48.8301 83.003 48.8622 82.9615 48.883 82.9141C48.9287 82.8344 48.9542 82.7447 48.9571 82.6528C48.9583 82.5976 48.9518 82.5424 48.9376 82.489C48.9393 82.4813 48.9393 82.4733 48.9376 82.4656C48.9376 82.4266 48.9064 82.3798 48.8869 82.3408C48.8598 82.2931 48.8256 82.2497 48.7855 82.2121C48.7187 82.1477 48.637 82.1008 48.5476 82.0756C48.5011 82.068 48.4537 82.068 48.4072 82.0756C48.32 82.0744 48.234 82.096 48.1576 82.138L48.064 82.2121C48.0215 82.2518 47.9893 82.3014 47.9704 82.3564C47.951 82.3925 47.9403 82.4325 47.9392 82.4734C47.9237 82.5336 47.9237 82.5966 47.9392 82.6567L47.986 82.7659L48.0562 82.8595C48.0979 82.9016 48.1486 82.9336 48.2044 82.9531C48.2596 82.982 48.3216 82.9955 48.3838 82.9921H48.259H48.2824L48.1732 82.9453L48.2044 82.9648L48.1108 82.8907C48.1217 82.8967 48.13 82.9064 48.1342 82.918L48.064 82.8244V82.8517L48.0172 82.7425C48.019 82.7555 48.019 82.7686 48.0172 82.7815V82.6606V82.6801V82.5592C48.0172 82.5592 48.0172 82.5592 48.0172 82.5826L48.0601 82.4734L48.1303 82.3837L48.22 82.3135H48.1966L48.3019 82.2667H48.2707H48.3916C48.3776 82.2705 48.3628 82.2705 48.3487 82.2667H48.4696C48.4544 82.2713 48.4381 82.2713 48.4228 82.2667L48.5281 82.3135L48.4891 82.2901L48.5788 82.3603L48.5515 82.333L48.6178 82.4188C48.607 82.4043 48.5979 82.3886 48.5905 82.372L48.6334 82.4773V82.4344V82.5475C48.6295 82.5295 48.6295 82.5109 48.6334 82.4929V82.6021C48.6312 82.584 48.6312 82.5657 48.6334 82.5475L48.5944 82.6411C48.6033 82.6221 48.6138 82.6039 48.6256 82.5865L48.5671 82.6645L48.6295 82.5865C48.6311 82.571 48.6311 82.5553 48.6295 82.5397C48.6362 82.518 48.6454 82.497 48.6568 82.4773L48.6178 82.567V82.5436C48.6493 82.4884 48.6658 82.4259 48.6658 82.3623C48.6658 82.2987 48.6493 82.2362 48.6178 82.1809C48.5862 82.1291 48.5419 82.0862 48.4891 82.0561C48.4357 82.0218 48.3732 82.0041 48.3097 82.0054L48.3604 82.0405Z" fill="black"/>
<path d="M47.1354 80.9054C47.2407 80.8625 47.3499 80.8313 47.4552 80.7962L47.6307 80.7494H47.7087H47.775H47.8218H47.9193H48.0831H48.4731L49.1868 80.7689C49.3307 80.7789 49.4754 80.767 49.6158 80.7338C49.7464 80.6998 49.8583 80.6155 49.927 80.4993C49.9957 80.3832 50.0156 80.2445 49.9824 80.1137C49.9565 80.0247 49.9028 79.9464 49.8291 79.8902C49.7553 79.834 49.6655 79.803 49.5729 79.8017C49.4734 79.7941 49.3741 79.8173 49.2882 79.868C49.2882 79.868 49.3779 79.868 49.3896 79.8407C49.3572 79.8448 49.3245 79.8448 49.2921 79.8407H48.9567C48.7188 79.8407 48.4809 79.8407 48.243 79.8641C47.9952 79.8822 47.7497 79.924 47.5098 79.9889C47.2527 80.0639 47.0164 80.1974 46.8195 80.3789C46.7675 80.433 46.7344 80.5026 46.7252 80.5771C46.7161 80.6517 46.7314 80.7272 46.7688 80.7923C46.8073 80.8578 46.8665 80.9087 46.9371 80.9369C47.0077 80.9652 47.0857 80.9692 47.1588 80.9483L47.1354 80.9054Z" fill="black"/>
<path d="M57.4707 82.5788V82.6022L57.4317 82.5125L57.459 82.5749C57.4682 82.6074 57.4857 82.637 57.5097 82.6607L57.5448 82.7075L57.4863 82.6295C57.499 82.6464 57.5095 82.6647 57.5175 82.6841L57.4785 82.5905C57.4785 82.5905 57.4785 82.6256 57.4785 82.6451V82.5359V82.5905V82.4774V82.5203L57.5214 82.415C57.5143 82.4326 57.5037 82.4485 57.4902 82.4618L57.5604 82.376L57.5331 82.4033L57.6189 82.3331L57.5838 82.3565L57.6891 82.3097H57.6423H57.7632C57.7492 82.3136 57.7344 82.3136 57.7203 82.3097H57.8412H57.81L57.9153 82.3565H57.8919L57.9816 82.4267L58.0518 82.5164L58.0986 82.6256C58.0968 82.6179 58.0968 82.6099 58.0986 82.6022V82.7231C58.0947 82.7131 58.0947 82.702 58.0986 82.6919V82.8128C58.0968 82.7999 58.0968 82.7868 58.0986 82.7738L58.0518 82.883L58.0713 82.8557L57.9972 82.9493C58.0042 82.9384 58.0135 82.929 58.0245 82.922L57.9309 82.9961L57.9621 82.9766L57.8529 83.0234H57.8763H57.7515H57.8763C57.9339 83.0084 57.9872 82.9804 58.0323 82.9415C58.0652 82.9204 58.0931 82.8925 58.1142 82.8596C58.1531 82.8146 58.1811 82.7612 58.1961 82.7036V82.5827V82.4618C58.1825 82.4037 58.1543 82.35 58.1142 82.3058C58.0803 82.2569 58.0365 82.2157 57.9855 82.1849C57.9105 82.143 57.8258 82.1215 57.7398 82.1225C57.6932 82.1171 57.6461 82.1171 57.5994 82.1225C57.5112 82.1456 57.4305 82.1913 57.3654 82.2551C57.3277 82.2895 57.2949 82.3288 57.2679 82.3721C57.241 82.4179 57.2187 82.4662 57.2016 82.5164C57.1881 82.5687 57.1803 82.6224 57.1782 82.6763C57.1685 82.7292 57.1685 82.7834 57.1782 82.8362C57.2164 82.9745 57.3075 83.0922 57.4317 83.1638C57.4757 83.1922 57.5247 83.2121 57.576 83.2223C57.6302 83.2321 57.6857 83.2321 57.7398 83.2223C57.7912 83.2196 57.8421 83.2117 57.8919 83.1989C57.9443 83.1842 57.9942 83.1619 58.0401 83.1326C58.0839 83.1047 58.1245 83.072 58.161 83.0351C58.2218 82.9723 58.2672 82.8962 58.2936 82.8128C58.3249 82.7072 58.3249 82.5948 58.2936 82.4891C58.2792 82.4373 58.2583 82.3875 58.2312 82.3409C58.2018 82.2948 58.1678 82.2516 58.1298 82.2122C58.0823 82.1624 58.0246 82.1234 57.9607 82.0978C57.8968 82.0722 57.8281 82.0607 57.7593 82.064C57.6958 82.0627 57.6333 82.0804 57.5799 82.1147C57.5271 82.1448 57.4829 82.1877 57.4512 82.2395C57.4186 82.2944 57.4014 82.3571 57.4014 82.4209C57.4014 82.4847 57.4186 82.5474 57.4512 82.6022L57.4707 82.5788Z" fill="black"/>
<path d="M59.3343 80.3398C59.1453 80.1598 58.917 80.0262 58.6674 79.9498C58.4203 79.8804 58.1668 79.836 57.9108 79.8172C57.6807 79.7938 57.4506 79.8172 57.2205 79.7938C57.1074 79.7938 56.9982 79.7938 56.8851 79.7938H56.7876H56.8461C56.9241 79.7938 56.7525 79.7587 56.7408 79.7548C56.6893 79.7452 56.6364 79.7452 56.5848 79.7548C56.492 79.7555 56.4019 79.7863 56.3281 79.8425C56.2542 79.8988 56.2006 79.9775 56.1753 80.0668C56.1442 80.1867 56.1584 80.3139 56.2153 80.4241C56.2721 80.5342 56.3676 80.6194 56.4834 80.6635C56.6296 80.7156 56.7847 80.7382 56.9397 80.7298L57.6729 80.7103C57.9071 80.7012 58.1416 80.7077 58.3749 80.7298H58.4061H58.4841L58.6596 80.7766C58.7727 80.8117 58.8858 80.8468 58.9989 80.8897C59.3187 81.0106 59.5722 80.5387 59.3265 80.3203L59.3343 80.3398Z" fill="black"/>
<path d="M51.5109 86.7985C51.4168 86.8943 51.3533 87.0158 51.3283 87.1477C51.3033 87.2796 51.318 87.4159 51.3705 87.5395C51.494 87.7855 51.6976 87.9822 51.9477 88.0972C52.4345 88.3933 53.0018 88.5297 53.5701 88.4872C53.855 88.4546 54.1368 88.3985 54.4125 88.3195C54.6736 88.2623 54.9138 88.1341 55.1067 87.949C55.1944 87.8572 55.2617 87.7479 55.3041 87.6283C55.3464 87.5086 55.3629 87.3813 55.3524 87.2548C55.3251 86.935 55.1028 86.5723 54.7362 86.5879C54.6618 86.5899 54.5891 86.611 54.5252 86.6493C54.4614 86.6876 54.4084 86.7417 54.3716 86.8063C54.3347 86.871 54.3152 86.9441 54.3148 87.0186C54.3145 87.0931 54.3333 87.1663 54.3696 87.2314C54.395 87.277 54.4265 87.319 54.4632 87.3562C54.4632 87.3796 54.5139 87.4381 54.4632 87.3562C54.4125 87.2743 54.4398 87.286 54.4632 87.3562C54.4359 87.2587 54.4632 87.325 54.4632 87.3562C54.4632 87.3874 54.4632 87.2821 54.4632 87.3562V87.3133C54.4398 87.3484 54.4398 87.3562 54.4632 87.3328C54.4866 87.3094 54.3969 87.3913 54.4632 87.3328C54.4386 87.3507 54.4125 87.3663 54.3852 87.3796C54.3368 87.4084 54.2841 87.4295 54.2292 87.442C54.1473 87.4693 54.0615 87.4888 53.9796 87.5122C53.8182 87.5559 53.654 87.5885 53.4882 87.6097C53.1486 87.6492 52.8045 87.6051 52.4859 87.481C52.3397 87.4374 52.2004 87.373 52.0725 87.2899C52.0338 87.2636 52.005 87.2252 51.9906 87.1807V87.1456C52.0227 87.0825 52.0319 87.0103 52.0165 86.9412C52.0011 86.8721 51.9621 86.8106 51.9062 86.7672C51.8503 86.7238 51.7811 86.7012 51.7103 86.7034C51.6396 86.7055 51.5718 86.7323 51.5187 86.779L51.5109 86.7985Z" fill="black"/>
<path d="M54.9428 90.6206C53.7303 90.7122 52.5127 90.7122 51.3002 90.6206C51.2509 90.6093 51.1999 90.6083 51.1502 90.6177C51.1005 90.6271 51.0533 90.6467 51.0116 90.6752C50.9063 90.7766 50.957 90.9521 51.0116 91.0652C51.2139 91.4442 51.5057 91.768 51.8618 92.0085C52.2178 92.2489 52.6272 92.3988 53.0543 92.4449C53.4814 92.491 53.9134 92.4321 54.3125 92.2732C54.7117 92.1143 55.0659 91.8602 55.3445 91.5332C55.4821 91.3946 55.5675 91.2127 55.5863 91.0184C55.5872 90.9238 55.5537 90.832 55.492 90.7603C55.4303 90.6885 55.3446 90.6416 55.2509 90.6284" fill="black"/>
<path d="M54.943 90.3278C53.9446 90.3278 52.9345 90.2888 51.9361 90.2069C51.4954 90.1718 50.8792 89.9924 50.5906 90.4565C50.341 90.8465 50.5906 91.3145 50.8441 91.6499C51.3318 92.3103 52.0601 92.7519 52.8712 92.879C53.6823 93.006 54.5107 92.8082 55.177 92.3285C55.5865 92.0731 55.892 91.6806 56.0389 91.2209C56.0759 91.0939 56.0799 90.9595 56.0507 90.8305C56.0214 90.7014 55.9598 90.5819 55.8717 90.4832C55.7835 90.3846 55.6717 90.3099 55.5468 90.2664C55.4219 90.2228 55.2879 90.2117 55.1575 90.2342C54.8377 90.3083 54.7246 90.8426 55.06 90.9869C55.1926 91.0415 55.1575 91.0571 55.06 91.1936C54.9323 91.3584 54.7781 91.5007 54.6037 91.6148C54.2265 91.871 53.7805 92.007 53.3245 92.0048C52.9048 91.9917 52.4981 91.8561 52.1545 91.6148C51.9824 91.4994 51.8275 91.3602 51.6943 91.2014C51.6319 91.1297 51.5758 91.0527 51.5266 90.9713C51.5032 90.9362 51.4759 90.8504 51.4408 90.827C51.4057 90.8036 51.4876 90.827 51.4408 90.8933L51.2731 91.061C51.3653 91.0541 51.4578 91.0541 51.55 91.061H52.0531H53.0554C53.7218 91.037 54.386 90.9719 55.0444 90.866C55.3759 90.8153 55.2901 90.2888 54.9664 90.2888L54.943 90.3278Z" fill="black"/>
<path d="M45.4072 94.0681C45.4501 94.6258 45.6334 95.1835 45.7231 95.7334C45.8245 96.3418 45.8908 96.9502 45.9337 97.5625C46.0195 98.7325 46.039 99.9025 46.0585 101.1C46.0585 101.213 46.1033 101.321 46.183 101.4C46.2628 101.48 46.3709 101.525 46.4836 101.525C46.5964 101.525 46.7045 101.48 46.7842 101.4C46.8639 101.321 46.9087 101.213 46.9087 101.1C46.8736 99.8752 46.8424 98.6506 46.702 97.4299C46.6318 96.8449 46.546 96.2599 46.4329 95.6788C46.35 95.0731 46.1778 94.483 45.922 93.9277C45.8911 93.8757 45.8439 93.8353 45.7878 93.8126C45.7317 93.79 45.6697 93.7863 45.6113 93.8022C45.5529 93.8182 45.5013 93.8528 45.4645 93.9008C45.4276 93.9488 45.4075 94.0076 45.4072 94.0681Z" fill="black"/>
<path d="M60.8634 94.1264C60.4837 95.2793 60.2748 96.4815 60.2433 97.6949C60.1749 98.9024 60.2298 100.114 60.4071 101.31C60.4695 101.739 61.2105 101.642 61.1637 101.209C61.0315 100.044 60.9884 98.8704 61.035 97.6988C61.0857 96.5288 61.2963 95.3588 61.4055 94.1888C61.4367 93.8573 60.9648 93.8417 60.8634 94.1147V94.1264Z" fill="black"/>
<path d="M42.366 81.6034C43.2474 79.8562 44.1444 78.0505 44.2809 76.1005C44.3472 75.1957 44.2809 74.1505 44.9478 73.5304C45.4665 73.0351 46.2504 72.9805 46.968 72.9649C51.2931 72.8713 55.6026 74.6536 61.1289 72.0874C61.9089 71.7208 61.2147 72.8011 61.3239 73.6864C61.565 75.2031 61.9422 76.6951 62.451 78.1441C62.8722 79.2244 63.5898 79.8211 63.6678 81.0106C64.5102 80.2774 64.7091 79.0606 64.8378 77.953C65.1264 75.7612 65.3799 73.3822 64.2723 71.4673C63.8667 70.8248 63.3891 70.2308 62.8488 69.6967C61.4565 68.2147 59.9706 66.7093 58.0518 66.0424C56.9047 65.6994 55.7156 65.517 54.5184 65.5003C52.8315 65.3541 51.1352 65.3541 49.4484 65.5003C47.7526 65.6447 46.1236 66.228 44.7216 67.1929C43.2747 68.2537 42.2763 69.7942 41.3091 71.2996C40.9301 71.8311 40.6293 72.4142 40.416 73.0312C40.3108 73.3401 40.2713 73.6677 40.3002 73.9927C40.3291 74.3178 40.4256 74.6333 40.5837 74.9188C40.7982 75.2581 41.1297 75.5155 41.3247 75.8665C41.4902 76.2152 41.5869 76.5926 41.6094 76.978L41.9994 80.2462" fill="black"/>
<path d="M42.6078 81.7441C43.2544 80.6215 43.8075 79.4475 44.2614 78.2341C44.462 77.6593 44.5993 77.0643 44.6709 76.4596C44.692 75.8469 44.7507 75.2361 44.8464 74.6305C45.1623 73.3201 46.5624 73.3903 47.6583 73.4137C48.7542 73.4371 49.7487 73.5424 50.7783 73.6516C53.0325 73.8895 55.2828 74.0689 57.5331 73.6789C58.1438 73.5726 58.7469 73.4266 59.3388 73.2421C59.6235 73.1524 59.9043 73.0549 60.1851 72.9496C60.3606 72.8833 60.5322 72.8131 60.7038 72.739C60.8754 72.6649 61.2615 72.5791 61.3317 72.4699L61.0704 72.2242V72.3217C61.0404 72.4062 61.0208 72.4939 61.0119 72.583C60.9548 72.8245 60.9131 73.0694 60.8871 73.3162C60.8761 73.7429 60.922 74.1692 61.0236 74.5837C61.2301 75.6757 61.5076 76.7531 61.8543 77.809C62.026 78.3305 62.2522 78.8325 62.529 79.3066C62.8839 79.8216 63.1197 80.4091 63.2193 81.0265C63.2214 81.1159 63.2495 81.2028 63.3002 81.2764C63.3509 81.3501 63.422 81.4074 63.5048 81.4413C63.5875 81.4753 63.6783 81.4843 63.7662 81.4675C63.854 81.4506 63.935 81.4085 63.9993 81.3463C65.0679 80.3557 65.2122 78.8503 65.3838 77.4853C65.5749 75.9487 65.7036 74.3653 65.3253 72.8365C64.9353 71.2375 63.8667 70.0792 62.763 68.917C61.7478 67.7553 60.544 66.7731 59.2023 66.0115C57.6657 65.2315 55.9614 65.1106 54.2649 65.0092C52.4911 64.8545 50.7062 64.8793 48.9375 65.0833C47.3722 65.2779 45.8753 65.8406 44.5695 66.7252C43.3446 67.6756 42.3032 68.8413 41.4963 70.165C40.6227 71.4793 39.363 73.1134 40.0065 74.7826C40.1634 75.1331 40.3798 75.4537 40.6461 75.7303C40.9426 76.082 41.1188 76.5193 41.1492 76.9783C41.2857 78.0664 41.4066 79.1545 41.5392 80.2465C41.6133 80.8666 42.6 80.8744 42.522 80.2465L42.2178 77.7466C42.132 77.0485 42.1242 76.2529 41.7732 75.625C41.4222 74.9971 40.8489 74.6773 40.806 73.9246C40.7631 73.1719 41.1531 72.5011 41.5353 71.8888C42.2489 70.6538 43.0936 69.4992 44.0547 68.4451C45.067 67.4126 46.3387 66.6716 47.7363 66.3001C49.2526 65.9308 50.8152 65.7876 52.3734 65.875C53.9802 65.9218 55.6845 65.9296 57.2523 66.3079C58.6382 66.6932 59.9054 67.42 60.9378 68.4217C61.9869 69.3772 63.1764 70.4614 63.894 71.6938C64.7013 73.09 64.7169 74.7631 64.5843 76.3231C64.4673 77.7232 64.4556 79.6615 63.348 80.6872L64.128 81.007C64.0188 79.7902 63.2349 78.9556 62.8293 77.848C62.4741 76.8369 62.19 75.8022 61.9791 74.7514C61.8575 74.3203 61.7855 73.8768 61.7646 73.4293C61.7646 72.9964 61.9869 72.5674 61.9479 72.1384C61.9446 72.0511 61.9216 71.9657 61.8806 71.8886C61.8396 71.8115 61.7816 71.7447 61.711 71.6933C61.6404 71.6418 61.559 71.6071 61.4731 71.5916C61.3871 71.5762 61.2987 71.5805 61.2147 71.6041C60.91 71.7112 60.614 71.8416 60.3294 71.9941C59.9394 72.154 59.5494 72.2944 59.136 72.4192C56.6634 73.1992 54.1284 73.129 51.5817 72.8677C50.4117 72.7507 49.2417 72.6025 48.0717 72.5518C47.0265 72.5089 45.7317 72.4114 44.8386 73.0744C43.6686 73.9441 43.9767 75.5938 43.77 76.8496C43.4329 78.4555 42.8778 80.0078 42.1203 81.4633C41.9682 81.7831 42.4284 82.0678 42.6039 81.7441H42.6078Z" fill="black"/>
<path d="M45.166 100.312C47.5459 103.487 50.436 106.245 53.7187 108.475C53.8015 108.521 53.8974 108.54 53.9917 108.527C54.0861 108.515 54.1737 108.471 54.2413 108.404C57.0454 106.064 59.752 103.389 61.8073 100.355C62.0296 100.027 61.5148 99.6215 61.2535 99.9257C60.0835 101.314 58.9135 102.73 57.6421 104.048C56.3751 105.37 55.0353 106.62 53.629 107.792L54.1555 107.726C50.9889 105.521 48.1355 102.897 45.673 99.9257C45.439 99.6488 44.9476 100.023 45.166 100.316V100.312Z" fill="black"/>
<path d="M100.23 142.408C99.2156 141.075 97.7648 140.068 96.3296 139.207C95.6046 138.778 94.8515 138.399 94.0754 138.072C93.4319 137.799 92.3438 137.237 91.7354 137.818C91.6806 137.877 91.6439 137.95 91.6297 138.029C91.6154 138.108 91.6243 138.189 91.6552 138.264C91.686 138.338 91.7376 138.401 91.8037 138.447C91.8698 138.492 91.9477 138.518 92.0279 138.52C92.1917 138.52 92.3516 138.485 92.5154 138.501C92.6862 138.53 92.8535 138.577 93.0146 138.641C93.3812 138.766 93.7439 138.906 94.1027 139.054C95.4864 139.628 96.7958 140.367 98.0027 141.254C98.6459 141.697 99.2477 142.197 99.8006 142.748C100.011 142.97 100.436 142.666 100.241 142.408H100.23Z" fill="black"/>
<path d="M95.94 149.912C95.0118 149.663 94.1538 149.257 93.21 149.132C92.3169 149 91.4238 148.964 90.5424 148.742C88.8216 148.337 87.2191 147.536 85.8624 146.402C85.4217 146.032 84.7821 146.667 85.2267 147.038C86.6146 148.204 88.2456 149.044 90.0003 149.499C90.8762 149.714 91.7708 149.845 92.6718 149.889C93.7482 149.959 94.7505 150.279 95.8152 150.443C96.1545 150.489 96.3144 150.002 95.9634 149.908L95.94 149.912Z" fill="black"/>
<path d="M41.8822 82.5358C41.4337 82.7932 40.993 83.3158 41.1958 83.8462C41.2305 83.958 41.2899 84.0606 41.3696 84.1463C41.4493 84.232 41.5473 84.2987 41.6563 84.3414C41.7654 84.3841 41.8826 84.4018 41.9993 84.393C42.1161 84.3842 42.2293 84.3493 42.3307 84.2908L41.6911 83.7993C41.2694 85.6923 40.9465 87.6059 40.7239 89.5324C40.6134 90.5347 40.5614 91.5426 40.5679 92.5509C40.5679 93.3309 40.5679 94.1499 41.0866 94.7934C41.7574 95.6358 44.1637 97.0243 44.6902 95.3512C44.7341 95.1944 44.7448 95.0303 44.7216 94.8692C44.6985 94.7081 44.642 94.5536 44.5557 94.4156C44.4695 94.2776 44.3554 94.1591 44.2207 94.0677C44.0861 93.9763 43.9338 93.914 43.7737 93.8847C42.9508 93.756 42.7246 94.8753 43.2472 95.3434C43.5748 95.6398 44.23 95.4642 44.191 94.9534C44.1845 94.7511 44.1517 94.5505 44.0935 94.3567C43.9453 93.9277 43.1809 93.8107 43.099 94.3567C43.0736 94.5547 43.0736 94.7553 43.099 94.9534L44.0389 94.5633V94.7934L43.5124 94.93C43.7308 94.9651 43.7737 95.1016 43.5124 95.1172C43.2639 95.0851 43.0255 94.9986 42.8143 94.8637C42.4062 94.7009 42.0493 94.4315 41.7808 94.0837C41.5 93.6469 41.5507 93.0423 41.5429 92.5431C41.5429 91.9776 41.5429 91.4082 41.5897 90.8427C41.7828 88.5537 42.0991 86.2767 42.5374 84.0217C42.592 83.6863 42.241 83.2962 41.8978 83.5302C42.0419 83.3809 42.1724 83.2191 42.2878 83.0467C42.338 82.9894 42.367 82.9166 42.3699 82.8405C42.3727 82.7645 42.3493 82.6897 42.3036 82.6289C42.2578 82.568 42.1925 82.5248 42.1186 82.5064C42.0447 82.488 41.9668 82.4956 41.8978 82.528L41.8822 82.5358Z" fill="black"/>
<path d="M121.766 100.187L121.376 98.7675C121.08 97.6482 122.207 96.603 123.256 97.0866C123.27 97.0907 123.283 97.0973 123.295 97.1061C123.483 97.1969 123.645 97.3333 123.767 97.5029C123.889 97.6725 123.967 97.8699 123.993 98.0772C124.063 98.6739 123.704 98.9001 123.377 99.138C121.606 100.405 120.354 102.258 119.13 104.056C111.12 115.821 102.505 127.164 93.3193 138.037" fill="black"/>
<path d="M122.046 100.109C121.879 99.3565 121.356 98.1592 122.12 97.6015C122.247 97.4987 122.398 97.4297 122.559 97.401C122.72 97.3724 122.886 97.385 123.041 97.4377C123.139 97.4691 123.231 97.5197 123.309 97.5867C123.388 97.6536 123.453 97.7356 123.5 97.8278C123.546 97.9199 123.574 98.0205 123.582 98.1236C123.59 98.2267 123.577 98.3303 123.544 98.4283C123.419 98.6857 123.045 98.8573 122.826 99.025C122.483 99.2897 122.156 99.5749 121.847 99.8791C120.68 101.118 119.635 102.467 118.727 103.908C117.628 105.517 116.517 107.12 115.397 108.717C110.899 115.107 106.219 121.369 101.357 127.503C98.6268 130.945 95.8434 134.343 93.0068 137.697C92.6168 138.165 93.2837 138.84 93.6815 138.372C99.1909 131.841 104.495 125.141 109.594 118.272C112.16 114.821 114.669 111.33 117.121 107.796C118.291 106.111 119.414 104.391 120.611 102.726C121.171 101.933 121.794 101.187 122.475 100.495C122.794 100.177 123.132 99.8804 123.489 99.6061C123.791 99.4258 124.055 99.1903 124.269 98.9119C124.729 98.1709 124.32 97.1803 123.602 96.7786C123.271 96.5908 122.886 96.5195 122.509 96.576C122.132 96.6326 121.785 96.8137 121.524 97.0906C120.638 98.0461 121.18 99.2005 121.504 100.265C121.525 100.339 121.574 100.402 121.641 100.44C121.708 100.477 121.787 100.487 121.861 100.466C121.935 100.445 121.998 100.396 122.035 100.329C122.073 100.262 122.083 100.183 122.062 100.109H122.046Z" fill="black"/>
<path d="M74.2836 159.178C76.3545 157.4 78.3903 155.575 80.3949 153.718C81.3985 152.79 82.3904 151.852 83.3706 150.903C83.8386 150.45 84.304 149.995 84.7668 149.538C85.0086 149.3 85.2465 149.054 85.4844 148.808L85.8744 148.418C85.9563 148.333 86.1045 148.099 86.202 148.067L85.8003 148.005L85.8627 148.048L85.5975 147.592V147.65L85.9875 147.147L86.2176 147.182C86.1352 147.09 86.0212 147.032 85.8982 147.02C85.7752 147.009 85.6522 147.043 85.5538 147.118C85.4555 147.193 85.3889 147.302 85.3673 147.424C85.3458 147.545 85.3709 147.671 85.4376 147.775C85.5162 147.916 85.6369 148.03 85.7829 148.1C85.929 148.17 86.0932 148.192 86.2527 148.165C86.3404 148.142 86.4203 148.096 86.4841 148.031C86.5479 147.967 86.5933 147.886 86.6154 147.798C86.648 147.67 86.6392 147.535 86.5902 147.412C86.5411 147.29 86.4544 147.186 86.3426 147.116C86.2307 147.045 86.0994 147.012 85.9676 147.022C85.8358 147.031 85.7103 147.081 85.6092 147.166C85.3354 147.395 85.0834 147.648 84.8565 147.923C84.5757 148.212 84.2949 148.5 84.018 148.793C82.9338 149.942 81.8353 151.079 80.7225 152.205C78.4969 154.454 76.2128 156.641 73.8702 158.765C73.5816 159.026 74.0028 159.444 74.2953 159.19L74.2836 159.178Z" fill="black"/>
<path d="M45.7826 97.9837C44.8817 98.4361 44.0042 98.9431 43.1501 99.4735C42.4598 99.9025 41.9099 100.417 41.789 101.252C41.5433 102.968 42.0503 104.867 42.6509 106.458C43.3341 108.157 44.1531 109.798 45.1001 111.365C45.4901 112.039 45.8801 112.784 46.5197 113.24C47.1722 113.657 47.9633 113.797 48.7193 113.63C49.5368 113.43 50.2956 113.04 50.9345 112.492C51.7145 111.891 52.4477 111.244 53.2004 110.612C53.4227 110.429 53.4539 110.276 53.6996 110.464L54.2144 110.854L55.4624 111.829C56.1644 112.379 56.8703 113.077 57.7049 113.42C58.0566 113.572 58.4478 113.607 58.8211 113.521C59.1945 113.435 59.5304 113.231 59.7797 112.94C60.4104 112.284 61.0016 111.591 61.5503 110.865C62.6598 109.433 63.6351 107.902 64.4636 106.291C64.9043 105.437 65.4776 104.489 65.3528 103.49C65.1686 102.554 64.8115 101.66 64.2998 100.854C63.849 100.049 63.3172 99.2926 62.7125 98.596C62.1665 97.9681 61.484 97.0555 60.548 97.2544C60.0878 97.3519 60.1814 98.1397 60.6611 98.089C61.0238 98.05 61.3007 98.4049 61.5347 98.6428C61.7687 98.8807 62.0846 99.2239 62.342 99.5359C62.8066 100.11 63.2203 100.723 63.5783 101.369C63.9998 102.04 64.3057 102.777 64.4831 103.549C64.6079 104.348 64.0697 105.171 63.7031 105.858C62.9639 107.278 62.1067 108.633 61.1408 109.91C60.665 110.546 60.1619 111.154 59.6393 111.747C59.4091 112.035 59.1475 112.297 58.8593 112.527C58.4459 112.811 58.0091 112.609 57.6269 112.367C56.9288 111.922 56.2892 111.349 55.634 110.838L54.6083 110.031C54.3597 109.785 54.0708 109.583 53.7542 109.434C53.0717 109.216 52.4087 110.054 51.9485 110.436C51.3128 110.963 50.6927 111.524 49.9985 111.996C49.3977 112.475 48.653 112.738 47.8847 112.741C47.1047 112.694 46.6562 112.203 46.2779 111.571C45.4647 110.239 44.7278 108.861 44.0705 107.445C43.2731 105.832 42.8026 104.077 42.686 102.281C42.6273 101.836 42.6768 101.382 42.8303 100.959C43.0482 100.616 43.352 100.335 43.7117 100.144C44.5307 99.5983 45.3497 99.0445 46.1258 98.44C46.3988 98.2255 46.0517 97.8472 45.7787 97.9837H45.7826Z" fill="black"/>
<path d="M94.7038 142.389C95.6895 142.761 96.6239 143.256 97.4845 143.863C97.9042 144.162 98.3041 144.488 98.6818 144.838C99.0718 145.197 99.3994 145.649 99.8206 145.969C100.133 146.203 100.503 145.759 100.332 145.458C100.008 145.007 99.6129 144.612 99.1615 144.288C98.7338 143.924 98.2831 143.588 97.8121 143.282C96.8856 142.683 95.8854 142.205 94.8364 141.863C94.4932 141.749 94.3606 142.272 94.6882 142.393L94.7038 142.389Z" fill="black"/>
<path d="M93.6782 144.604C94.0882 144.909 94.5367 145.158 95.012 145.345C95.9098 145.753 96.7346 146.305 97.4535 146.979C97.6329 147.151 97.8083 147.33 97.976 147.518C98.1437 147.705 98.2959 147.939 98.4831 148.114C98.5411 148.165 98.6144 148.194 98.6912 148.197C98.768 148.2 98.8436 148.177 98.9056 148.132C98.9677 148.087 99.0125 148.022 99.0328 147.948C99.0531 147.874 99.0477 147.795 99.0173 147.724C98.7377 147.283 98.3903 146.888 97.9877 146.554C97.6089 146.206 97.2033 145.888 96.7748 145.603C96.36 145.325 95.9231 145.083 95.4683 144.877C94.9582 144.696 94.4702 144.458 94.0136 144.167C93.7679 143.98 93.4403 144.401 93.6782 144.604Z" fill="black"/>
<path d="M92.0827 146.566C93.035 146.918 93.9381 147.391 94.7698 147.974C95.17 148.257 95.5504 148.567 95.9086 148.902C96.2584 149.29 96.6295 149.659 97.0201 150.006C97.336 150.24 97.7143 149.795 97.5349 149.491C97.2254 149.049 96.8429 148.662 96.4039 148.348C95.9941 148.002 95.5629 147.681 95.113 147.389C94.2179 146.809 93.2484 146.354 92.2309 146.036C91.8877 145.926 91.7551 146.445 92.0827 146.566Z" fill="black"/>
<path d="M42.2139 102.828C37.0347 102.418 32.7837 103.089 27.8268 104.665C25.4868 105.413 23.1468 106.404 21.2553 107.987C17.0394 111.497 15.6198 117.347 14.9022 122.78C13.601 132.683 13.8008 142.725 15.495 152.568C15.885 154.885 16.3803 157.209 17.3553 159.346C20.5455 166.366 28.5873 170.224 36.2937 170.411C44.0001 170.598 51.453 167.747 58.4262 164.455C67.8564 160.002 76.8849 154.651 85.0632 148.177C85.3709 145.602 85.1882 142.993 84.525 140.486C84.393 139.777 84.0662 139.12 83.5812 138.587C82.5204 137.588 80.8278 137.912 79.4199 138.286C65.6893 141.977 51.7029 144.639 37.5768 146.25C36.1494 146.414 34.2189 147.354 34.8117 148.664C34.3957 141.881 33.9797 135.096 33.5637 128.31" fill="black"/>
<path d="M42.2133 102.547C40.3805 102.335 38.5328 102.283 36.6909 102.391C34.9359 102.521 33.1931 102.782 31.4766 103.171C28.068 103.927 24.4566 104.992 21.5901 107.09C16.3251 110.971 14.9601 117.811 14.2347 123.919C13.289 131.79 13.289 139.747 14.2347 147.619C14.4687 149.569 14.7534 151.519 15.1044 153.434C15.4054 155.278 15.8915 157.088 16.5552 158.835C17.6789 161.584 19.4857 164 21.8046 165.855C26.5587 169.65 32.7597 171.237 38.793 170.89C46.3239 170.457 53.4141 167.443 60.1104 164.178C66.7862 160.961 73.2027 157.232 79.3023 153.024C80.8363 151.958 82.343 150.858 83.8224 149.725C84.1617 149.467 84.4971 149.206 84.8325 148.945C85.1679 148.684 85.4916 148.5 85.5462 147.993C85.6579 147.015 85.6957 146.029 85.6593 145.045C85.6457 143.2 85.339 141.369 84.7506 139.62C84.5187 138.923 84.0532 138.327 83.4329 137.934C82.8126 137.54 82.0754 137.372 81.3459 137.459C80.5886 137.524 79.8399 137.665 79.1112 137.881C78.1323 138.142 77.1612 138.395 76.1784 138.661C74.2778 139.149 72.3759 139.616 70.4727 140.061C66.6013 140.965 62.7091 141.792 58.7961 142.541C54.8831 143.29 50.9922 143.952 47.1234 144.526C45.1344 144.823 43.1441 145.097 41.1525 145.349C40.1502 145.478 39.144 145.599 38.1417 145.716C37.419 145.769 36.7074 145.924 36.0279 146.176C34.9905 146.609 33.8478 147.545 34.347 148.801C34.5342 149.257 35.3259 149.257 35.2908 148.672C34.8735 141.894 34.4211 135.115 34.0038 128.337C33.9687 127.772 33.0873 127.768 33.1224 128.337C33.5358 135.115 33.9024 141.894 34.3314 148.672L35.2713 148.543C34.698 147.108 37.4826 146.749 38.3289 146.652C40.3491 146.418 42.3654 146.158 44.3778 145.872C48.478 145.307 52.5626 144.657 56.6316 143.922C60.7006 143.186 64.7228 142.362 68.6982 141.449C70.7314 140.989 72.7581 140.504 74.7783 139.994C76.6698 139.522 78.5496 138.922 80.4606 138.536C81.2679 138.376 82.2234 138.271 82.9605 138.715C83.8497 139.23 84.0408 140.4 84.2397 141.328C84.7388 143.575 84.8561 145.89 84.5868 148.177L84.7233 147.849C76.6191 154.264 67.6686 159.549 58.3281 163.96C49.6038 168.067 39.5379 171.76 29.8581 168.862C25.9893 167.692 22.3506 165.555 19.8 162.38C16.6605 158.48 15.9936 153.27 15.3696 148.45C14.6679 143.003 14.4175 137.507 14.6208 132.019C14.7222 129.31 14.9354 126.606 15.2604 123.907C15.5038 121.63 15.9144 119.373 16.4889 117.156C17.0157 115.088 17.8603 113.115 18.9927 111.306C20.2456 109.384 21.9678 107.814 23.9964 106.743C26.196 105.573 28.6296 104.859 31.0164 104.231C33.4423 103.607 35.9247 103.227 38.4264 103.096C39.6709 103.03 40.9181 103.03 42.1626 103.096C42.5292 103.116 42.5175 102.574 42.1626 102.535L42.2133 102.547Z" fill="black"/>
<path d="M34.3555 126.871C34.4439 133.953 34.5596 141.037 34.7026 148.122C34.7026 148.191 34.7208 148.258 34.7554 148.318C34.79 148.377 34.8397 148.426 34.8996 148.461C34.9594 148.495 35.0271 148.512 35.096 148.512C35.1648 148.511 35.2323 148.492 35.2915 148.457C41.2585 145.247 48.1615 144.503 54.7486 143.547L61.012 142.642C61.5034 142.572 61.2928 141.827 60.8053 141.897C57.1861 142.42 53.5669 142.923 49.9516 143.457C46.5997 143.902 43.2894 144.618 40.0534 145.598C38.2724 146.166 36.5467 146.895 34.8976 147.775L35.4826 148.11C35.337 141.022 35.1589 133.939 34.9483 126.859C34.9483 126.78 34.917 126.705 34.8615 126.649C34.8059 126.594 34.7305 126.562 34.6519 126.562C34.5733 126.562 34.4979 126.594 34.4423 126.649C34.3867 126.705 34.3555 126.78 34.3555 126.859V126.871Z" fill="white"/>
<path d="M66.7841 141.57L67.1273 140.922C67.1684 140.849 67.1796 140.762 67.1585 140.68C67.1364 140.602 67.0847 140.535 67.0142 140.493C66.9781 140.472 66.9381 140.458 66.8965 140.453C66.8549 140.447 66.8127 140.451 66.7724 140.462C66.7331 140.472 66.6963 140.491 66.6642 140.515C66.632 140.54 66.6052 140.571 66.5852 140.606L66.2693 141.269C66.2312 141.338 66.2214 141.419 66.242 141.496C66.2513 141.533 66.2682 141.568 66.2917 141.599C66.3152 141.63 66.3447 141.656 66.3785 141.675C66.4447 141.71 66.5218 141.719 66.5942 141.699C66.6665 141.679 66.7288 141.633 66.7685 141.57H66.7841Z" fill="white"/>
<path d="M70.2632 141.355C70.3356 141.355 70.4051 141.326 70.4563 141.275C70.5075 141.224 70.5362 141.154 70.5362 141.082C70.5362 141.01 70.5075 140.94 70.4563 140.889C70.4051 140.838 70.3356 140.809 70.2632 140.809C70.1908 140.809 70.1214 140.838 70.0702 140.889C70.019 140.94 69.9902 141.01 69.9902 141.082C69.9902 141.154 70.019 141.224 70.0702 141.275C70.1214 141.326 70.1908 141.355 70.2632 141.355Z" fill="white"/>
<path d="M73.457 139.62C75.212 139.292 76.967 139.023 78.7532 138.84C79.6073 138.746 80.4614 138.664 81.3194 138.602C81.8186 138.567 83.5814 138.212 83.4683 139.121C83.4137 139.569 84.1976 139.678 84.2483 139.23C84.3653 138.403 83.7569 137.841 82.9652 137.756C82.4725 137.73 81.9785 137.754 81.491 137.83C80.9216 137.884 80.3522 137.943 79.7828 138.013C77.604 138.273 75.4408 138.634 73.2932 139.097C72.9422 139.175 73.0943 139.694 73.4414 139.632L73.457 139.62Z" fill="white"/>
<path d="M78.5816 124.141C79.2316 128.883 79.5586 133.663 79.5605 138.45L80.4341 138.329L80.3132 137.939C80.1611 137.412 79.4318 137.642 79.5098 138.161L79.5761 138.582C79.6502 139.085 80.4497 138.972 80.4497 138.465C80.3963 133.62 79.945 128.787 79.1003 124.016C79.0418 123.665 78.5192 123.817 78.5699 124.164L78.5816 124.141Z" fill="white"/>
<path d="M30.1158 167.7C26.247 185.12 23.14 202.682 20.7948 220.385C18.4548 238.039 16.8818 255.773 16.0758 273.585C15.3946 288.717 15.2711 303.862 15.7053 319.02C15.9354 327.058 16.0563 335.927 10.881 342.085C10.4358 342.527 10.0889 343.059 9.86306 343.645C8.15876 349.534 26.2431 347.381 29.0745 346.714C30.5955 346.351 31.0245 345.334 31.2897 343.797C36.0243 314.547 45.5637 285.554 46.0473 255.731C46.2423 243.696 44.6355 232.21 48.5862 220.545C52.0962 210.175 56.6241 200.02 59.553 189.47C61.4621 182.571 61.9766 175.361 61.0662 168.262" fill="black"/>
<path d="M29.8314 167.63C26.6074 181.576 23.9437 195.64 21.8403 209.82C19.7109 223.899 18.0755 238.039 16.9341 252.24C15.7901 266.54 15.1401 280.878 14.9841 295.253C14.9113 302.471 14.9659 309.69 15.1479 316.91C15.2961 322.76 15.69 328.797 14.1495 334.515C13.4114 337.281 12.0807 339.853 10.2495 342.053C9.37977 343.11 8.81817 344.51 9.63327 345.766C10.2651 346.71 11.4195 347.182 12.4803 347.49C14.0439 347.895 15.6505 348.111 17.2656 348.134C20.5545 348.231 23.8456 348.04 27.1014 347.564C28.2129 347.408 29.5779 347.326 30.4905 346.616C31.2705 346.02 31.5669 345.095 31.7424 344.175C32.0583 342.486 32.304 340.786 32.6043 339.105C35.0223 325.525 38.2866 312.117 41.0478 298.611C43.809 285.106 46.0476 271.526 46.461 257.79C46.6638 251.035 46.2192 244.284 46.3869 237.51C46.4389 234.162 46.7439 230.824 47.2995 227.522C47.9509 224.149 48.8863 220.836 50.0958 217.62C52.4358 211.103 55.041 204.695 57.3225 198.163C59.5611 191.74 61.4838 185.246 61.9128 178.425C62.125 175.032 62.0166 171.627 61.5891 168.254C61.5072 167.595 60.462 167.587 60.5439 168.254C61.4111 175.028 60.9823 181.905 59.2803 188.518C57.5916 195.039 55.1697 201.365 52.7907 207.659C50.4117 213.954 47.6622 220.299 46.4454 226.953C45.2754 233.31 45.3534 239.788 45.4899 246.223C45.6876 252.9 45.5418 259.583 45.0531 266.245C44.4954 273.027 43.5477 279.774 42.3777 286.475C40.0377 299.848 36.8514 313.049 34.0746 326.333C33.3934 329.606 32.7434 332.882 32.1246 336.161C31.8126 337.825 31.5136 339.492 31.2276 341.164C31.0053 342.451 31.0092 344.136 30.3267 345.287C29.6949 346.359 28.1232 346.414 27.0039 346.57C25.5141 346.78 24.0165 346.925 22.5189 347.022C19.3053 347.237 15.7914 347.412 12.6675 346.492C11.7783 346.226 10.5459 345.77 10.2963 344.752C10.1013 343.953 10.5771 343.247 11.0763 342.654C11.9245 341.65 12.6729 340.566 13.311 339.417C15.9123 334.585 16.314 328.907 16.3062 323.525C16.3062 316.895 15.9942 310.233 15.9669 303.584C15.9175 289.518 16.3491 275.458 17.2617 261.405C18.1743 247.352 19.5575 233.332 21.4113 219.344C23.2677 205.421 25.6272 191.576 28.3494 177.793C29.0072 174.444 29.6975 171.109 30.4203 167.786C30.4983 167.396 29.9328 167.255 29.847 167.63H29.8314Z" fill="black"/>
<path d="M141.082 130.206C141.748 128.697 142.594 127.275 143.601 125.97C144.112 125.292 144.658 124.636 145.208 123.981C145.702 123.312 146.279 122.708 146.924 122.183C147.622 121.744 148.421 121.489 149.245 121.442C149.875 121.316 150.524 121.331 151.148 121.485C151.986 121.786 151.667 122.655 151.05 123.045C150.434 123.435 149.537 123.416 149.1 123.977C148.904 124.325 148.802 124.717 148.804 125.116C148.587 126.467 148.026 127.739 147.174 128.809C146.866 129.227 147.564 129.769 147.899 129.371C148.47 128.686 148.923 127.911 149.241 127.078C149.41 126.651 149.541 126.21 149.631 125.76C149.709 125.37 149.65 124.617 150.021 124.414C150.391 124.211 150.836 124.129 151.218 123.942C151.583 123.774 151.902 123.521 152.15 123.205C152.385 122.928 152.519 122.579 152.528 122.216C152.537 121.852 152.422 121.497 152.201 121.208C151.967 120.981 151.689 120.805 151.383 120.691C151.078 120.578 150.752 120.529 150.426 120.549C149.586 120.537 148.747 120.639 147.934 120.853C146.062 121.353 144.92 123.053 143.793 124.504C142.434 126.154 141.343 128.007 140.559 129.995C140.45 130.299 140.949 130.522 141.086 130.217L141.082 130.206Z" fill="black"/>
<path d="M152.236 122.405C152.46 122.336 152.676 122.247 152.884 122.14C153.106 122.051 153.321 121.953 153.543 121.871C153.959 121.712 154.385 121.582 154.818 121.481C155.248 121.381 155.683 121.308 156.121 121.263C156.597 121.212 157.069 121.232 157.544 121.212C157.647 121.202 157.741 121.154 157.81 121.078C157.879 121.002 157.918 120.903 157.918 120.801C157.918 120.698 157.879 120.599 157.81 120.523C157.741 120.447 157.647 120.399 157.544 120.389C156.554 120.317 155.559 120.427 154.608 120.713C154.148 120.842 153.699 121.004 153.262 121.196C152.786 121.358 152.348 121.612 151.971 121.945C151.931 121.988 151.905 122.043 151.898 122.102C151.892 122.161 151.904 122.22 151.934 122.271C151.964 122.322 152.01 122.362 152.064 122.385C152.119 122.408 152.179 122.412 152.236 122.398V122.405Z" fill="black"/>
<path d="M158.488 123.037C157.891 122.895 157.268 122.895 156.671 123.037C156.063 123.165 155.493 123.432 155.005 123.817C154.693 124.063 155.099 124.597 155.43 124.371C155.861 124.066 156.34 123.836 156.846 123.688C157.357 123.572 157.884 123.537 158.406 123.587C158.718 123.61 158.777 123.123 158.48 123.045L158.488 123.037Z" fill="black"/>
<path d="M158.855 125.849C158.276 125.854 157.701 125.941 157.147 126.106C156.866 126.189 156.591 126.289 156.324 126.407C156.041 126.507 155.777 126.655 155.544 126.844C155.487 126.901 155.451 126.975 155.44 127.055C155.43 127.135 155.447 127.216 155.487 127.286C155.527 127.355 155.59 127.41 155.664 127.44C155.738 127.471 155.821 127.477 155.899 127.456C156.158 127.34 156.41 127.21 156.655 127.066C156.885 126.949 157.122 126.848 157.365 126.762C157.872 126.584 158.394 126.453 158.925 126.372C159.241 126.325 159.155 125.83 158.855 125.83V125.849Z" fill="black"/>
<path d="M158.836 128.821C154.643 131.773 150.15 134.137 145.08 135.248C144.421 135.396 144.69 136.418 145.361 136.266C150.38 135.034 155.322 132.776 159.159 129.246C159.389 129.036 159.081 128.622 158.82 128.805L158.836 128.821Z" fill="black"/>
<path d="M16.4 330.837C19.5005 331.188 22.6205 331.539 25.7405 331.89L30.3542 332.382C30.9743 332.448 33.3377 333.006 33.0335 331.652C33.0195 331.549 32.965 331.455 32.882 331.392C32.799 331.329 32.6943 331.301 32.5908 331.315C32.4874 331.329 32.3937 331.383 32.3305 331.466C32.2672 331.549 32.2395 331.654 32.2535 331.758C32.2535 331.637 32.2925 331.703 32.1092 331.719C31.9785 331.72 31.848 331.709 31.7192 331.687L30.6623 331.59L28.7396 331.407L24.6056 331.017C21.8756 330.759 19.1456 330.521 16.4156 330.28C16.0451 330.248 16.0529 330.818 16.4156 330.857L16.4 330.837Z" fill="#18C4FF"/>
<path d="M25.7402 228.193C27.9645 229.01 30.4214 228.916 32.5769 227.932C32.9357 227.768 32.6237 227.245 32.2688 227.401C30.2441 228.265 27.9731 228.358 25.8845 227.663C25.5452 227.549 25.4126 228.053 25.7402 228.193Z" fill="#18C4FF"/>
<path d="M26.5396 234.542H30.4708C30.5484 234.542 30.6228 234.511 30.6776 234.456C30.7325 234.402 30.7633 234.327 30.7633 234.25C30.7633 234.172 30.7325 234.098 30.6776 234.043C30.6228 233.988 30.5484 233.957 30.4708 233.957H26.5396C26.4641 233.957 26.3917 233.987 26.3383 234.04C26.2849 234.094 26.2549 234.166 26.2549 234.242C26.2549 234.317 26.2849 234.39 26.3383 234.443C26.3917 234.496 26.4641 234.526 26.5396 234.526V234.542Z" fill="#18C4FF"/>
<path d="M81.767 167.7C85.641 185.12 88.7493 202.682 91.0919 220.385C93.4319 238.039 95.0036 255.773 95.807 273.585C96.4908 288.717 96.6208 303.862 96.197 319.02C95.963 327.058 95.8421 335.927 101.021 342.085C101.465 342.529 101.812 343.06 102.039 343.645C103.74 349.534 85.6592 347.381 82.8278 346.714C81.3029 346.351 80.8778 345.334 80.6126 343.797C75.878 314.547 66.3347 285.554 65.8511 255.731C65.6561 243.696 67.2629 232.21 63.3161 220.545C59.8061 210.175 55.2743 200.02 52.3493 189.47C50.4408 182.571 49.9251 175.362 50.8322 168.262" fill="black"/>
<path d="M81.4825 167.786C84.3881 181.436 86.9426 195.195 89.0057 209.013C91.1117 223.001 92.7393 237.054 93.8885 251.172C95.0299 265.186 95.6942 279.226 95.8814 293.292C95.9724 300.335 95.9425 307.376 95.7917 314.414C95.6669 320.292 95.2067 326.262 96.1817 332.089C96.5908 334.692 97.4318 337.208 98.6699 339.534C99.3235 340.675 100.079 341.755 100.928 342.759C101.4 343.341 101.825 344.07 101.583 344.838C101.275 345.821 100.058 346.254 99.173 346.511C97.6438 346.906 96.0722 347.113 94.493 347.127C91.2703 347.222 88.0455 347.033 84.8561 346.562C83.6471 346.39 82.0793 346.328 81.4865 345.084C80.8937 343.84 80.8859 342.303 80.6597 340.997C80.3737 339.327 80.0734 337.66 79.7588 335.993C77.2589 322.659 74.0335 309.473 71.362 296.174C68.6905 282.875 66.5299 269.463 66.2998 255.903C66.1906 249.339 66.6391 242.771 66.3895 236.208C66.2908 232.992 65.9505 229.789 65.3716 226.625C64.6812 223.314 63.7292 220.063 62.5247 216.903C60.2471 210.549 57.7199 204.29 55.5047 197.913C53.2699 191.467 51.3433 184.946 50.9689 178.098C50.7951 174.816 50.9165 171.525 51.3316 168.266C51.4135 167.599 50.3683 167.603 50.2864 168.266C49.434 175.072 49.872 181.979 51.5773 188.624C53.305 195.308 55.8205 201.786 58.2736 208.233C60.6877 214.578 63.4411 220.966 64.6073 227.69C65.7773 234.351 65.5549 241.145 65.4223 247.876C65.2531 254.738 65.4745 261.604 66.0853 268.441C66.7171 275.188 67.7155 281.9 68.9128 288.569C71.3581 302.219 74.6381 315.682 77.4032 329.258C78.0896 332.638 78.7396 336.027 79.3532 339.425C79.6379 341.04 79.8563 342.674 80.18 344.284C80.3672 345.232 80.7299 346.168 81.5606 346.726C82.4771 347.346 83.7875 347.42 84.8561 347.568C86.4161 347.779 87.9761 347.935 89.5361 348.036C92.7848 348.247 96.326 348.403 99.4811 347.467C100.53 347.155 101.696 346.656 102.281 345.677C103.096 344.316 102.355 342.923 101.443 341.839C97.6987 337.362 96.7628 331.453 96.6224 325.794C96.443 319.164 96.8681 312.534 96.9149 305.904C97.0215 291.477 96.6198 277.06 95.7098 262.653C94.8232 248.379 93.4257 234.155 91.5173 219.98C89.6258 205.893 87.2936 191.841 84.3374 177.938C83.6042 174.493 82.8437 171.057 82.0559 167.63C81.9701 167.24 81.4046 167.415 81.4825 167.786Z" fill="black"/>
<path d="M95.4842 330.26C92.7542 330.502 90.0242 330.74 87.2942 330.997L83.2538 331.387L81.2336 331.578L80.2742 331.668C80.1131 331.695 79.95 331.708 79.7867 331.707H79.6814C79.5761 331.653 79.5605 331.668 79.6385 331.758C79.6454 331.707 79.6422 331.655 79.629 331.605C79.6157 331.555 79.5928 331.508 79.5615 331.467C79.5302 331.426 79.4911 331.391 79.4464 331.365C79.4017 331.339 79.3524 331.322 79.3011 331.315C79.2499 331.308 79.1979 331.312 79.1479 331.325C79.0979 331.338 79.0511 331.361 79.0099 331.392C78.9688 331.424 78.9343 331.463 78.9083 331.507C78.8823 331.552 78.8654 331.601 78.8585 331.653C78.5582 332.982 80.8085 332.456 81.4403 332.394L86.1593 331.89C89.2793 331.559 92.3759 331.208 95.4842 330.857C95.8469 330.818 95.8742 330.249 95.4842 330.28V330.26Z" fill="#FAFEFF"/>
<path d="M86.0075 227.663C83.9203 228.359 81.6505 228.266 79.6271 227.401C79.2683 227.245 78.9563 227.768 79.3151 227.932C81.4719 228.916 83.9301 229.01 86.1557 228.193C86.4833 228.072 86.3507 227.549 86.0075 227.663Z" fill="#FAFEFF"/>
<path d="M85.3477 233.973H81.4165C81.3389 233.973 81.2646 234.004 81.2097 234.059C81.1548 234.114 81.124 234.188 81.124 234.266C81.124 234.343 81.1548 234.418 81.2097 234.472C81.2646 234.527 81.3389 234.558 81.4165 234.558H85.3477C85.4232 234.558 85.4956 234.528 85.549 234.475C85.6024 234.421 85.6324 234.349 85.6324 234.273C85.6324 234.198 85.6024 234.126 85.549 234.072C85.4956 234.019 85.4232 233.989 85.3477 233.989V233.973Z" fill="#FAFEFF"/>
<path d="M31.9375 169.814C38.314 170.75 44.5891 168.882 50.5678 166.85C56.7298 164.754 62.8151 162.443 68.8237 159.916C72.1699 158.506 75.4875 157.031 78.7765 155.489C79.1899 155.294 78.8311 154.682 78.4138 154.873C72.5976 157.587 66.6943 160.1 60.7039 162.412C57.7555 163.548 54.7863 164.635 51.7963 165.672C48.7894 166.713 45.7669 167.735 42.6664 168.48C39.1798 169.315 35.584 169.732 32.0116 169.26C31.6957 169.217 31.6216 169.771 31.9375 169.818V169.814Z" fill="#FAFEFF"/>
<path d="M159.019 121.887C168.948 122.031 178.882 121.988 188.815 122.016C198.695 122.044 208.562 122.087 218.416 122.144C223.993 122.172 229.586 122.246 235.163 122.101C235.297 122.101 235.426 122.048 235.521 121.953C235.616 121.858 235.67 121.729 235.67 121.594C235.67 121.46 235.616 121.331 235.521 121.236C235.426 121.141 235.297 121.087 235.163 121.087C230.202 120.959 225.229 121.037 220.265 121.041C215.3 121.045 210.331 121.087 205.367 121.111C195.487 121.16 185.62 121.193 175.766 121.208C170.181 121.208 164.6 121.208 159.019 121.302C158.941 121.302 158.867 121.333 158.812 121.388C158.757 121.442 158.727 121.517 158.727 121.594C158.727 121.672 158.757 121.746 158.812 121.801C158.867 121.856 158.941 121.887 159.019 121.887Z" fill="black"/>
<path d="M236.165 145.353C226.236 145.209 216.299 145.252 206.369 145.224C196.502 145.196 186.635 145.153 176.768 145.096C171.187 145.068 165.595 144.994 160.018 145.139C159.883 145.139 159.754 145.192 159.659 145.287C159.564 145.382 159.511 145.511 159.511 145.646C159.511 145.78 159.564 145.909 159.659 146.004C159.754 146.099 159.883 146.153 160.018 146.153C164.982 146.281 169.951 146.203 174.916 146.199C179.88 146.195 184.849 146.153 189.814 146.129C199.681 146.08 209.549 146.047 219.419 146.032C225 146.032 230.584 146.032 236.165 145.938C236.243 145.938 236.317 145.907 236.372 145.852C236.427 145.798 236.458 145.723 236.458 145.646C236.458 145.568 236.427 145.494 236.372 145.439C236.317 145.384 236.243 145.353 236.165 145.353Z" fill="white"/>
<path d="M236.165 152.954C226.235 152.81 216.298 152.853 206.369 152.825C196.502 152.797 186.635 152.755 176.768 152.701C171.187 152.669 165.594 152.595 160.017 152.744C159.891 152.755 159.773 152.813 159.688 152.906C159.602 153 159.555 153.122 159.555 153.249C159.555 153.375 159.602 153.498 159.688 153.591C159.773 153.684 159.891 153.742 160.017 153.754C164.982 153.882 169.951 153.804 174.915 153.8C179.88 153.797 184.849 153.758 189.813 153.73C199.68 153.683 209.549 153.651 219.418 153.633C224.999 153.633 230.584 153.633 236.165 153.539C236.242 153.539 236.317 153.508 236.372 153.453C236.426 153.399 236.457 153.324 236.457 153.247C236.457 153.169 236.426 153.095 236.372 153.04C236.317 152.985 236.242 152.954 236.165 152.954Z" fill="white"/>
<path d="M236.165 160.555C226.235 160.411 216.298 160.454 206.369 160.427C196.502 160.398 186.635 160.356 176.768 160.302C171.187 160.274 165.594 160.2 160.017 160.345C159.891 160.356 159.773 160.414 159.688 160.507C159.602 160.601 159.555 160.723 159.555 160.85C159.555 160.976 159.602 161.099 159.688 161.192C159.773 161.286 159.891 161.344 160.017 161.355C164.982 161.483 169.951 161.405 174.915 161.402C179.88 161.398 184.849 161.359 189.813 161.331C199.68 161.285 209.549 161.252 219.418 161.234C224.999 161.234 230.584 161.234 236.165 161.144C236.237 161.136 236.304 161.101 236.352 161.047C236.4 160.993 236.427 160.922 236.427 160.85C236.427 160.777 236.4 160.707 236.352 160.652C236.304 160.598 236.237 160.564 236.165 160.555Z" fill="white"/>
<path d="M236.165 168.156C226.235 168.016 216.298 168.055 206.369 168.028C196.502 168.004 186.635 167.963 176.768 167.903C171.187 167.875 165.594 167.801 160.017 167.946C159.891 167.957 159.773 168.015 159.688 168.108C159.602 168.202 159.555 168.324 159.555 168.451C159.555 168.578 159.602 168.7 159.688 168.793C159.773 168.887 159.891 168.945 160.017 168.956C164.982 169.084 169.951 169.01 174.915 169.003C179.88 168.995 184.849 168.96 189.813 168.936C199.68 168.887 209.549 168.854 219.418 168.839C224.999 168.819 230.584 168.839 236.165 168.745C236.237 168.737 236.304 168.702 236.352 168.648C236.4 168.594 236.427 168.523 236.427 168.451C236.427 168.378 236.4 168.308 236.352 168.254C236.304 168.199 236.237 168.165 236.165 168.156Z" fill="white"/>
<path d="M236.165 180.375C226.235 180.231 216.298 180.27 206.369 180.246C196.502 180.22 186.635 180.177 176.768 180.118C171.187 180.09 165.594 180.016 160.017 180.161C159.891 180.172 159.773 180.23 159.688 180.323C159.602 180.417 159.555 180.539 159.555 180.666C159.555 180.792 159.602 180.915 159.688 181.008C159.773 181.102 159.891 181.16 160.017 181.171C164.982 181.303 169.951 181.225 174.915 181.221C179.88 181.217 184.849 181.175 189.813 181.151C199.68 181.102 209.549 181.069 219.418 181.054C224.999 181.054 230.584 181.054 236.165 180.96C236.242 180.96 236.317 180.929 236.372 180.874C236.426 180.82 236.457 180.745 236.457 180.668C236.457 180.59 236.426 180.516 236.372 180.461C236.317 180.406 236.242 180.375 236.165 180.375Z" fill="white"/>
<path d="M236.165 187.98C226.236 187.836 216.299 187.879 206.369 187.851C196.502 187.823 186.635 187.78 176.768 187.723C171.187 187.695 165.595 187.621 160.018 187.766C159.883 187.766 159.754 187.819 159.659 187.914C159.564 188.009 159.511 188.138 159.511 188.273C159.511 188.407 159.564 188.536 159.659 188.631C159.754 188.726 159.883 188.78 160.018 188.78C164.982 188.908 169.951 188.83 174.916 188.826C179.88 188.822 184.861 188.76 189.814 188.76C199.681 188.711 209.549 188.678 219.419 188.663C225 188.663 230.584 188.663 236.165 188.569C236.243 188.569 236.317 188.538 236.372 188.483C236.427 188.428 236.458 188.354 236.458 188.276C236.458 188.199 236.427 188.124 236.372 188.07C236.317 188.015 236.243 187.984 236.165 187.984V187.98Z" fill="white"/>
<path d="M236.165 195.578C226.235 195.433 216.298 195.476 206.369 195.449C196.502 195.42 186.635 195.379 176.768 195.324C171.187 195.293 165.594 195.219 160.017 195.367C159.891 195.378 159.773 195.436 159.688 195.53C159.602 195.623 159.555 195.745 159.555 195.872C159.555 195.999 159.602 196.121 159.688 196.215C159.773 196.308 159.891 196.366 160.017 196.377C164.982 196.506 169.951 196.428 174.915 196.424C179.88 196.42 184.849 196.377 189.813 196.354C199.68 196.307 209.549 196.274 219.418 196.256C224.999 196.256 230.584 196.256 236.165 196.163C236.242 196.163 236.317 196.132 236.372 196.077C236.426 196.022 236.457 195.948 236.457 195.87C236.457 195.793 236.426 195.718 236.372 195.663C236.317 195.608 236.242 195.578 236.165 195.578Z" fill="white"/>
<path d="M236.165 203.19C226.235 203.046 216.298 203.089 206.369 203.062C196.502 203.036 186.635 202.994 176.768 202.937C171.187 202.91 165.594 202.836 160.017 202.98C159.891 202.991 159.773 203.049 159.688 203.142C159.602 203.236 159.555 203.358 159.555 203.485C159.555 203.612 159.602 203.734 159.688 203.827C159.773 203.921 159.891 203.979 160.017 203.99C164.982 204.119 169.951 204.041 174.915 204.037C179.88 204.033 184.86 203.97 189.813 203.97C199.68 203.924 209.549 203.891 219.418 203.873C224.999 203.873 230.584 203.873 236.165 203.783C236.237 203.775 236.304 203.74 236.352 203.686C236.4 203.632 236.427 203.562 236.427 203.489C236.427 203.416 236.4 203.346 236.352 203.292C236.304 203.237 236.237 203.203 236.165 203.194V203.19Z" fill="white"/>
<path d="M353.73 168.944H259.455C258.187 168.944 256.904 168.886 255.637 168.944H255.469L256.284 169.763V75.4963C256.284 74.2249 256.308 72.9495 256.284 71.6742V71.5066C256.284 70.4575 254.654 70.4575 254.654 71.5066V165.773C254.654 167.045 254.631 168.32 254.654 169.595V169.763C254.657 169.978 254.744 170.184 254.896 170.336C255.048 170.488 255.254 170.575 255.469 170.578H349.732C351.007 170.578 352.283 170.602 353.554 170.578H353.73C354.779 170.578 354.779 168.944 353.73 168.944Z" fill="black"/>
<path d="M265.949 74.6228C264.096 74.576 262.236 74.4317 260.38 74.4629C260.264 74.4735 260.157 74.5267 260.079 74.6122C260.001 74.6977 259.958 74.8093 259.958 74.925C259.958 75.0408 260.001 75.1523 260.079 75.2378C260.157 75.3233 260.264 75.3766 260.38 75.3872C262.236 75.4145 264.096 75.2741 265.949 75.2273C266.023 75.2188 266.092 75.1833 266.141 75.1276C266.191 75.0719 266.219 74.9998 266.219 74.925C266.219 74.8503 266.191 74.7782 266.141 74.7224C266.092 74.6667 266.023 74.6312 265.949 74.6228Z" fill="black"/>
<path d="M262.59 81.1745C262.224 81.1511 261.853 81.1121 261.487 81.0848C261.119 81.0388 260.749 81.0141 260.379 81.0107C260.257 81.0128 260.141 81.0624 260.055 81.1491C259.969 81.2359 259.92 81.3527 259.919 81.4748C259.922 81.5963 259.971 81.7121 260.057 81.7984C260.142 81.8847 260.258 81.935 260.379 81.9389C260.749 81.9337 261.119 81.9089 261.487 81.8648C261.853 81.8375 262.224 81.7985 262.59 81.7751C262.67 81.7751 262.746 81.7435 262.803 81.6872C262.859 81.6309 262.891 81.5545 262.891 81.4748C262.891 81.3952 262.859 81.3188 262.803 81.2625C262.746 81.2062 262.67 81.1745 262.59 81.1745Z" fill="black"/>
<path d="M265.949 87.7225C264.096 87.6757 262.236 87.5353 260.38 87.5626C260.264 87.5732 260.157 87.6264 260.079 87.7119C260.001 87.7974 259.958 87.909 259.958 88.0247C259.958 88.1405 260.001 88.252 260.079 88.3375C260.157 88.423 260.264 88.4763 260.38 88.4869C262.236 88.5142 264.096 88.3738 265.949 88.327C266.023 88.3185 266.092 88.283 266.141 88.2273C266.191 88.1716 266.219 88.0994 266.219 88.0247C266.219 87.95 266.191 87.8779 266.141 87.8221C266.092 87.7664 266.023 87.7309 265.949 87.7225Z" fill="black"/>
<path d="M262.59 94.2746C262.224 94.2512 261.853 94.2122 261.487 94.1849C261.119 94.1408 260.749 94.1161 260.379 94.1108C260.257 94.1129 260.141 94.1625 260.055 94.2492C259.969 94.336 259.92 94.4528 259.919 94.5749C259.922 94.6964 259.971 94.8122 260.057 94.8985C260.142 94.9848 260.258 95.0351 260.379 95.039C260.749 95.0357 261.119 95.011 261.487 94.9649C261.853 94.9376 262.224 94.8986 262.59 94.8752C262.67 94.8752 262.746 94.8436 262.803 94.7873C262.859 94.731 262.891 94.6546 262.891 94.5749C262.891 94.4953 262.859 94.4189 262.803 94.3626C262.746 94.3063 262.67 94.2746 262.59 94.2746Z" fill="black"/>
<path d="M265.949 100.823C264.096 100.776 262.236 100.635 260.38 100.663C260.264 100.673 260.157 100.727 260.079 100.812C260.001 100.898 259.958 101.009 259.958 101.125C259.958 101.241 260.001 101.352 260.079 101.438C260.157 101.523 260.264 101.576 260.38 101.587C262.236 101.618 264.096 101.474 265.949 101.427C266.023 101.419 266.092 101.383 266.141 101.327C266.191 101.272 266.219 101.2 266.219 101.125C266.219 101.05 266.191 100.978 266.141 100.922C266.092 100.867 266.023 100.831 265.949 100.823Z" fill="black"/>
<path d="M262.59 107.375C262.224 107.351 261.853 107.312 261.487 107.285C261.119 107.241 260.749 107.216 260.379 107.211C260.257 107.213 260.141 107.263 260.055 107.349C259.969 107.436 259.92 107.553 259.919 107.675C259.922 107.797 259.971 107.912 260.057 107.999C260.142 108.085 260.258 108.135 260.379 108.139C260.749 108.136 261.119 108.111 261.487 108.065C261.853 108.038 262.224 107.999 262.59 107.975C262.67 107.975 262.746 107.944 262.803 107.887C262.859 107.831 262.891 107.755 262.891 107.675C262.891 107.595 262.859 107.519 262.803 107.463C262.746 107.406 262.67 107.375 262.59 107.375Z" fill="black"/>
<path d="M265.949 113.923C264.096 113.876 262.236 113.736 260.38 113.763C260.264 113.774 260.157 113.827 260.079 113.913C260.001 113.998 259.958 114.11 259.958 114.225C259.958 114.341 260.001 114.453 260.079 114.538C260.157 114.624 260.264 114.677 260.38 114.688C262.236 114.719 264.096 114.574 265.949 114.528C266.023 114.519 266.092 114.484 266.141 114.428C266.191 114.372 266.219 114.3 266.219 114.225C266.219 114.151 266.191 114.079 266.141 114.023C266.092 113.967 266.023 113.932 265.949 113.923Z" fill="black"/>
<path d="M262.59 120.475C262.224 120.451 261.853 120.412 261.487 120.385C261.119 120.341 260.749 120.316 260.379 120.311C260.256 120.311 260.138 120.36 260.051 120.447C259.964 120.534 259.915 120.652 259.915 120.775C259.915 120.898 259.964 121.016 260.051 121.103C260.138 121.19 260.256 121.239 260.379 121.239C260.749 121.235 261.119 121.212 261.487 121.169C261.853 121.138 262.224 121.103 262.59 121.079C262.67 121.077 262.747 121.045 262.803 120.988C262.86 120.931 262.893 120.855 262.895 120.775C262.893 120.695 262.86 120.62 262.803 120.564C262.746 120.508 262.67 120.476 262.59 120.475Z" fill="black"/>
<path d="M265.949 127.023C264.096 126.976 262.236 126.836 260.38 126.863C260.264 126.873 260.157 126.927 260.079 127.012C260.001 127.098 259.958 127.209 259.958 127.325C259.958 127.441 260.001 127.552 260.079 127.638C260.157 127.723 260.264 127.777 260.38 127.787C262.236 127.818 264.096 127.674 265.949 127.627C266.023 127.619 266.092 127.583 266.141 127.528C266.191 127.472 266.219 127.4 266.219 127.325C266.219 127.25 266.191 127.178 266.141 127.122C266.092 127.067 266.023 127.031 265.949 127.023Z" fill="black"/>
<path d="M262.59 133.575C262.224 133.552 261.853 133.513 261.487 133.485C261.119 133.44 260.749 133.417 260.379 133.415C260.257 133.416 260.141 133.465 260.055 133.551C259.969 133.637 259.92 133.753 259.919 133.875C259.921 133.997 259.97 134.113 260.056 134.2C260.141 134.286 260.257 134.336 260.379 134.339C260.749 134.337 261.119 134.314 261.487 134.269C261.853 134.238 262.224 134.203 262.59 134.179C262.67 134.177 262.747 134.145 262.803 134.088C262.86 134.032 262.893 133.955 262.895 133.875C262.893 133.796 262.86 133.72 262.803 133.664C262.746 133.608 262.67 133.576 262.59 133.575Z" fill="black"/>
<path d="M265.948 140.123C264.096 140.077 262.236 139.936 260.379 139.963C260.256 139.963 260.138 140.012 260.051 140.099C259.964 140.186 259.915 140.304 259.915 140.428C259.915 140.551 259.964 140.669 260.051 140.756C260.138 140.843 260.256 140.892 260.379 140.892C262.236 140.919 264.096 140.775 265.948 140.728C266.023 140.719 266.091 140.684 266.141 140.628C266.191 140.572 266.218 140.5 266.218 140.426C266.218 140.351 266.191 140.279 266.141 140.223C266.091 140.167 266.023 140.132 265.948 140.123Z" fill="black"/>
<path d="M262.591 146.675C262.224 146.652 261.854 146.613 261.487 146.585C261.12 146.541 260.75 146.517 260.38 146.515C260.264 146.526 260.157 146.579 260.079 146.665C260.001 146.75 259.958 146.862 259.958 146.977C259.958 147.093 260.001 147.205 260.079 147.29C260.157 147.376 260.264 147.429 260.38 147.439C260.75 147.437 261.12 147.414 261.487 147.369C261.854 147.338 262.224 147.303 262.591 147.28C262.671 147.278 262.747 147.245 262.804 147.188C262.86 147.132 262.893 147.055 262.895 146.975C262.893 146.896 262.86 146.82 262.804 146.764C262.747 146.708 262.671 146.676 262.591 146.675Z" fill="black"/>
<path d="M265.948 153.227C264.096 153.176 262.236 153.036 260.379 153.063C260.256 153.063 260.138 153.112 260.051 153.199C259.964 153.286 259.915 153.404 259.915 153.527C259.915 153.65 259.964 153.768 260.051 153.855C260.138 153.942 260.256 153.991 260.379 153.991C262.236 154.019 264.096 153.874 265.948 153.827C266.028 153.827 266.104 153.796 266.161 153.739C266.217 153.683 266.249 153.607 266.249 153.527C266.249 153.448 266.217 153.371 266.161 153.315C266.104 153.258 266.028 153.227 265.948 153.227Z" fill="black"/>
<path d="M262.591 159.775C262.224 159.752 261.854 159.713 261.487 159.685C261.12 159.641 260.75 159.617 260.38 159.615C260.264 159.626 260.157 159.679 260.079 159.765C260.001 159.85 259.958 159.962 259.958 160.077C259.958 160.193 260.001 160.305 260.079 160.39C260.157 160.476 260.264 160.529 260.38 160.54C260.75 160.538 261.12 160.514 261.487 160.469C261.854 160.442 262.224 160.403 262.591 160.38C262.671 160.378 262.747 160.345 262.804 160.288C262.86 160.232 262.893 160.155 262.895 160.075C262.893 159.996 262.86 159.92 262.804 159.864C262.747 159.808 262.671 159.776 262.591 159.775Z" fill="black"/>
<path d="M245.232 222.476H248.672V344.627H245.232V222.476Z" fill="black"/>
<path d="M225.073 339.218H268.831V347.658H225.073V339.218Z" fill="black"/>
</g>
<defs>
<clipPath id="clip0_119_1660">
<rect width="390" height="390" fill="white"/>
</clipPath>
</defs>
</svg>
