<svg width="390" height="390" viewBox="0 0 390 390" fill="none" xmlns="http://www.w3.org/2000/svg">
<path d="M180.995 138.033C202.239 138.033 219.461 120.811 219.461 99.567C219.461 78.323 202.239 61.1013 180.995 61.1013C159.751 61.1013 142.529 78.323 142.529 99.567C142.529 120.811 159.751 138.033 180.995 138.033Z" fill="white"/>
<path d="M218.641 99.5671C218.618 109.248 214.845 118.544 208.115 125.504C201.385 132.463 192.22 136.545 182.545 136.892C172.87 137.24 163.436 133.826 156.224 127.367C149.012 120.908 144.582 111.907 143.865 102.252C143.147 92.5977 146.197 83.0403 152.374 75.586C158.552 68.1318 167.377 63.3604 176.997 62.2732C186.617 61.186 196.284 63.8675 203.97 69.7551C211.655 75.6426 216.761 84.2783 218.216 93.8497C218.502 95.742 218.644 97.6533 218.641 99.5671C218.641 100.62 220.283 100.624 220.279 99.5671C220.279 89.4077 216.344 79.6432 209.3 72.3227C202.255 65.0021 192.649 60.6946 182.498 60.304C172.346 59.9134 162.437 63.4701 154.851 70.2277C147.265 76.9854 142.591 86.4186 141.811 96.548C141.03 106.677 144.203 116.715 150.664 124.556C157.125 132.396 166.371 137.429 176.463 138.599C186.555 139.768 196.708 136.984 204.791 130.829C212.874 124.674 218.258 115.628 219.815 105.589C220.118 103.596 220.273 101.583 220.279 99.5671C220.283 98.5141 218.645 98.5102 218.641 99.5671Z" fill="white"/>
<path d="M180.995 54.9043V99.5671H225.658C225.658 87.7218 220.952 76.3616 212.576 67.9857C204.201 59.6098 192.84 54.9043 180.995 54.9043Z" fill="black"/>
<path d="M180.18 54.9042V94.0563C180.18 95.862 180.114 97.6872 180.18 99.4929V99.567C180.183 99.7833 180.27 99.9898 180.423 100.143C180.576 100.296 180.783 100.383 180.999 100.386H220.147C221.957 100.386 223.778 100.452 225.584 100.386H225.658C225.874 100.383 226.081 100.296 226.234 100.143C226.386 99.9898 226.474 99.7833 226.477 99.567C226.489 87.8129 221.945 76.5115 213.8 68.037C205.654 59.5625 194.542 54.5743 182.797 54.1203C182.204 54.0969 181.627 54.0852 181.014 54.0852C179.961 54.0852 179.958 55.7232 181.014 55.7232C192.335 55.7144 203.219 60.09 211.383 67.932C219.547 75.7741 224.357 86.4731 224.804 97.7847C224.827 98.3775 224.839 98.9742 224.839 99.567L225.658 98.748H182.832C182.255 98.748 181.662 98.6934 181.073 98.748C181.047 98.7499 181.021 98.7499 180.995 98.748L181.814 99.567V60.4149C181.814 58.6092 181.884 56.784 181.814 54.9783V54.9042C181.814 53.8512 180.18 53.8473 180.18 54.9042Z" fill="black"/>
<path d="M21.8402 276.728C20.4908 289.033 20.1086 301.415 19.9214 313.778C19.8746 316.898 19.8356 320.054 19.7849 323.193C19.7615 324.722 19.7381 326.251 19.7069 327.776C19.6835 329.082 19.7069 330.392 19.5431 331.676C19.285 334.032 18.7036 336.342 17.8154 338.54C17.3819 339.624 16.8382 340.662 16.193 341.636C15.5339 342.611 14.5862 343.387 14.0285 344.429C13.4708 345.47 13.4591 346.659 14.594 347.252C15.491 347.72 16.544 347.79 17.5268 347.923C18.9425 348.114 20.3387 348.352 21.7661 348.449C23.1681 348.546 24.5744 348.56 25.9781 348.492C27.5381 348.414 29.2775 348.251 30.6581 347.432C30.9903 347.254 31.2805 347.008 31.5086 346.708C31.7368 346.409 31.8976 346.063 31.9802 345.696C32.0282 345.149 31.998 344.597 31.8905 344.058C31.8008 343.298 31.7111 342.533 31.6331 341.773C31.3094 338.653 31.1222 335.466 31.4927 332.327C31.8437 329.363 32.7407 326.477 33.6923 323.669C34.6439 320.861 35.7281 317.955 36.4886 315.019C37.2491 312.082 37.8302 308.997 38.4581 305.967C39.6866 299.898 40.7201 293.783 41.4533 287.637C42.1514 281.787 42.479 275.816 41.3441 270.001C41.0729 268.601 40.7068 267.221 40.2482 265.871C40.0493 265.282 39.1133 265.532 39.3083 266.128C41.1335 271.678 41.348 277.532 40.9073 283.316C40.3969 289.256 39.5728 295.165 38.4386 301.018C37.8887 304.028 37.2686 307.031 36.6329 310.027C36.0439 312.923 35.3045 315.787 34.4177 318.607C33.4934 321.415 32.4677 324.188 31.6409 327.031C30.8119 329.869 30.3724 332.806 30.3344 335.763C30.311 338.816 30.6854 341.847 31.0364 344.869C31.1112 345.209 31.076 345.564 30.9357 345.882C30.7955 346.2 30.5576 346.466 30.2564 346.64C29.5602 347.041 28.7938 347.306 27.9983 347.42C25.8735 347.739 23.7175 347.795 21.5789 347.588C20.2139 347.49 18.8801 347.256 17.5268 347.077C17.012 347.01 16.4972 346.952 15.9941 346.839C15.521 346.783 15.0728 346.596 14.6993 346.301C14.243 345.805 14.7461 344.967 15.0464 344.526C15.3467 344.085 15.8264 343.617 16.2164 343.157C16.876 342.326 17.4423 341.425 17.9051 340.47C18.9405 338.366 19.6744 336.126 20.0852 333.817C20.5532 331.313 20.5376 328.793 20.5766 326.255C20.6234 323.226 20.6624 320.194 20.6936 317.16C20.834 305.206 20.9822 293.241 21.9962 281.319C22.1288 279.79 22.2731 278.261 22.4291 276.732C22.4681 276.342 21.8753 276.342 21.8324 276.732L21.8402 276.728Z" fill="black"/>
<path d="M18.9731 338.208C20.1041 338.321 21.239 338.438 22.3739 338.543C22.9394 338.594 23.5088 338.637 24.0743 338.684C24.6398 338.731 25.1819 338.684 25.5719 339.074C25.8839 339.382 26.0906 339.784 26.4221 340.08C26.7474 340.369 27.1321 340.583 27.5492 340.708C28.5788 341.016 29.5343 340.505 30.5639 340.552C30.6481 340.549 30.7287 340.517 30.7913 340.461C30.8539 340.405 30.8944 340.328 30.9057 340.244C30.9169 340.161 30.8981 340.076 30.8527 340.005C30.8072 339.935 30.7381 339.882 30.6575 339.858C29.6474 339.557 28.6295 340.248 27.6272 339.787C26.7536 339.397 26.5001 338.341 25.6187 337.966C25.181 337.823 24.7218 337.757 24.2615 337.771C23.696 337.74 23.1305 337.705 22.5611 337.678C21.3677 337.615 20.1704 337.58 18.9731 337.533C18.5324 337.533 18.548 338.165 18.9731 338.208Z" fill="black"/>
<path d="M100.686 276.728C101.922 288.733 102.207 300.791 102.367 312.854C102.406 315.857 102.442 318.863 102.476 321.871C102.515 324.792 102.476 327.721 102.632 330.654C102.774 332.933 103.212 335.184 103.935 337.35C104.576 339.478 105.617 341.463 107.004 343.2C107.382 343.606 107.739 344.032 108.072 344.475C108.396 344.947 108.915 345.84 108.345 346.316C107.624 346.921 106.36 346.924 105.479 347.041C104.102 347.225 102.749 347.455 101.357 347.549C99.9793 347.641 98.5976 347.654 97.2187 347.588C95.7601 347.517 94.0246 347.4 92.7883 346.546C92.0668 346.051 92.0083 345.454 92.1019 344.635C92.2852 343.114 92.4607 341.593 92.5894 340.068C92.8937 337.082 92.8321 334.07 92.4061 331.098C91.9381 328.212 91.0294 325.42 90.0856 322.659C89.1418 319.898 88.1356 317.125 87.4336 314.274C86.716 311.314 86.1037 308.318 85.5031 305.331C84.3331 299.411 83.3113 293.448 82.6093 287.449C81.9424 281.755 81.6109 275.913 82.7224 270.254C82.9961 268.855 83.357 267.475 83.8027 266.12C83.9977 265.524 83.0656 265.274 82.8667 265.863C80.9635 271.456 80.7802 277.465 81.2287 283.308C81.756 289.403 82.6074 295.465 83.7793 301.47C84.3617 304.59 84.9974 307.71 85.6864 310.83C86.3059 313.769 87.0871 316.671 88.0264 319.523C88.978 322.351 90.0271 325.151 90.7954 328.037C91.5905 331.039 91.9426 334.141 91.8406 337.245C91.7938 338.828 91.6612 340.408 91.4935 341.979C91.4233 342.681 91.3414 343.379 91.2595 344.077C91.1415 344.646 91.1164 345.229 91.1854 345.805C91.5364 347.459 93.5605 348.036 94.9957 348.282C97.1674 348.603 99.3698 348.662 101.556 348.457C102.956 348.352 104.332 348.11 105.725 347.927C106.696 347.798 107.772 347.724 108.638 347.217C111.122 345.766 107.757 342.892 106.867 341.546C105.616 339.553 104.712 337.361 104.196 335.065C103.584 332.58 103.47 330.131 103.416 327.584C103.359 324.483 103.311 321.381 103.272 318.279C103.1 305.943 102.882 293.6 101.751 281.307C101.61 279.778 101.457 278.249 101.29 276.721C101.247 276.331 100.651 276.331 100.694 276.721L100.686 276.728Z" fill="black"/>
<path d="M104.13 337.533C102.96 337.58 101.79 337.615 100.62 337.67C100.051 337.697 99.4851 337.732 98.9196 337.763C98.4279 337.748 97.9373 337.816 97.4688 337.966C96.6147 338.329 96.3612 339.335 95.5422 339.748C94.5204 340.263 93.4713 339.55 92.4222 339.858C92.0517 339.967 92.1063 340.571 92.5158 340.552C93.522 340.509 94.4658 341 95.4603 340.731C95.8798 340.615 96.2695 340.41 96.603 340.131C96.9618 339.826 97.1763 339.401 97.5078 339.074C97.8393 338.746 98.4243 338.731 98.9157 338.684L100.616 338.543C101.786 338.438 102.956 338.313 104.126 338.2C104.547 338.157 104.567 337.51 104.126 337.525L104.13 337.533Z" fill="black"/>
<path d="M32.097 152.396L32.877 156.608C31.4145 157.338 30.927 159.159 30.6306 160.766C22.8111 201.443 19.734 242.861 16.6725 284.17C16.4463 287.196 16.2357 290.332 17.277 293.183C19.2504 298.572 25.077 301.451 30.5565 303.131C46.293 307.964 63.1332 307.293 79.5639 306.251C86.1666 305.826 92.9253 305.312 98.9625 302.597C100.753 301.794 102.512 300.756 103.666 299.165C105.694 296.373 105.433 292.59 105.078 289.154C103.315 271.963 101.544 254.74 98.0577 237.81C91.884 207.734 80.4024 178.92 74.8215 148.711" fill="black"/>
<path d="M31.7891 152.49C32.027 153.898 32.261 155.31 32.5106 156.717L32.69 156.281C30.4748 157.451 30.2642 160.446 29.8469 162.63C29.2151 165.916 28.6132 169.209 28.0412 172.509C26.9024 179.049 25.904 185.616 24.9875 192.192C23.1506 205.35 21.6725 218.552 20.4167 231.777C19.1492 245.119 18.0767 258.48 17.0822 271.845L16.3451 281.713C16.1189 284.786 15.7211 287.929 16.2008 291.002C17.0003 296.1 20.8808 299.582 25.3463 301.692C30.5801 304.184 36.4964 305.417 42.1943 306.279C48.482 307.174 54.8289 307.587 61.1795 307.515C67.5521 307.492 73.9208 307.125 80.2895 306.712C86.2955 306.322 92.4419 305.803 98.0735 303.529C100.57 302.523 103.144 301.189 104.54 298.791C105.866 296.509 105.963 293.752 105.792 291.186C105.581 287.995 105.168 284.805 104.832 281.623C104.486 278.3 104.125 274.976 103.748 271.65C102.247 258.531 100.375 245.446 97.469 232.557C94.6298 219.956 90.9638 207.562 87.329 195.179C83.6943 182.797 80.0282 170.406 77.2202 157.802C76.539 154.736 75.9111 151.662 75.3365 148.578C75.2234 147.974 74.303 148.227 74.4122 148.832C76.7132 161.23 79.997 173.402 83.5031 185.523C87.0092 197.644 90.6908 209.613 93.8459 221.793C97.0607 234.221 99.535 246.828 101.256 259.549C102.137 266.027 102.874 272.524 103.569 279.025C103.912 282.249 104.247 285.473 104.575 288.697C104.848 291.377 105.187 294.22 104.333 296.833C103.405 299.676 100.917 301.24 98.2997 302.359C95.5299 303.497 92.6336 304.298 89.6729 304.746C83.6357 305.74 77.4269 305.916 71.3429 306.216C58.8629 306.805 46.1879 306.712 34.0277 303.576C29.1878 302.328 23.9384 300.694 20.3777 296.997C18.5171 295.072 17.3802 292.563 17.1602 289.895C16.8755 286.833 17.3006 283.698 17.5268 280.644C18.4901 267.637 19.4768 254.635 20.6117 241.644C21.7466 228.711 23.0453 215.787 24.6404 202.905C26.2355 190.023 28.0802 177.06 30.4202 164.221C30.6815 162.79 30.8999 161.335 31.2431 159.931C31.5317 158.761 31.9646 157.591 33.0683 156.951C33.1419 156.908 33.1993 156.842 33.2317 156.763C33.2641 156.684 33.2697 156.597 33.2477 156.515C32.9708 155.115 32.6783 153.718 32.3936 152.322C32.3117 151.932 31.7072 152.092 31.7774 152.494L31.7891 152.49Z" fill="#18C4FF"/>
<path d="M16.9765 293.28C18.4312 298.194 23.3881 301.041 27.8965 302.765C30.7093 303.801 33.5955 304.627 36.5311 305.234C39.7176 305.923 42.9383 306.444 46.1797 306.794C52.7092 307.458 59.2766 307.674 65.8357 307.441C69.1429 307.351 72.4657 307.187 75.7495 306.992C78.967 306.805 82.1884 306.602 85.3942 306.294C88.5016 306.019 91.5796 305.478 94.5943 304.676C97.4023 303.896 100.405 302.827 102.675 300.928C103.211 300.477 103.691 299.964 104.106 299.399C104.473 298.908 103.642 298.428 103.28 298.916C101.564 301.224 98.5645 302.394 95.9242 303.268C92.9821 304.197 89.9531 304.824 86.884 305.14C83.8264 305.495 80.7454 305.67 77.6722 305.854C74.4625 306.049 71.2528 306.244 68.0431 306.341C61.6922 306.62 55.3303 306.519 48.9916 306.037C42.6789 305.556 36.4388 304.379 30.3847 302.527C25.7749 301.08 20.9818 298.865 18.4 294.594C18.0905 294.091 17.8105 293.57 17.5615 293.034C17.4133 292.703 16.8751 292.941 16.9765 293.284V293.28Z" fill="black"/>
<path d="M84.5014 120.51C83.3314 117.538 80.383 115.705 77.5906 114.153C72.7442 111.454 67.7938 108.956 62.7394 106.657C63.1032 107.116 63.4405 107.595 63.7495 108.092C63.9932 108.43 64.1438 108.825 64.1863 109.239C64.1726 109.628 64.0598 110.006 63.8587 110.339C63.1004 111.777 62.0026 113.009 60.6607 113.927C61.1809 114.356 61.5353 114.953 61.663 115.616C61.897 116.86 61.3081 118.088 60.727 119.215C58.8745 122.823 56.983 126.434 54.6742 129.773C54.4463 130.188 54.085 130.515 53.6485 130.701C52.9738 130.896 52.3108 130.408 51.7804 129.944C49.027 127.522 46.3789 124.913 44.4913 121.754C43.9943 120.996 43.6413 120.152 43.45 119.266C43.2082 117.858 43.6606 116.435 44.1247 115.089C44.269 114.676 44.4094 114.204 44.191 113.825C43.9955 113.561 43.7231 113.364 43.411 113.26C42.3673 112.83 41.4341 112.17 40.681 111.329C40.3057 110.904 40.0411 110.392 39.9105 109.84C39.7799 109.287 39.7873 108.711 39.9322 108.163C40.2715 107.133 41.1841 106.423 42.0577 105.776H41.4844C35.6658 108.115 30.0875 111.012 24.8275 114.426C24.1889 114.788 23.6272 115.272 23.1739 115.85C22.6396 116.63 22.5187 117.605 22.4368 118.544C21.5203 129.301 23.9968 140.045 26.9296 150.439C27.3196 151.804 27.7681 153.258 28.8796 154.136C29.8429 154.892 31.126 155.076 32.3428 155.216C44.8108 156.669 57.408 156.622 69.8647 155.076C72.5635 154.74 75.391 154.296 77.5165 152.588C79.642 150.879 74.8723 147.299 75.7264 144.717C77.8519 138.298 78.2497 130.482 78.4564 123.724C78.511 121.965 85.1527 122.168 84.5014 120.51Z" fill="black"/>
<path d="M50.0528 150.408C50.1036 150.232 50.0912 150.044 50.0177 149.877C49.9013 149.738 49.7374 149.646 49.5575 149.62L40.0142 146.937C39.6952 146.811 39.3453 146.786 39.0119 146.866C38.7054 147.015 38.4561 147.26 38.3021 147.564C37.2881 149.183 36.6875 151.016 36.0986 152.829L33.0449 162.213L40.8098 173.659C43.1498 173.999 45.4079 174.763 47.7284 175.219C50.0489 175.676 52.5371 175.754 54.6977 174.798C56.0432 174.205 57.1859 173.238 58.4495 172.501C59.8663 171.726 61.3521 171.085 62.8877 170.586C63.9914 170.196 64.4711 170.641 65.5787 170.247C65.9141 170.126 66.7487 169.954 66.6863 170.301C67.3687 168.801 67.9308 167.25 68.3672 165.66C68.856 163.84 69.3448 162.013 69.8336 160.177C69.909 159.906 69.9297 159.623 69.8946 159.345C69.8595 159.066 69.7692 158.797 69.6291 158.553C69.489 158.31 69.3018 158.096 69.0785 157.926C68.8551 157.755 68.6001 157.631 68.3282 157.56C62.4782 156 54.8342 153.578 50.9147 152.576C50.5896 152.494 50.3077 152.292 50.126 152.01C49.9443 151.729 49.8763 151.389 49.9358 151.059L50.0528 150.408Z" fill="white"/>
<path d="M45.8019 102.601C44.8581 103.221 43.9221 103.845 43.0017 104.497C42.1829 105.039 41.3939 105.624 40.6383 106.252C39.9763 106.79 39.5202 107.54 39.3469 108.375C39.1735 109.211 39.2936 110.081 39.6867 110.838C40.1179 111.649 40.7454 112.34 41.5119 112.846C41.8857 113.105 42.2766 113.339 42.6819 113.545C42.9861 113.697 43.6569 113.864 43.731 114.243C43.8051 114.621 43.4814 115.128 43.3644 115.456C43.1832 115.965 43.0385 116.486 42.9315 117.016C42.711 117.978 42.723 118.98 42.9666 119.937C43.4931 121.793 44.7996 123.478 45.9891 124.96C47.2045 126.446 48.5346 127.835 49.9671 129.113C51.1371 130.174 53.013 132.307 54.6003 130.724C55.2308 129.996 55.7837 129.204 56.25 128.361C56.8116 127.479 57.3498 126.582 57.8685 125.677C59.0658 123.599 60.1773 121.473 61.2615 119.34C61.7451 118.392 62.217 117.39 62.2521 116.298C62.2675 115.777 62.1674 115.259 61.9591 114.78C61.7507 114.302 61.4393 113.876 61.047 113.533L60.93 114.418C62.027 113.671 62.9785 112.73 63.738 111.641C64.1404 111.109 64.4563 110.517 64.674 109.886C64.7554 109.555 64.7665 109.21 64.7067 108.875C64.647 108.539 64.5176 108.219 64.3269 107.936C63.651 106.809 62.8331 105.774 61.8933 104.855C60.947 103.87 59.839 103.053 58.6173 102.441C58.4996 102.375 58.3607 102.358 58.2305 102.394C58.1004 102.429 57.9893 102.515 57.9214 102.631C57.8534 102.748 57.8339 102.886 57.867 103.017C57.9002 103.148 57.9833 103.26 58.0986 103.33C59.0358 103.966 59.9308 104.662 60.7779 105.413C61.6043 106.188 62.3384 107.056 62.9658 107.999C63.2544 108.432 63.6639 108.946 63.5547 109.496C63.3891 110.039 63.1246 110.547 62.7747 110.994C62.1279 111.955 61.3079 112.786 60.3567 113.447C60.2832 113.491 60.2207 113.552 60.1739 113.624C60.127 113.696 60.097 113.777 60.0862 113.862C60.0753 113.947 60.0838 114.034 60.1111 114.115C60.1383 114.197 60.1836 114.271 60.2436 114.332C61.8036 115.678 60.9339 117.589 60.1539 119.11C59.2842 120.806 58.4028 122.499 57.4746 124.18C56.5464 125.861 55.5675 127.483 54.4989 129.063C54.3081 129.387 54.0818 129.689 53.8242 129.964C53.4693 130.299 53.0988 130.225 52.7088 129.983C51.9698 129.453 51.2852 128.851 50.6652 128.185C49.4045 127.012 48.2155 125.765 47.1045 124.449C46.0203 123.139 44.8503 121.645 44.2536 120.034C43.9438 119.173 43.8843 118.241 44.082 117.347C44.2536 116.473 44.6358 115.647 44.7918 114.773C44.8803 114.415 44.843 114.037 44.6861 113.704C44.5291 113.37 44.2621 113.1 43.9299 112.94C43.2016 112.609 42.5024 112.218 41.8395 111.77C41.0799 111.221 40.5483 110.412 40.3458 109.496C40.2864 109.057 40.3381 108.61 40.4961 108.195C40.6542 107.781 40.9136 107.413 41.2506 107.125C41.9745 106.465 42.7405 105.853 43.5438 105.292C44.4447 104.606 45.3222 103.892 46.1997 103.174C46.5039 102.929 46.11 102.418 45.7824 102.632L45.8019 102.601Z" fill="black"/>
<path d="M45.396 94.9103C41.886 91.8605 41.2269 88.9277 41.106 84.3374L39.3744 84.1853C39.7254 87.2858 38.2434 89.15 36.3168 91.5953C35.6031 92.5001 34.8075 93.401 34.5267 94.5164C34.2459 95.6318 34.7061 97.0397 35.8137 97.3634C36.27 97.496 36.9369 97.6052 36.9018 98.081C36.8713 98.2391 36.7985 98.386 36.6912 98.5061C36.378 98.9247 36.1698 99.4124 36.0843 99.9282C35.9988 100.444 36.0384 100.973 36.1998 101.47C36.3777 101.963 36.7136 102.383 37.1551 102.665C37.5967 102.948 38.1192 103.076 38.6412 103.03C38.4267 103.6 38.3429 104.211 38.396 104.818C38.4491 105.425 38.6378 106.012 38.9481 106.536C39.2584 107.06 39.6825 107.507 40.1889 107.846C40.6954 108.184 41.2714 108.404 41.8743 108.49C42.323 108.582 42.7897 108.517 43.1964 108.307C43.4807 108.114 43.719 107.861 43.8945 107.566C45.1698 105.667 45.7119 103.373 46.0941 101.111C46.3775 99.4005 46.5816 97.6754 46.7064 95.936C46.2306 95.6045 45.7977 95.2574 45.396 94.9103Z" fill="white"/>
<path d="M68.7412 93.7559C68.9243 93.0824 68.8762 92.367 68.6047 91.724C67.9183 89.657 66.6547 87.824 65.4262 86.0339C64.6852 84.9653 64.8568 85.4177 64.1197 84.3491L62.2321 85.1642C62.2321 85.5035 62.1931 85.8311 62.1697 86.1509C61.9162 89.4815 61.3195 91.763 59.0497 94.3409C58.9132 94.493 58.7728 94.6451 58.6285 94.7933C58.5713 97.4505 58.6051 100.105 58.7299 102.757C58.7331 104.027 58.9384 105.288 59.3383 106.493C59.7907 107.663 60.6682 108.759 61.8694 109.161C63.8857 109.836 66.1399 108.291 66.8614 106.287C67.5829 104.282 67.0993 102.047 66.2881 100.082C67.4893 100.363 68.6281 99.095 68.6281 97.8626C68.6281 96.6302 67.9027 95.5226 67.111 94.5749C67.7116 94.883 68.4955 94.4033 68.7412 93.7559Z" fill="white"/>
<path d="M39.9753 79.3804C45.3495 76.5841 49.8189 72.3604 54.2103 68.1874C53.7655 69.1825 53.4269 70.2218 53.2002 71.2879C53.091 71.7988 53.0481 72.4228 53.4615 72.7426C53.988 73.1326 54.7329 72.6997 55.2204 72.2473C56.0942 71.447 56.9236 70.5994 57.7047 69.7084C58.7772 72.2122 59.8731 74.755 61.5813 76.8805C62.2443 77.7112 63.036 78.5575 63.0984 79.6105C63.8784 79.3258 64.0461 78.304 64.0773 77.4655C64.1748 74.7979 64.1943 72.0484 63.2115 69.5641C62.2287 67.0798 59.9979 64.9075 57.3303 64.7905C56.9731 64.7951 56.616 64.7743 56.2617 64.7281C55.5519 64.5916 54.9591 64.1275 54.3117 63.7921C52.1706 62.665 49.4796 63.0589 47.3463 64.1821C45.213 65.3053 43.5126 67.1227 41.8512 68.8894C40.9074 69.8995 39.9441 70.9252 39.3162 72.1615C38.7822 73.2368 38.5154 74.425 38.5385 75.6254C38.5616 76.8257 38.8738 78.0028 39.4488 79.0567" fill="white"/>
<path d="M40.1196 79.6301C45.5796 76.8494 50.088 72.6569 54.5184 68.4956L53.8203 67.9652C53.3651 68.966 53.0161 70.0117 52.779 71.0852C52.6152 71.8652 52.5684 72.8324 53.3913 73.2302C54.2142 73.628 55.0761 72.9884 55.6611 72.4502C56.4829 71.6858 57.264 70.8787 58.0011 70.0322L57.2874 69.9425C57.9964 71.7115 58.8197 73.4324 59.7522 75.0944C60.2177 75.8796 60.7391 76.6304 61.3122 77.3408C61.8504 78.0116 62.5056 78.7253 62.5875 79.6223C62.5901 79.7066 62.6141 79.7889 62.6574 79.8613C62.7007 79.9337 62.7618 79.9938 62.8348 80.036C62.9079 80.0782 62.9905 80.101 63.0748 80.1024C63.1592 80.1037 63.2425 80.0834 63.3168 80.0435C64.7091 79.4468 64.5531 77.4617 64.5726 76.2293C64.6568 74.4047 64.4928 72.5771 64.0851 70.7966C63.3636 67.9769 61.3746 65.1689 58.395 64.4747C57.615 64.2914 56.7453 64.4474 55.9926 64.1783C55.2399 63.9092 54.5964 63.371 53.8398 63.0824C52.2799 62.5377 50.585 62.5158 49.0116 63.02C45.6771 63.9989 43.2123 66.7172 40.9386 69.2015C39.6633 70.5938 38.544 72.1265 38.2086 74.0258C37.8741 75.836 38.1686 77.7061 39.0432 79.3259C39.3318 79.8524 40.1352 79.3805 39.8466 78.854C39.1295 77.5319 38.8561 76.0143 39.0666 74.525C39.3258 73.0137 40.0181 71.6101 41.0595 70.4846C42.0655 69.3109 43.1316 68.1901 44.2536 67.1267C45.3515 66.0201 46.6211 65.0983 48.0132 64.3967C49.3881 63.7208 50.9335 63.4709 52.4514 63.6791C53.1677 63.8039 53.8542 64.0619 54.4755 64.4396C55.0609 64.8424 55.7258 65.115 56.4255 65.2391C57.1179 65.2549 57.8074 65.3359 58.4847 65.4809C59.1072 65.6745 59.6916 65.974 60.2124 66.3662C61.2611 67.1646 62.0892 68.2168 62.6187 69.4238C63.3597 71.0696 63.5742 72.9338 63.6171 74.7044C63.6171 75.6248 63.6171 76.553 63.582 77.4734C63.5508 78.1052 63.5001 78.9203 62.841 79.2011L63.5703 79.6184C63.4613 78.7671 63.1016 77.9675 62.5368 77.3213C61.9004 76.5483 61.3067 75.7411 60.7584 74.9033C59.741 73.1639 58.8558 71.3505 58.1103 69.4784C58.0747 69.4185 58.0259 69.3675 57.9677 69.3292C57.9095 69.2909 57.8433 69.2663 57.7742 69.2573C57.7051 69.2482 57.6349 69.255 57.5688 69.2771C57.5027 69.2992 57.4425 69.3361 57.3927 69.3848C56.8857 69.9672 56.3657 70.5288 55.8327 71.0696C55.3842 71.5181 54.7368 72.3605 54.0582 72.4424C52.9233 72.575 54.417 68.8778 54.6198 68.4098C54.8226 67.9418 54.3156 67.5089 53.9334 67.8794C49.6005 72.0368 45.1896 76.2605 39.8583 79.1309C39.5268 79.3064 39.8193 79.7978 40.1508 79.6301H40.1196Z" fill="white"/>
<path d="M377.692 221.777H122.3C119.96 221.777 117.62 221.863 115.28 221.777C113.97 221.727 113.33 220.795 113.303 219.586C113.276 218.377 113.303 217.187 113.303 215.99V45.6613C113.303 44.2963 113.132 42.6934 115.046 42.5023C115.495 42.4594 115.975 42.5023 116.427 42.5023H375.251C375.999 42.5023 376.752 42.4711 377.501 42.5023C378.862 42.5608 379.416 43.5553 379.431 44.7565C379.482 48.3133 379.431 51.8818 379.431 55.4386V218.591C379.431 219.933 379.626 221.645 377.692 221.777C376.643 221.848 376.635 223.486 377.692 223.415C380.25 223.244 381.069 221.235 381.069 219.059V55.3801C381.069 51.8194 381.1 48.2587 381.069 44.698C381.05 42.631 379.837 40.9579 377.626 40.8721C376.998 40.8487 376.366 40.8721 375.738 40.8721H116.271C115.679 40.8402 115.086 40.8571 114.497 40.9228C112.157 41.3128 111.681 43.3642 111.681 45.3181V216.06C111.681 218.899 111.018 223.252 115.152 223.4C117.266 223.474 119.395 223.4 121.509 223.4H377.692C378.745 223.415 378.745 221.777 377.692 221.777Z" fill="black"/>
<path d="M40.704 78.0507C40.5831 79.5998 40.5479 81.1544 40.5987 82.7073C40.6146 84.3043 40.7542 85.8977 41.016 87.4731C41.5698 90.6243 42.8997 93.5181 45.4074 95.5812C46.8441 96.832 48.5256 97.7697 50.3448 98.3346C52.1085 98.8151 53.9897 98.5943 55.5942 97.7184C57.1178 96.9219 58.469 95.832 59.57 94.5115C60.671 93.1909 61.5001 91.6658 62.0097 90.0237C62.5323 88.1985 62.6337 86.2602 62.7 84.3726C62.8105 82.1847 62.804 79.9923 62.6805 77.805C62.6805 77.7016 62.6394 77.6024 62.5662 77.5293C62.4931 77.4561 62.3939 77.415 62.2905 77.415C62.187 77.415 62.0878 77.4561 62.0147 77.5293C61.9416 77.6024 61.9005 77.7016 61.9005 77.805C61.7445 81.2799 62.0448 84.7938 61.4403 88.2453C60.8642 91.383 59.0766 94.168 56.4639 95.9985C55.0755 96.9969 53.418 97.773 51.6708 97.5819C49.8495 97.3869 48.1608 96.4119 46.7139 95.3472C45.4565 94.4516 44.3948 93.3091 43.5939 91.9893C42.8773 90.7325 42.3515 89.376 42.0339 87.9645C41.6687 86.3272 41.4508 84.6604 41.3826 82.9842C41.2968 81.3423 41.3514 79.6887 41.2227 78.0507C41.2227 77.9763 41.1931 77.9048 41.1404 77.8522C41.0878 77.7995 41.0163 77.7699 40.9419 77.7699C40.8674 77.7699 40.796 77.7995 40.7433 77.8522C40.6907 77.9048 40.6611 77.9763 40.6611 78.0507H40.704Z" fill="black"/>
<path d="M41.1175 80.6599C41.1639 80.3244 41.0971 79.983 40.9275 79.6898C40.758 79.3966 40.4954 79.1684 40.1815 79.0414C39.8496 78.9177 39.4892 78.8924 39.1433 78.9685C38.7974 79.0446 38.4808 79.2189 38.2315 79.4704C37.9622 79.7463 37.7537 80.0755 37.6193 80.4369C37.485 80.7983 37.4278 81.1838 37.4515 81.5686C37.4384 82.3575 37.702 83.126 38.1964 83.7409C38.5226 84.0781 38.9105 84.3495 39.3391 84.5404C39.538 84.6379 39.7291 84.7276 39.9553 84.8095C40.1836 84.9223 40.4339 84.9836 40.6885 84.9889C40.7837 85.0043 40.8812 84.9839 40.9622 84.9316C41.0432 84.8793 41.102 84.7989 41.1272 84.7058C41.1524 84.6128 41.1423 84.5137 41.0987 84.4277C41.0551 84.3416 40.9812 84.2748 40.8913 84.2401C40.7109 84.138 40.5164 84.0631 40.3141 84.0178C40.1308 83.9521 39.9511 83.8766 39.7759 83.7916C39.4436 83.6432 39.1369 83.4432 38.8672 83.1988C38.6459 82.9231 38.4831 82.6053 38.3885 82.2647C38.294 81.9241 38.2698 81.5678 38.3173 81.2176C38.3296 80.9044 38.4327 80.6016 38.6142 80.3461C38.7956 80.0905 39.0475 79.8933 39.3391 79.7785C39.4723 79.7302 39.6149 79.7138 39.7556 79.7305C39.8963 79.7471 40.0311 79.7965 40.1493 79.8745C40.2675 79.9526 40.3659 80.0572 40.4365 80.18C40.5071 80.3028 40.548 80.4404 40.5559 80.5819C40.5559 80.8978 41.0746 80.9719 41.1253 80.6599H41.1175Z" fill="black"/>
<path d="M39.8736 81.67H39.9633H40.0062H40.0413C39.975 81.67 39.9984 81.6505 40.0413 81.67L40.1154 81.7168C40.1466 81.7363 40.0569 81.6661 40.1154 81.7168L40.1427 81.7402L40.1739 81.7714C40.209 81.8143 40.1739 81.7714 40.1739 81.7714C40.2157 81.8222 40.2474 81.8804 40.2675 81.943L40.2324 81.8572L40.3026 82.0171L40.2636 81.9313C40.3164 82.0568 40.3556 82.1875 40.3806 82.3213V82.2238V82.2433V82.1458L40.4157 82.0561C40.4179 82.0651 40.4179 82.0744 40.4157 82.0834L40.4742 82.0054C40.3933 82.0783 40.3327 82.171 40.2987 82.2745C40.2678 82.4068 40.2873 82.5458 40.3533 82.6645C40.3974 82.7481 40.4629 82.8185 40.5431 82.8685C40.6232 82.9185 40.7152 82.9463 40.8096 82.9492C40.882 82.9487 40.9531 82.93 41.0163 82.8946C41.0716 82.8556 41.1192 82.8066 41.1567 82.7503C41.2055 82.6638 41.2194 82.562 41.1957 82.4656C41.1641 82.3749 41.1039 82.2969 41.0241 82.2433C40.9562 82.2015 40.8777 82.1799 40.7979 82.1809H40.8993H40.8642L40.9539 82.2199L40.9227 82.2004L40.9968 82.2589L40.9617 82.2238L41.0202 82.3018V82.2667L41.0592 82.3564C41.057 82.3396 41.057 82.3225 41.0592 82.3057V82.4071C41.0571 82.3942 41.0571 82.381 41.0592 82.3681V82.4695C41.0592 82.4695 41.0592 82.4461 41.0592 82.4344L41.0241 82.5241V82.5007L40.9656 82.5748C40.989 82.5436 41.0202 82.5163 41.0436 82.4851C41.1045 82.4069 41.1386 82.3112 41.1411 82.2121C41.1312 82.1144 41.1075 82.0186 41.0709 81.9274C41.0416 81.8368 41.0064 81.7482 40.9656 81.6622C40.9243 81.5752 40.8719 81.4939 40.8096 81.4204C40.7037 81.2837 40.5603 81.1807 40.3969 81.1239C40.2335 81.0672 40.0571 81.0591 39.8892 81.1006C39.8245 81.121 39.7688 81.1633 39.7318 81.2202C39.6948 81.2771 39.6788 81.3452 39.6864 81.4126C39.695 81.4798 39.7279 81.5415 39.779 81.5861C39.83 81.6307 39.8956 81.655 39.9633 81.6544L39.8736 81.67Z" fill="black"/>
<path d="M62.7552 80.5818C62.764 80.4407 62.8054 80.3036 62.8762 80.1812C62.947 80.0588 63.0453 79.9546 63.1633 79.8767C63.2813 79.7988 63.4157 79.7493 63.5561 79.7323C63.6964 79.7152 63.8388 79.731 63.972 79.7784C64.2639 79.8928 64.5161 80.0899 64.6976 80.3456C64.8791 80.6012 64.9821 80.9043 64.9938 81.2175C65.0405 81.5678 65.0158 81.9239 64.9213 82.2643C64.8268 82.6048 64.6644 82.9226 64.4439 83.1987C64.1743 83.4431 63.8676 83.6432 63.5352 83.7915C63.3753 83.8695 63.2076 83.9397 63.0399 84.0021C62.8237 84.0538 62.6152 84.1338 62.4198 84.24C62.3299 84.2748 62.256 84.3416 62.2124 84.4276C62.1689 84.5136 62.1587 84.6127 62.1839 84.7058C62.2091 84.7989 62.2679 84.8793 62.3489 84.9316C62.43 84.9838 62.5275 85.0042 62.6226 84.9888C63.0361 84.9578 63.4367 84.831 63.7926 84.6183C64.1798 84.448 64.543 84.2278 64.8729 83.9631C65.4513 83.4188 65.7941 82.6701 65.8284 81.8766C65.8835 81.4888 65.8608 81.0939 65.7617 80.7149C65.6626 80.336 65.4891 79.9805 65.2512 79.6692C65.032 79.3901 64.7406 79.1761 64.4087 79.0503C64.0767 78.9246 63.7167 78.8918 63.3675 78.9555C62.9938 79.043 62.6654 79.2652 62.4452 79.5797C62.225 79.8941 62.1285 80.2787 62.1741 80.6598C62.2209 80.9874 62.7474 80.9016 62.7435 80.5818H62.7552Z" fill="black"/>
<path d="M63.5034 81.1199C63.3354 81.0783 63.1591 81.0865 62.9957 81.1432C62.8323 81.2 62.6889 81.303 62.583 81.4397C62.523 81.5098 62.4719 81.5871 62.4309 81.6698C62.3919 81.7595 62.3529 81.8453 62.3217 81.9389C62.285 82.0327 62.2614 82.1312 62.2515 82.2314C62.2518 82.314 62.2747 82.3949 62.3178 82.4654C62.3512 82.5107 62.3877 82.5537 62.427 82.5941L62.3685 82.52V82.5434L62.3334 82.4537C62.3334 82.4537 62.3334 82.4771 62.3334 82.4888V82.3874C62.3355 82.4003 62.3355 82.4135 62.3334 82.4264V82.325C62.3356 82.3418 62.3356 82.3589 62.3334 82.3757L62.3724 82.286L62.3529 82.3211L62.4114 82.2431L62.3997 82.2899L62.4738 82.2314L62.4426 82.2509L62.5323 82.2119H62.4972H62.5986C62.5188 82.2113 62.4405 82.2329 62.3724 82.2743C62.2895 82.3245 62.2284 82.4038 62.2008 82.4966C62.1875 82.5442 62.1841 82.594 62.1909 82.643C62.1976 82.6919 62.2142 82.739 62.2398 82.7813C62.2762 82.8385 62.324 82.8876 62.3802 82.9256C62.4433 82.961 62.5144 82.9797 62.5869 82.9802C62.6689 82.9794 62.7493 82.9579 62.8209 82.9178C62.9149 82.8667 62.9921 82.7895 63.0432 82.6955C63.1075 82.5762 63.1269 82.4378 63.0978 82.3055C63.0655 82.199 63.0048 82.1032 62.9223 82.0286L62.9808 82.1066C62.9786 82.0976 62.9786 82.0883 62.9808 82.0793L63.0159 82.169V82.2665V82.247V82.3445C63.0409 82.2107 63.0801 82.08 63.1329 81.9545L63.0939 82.0403L63.1641 81.8804L63.129 81.9662C63.1416 81.9343 63.156 81.903 63.1719 81.8726C63.1719 81.8726 63.207 81.7985 63.2226 81.7946C63.2382 81.7907 63.1719 81.8531 63.2031 81.818L63.2343 81.7868L63.2694 81.7556C63.3084 81.7166 63.2226 81.7868 63.2694 81.7556L63.3357 81.7127C63.3357 81.7127 63.3981 81.6854 63.3357 81.7127C63.2733 81.74 63.3357 81.7127 63.3357 81.7127H63.3786H63.3591H63.4488C63.4857 81.713 63.5223 81.7059 63.5565 81.6919C63.5906 81.6778 63.6216 81.657 63.6477 81.6308C63.6888 81.5863 63.7159 81.5307 63.7257 81.4709C63.7333 81.4034 63.7173 81.3354 63.6803 81.2785C63.6433 81.2216 63.5876 81.1793 63.5229 81.1589L63.5034 81.1199Z" fill="black"/>
<path d="M46.9245 81.549C46.8755 81.5412 46.8254 81.5412 46.7763 81.549C46.6969 81.5751 46.6238 81.6177 46.5618 81.6738L46.5228 81.7128C46.4907 81.7528 46.4608 81.7945 46.4331 81.8376C46.4086 81.8845 46.3903 81.9343 46.3785 81.9858C46.3745 82.0312 46.3745 82.0769 46.3785 82.1223C46.3738 82.169 46.3738 82.216 46.3785 82.2627C46.3886 82.3129 46.4085 82.3606 46.437 82.4031C46.4626 82.4497 46.4955 82.4919 46.5345 82.5279C46.5724 82.5622 46.6128 82.5935 46.6554 82.6215C46.7035 82.6474 46.7546 82.667 46.8075 82.68C46.8582 82.6944 46.9108 82.701 46.9635 82.6995C47.009 82.7031 47.0546 82.7031 47.1 82.6995H47.1234C47.2102 82.6757 47.2894 82.6301 47.3535 82.5669C47.3924 82.5322 47.4254 82.4914 47.451 82.446C47.497 82.3652 47.5211 82.2738 47.5212 82.1808C47.5289 82.1265 47.5289 82.0714 47.5212 82.017C47.5212 82.017 47.5212 82.017 47.5212 81.9936C47.5071 81.9504 47.4888 81.9086 47.4666 81.8688C47.4407 81.8203 47.4064 81.7767 47.3652 81.7401C47.3005 81.673 47.218 81.6256 47.1273 81.6036C47.0819 81.5895 47.0345 81.5829 46.9869 81.5841C46.8994 81.584 46.8133 81.6068 46.7373 81.6504L46.6437 81.7206C46.5993 81.7603 46.5669 81.8117 46.5501 81.8688C46.5286 81.9042 46.5165 81.9445 46.515 81.9858C46.4995 82.0459 46.4995 82.109 46.515 82.1691L46.5579 82.2783L46.632 82.3719C46.671 82.4172 46.7226 82.4498 46.7802 82.4655C46.8339 82.4952 46.8945 82.5101 46.9557 82.5084H46.8309H46.8543L46.7412 82.4616L46.7763 82.4811L46.6827 82.4109L46.7061 82.4343L46.632 82.3407C46.6339 82.351 46.6339 82.3616 46.632 82.3719L46.5852 82.2627V82.2978V82.1769V82.2081V82.0872L46.632 81.9819L46.7022 81.8883L46.7958 81.8181H46.7685L46.8777 81.7713H46.8465H46.9635H46.9245H47.0454C47.0286 81.7735 47.0116 81.7735 46.9947 81.7713L47.1039 81.8142C47.091 81.8163 47.0779 81.8163 47.0649 81.8142L47.1546 81.8844L47.1273 81.8532L47.1936 81.9429L47.1663 81.8961L47.2092 82.0014V81.9585V82.0716V82.017V82.1262C47.2092 82.1262 47.2092 82.0872 47.2092 82.0716L47.1702 82.1652C47.1792 82.1462 47.1896 82.128 47.2014 82.1106L47.1429 82.1886L47.2053 82.1067C47.2069 82.0912 47.2069 82.0755 47.2053 82.0599L47.2326 81.9975L47.1936 82.0872V82.0638C47.2263 82.009 47.2435 81.9463 47.2435 81.8825C47.2435 81.8186 47.2263 81.756 47.1936 81.7011C47.1633 81.6473 47.1188 81.6028 47.0649 81.5724C47.0098 81.5421 46.9484 81.5247 46.8855 81.5217L46.9245 81.549Z" fill="black"/>
<path d="M45.6925 80.4103C45.7978 80.3674 45.907 80.3362 46.0123 80.3011L46.1878 80.2543H46.2658H46.3321H46.3789H46.4803H46.6441H47.0341L47.7517 80.2738C47.8957 80.2838 48.0403 80.2719 48.1807 80.2387C48.2474 80.2235 48.3104 80.1953 48.3662 80.1557C48.4219 80.1161 48.4693 80.0658 48.5055 80.0078C48.5418 79.9498 48.5662 79.8852 48.5774 79.8177C48.5886 79.7503 48.5863 79.6813 48.5707 79.6147C48.5432 79.5256 48.4886 79.4473 48.4145 79.3906C48.3404 79.334 48.2505 79.3019 48.1573 79.2988C48.0575 79.2927 47.9582 79.3171 47.8726 79.369C47.8726 79.369 47.9623 79.369 47.974 79.3417C47.9416 79.3458 47.9089 79.3458 47.8765 79.3417H47.5411C47.3032 79.3417 47.0614 79.3417 46.8235 79.3651C46.5744 79.3832 46.3276 79.425 46.0864 79.4899C45.8292 79.5673 45.5922 79.7005 45.3922 79.8799C45.3399 79.9346 45.3066 80.0049 45.2975 80.0801C45.2883 80.1553 45.3038 80.2315 45.3415 80.2972C45.3796 80.3632 45.4387 80.4145 45.5095 80.4428C45.5802 80.4711 45.6584 80.4747 45.7315 80.4532L45.6925 80.4103Z" fill="black"/>
<path d="M56.0706 82.091V82.1144L56.0316 82.0247L56.0589 82.0871C56.0681 82.1196 56.0856 82.1492 56.1096 82.1729C56.1204 82.1892 56.1321 82.2048 56.1447 82.2197L56.0862 82.1417C56.0981 82.159 56.1085 82.1773 56.1174 82.1963L56.0745 82.1027C56.0833 82.12 56.0899 82.1383 56.094 82.1573V82.0481V82.1027V81.9896V82.0325L56.1369 81.9272L56.1057 81.974L56.1603 81.8999L56.25 81.8297H56.211L56.3163 81.7868C56.3008 81.7895 56.285 81.7895 56.2695 81.7868H56.3904H56.3475H56.4684H56.4372L56.5464 81.8336H56.5191L56.6127 81.9038L56.6829 81.9974L56.7297 82.1027V82.2236V82.1924V82.3133V82.2782L56.6829 82.3874C56.6822 82.377 56.6822 82.3666 56.6829 82.3562L56.6127 82.4498L56.6361 82.4264L56.5425 82.4966L56.5776 82.4771L56.4645 82.5239H56.4879H56.3631H56.484C56.543 82.5126 56.5972 82.4841 56.64 82.442C56.6746 82.423 56.703 82.3946 56.7219 82.3601C56.764 82.3173 56.7925 82.263 56.8038 82.2041L56.8233 82.0832L56.8038 81.9584C56.7917 81.8997 56.7633 81.8457 56.7219 81.8024C56.691 81.752 56.6463 81.7114 56.5932 81.6854C56.5185 81.6423 56.4338 81.6194 56.3475 81.6191C56.3021 81.6153 56.2565 81.6153 56.211 81.6191C56.1219 81.6428 56.0402 81.6884 55.9731 81.7517C55.9341 81.7873 55.9 81.828 55.8717 81.8726C55.8454 81.9181 55.8244 81.9665 55.8093 82.0169C55.7921 82.0684 55.7841 82.1225 55.7859 82.1768C55.7807 82.2321 55.7873 82.288 55.8054 82.3406C55.8436 82.4788 55.9347 82.5965 56.0589 82.6682C56.1042 82.694 56.1527 82.7136 56.2032 82.7267C56.2575 82.7346 56.3127 82.7346 56.367 82.7267C56.4196 82.7238 56.4719 82.7159 56.523 82.7033C56.5729 82.6852 56.6211 82.663 56.6673 82.637C56.7117 82.6098 56.7523 82.5771 56.7882 82.5395C56.8582 82.4697 56.9104 82.3841 56.9403 82.2899C56.9715 82.1829 56.9715 82.0693 56.9403 81.9623C56.9253 81.9107 56.9043 81.8609 56.8779 81.8141C56.8483 81.7681 56.8129 81.7262 56.7726 81.6893C56.7258 81.6383 56.6683 81.5983 56.6043 81.572C56.5403 81.5457 56.4713 81.5338 56.4021 81.5372C56.3391 81.5393 56.2775 81.5567 56.2227 81.5879C56.1689 81.6183 56.1244 81.6628 56.094 81.7166C56.0614 81.7714 56.0442 81.8341 56.0442 81.8979C56.0442 81.9618 56.0614 82.0244 56.094 82.0793L56.0706 82.091Z" fill="black"/>
<path d="M57.9423 79.8368C57.7513 79.6574 57.5219 79.524 57.2715 79.4468C57.0244 79.3775 56.7709 79.3331 56.5149 79.3142C56.2848 79.2908 56.0508 79.3142 55.8207 79.2908H55.4853H55.38H55.4385C55.5165 79.2908 55.3449 79.2518 55.3332 79.2518C55.2825 79.2377 55.2299 79.2311 55.1772 79.2323C55.084 79.2355 54.9941 79.2676 54.92 79.3242C54.8459 79.3808 54.7913 79.4591 54.7638 79.5482C54.7318 79.6692 54.746 79.7978 54.8037 79.9088C54.8614 80.0199 54.9584 80.1054 55.0758 80.1488C55.2262 80.1999 55.3855 80.2198 55.5438 80.2073L56.2809 80.1878C56.5151 80.1787 56.7496 80.1852 56.9829 80.2073H57.0141H57.0921L57.2676 80.2541C57.3807 80.2892 57.4977 80.3243 57.6069 80.3672C57.9306 80.492 58.1841 80.0162 57.9384 79.7939L57.9423 79.8368Z" fill="black"/>
<path d="M40.4122 82.0483C39.9637 82.3057 39.523 82.8283 39.7258 83.3626C39.7599 83.4753 39.8191 83.5788 39.8989 83.6654C39.9787 83.752 40.0771 83.8194 40.1866 83.8626C40.2962 83.9057 40.4141 83.9235 40.5315 83.9146C40.649 83.9057 40.7628 83.8703 40.8646 83.8111L40.2211 83.3158C39.8003 85.2169 39.4762 87.1382 39.25 89.0722C39.1416 90.0799 39.0895 91.0928 39.094 92.1064C39.094 92.8864 39.094 93.7132 39.6127 94.3606C40.2913 95.203 42.7093 96.5992 43.2358 94.9183C43.2803 94.761 43.2914 94.5962 43.2683 94.4344C43.2452 94.2726 43.1884 94.1175 43.1017 93.979C43.015 93.8405 42.9002 93.7217 42.7648 93.6302C42.6294 93.5387 42.4763 93.4767 42.3154 93.448C41.4886 93.3154 41.2624 94.4386 41.785 94.9144C42.1165 95.2069 42.7717 95.0314 42.7327 94.5244C42.7257 94.3208 42.6929 94.119 42.6352 93.9238C42.487 93.4948 41.7187 93.3778 41.6368 93.9238C41.6096 94.123 41.6096 94.3251 41.6368 94.5244L42.5806 94.1344V94.3645L42.0502 94.5049C42.2725 94.54 42.3154 94.6765 42.0736 94.6921C41.8229 94.6617 41.5826 94.5736 41.3716 94.4347C40.9605 94.2735 40.6006 94.0039 40.3303 93.6547C40.0495 93.214 40.1002 92.6056 40.0963 92.0947C40.0963 91.5253 40.0963 90.9559 40.1392 90.3865C40.3335 88.0883 40.6512 85.8022 41.0908 83.5381C41.1493 83.1988 40.7944 82.8088 40.4512 83.0428C40.5944 82.8926 40.7248 82.7309 40.8412 82.5592C40.8893 82.5013 40.9165 82.4288 40.9185 82.3536C40.9204 82.2784 40.897 82.2046 40.852 82.1443C40.807 82.084 40.743 82.0406 40.6703 82.021C40.5976 82.0015 40.5204 82.007 40.4512 82.0366L40.4122 82.0483Z" fill="black"/>
<path d="M356.46 137.097C346.503 136.952 336.547 136.995 326.59 136.968C316.633 136.941 306.676 136.89 296.72 136.839C291.143 136.812 285.558 136.738 279.985 136.882C279.858 136.893 279.739 136.952 279.653 137.046C279.566 137.14 279.519 137.263 279.519 137.391C279.519 137.519 279.566 137.642 279.653 137.736C279.739 137.831 279.858 137.889 279.985 137.9C284.973 138.029 289.973 137.951 294.969 137.947C299.965 137.943 304.89 137.9 309.855 137.877C319.81 137.827 329.767 137.795 339.725 137.779C345.302 137.779 350.883 137.779 356.46 137.686C356.532 137.677 356.599 137.643 356.647 137.588C356.696 137.534 356.722 137.464 356.722 137.391C356.722 137.318 356.696 137.248 356.647 137.194C356.599 137.14 356.532 137.105 356.46 137.097Z" fill="#18C4FF"/>
<path d="M356.46 144.733C346.503 144.589 336.546 144.628 326.59 144.6C316.633 144.573 306.676 144.522 296.719 144.476C291.142 144.448 285.558 144.374 279.985 144.518C279.85 144.518 279.721 144.572 279.626 144.667C279.531 144.762 279.478 144.891 279.478 145.025C279.478 145.16 279.531 145.289 279.626 145.384C279.721 145.479 279.85 145.532 279.985 145.532C284.973 145.665 289.972 145.587 294.968 145.583C299.964 145.579 304.89 145.536 309.855 145.513C319.81 145.464 329.767 145.43 339.725 145.412C345.302 145.412 350.883 145.412 356.46 145.322C356.532 145.314 356.599 145.279 356.647 145.225C356.695 145.17 356.722 145.1 356.722 145.027C356.722 144.955 356.695 144.884 356.647 144.83C356.599 144.776 356.532 144.741 356.46 144.733Z" fill="#18C4FF"/>
<path d="M356.46 152.365C346.503 152.221 336.547 152.264 326.59 152.237C316.633 152.209 306.676 152.159 296.72 152.108C291.143 152.081 285.558 152.006 279.985 152.151C279.858 152.162 279.739 152.22 279.653 152.315C279.566 152.409 279.519 152.532 279.519 152.66C279.519 152.787 279.566 152.911 279.653 153.005C279.739 153.099 279.858 153.158 279.985 153.169C284.973 153.297 289.973 153.219 294.969 153.215C299.965 153.212 304.89 153.173 309.855 153.145C319.81 153.098 329.767 153.066 339.725 153.048C345.302 153.048 350.883 153.048 356.46 152.954C356.532 152.946 356.599 152.911 356.647 152.857C356.696 152.803 356.722 152.732 356.722 152.66C356.722 152.587 356.696 152.517 356.647 152.462C356.599 152.408 356.532 152.374 356.46 152.365Z" fill="#18C4FF"/>
<path d="M356.46 160.001C346.503 159.857 336.547 159.9 326.59 159.873C316.633 159.845 306.676 159.795 296.72 159.744C291.143 159.717 285.558 159.643 279.985 159.787C279.858 159.798 279.739 159.857 279.653 159.951C279.566 160.045 279.519 160.168 279.519 160.296C279.519 160.424 279.566 160.547 279.653 160.641C279.739 160.735 279.858 160.794 279.985 160.805C284.973 160.934 289.973 160.856 294.969 160.852C299.965 160.848 304.89 160.805 309.855 160.781C319.81 160.732 329.767 160.7 339.725 160.684C345.302 160.684 350.883 160.684 356.46 160.59C356.532 160.582 356.599 160.547 356.647 160.493C356.696 160.439 356.722 160.369 356.722 160.296C356.722 160.223 356.696 160.153 356.647 160.099C356.599 160.044 356.532 160.01 356.46 160.001Z" fill="#18C4FF"/>
<path d="M356.46 172.271C346.503 172.126 336.546 172.165 326.59 172.138C316.633 172.111 306.676 172.06 296.719 172.013C291.142 171.986 285.558 171.912 279.985 172.056C279.85 172.056 279.721 172.11 279.626 172.205C279.531 172.3 279.478 172.429 279.478 172.563C279.478 172.698 279.531 172.827 279.626 172.922C279.721 173.017 279.85 173.07 279.985 173.07C284.973 173.203 289.972 173.125 294.968 173.121C299.964 173.117 304.89 173.074 309.855 173.051C319.81 172.999 329.767 172.965 339.725 172.949C345.302 172.949 350.883 172.949 356.46 172.86C356.532 172.851 356.599 172.817 356.647 172.762C356.695 172.708 356.722 172.638 356.722 172.565C356.722 172.492 356.695 172.422 356.647 172.368C356.599 172.314 356.532 172.279 356.46 172.271Z" fill="#18C4FF"/>
<path d="M356.46 179.903C346.503 179.759 336.546 179.802 326.59 179.774C316.633 179.747 306.676 179.696 296.719 179.646C291.142 179.618 285.558 179.544 279.985 179.692C279.85 179.692 279.721 179.746 279.626 179.841C279.531 179.936 279.478 180.065 279.478 180.199C279.478 180.334 279.531 180.463 279.626 180.558C279.721 180.653 279.85 180.706 279.985 180.706C284.973 180.835 289.972 180.757 294.968 180.753C299.964 180.749 304.89 180.71 309.855 180.683C319.81 180.636 329.767 180.604 339.725 180.585C345.302 180.585 350.883 180.585 356.46 180.492C356.532 180.484 356.599 180.449 356.647 180.395C356.695 180.34 356.722 180.27 356.722 180.197C356.722 180.125 356.695 180.055 356.647 180C356.599 179.946 356.532 179.911 356.46 179.903Z" fill="#18C4FF"/>
<path d="M356.46 187.539C346.503 187.395 336.547 187.438 326.59 187.411C316.633 187.383 306.676 187.333 296.72 187.282C291.143 187.255 285.558 187.181 279.985 187.325C279.858 187.336 279.739 187.394 279.653 187.489C279.566 187.583 279.519 187.706 279.519 187.834C279.519 187.962 279.566 188.085 279.653 188.179C279.739 188.273 279.858 188.332 279.985 188.343C284.973 188.471 289.973 188.393 294.969 188.39C299.965 188.386 304.89 188.343 309.855 188.319C319.81 188.27 329.767 188.237 339.725 188.222C345.302 188.222 350.883 188.222 356.46 188.128C356.532 188.12 356.599 188.085 356.647 188.031C356.696 187.977 356.722 187.907 356.722 187.834C356.722 187.761 356.696 187.691 356.647 187.637C356.599 187.582 356.532 187.548 356.46 187.539Z" fill="#18C4FF"/>
<path d="M356.46 195.176C346.503 195.031 336.546 195.07 326.59 195.043C316.633 195.016 306.676 194.965 296.719 194.918C291.142 194.891 285.558 194.817 279.985 194.961C279.85 194.961 279.721 195.014 279.626 195.11C279.531 195.205 279.478 195.334 279.478 195.468C279.478 195.603 279.531 195.731 279.626 195.827C279.721 195.922 279.85 195.975 279.985 195.975C284.973 196.108 289.972 196.03 294.968 196.026C299.964 196.022 304.89 195.979 309.855 195.956C319.81 195.906 329.767 195.872 339.725 195.854C345.302 195.854 350.883 195.854 356.46 195.764C356.532 195.756 356.599 195.722 356.647 195.667C356.695 195.613 356.722 195.543 356.722 195.47C356.722 195.397 356.695 195.327 356.647 195.273C356.599 195.219 356.532 195.184 356.46 195.176Z" fill="#18C4FF"/>
<path d="M244.647 222.596H248.103V345.279H244.647V222.596Z" fill="black"/>
<path d="M224.402 339.842H268.351V348.317H224.402V339.842Z" fill="black"/>
<path d="M50.7667 86.8452C51.0453 87.0977 51.3985 87.2524 51.7729 87.2859C51.9509 87.3031 52.1305 87.2885 52.3033 87.243C52.3917 87.2227 52.4779 87.1939 52.5607 87.1572C52.6966 87.1165 52.813 87.0278 52.8883 86.9076C52.9191 86.8543 52.9354 86.7937 52.9354 86.7321C52.9354 86.6705 52.9191 86.61 52.8883 86.5566C52.8585 86.5033 52.8149 86.4589 52.7621 86.428C52.7093 86.3972 52.6492 86.381 52.588 86.3811C52.4713 86.3972 52.3596 86.4384 52.2604 86.502C52.2311 86.5148 52.2024 86.5291 52.1746 86.5449C52.2409 86.502 52.2097 86.5449 52.1746 86.5449H52.1317C52.0642 86.5669 51.9951 86.5838 51.925 86.5956C51.8743 86.5956 51.9913 86.5956 51.9445 86.5956H51.886H51.7768H51.6832C51.6482 86.5919 51.6129 86.5919 51.5779 86.5956C51.5779 86.5956 51.6403 86.5956 51.5779 86.5956H51.5311L51.4258 86.5722L51.3283 86.5371H51.3088C51.2412 86.5028 51.176 86.4637 51.1138 86.4201C51.0555 86.3844 50.986 86.3716 50.9188 86.384C50.8516 86.3965 50.7913 86.4334 50.7497 86.4877C50.708 86.5419 50.6879 86.6096 50.6932 86.6778C50.6985 86.746 50.7289 86.8098 50.7784 86.8569L50.7667 86.8452Z" fill="black"/>
<path d="M53.3205 90.2773C52.2708 90.2427 51.2264 90.1122 50.2005 89.8873C50.1098 89.8533 50.0131 89.8385 49.9164 89.8438C49.8197 89.8492 49.7252 89.8746 49.6389 89.9185C49.44 90.0628 49.4634 90.3709 49.5414 90.6049C49.7005 91.0452 49.9867 91.4284 50.3636 91.7061C50.7406 91.9838 51.1914 92.1434 51.6591 92.1649C51.9572 92.1864 52.2536 92.1036 52.4976 91.9309C52.9227 91.5994 52.9578 90.9871 52.9617 90.4489" fill="black"/>
<path d="M53.3211 89.9457C52.4649 89.8802 51.6149 89.7498 50.7783 89.5557C50.3883 89.466 49.9554 89.2866 49.5615 89.4231C49.3557 89.5111 49.1885 89.6703 49.0904 89.8715C48.9923 90.0728 48.9699 90.3026 49.0272 90.519C49.1102 90.8651 49.2621 91.191 49.4738 91.4771C49.6856 91.7633 49.9528 92.0038 50.2596 92.1843C50.566 92.3882 50.9135 92.5223 51.2774 92.5769C51.6414 92.6315 52.0129 92.6053 52.3656 92.5002C53.2431 92.1687 53.4264 91.26 53.3952 90.4176C53.385 90.3093 53.3347 90.2088 53.2543 90.1357C53.1739 90.0625 53.0691 90.022 52.9604 90.022C52.8517 90.022 52.7469 90.0625 52.6665 90.1357C52.586 90.2088 52.5358 90.3093 52.5255 90.4176C52.5211 90.6524 52.4936 90.8862 52.4436 91.1157C52.4321 91.2112 52.3981 91.3026 52.3446 91.3826C52.2911 91.4626 52.2194 91.5288 52.1355 91.5759C51.9253 91.6516 51.7005 91.6776 51.4785 91.6519C51.2566 91.6262 51.0436 91.5495 50.8563 91.4277C50.4644 91.2198 50.162 90.8758 50.0061 90.4605C50.0061 90.4215 49.9398 90.1836 49.9632 90.1875C49.9866 90.1914 49.9242 90.2655 49.9242 90.2694C49.9242 90.2733 49.9242 90.2694 49.9242 90.2694H50.0022C50.3025 90.2967 50.6184 90.3747 50.9265 90.4176C51.7236 90.5312 52.5277 90.5886 53.3328 90.5892C53.4208 90.5892 53.5051 90.5542 53.5672 90.4921C53.6294 90.4299 53.6643 90.3456 53.6643 90.2577C53.6643 90.1697 53.6294 90.0854 53.5672 90.0233C53.5051 89.9611 53.4208 89.9262 53.3328 89.9262L53.3211 89.9457Z" fill="black"/>
<path d="M50.4235 91.2131L50.7121 91.1312H50.7745C50.7745 91.1312 50.8642 91.1312 50.8291 91.1312C50.794 91.1312 50.8603 91.1312 50.8681 91.1312H50.9422H50.9929C50.9929 91.1312 51.067 91.1585 51.0241 91.1312C50.9812 91.1039 51.0241 91.1312 51.0241 91.1312L51.0592 91.1624C51.1021 91.2053 51.0592 91.1273 51.0592 91.1624C51.0592 91.1975 51.0826 91.2326 51.0592 91.1624C51.0847 91.251 51.1439 91.326 51.2242 91.3712C51.3044 91.4164 51.3993 91.4283 51.4882 91.4042L51.5935 91.3613C51.6251 91.3388 51.6551 91.314 51.6832 91.2872C51.5974 91.3418 51.6832 91.2872 51.7144 91.2872C51.7456 91.2872 51.7456 91.2872 51.6949 91.2872H51.7417C51.7417 91.2872 51.8548 91.2638 51.7924 91.2872C51.73 91.3106 51.8314 91.2872 51.8431 91.2872H51.8938C51.834 91.2872 51.8262 91.2872 51.8704 91.2872C51.8938 91.2872 51.9991 91.334 51.8977 91.2872L52.0576 91.3496C52.1343 91.3697 52.2155 91.364 52.2887 91.3335C52.3619 91.3031 52.4231 91.2494 52.4629 91.1808C52.5028 91.1123 52.519 91.0325 52.5092 90.9538C52.4994 90.8752 52.4641 90.8018 52.4086 90.7451C52.3067 90.6584 52.1858 90.597 52.0557 90.5658C51.9256 90.5346 51.7899 90.5346 51.6598 90.5657C51.5305 90.5837 51.4077 90.6338 51.3028 90.7114C51.1979 90.7891 51.1141 90.8919 51.0592 91.0103L51.6949 90.9284C51.6277 90.8039 51.5297 90.6987 51.4102 90.6229C51.2907 90.5471 51.1537 90.5033 51.0124 90.4955C50.7212 90.4817 50.4343 90.57 50.2012 90.7451C50.1432 90.7801 50.0998 90.835 50.079 90.8995C50.0582 90.964 50.0614 91.0338 50.0881 91.0961C50.1135 91.1595 50.1613 91.2113 50.2225 91.2415C50.2837 91.2717 50.3539 91.2783 50.4196 91.2599L50.4235 91.2131Z" fill="#18C4FF"/>
<path d="M46.0201 105.515C46.4112 103.646 46.6422 101.748 46.7104 99.8401C46.7416 98.8846 46.7104 97.9291 46.6519 96.9775C46.609 96.2872 46.5154 95.6047 45.8992 95.1913C45.439 94.8832 45.0334 95.6125 45.4702 95.9284C45.7237 96.1117 45.6886 96.607 45.7081 96.88C45.7315 97.27 45.751 97.66 45.7627 98.0266C45.79 98.8495 45.8017 99.6802 45.7939 100.507C45.7691 102.158 45.6545 103.806 45.4507 105.444C45.4078 105.772 45.9616 105.834 46.0279 105.522L46.0201 105.515Z" fill="black"/>
<path d="M58.2033 105.873C58.332 104.033 58.4256 102.184 58.5114 100.339C58.5543 99.4734 58.5855 98.6115 58.6206 97.7457C58.6515 96.9149 58.8298 96.0962 59.1471 95.3277C59.346 94.8285 58.5894 94.575 58.3203 94.9767C57.9305 95.671 57.7175 96.4505 57.7002 97.2465C57.6222 98.1786 57.6339 99.1185 57.6222 100.054C57.5988 102.004 57.5793 103.935 57.5988 105.873C57.6072 105.948 57.6427 106.016 57.6985 106.066C57.7542 106.116 57.8263 106.143 57.9011 106.143C57.9758 106.143 58.0479 106.116 58.1036 106.066C58.1594 106.016 58.1949 105.948 58.2033 105.873Z" fill="black"/>
<path d="M44.7605 104.972C44.9789 106.341 46.3946 107.266 47.3891 108.092C48.5527 109.095 49.8694 109.905 51.2891 110.491C51.9794 110.756 52.7126 110.959 53.4263 110.663C54.0975 110.319 54.7182 109.884 55.271 109.372C56.5605 108.33 57.7619 107.183 58.8629 105.944C59.2529 105.499 58.6055 104.84 58.2038 105.288C57.2614 106.35 56.2449 107.343 55.1618 108.26C54.6269 108.73 54.0657 109.169 53.4809 109.574C52.8218 110.019 52.2368 109.863 51.5309 109.606C50.2684 109.087 49.0865 108.391 48.0209 107.539C47.0498 106.821 45.7238 106.037 45.3221 104.828C45.2962 104.759 45.2453 104.702 45.1794 104.668C45.1136 104.634 45.0375 104.626 44.9661 104.646C44.8948 104.666 44.8333 104.711 44.7938 104.774C44.7543 104.836 44.7397 104.911 44.7527 104.984L44.7605 104.972Z" fill="black"/>
<path d="M27.4009 113.665C27.4733 113.665 27.5428 113.637 27.594 113.585C27.6452 113.534 27.6739 113.465 27.6739 113.392C27.6739 113.32 27.6452 113.251 27.594 113.199C27.5428 113.148 27.4733 113.119 27.4009 113.119C27.3285 113.119 27.2591 113.148 27.2079 113.199C27.1567 113.251 27.1279 113.32 27.1279 113.392C27.1279 113.465 27.1567 113.534 27.2079 113.585C27.2591 113.637 27.3285 113.665 27.4009 113.665Z" fill="black"/>
<path d="M26.0984 114.137C23.0837 115.499 20.8256 118.17 19.3358 121.126C17.846 124.082 17.0465 127.316 16.2548 130.525L12.1364 147.268C11.237 150.656 10.53 154.092 10.0187 157.56C9.46098 161.909 9.60918 166.608 12.0077 170.278C14.7377 174.451 19.7492 176.44 24.5501 177.766C35.2779 180.725 46.4663 181.64 57.5324 180.465C58.0116 180.461 58.4773 180.305 58.8623 180.02C59.1542 179.692 59.3416 179.285 59.4005 178.85C59.767 177.235 59.9502 175.584 59.9465 173.928C59.9854 173.304 59.8688 172.679 59.6072 172.111C59.2172 171.432 58.5191 171.027 57.821 170.691C55.1456 169.397 52.2518 168.628 49.4126 167.751C40.7702 165.075 32.5061 161.316 24.2732 157.568C23.7662 157.849 24.0587 158.804 24.632 158.757C26.8706 151.535 28.9675 144.273 30.9227 136.972" fill="black"/>
<path d="M25.954 113.88C23.7933 114.835 21.929 116.353 20.5564 118.275C19.0746 120.382 17.9494 122.718 17.2258 125.19C16.3795 127.877 15.7477 130.65 15.0691 133.411L12.9397 142.065C11.563 147.638 9.88992 153.262 9.39072 159.003C8.96952 163.8 9.67152 168.87 13.123 172.442C16.3327 175.781 20.9542 177.317 25.3144 178.476C30.8429 179.939 36.4992 180.869 42.2053 181.252C45.0328 181.444 47.872 181.502 50.7073 181.42C52.1217 181.376 53.5374 181.3 54.9544 181.194C55.6291 181.139 56.3038 181.081 56.9785 181.011C57.5866 181.002 58.1885 180.888 58.7569 180.671C59.8723 180.125 59.9776 178.628 60.1453 177.551C60.3849 176.191 60.4752 174.809 60.4144 173.429C60.4013 172.854 60.2373 172.293 59.9389 171.801C59.6404 171.31 59.218 170.906 58.714 170.629C57.5058 169.965 56.2363 169.419 54.9232 168.999C52.2712 168.055 49.5373 167.337 46.8697 166.436C44.2021 165.535 41.4643 164.51 38.8084 163.433C36.1525 162.357 33.4693 161.199 30.829 160.025C29.5147 159.44 28.2082 158.855 26.8978 158.258L25.0258 157.404C24.5071 157.17 24.0196 156.924 23.6686 157.533C23.5769 157.706 23.53 157.899 23.5324 158.095C23.5347 158.291 23.5862 158.483 23.6821 158.653C23.7779 158.824 23.9151 158.968 24.0811 159.072C24.247 159.176 24.4364 159.237 24.6319 159.249C24.7362 159.248 24.8374 159.213 24.9203 159.15C25.0033 159.086 25.0635 158.998 25.0921 158.898C27.3268 151.679 29.4484 144.421 31.4023 137.12C31.4263 136.997 31.4028 136.869 31.3367 136.762C31.2705 136.655 31.1664 136.577 31.0453 136.544C30.9242 136.51 30.7948 136.524 30.6832 136.581C30.5715 136.639 30.4857 136.737 30.4429 136.855C28.4851 144.158 26.3973 151.42 24.1795 158.64L24.6397 158.289C24.5422 158.289 24.4252 158.059 24.5188 157.993H24.0313C28.8985 160.208 33.7813 162.423 38.7265 164.424C41.1523 165.403 43.6054 166.331 46.0819 167.181C48.5584 168.031 51.1285 168.741 53.6362 169.568C54.8957 169.972 56.1302 170.45 57.3334 170.999C57.8294 171.207 58.2961 171.478 58.7218 171.807C58.949 172.011 59.1309 172.26 59.2559 172.539C59.3808 172.818 59.446 173.12 59.4472 173.425C59.5092 174.718 59.4281 176.015 59.2054 177.29C59.1247 177.871 59.0088 178.447 58.8583 179.014C58.6633 179.692 58.2733 179.884 57.6025 179.965C52.3678 180.564 47.0876 180.658 41.8348 180.246C36.5882 179.872 31.3856 179.029 26.2894 177.727C22.1359 176.666 17.7094 175.356 14.4763 172.419C12.8514 170.958 11.6487 169.087 10.9936 167.002C10.342 164.774 10.0924 162.449 10.2565 160.134C10.5178 154.92 11.9959 149.803 13.2361 144.76C14.5465 139.413 15.8179 134.055 17.179 128.719C17.7546 126.24 18.5804 123.825 19.6438 121.512C20.6195 119.521 21.9535 117.727 23.5789 116.22C24.3692 115.481 25.2658 114.864 26.2387 114.391C26.5702 114.227 26.2816 113.763 25.954 113.903V113.88Z" fill="black"/>
<path d="M68.1019 170.43C66.5809 169.584 64.7635 169.833 63.1372 170.22C61.3526 170.598 59.6628 171.333 58.1686 172.38C57.6538 172.77 58.0984 173.628 58.6951 173.277C59.4166 172.856 60.0952 172.392 60.8518 172.021C61.5638 171.677 62.3003 171.387 63.0553 171.152C64.5451 170.688 66.3001 170.235 67.7782 170.953C68.1448 171.132 68.4685 170.602 68.1019 170.403V170.43Z" fill="black"/>
<path d="M72.8132 173.024C71.3 173.047 69.7907 172.996 68.2814 172.907C67.5404 172.864 66.8033 172.805 66.0623 172.731C65.3213 172.657 64.5257 172.481 63.7652 172.474C63.6666 172.474 63.5716 172.51 63.4975 172.576C63.4235 172.641 63.3754 172.73 63.3621 172.828C63.3489 172.926 63.3713 173.025 63.4252 173.107C63.4792 173.19 63.5612 173.25 63.656 173.277C64.3912 173.424 65.1374 173.509 65.8868 173.531C66.6668 173.593 67.4351 173.638 68.1917 173.667C69.7517 173.722 71.2766 173.687 72.8132 173.597C72.8834 173.589 72.9482 173.555 72.9953 173.502C73.0423 173.449 73.0683 173.381 73.0683 173.31C73.0683 173.239 73.0423 173.171 72.9953 173.118C72.9482 173.065 72.8834 173.032 72.8132 173.024Z" fill="black"/>
<path d="M70.5358 181.678C68.3136 181.993 66.0532 181.912 63.859 181.44C62.7904 181.233 61.7413 180.96 60.6961 180.66C59.6509 180.359 58.5823 179.919 57.5098 179.611C56.9716 179.451 56.5777 180.301 57.1198 180.547C58.1934 180.996 59.2988 181.365 60.427 181.65C61.563 181.968 62.7186 182.21 63.8863 182.376C66.146 182.708 68.4458 182.656 70.6879 182.22C71.0389 182.15 70.8868 181.627 70.5397 181.685L70.5358 181.678Z" fill="black"/>
<path d="M72.8015 175.683C72.317 175.795 71.8238 175.864 71.3273 175.89C71.0816 175.89 70.832 175.89 70.5824 175.89C70.3039 175.829 70.0139 175.845 69.7439 175.937C69.6982 175.964 69.6592 176.002 69.6298 176.046C69.6005 176.091 69.5816 176.141 69.5745 176.194C69.5673 176.247 69.5722 176.301 69.5887 176.351C69.6052 176.402 69.6329 176.448 69.6698 176.487C69.943 176.661 70.2713 176.726 70.5902 176.67C71.3992 176.659 72.1997 176.503 72.9536 176.21C73.0221 176.189 73.0797 176.142 73.1144 176.079C73.149 176.016 73.1579 175.942 73.1392 175.873C73.1205 175.804 73.0756 175.745 73.0141 175.708C72.9526 175.671 72.8792 175.659 72.8093 175.676L72.8015 175.683Z" fill="black"/>
<path d="M72.6651 178.725C72.0606 178.725 71.46 178.678 70.8594 178.635C70.563 178.616 70.2666 178.596 69.9741 178.565C69.6703 178.519 69.3644 178.487 69.0576 178.472C68.9577 178.472 68.8612 178.508 68.7858 178.573C68.7104 178.639 68.6613 178.729 68.6475 178.828C68.6337 178.927 68.6562 179.027 68.7108 179.111C68.7654 179.195 68.8484 179.256 68.9445 179.283C69.2614 179.336 69.5824 179.362 69.9039 179.361C70.2081 179.361 70.5162 179.38 70.8243 179.38C71.4366 179.38 72.0528 179.337 72.6651 179.279C72.7385 179.279 72.8089 179.25 72.8609 179.198C72.9128 179.146 72.942 179.076 72.942 179.002C72.942 178.929 72.9128 178.858 72.8609 178.806C72.8089 178.754 72.7385 178.725 72.6651 178.725Z" fill="black"/>
<path d="M75.3831 113.591L94.1031 123.185C96.2949 124.308 98.5296 125.443 100.963 125.841C104.196 126.368 107.492 125.537 110.608 124.519C117.156 122.378 123.388 119.391 129.628 116.47C131.223 115.725 132.963 114.96 134.698 115.335C136.757 115.783 138.126 117.71 139.105 119.578C139.643 120.603 140.135 121.707 140.1 122.866C140.029 124.991 138.247 126.613 136.59 127.936C131.098 132.401 125.443 136.781 119.04 139.784C111.099 143.504 102.164 143.251 93.7326 141.613C85.4529 140.006 76.6584 137.756 69.4551 133.228" fill="black"/>
<path d="M75.2426 113.837C80.0708 116.439 84.9497 118.942 89.8247 121.458C92.1647 122.667 94.5047 123.973 96.9032 125.03C99.1316 126.071 101.58 126.554 104.036 126.438C106.579 126.274 109.044 125.545 111.446 124.738C113.849 123.93 116.306 122.971 118.685 121.969C121.064 120.966 123.462 119.874 125.826 118.775C126.996 118.225 128.189 117.671 129.371 117.117C130.493 116.521 131.689 116.074 132.928 115.787C135.268 115.374 136.96 116.957 138.107 118.806C138.757 119.771 139.238 120.841 139.526 121.969C139.626 122.502 139.614 123.05 139.493 123.579C139.372 124.107 139.143 124.605 138.82 125.042C138.187 125.903 137.438 126.672 136.594 127.327C135.665 128.107 134.722 128.844 133.782 129.593C131.832 131.153 129.823 132.67 127.764 134.102C123.735 136.89 119.402 139.534 114.66 140.884C109.98 142.21 105.07 142.393 100.261 141.956C95.5148 141.527 90.7997 140.494 86.1938 139.296C81.5868 138.146 77.1213 136.489 72.8792 134.355C71.8379 133.821 70.8161 133.24 69.8255 132.62C69.0455 132.124 68.3045 133.376 69.0923 133.872C73.2575 136.488 77.8517 138.294 82.5629 139.663C87.2655 141.037 92.0586 142.08 96.9071 142.783C101.837 143.489 106.856 143.637 111.766 142.686C116.676 141.734 121.255 139.472 125.498 136.785C129.712 134.081 133.73 131.084 137.522 127.815C139.082 126.481 140.704 124.726 140.583 122.515C140.513 121.286 139.967 120.144 139.39 119.079C138.899 118.132 138.281 117.257 137.553 116.478C136.884 115.763 136.042 115.233 135.108 114.941C133.907 114.647 132.645 114.729 131.492 115.175C130.295 115.63 129.123 116.151 127.982 116.735C126.773 117.3 125.564 117.87 124.351 118.428C119.449 120.697 114.473 122.897 109.29 124.457C106.786 125.21 104.157 125.763 101.529 125.459C98.9624 125.167 96.6185 123.966 94.3487 122.815C89.3099 120.251 84.2685 117.698 79.2245 115.155C78.0038 114.543 76.7753 113.95 75.5468 113.354C75.2231 113.198 74.9384 113.666 75.2621 113.841L75.2426 113.837Z" fill="black"/>
<path d="M134.16 116.61C134.624 115.05 134.772 113.369 135.376 111.84C135.703 111.06 136.197 110.362 136.825 109.796C137.453 109.229 138.198 108.809 139.007 108.564C139.896 108.282 140.81 108.09 141.737 107.991C142.201 107.936 142.673 107.878 143.137 107.843C143.602 107.808 144.073 107.819 144.124 108.362C144.206 109.196 143.063 109.894 142.467 110.276C141.702 110.766 140.869 111.14 139.994 111.384C139.919 111.407 139.851 111.449 139.797 111.505C139.743 111.562 139.704 111.631 139.684 111.707C139.664 111.783 139.664 111.862 139.683 111.938C139.703 112.014 139.741 112.084 139.795 112.141C140.089 112.507 140.284 112.942 140.36 113.405C140.437 113.869 140.393 114.344 140.232 114.785C140.095 115.245 140.821 115.565 141.012 115.12C141.264 114.522 141.342 113.866 141.237 113.225C141.132 112.585 140.848 111.987 140.419 111.501L140.22 112.258C141.753 111.821 143.465 110.994 144.491 109.727C144.722 109.473 144.88 109.161 144.949 108.825C145.018 108.488 144.994 108.14 144.881 107.816C144.58 107.086 143.843 106.911 143.122 106.961C139.881 107.192 136.145 107.929 134.745 111.251C134.047 112.901 133.965 114.719 133.543 116.442C133.521 116.524 133.532 116.611 133.574 116.685C133.616 116.758 133.686 116.812 133.768 116.834C133.849 116.857 133.937 116.845 134.01 116.803C134.084 116.761 134.137 116.692 134.16 116.61Z" fill="black"/>
<path d="M148.103 103.822C146.766 103.998 145.472 104.412 144.281 105.043C143.051 105.668 141.883 106.407 140.79 107.25C140.435 107.531 140.892 108.089 141.266 107.866C141.828 107.543 142.35 107.141 142.896 106.79C143.442 106.439 144 106.103 144.573 105.791C145.7 105.151 146.912 104.671 148.173 104.368C148.473 104.302 148.415 103.783 148.099 103.822H148.103Z" fill="black"/>
<path d="M146.122 108.978C146.326 109.08 146.502 109.231 146.634 109.418C146.767 109.604 146.852 109.82 146.882 110.046C146.915 110.3 146.903 110.557 146.847 110.807C146.777 111.107 146.674 111.399 146.539 111.676C146.487 111.771 146.474 111.881 146.501 111.985C146.529 112.089 146.595 112.178 146.687 112.234C146.734 112.262 146.785 112.28 146.838 112.287C146.892 112.295 146.946 112.292 146.998 112.279C147.05 112.265 147.099 112.242 147.142 112.209C147.185 112.177 147.221 112.136 147.249 112.09C147.619 111.396 147.745 110.598 147.608 109.824C147.539 109.503 147.386 109.207 147.164 108.966C146.941 108.725 146.658 108.549 146.344 108.455C146.04 108.373 145.818 108.845 146.122 108.978Z" fill="black"/>
<path d="M148.921 111.567C148.991 112.274 148.871 112.986 148.574 113.63C148.251 114.269 147.793 114.829 147.232 115.272C146.916 115.545 147.326 116.052 147.677 115.846C148.382 115.374 148.92 114.691 149.214 113.896C149.52 113.131 149.613 112.298 149.483 111.485C149.432 111.173 148.886 111.244 148.921 111.563V111.567Z" fill="black"/>
<path d="M149.183 115.678C149.425 116.555 148.727 117.328 148.235 117.998C147.976 118.365 147.695 118.716 147.393 119.048C147.258 119.225 147.076 119.36 146.866 119.438C146.765 119.438 146.445 119.438 146.476 119.254C146.578 118.829 146.02 118.439 145.696 118.802C144.863 119.807 143.862 120.66 142.736 121.321C141.579 121.951 140.253 122.201 138.946 122.035C138.407 121.976 138.31 122.838 138.821 122.967C141.793 123.724 144.565 121.606 146.352 119.457L145.572 119.009C145.542 119.153 145.541 119.302 145.569 119.447C145.598 119.592 145.655 119.73 145.738 119.852C145.82 119.975 145.926 120.079 146.05 120.16C146.173 120.241 146.312 120.296 146.457 120.323C147.21 120.494 147.806 119.89 148.224 119.356C148.763 118.711 149.234 118.012 149.628 117.269C149.912 116.68 150.08 115.951 149.628 115.401C149.44 115.171 149.078 115.421 149.152 115.682L149.183 115.678Z" fill="black"/>
<path d="M53.2758 114.01L53.2698 114.002L53.2627 113.985C53.2665 113.994 53.2709 114.002 53.2758 114.01L53.2978 114.04C53.2896 114.03 53.2822 114.02 53.2758 114.01Z" fill="#18C4FF"/>
<path d="M52.8103 118.018C52.6016 118.09 52.4065 118.197 52.2331 118.334C52.1405 118.412 52.0673 118.51 52.0193 118.621C51.9712 118.732 51.9496 118.853 51.9562 118.973C51.9617 119.105 52.0003 119.233 52.0685 119.345C52.1367 119.458 52.2322 119.551 52.3462 119.617C52.4995 119.698 52.6776 119.719 52.8454 119.675C52.9914 119.624 53.1244 119.541 53.2354 119.434C53.3171 119.363 53.3803 119.273 53.4197 119.173C53.4591 119.072 53.4735 118.964 53.4616 118.856C53.4282 118.691 53.3484 118.538 53.2315 118.416L53.2978 118.505C53.2834 118.489 53.2716 118.471 53.2627 118.451L53.3056 118.552C53.3056 118.552 53.3056 118.552 53.3056 118.533V118.646V118.618V118.732L53.2666 118.833C53.2646 118.827 53.2646 118.82 53.2666 118.813C53.2968 118.766 53.3162 118.712 53.3236 118.656C53.331 118.6 53.3262 118.544 53.3095 118.49C53.2848 118.402 53.2329 118.324 53.1613 118.267C53.0795 118.206 52.9783 118.175 52.876 118.182C52.7737 118.188 52.6771 118.231 52.6036 118.303C52.5405 118.367 52.4957 118.448 52.4738 118.535C52.4519 118.623 52.4536 118.715 52.4788 118.802C52.5188 118.916 52.5826 119.021 52.666 119.11L52.5997 119.024C52.6194 119.05 52.6364 119.077 52.6504 119.106L52.6075 119.005C52.6087 119.018 52.6087 119.031 52.6075 119.044V118.93V118.95V118.837V118.876L52.6504 118.774C52.6411 118.798 52.6294 118.82 52.6153 118.841L52.6816 118.755C52.6489 118.796 52.6109 118.833 52.5685 118.864L52.6543 118.798C52.6167 118.83 52.5747 118.856 52.5295 118.876L52.6348 118.833L52.5451 118.86H52.6582H52.5919H52.705H52.6426L52.7401 118.899C52.7172 118.89 52.6961 118.877 52.6777 118.86L52.7596 118.927C52.736 118.907 52.715 118.885 52.6972 118.86L52.7596 118.942C52.7405 118.914 52.7235 118.884 52.7089 118.852L52.7479 118.95C52.7479 118.911 52.7245 118.872 52.7167 118.833V118.938C52.7128 118.903 52.7128 118.868 52.7167 118.833V118.934C52.7274 118.883 52.7417 118.832 52.7596 118.782L52.7206 118.872C52.7444 118.819 52.7745 118.769 52.8103 118.724L52.7557 118.794C52.8483 118.682 52.9545 118.583 53.0716 118.498C53.1173 118.455 53.1451 118.396 53.1496 118.334C53.1589 118.272 53.1479 118.209 53.1184 118.154C53.0917 118.115 53.0572 118.082 53.017 118.057C52.9845 118.037 52.9485 118.025 52.911 118.019C52.8735 118.014 52.8353 118.016 52.7986 118.026L52.8103 118.018Z" fill="#18C4FF"/>
<path d="M52.8103 122.483C52.6016 122.556 52.4065 122.663 52.2331 122.799C52.1405 122.877 52.0673 122.975 52.0193 123.086C51.9712 123.197 51.9496 123.318 51.9562 123.439C51.9617 123.57 52.0003 123.698 52.0685 123.811C52.1367 123.923 52.2322 124.017 52.3462 124.082C52.4995 124.164 52.6776 124.184 52.8454 124.141C52.9914 124.089 53.1244 124.007 53.2354 123.899C53.3171 123.828 53.3803 123.739 53.4197 123.638C53.4591 123.538 53.4735 123.429 53.4616 123.322C53.4282 123.156 53.3484 123.003 53.2315 122.881L53.2978 122.971C53.2834 122.955 53.2716 122.936 53.2627 122.916L53.3056 123.018C53.3056 123.018 53.3056 123.018 53.3056 122.998V123.111V123.084V123.197L53.2666 123.299C53.2646 123.292 53.2646 123.285 53.2666 123.279C53.2968 123.231 53.3162 123.178 53.3236 123.122C53.331 123.066 53.3262 123.009 53.3095 122.955C53.2848 122.867 53.2329 122.79 53.1613 122.733C53.0795 122.671 52.9783 122.641 52.876 122.647C52.7737 122.654 52.6771 122.697 52.6036 122.768C52.5405 122.833 52.4957 122.913 52.4738 123.001C52.4519 123.089 52.4536 123.181 52.4788 123.267C52.5188 123.382 52.5826 123.487 52.666 123.575L52.5997 123.49C52.6194 123.515 52.6364 123.543 52.6504 123.572L52.6075 123.47C52.6087 123.483 52.6087 123.496 52.6075 123.509V123.396V123.439V123.326V123.365L52.6504 123.24C52.6411 123.263 52.6294 123.286 52.6153 123.306L52.6816 123.221C52.6489 123.262 52.6109 123.298 52.5685 123.33L52.6543 123.263C52.6167 123.295 52.5747 123.322 52.5295 123.341L52.6348 123.299L52.5451 123.326H52.6582H52.5919H52.705H52.6426L52.7401 123.365C52.7172 123.356 52.6961 123.342 52.6777 123.326L52.7596 123.392C52.736 123.373 52.715 123.351 52.6972 123.326L52.7596 123.408C52.7405 123.379 52.7235 123.349 52.7089 123.318L52.7479 123.416C52.7479 123.377 52.7245 123.338 52.7167 123.299V123.404C52.7128 123.369 52.7128 123.334 52.7167 123.299V123.4C52.7274 123.348 52.7417 123.297 52.7596 123.248L52.7206 123.338C52.7444 123.285 52.7745 123.235 52.8103 123.189L52.7557 123.26C52.8483 123.148 52.9545 123.048 53.0716 122.963C53.1173 122.92 53.1451 122.862 53.1496 122.799C53.1589 122.738 53.1479 122.675 53.1184 122.62C53.0917 122.581 53.0572 122.548 53.017 122.522C52.9845 122.503 52.9485 122.49 52.911 122.485C52.8735 122.479 52.8353 122.482 52.7986 122.491L52.8103 122.483Z" fill="#18C4FF"/>
<path d="M255.061 120.83C261.236 112.141 268.549 104.32 276.803 97.5741C280.348 94.6763 284.935 91.8372 289.225 93.4362C290.785 94.0095 292.243 95.1444 293.858 94.8558C294.708 94.7037 295.418 94.1655 296.12 93.639C303.911 87.651 311.001 80.8035 317.258 73.2263C316.34 71.5949 315.118 70.1546 313.658 68.9832C321.1 65.8386 328.798 63.3399 336.668 61.5146C335.202 69.0479 333.131 76.4507 330.475 83.6511C328.724 82.8161 327.133 81.6824 325.771 80.3009C321.232 88.0346 316.411 95.7255 310.078 102.059C307.929 104.2 302.995 108.096 300.18 109.227C297.145 110.452 292.083 107.051 289.209 108.619C280.937 113.131 275.489 120.994 268.777 129.289C267.97 130.287 267.061 131.344 265.805 131.629C264.428 131.925 263.048 131.184 261.905 130.342C259.18 128.314 257.05 125.592 255.735 122.46" fill="#18C4FF"/>
<path d="M255.334 121.001C258.547 116.544 262.066 112.314 265.864 108.342C269.564 104.414 273.549 100.764 277.786 97.4219C279.841 95.8268 282.142 94.3253 284.708 93.7364C285.891 93.4517 287.125 93.4517 288.308 93.7364C289.568 94.0562 290.648 94.8011 291.88 95.2067C292.441 95.4083 293.04 95.4832 293.634 95.4259C294.227 95.3685 294.8 95.1805 295.312 94.8752C296.454 94.1366 297.54 93.3154 298.561 92.4182C300.706 90.7022 302.794 88.9199 304.825 87.0713C309.405 82.8988 313.685 78.4078 317.632 73.6319C317.713 73.5452 317.764 73.4355 317.78 73.318C317.795 73.2006 317.774 73.0813 317.718 72.9767C316.769 71.3104 315.52 69.8347 314.032 68.6243L313.923 69.4745C319.672 67.0482 325.577 65.0092 331.598 63.371C333.322 62.903 335.055 62.4662 336.797 62.0606L336.13 61.3937C334.658 68.9176 332.588 76.312 329.941 83.5067L330.721 83.183C329.014 82.3635 327.46 81.2582 326.126 79.9148C326.067 79.8571 325.996 79.8134 325.917 79.7872C325.838 79.761 325.755 79.7528 325.673 79.7633C325.591 79.7738 325.512 79.8027 325.443 79.8478C325.373 79.893 325.315 79.9532 325.272 80.024C321.63 86.2289 317.851 92.4026 313.171 97.8899C311.251 100.182 309.128 102.294 306.825 104.2C305.69 105.121 304.524 105.998 303.315 106.813C302.303 107.543 301.218 108.168 300.078 108.677C299.021 109.114 297.836 108.95 296.748 108.728C295.429 108.463 294.142 108.057 292.816 107.823C291.678 107.62 290.441 107.507 289.342 107.952C288.662 108.26 288.009 108.625 287.392 109.044C286.717 109.461 286.054 109.91 285.41 110.374C280.048 114.274 275.883 119.484 271.803 124.624C270.703 126.009 269.611 127.397 268.5 128.77C267.529 129.971 266.378 131.418 264.643 131.091C263.001 130.783 261.523 129.433 260.388 128.302C259.214 127.152 258.199 125.851 257.369 124.433C256.965 123.746 256.607 123.034 256.297 122.3C256.024 121.66 254.959 121.941 255.236 122.593C256.523 125.692 258.583 128.409 261.219 130.486C262.552 131.527 264.187 132.538 265.957 132.155C267.576 131.804 268.636 130.35 269.611 129.137C273.948 123.735 278.067 118.03 283.304 113.447C284.524 112.375 285.814 111.386 287.165 110.487C288.265 109.762 289.482 108.806 290.851 108.748C293.507 108.627 295.991 110.066 298.651 110.042C299.868 110.042 300.909 109.547 301.954 108.962C303.178 108.254 304.358 107.473 305.488 106.622C307.824 104.91 309.999 102.987 311.985 100.877C317.008 95.4875 321.052 89.2865 324.824 82.9802C325.3 82.1794 325.774 81.3773 326.247 80.5739L325.393 80.6831C326.791 82.0943 328.418 83.2575 330.206 84.1229C330.278 84.1588 330.356 84.1788 330.437 84.1814C330.517 84.1841 330.597 84.1693 330.671 84.1382C330.745 84.1071 330.812 84.0604 330.866 84.0012C330.92 83.942 330.961 83.8718 330.986 83.7953C333.635 76.593 335.704 69.1907 337.175 61.6589C337.198 61.5668 337.197 61.4703 337.172 61.3787C337.146 61.2872 337.098 61.2038 337.03 61.1366C336.963 61.0695 336.88 61.0209 336.788 60.9955C336.697 60.9702 336.6 60.969 336.508 60.992C330.354 62.4209 324.303 64.2619 318.397 66.5027C316.707 67.1423 315.033 67.8131 313.377 68.5151C313.306 68.557 313.245 68.6147 313.2 68.6838C313.154 68.7528 313.125 68.8314 313.114 68.9134C313.104 68.9955 313.112 69.0789 313.139 69.1572C313.165 69.2356 313.21 69.3067 313.268 69.3653C314.685 70.5133 315.875 71.9152 316.778 73.4993L316.86 72.8441C313.323 77.1242 309.52 81.1766 305.472 84.977C303.467 86.8542 301.406 88.6742 299.287 90.437C298.2 91.3392 297.095 92.2219 295.972 93.0851C294.907 93.908 293.862 94.6451 292.462 94.2551C291.268 93.9314 290.227 93.206 289.049 92.8277C287.854 92.4602 286.591 92.3682 285.356 92.5586C282.801 92.9213 280.457 94.2473 278.39 95.7371C276.252 97.3251 274.206 99.0321 272.26 100.85C270.212 102.699 268.223 104.621 266.316 106.614C262.113 111.003 258.247 115.703 254.752 120.674C254.499 121.036 255.088 121.372 255.341 121.017L255.334 121.001Z" fill="#18C4FF"/>
<path d="M141.071 157.693H244.647V165.239H141.071V157.693Z" fill="white"/>
<path d="M244.647 164.42H145.275C143.937 164.42 142.584 164.354 141.246 164.42H141.071L141.89 165.239V157.692L141.071 158.511H240.443C241.781 158.511 243.138 158.578 244.472 158.511H244.647L243.828 157.692V165.239C243.828 166.292 245.466 166.292 245.466 165.239V157.692C245.463 157.476 245.376 157.27 245.223 157.117C245.07 156.964 244.863 156.876 244.647 156.873H145.275C143.934 156.873 142.588 156.846 141.246 156.873H141.071C140.855 156.876 140.648 156.964 140.495 157.117C140.342 157.27 140.255 157.476 140.252 157.692V165.239C140.255 165.455 140.342 165.662 140.495 165.815C140.648 165.968 140.855 166.055 141.071 166.058H240.443C241.785 166.058 243.13 166.081 244.472 166.058H244.647C245.7 166.058 245.7 164.42 244.647 164.42Z" fill="white"/>
<path d="M244.647 198.288H145.275C143.938 198.288 142.584 198.222 141.247 198.288H141.071L141.89 199.107V159.381C141.919 158.842 141.919 158.302 141.89 157.763V157.693L141.071 158.512H240.443C241.781 158.512 243.138 158.578 244.472 158.512H244.647L243.828 157.693V194.01C243.828 195.679 243.762 197.364 243.828 199.033C243.83 199.057 243.83 199.082 243.828 199.107C243.828 200.16 245.466 200.16 245.466 199.107V162.786C245.466 161.117 245.537 159.432 245.466 157.763V157.693C245.463 157.476 245.376 157.27 245.223 157.117C245.07 156.964 244.864 156.877 244.647 156.874H145.275C143.934 156.874 142.588 156.846 141.247 156.874H141.071C140.855 156.877 140.648 156.964 140.495 157.117C140.342 157.27 140.255 157.476 140.252 157.693V194.01C140.252 195.679 140.186 197.364 140.252 199.033V199.107C140.255 199.323 140.342 199.53 140.495 199.683C140.648 199.836 140.855 199.923 141.071 199.926H240.443C241.785 199.926 243.13 199.949 244.472 199.926H244.647C245.7 199.926 245.7 198.288 244.647 198.288Z" fill="black"/>
<path d="M192.161 198.288H174.666L175.485 199.107V159.377C175.485 158.851 175.536 158.289 175.485 157.763C175.483 157.739 175.483 157.716 175.485 157.693L174.666 158.512H192.161L191.342 157.693V193.998C191.342 195.671 191.276 197.359 191.342 199.033V199.107C191.342 200.16 192.98 200.16 192.98 199.107V162.798C192.98 161.125 193.047 159.436 192.98 157.763V157.693C192.977 157.476 192.89 157.27 192.737 157.117C192.584 156.964 192.378 156.877 192.161 156.874H174.666C174.449 156.876 174.241 156.962 174.088 157.115C173.934 157.268 173.846 157.476 173.843 157.693V193.998C173.843 195.671 173.777 197.359 173.843 199.033C173.845 199.057 173.845 199.082 173.843 199.107C173.847 199.323 173.935 199.53 174.089 199.683C174.242 199.836 174.449 199.923 174.666 199.926H192.161C193.214 199.926 193.214 198.288 192.161 198.288Z" fill="black"/>
<path d="M209.656 198.288H192.161L192.98 199.107V159.377C193.007 158.839 193.007 158.301 192.98 157.763C192.978 157.739 192.978 157.716 192.98 157.693L192.161 158.512H209.656L208.837 157.693V193.998C208.837 195.671 208.771 197.359 208.837 199.033V199.107C208.837 200.16 210.475 200.16 210.475 199.107V162.798C210.475 161.125 210.542 159.436 210.475 157.763V157.693C210.472 157.476 210.385 157.27 210.232 157.117C210.079 156.964 209.873 156.877 209.656 156.874H192.161C191.945 156.877 191.738 156.964 191.585 157.117C191.432 157.27 191.345 157.476 191.342 157.693V193.998C191.342 195.671 191.276 197.359 191.342 199.033V199.107C191.345 199.323 191.432 199.529 191.585 199.682C191.738 199.835 191.945 199.923 192.161 199.926H209.656C210.709 199.926 210.713 198.288 209.656 198.288Z" fill="black"/>
<path d="M227.151 198.288H209.656L210.475 199.107V159.377C210.502 158.839 210.502 158.301 210.475 157.763C210.473 157.739 210.473 157.716 210.475 157.693L209.656 158.512H227.151L226.333 157.693V193.998C226.333 195.671 226.266 197.359 226.333 199.033V199.107C226.333 200.16 227.97 200.16 227.97 199.107V162.798C227.97 161.125 228.037 159.436 227.97 157.763V157.693C227.967 157.476 227.88 157.27 227.727 157.117C227.574 156.964 227.368 156.877 227.151 156.874H209.656C209.44 156.877 209.233 156.964 209.08 157.117C208.927 157.27 208.84 157.476 208.837 157.693V193.998C208.837 195.671 208.771 197.359 208.837 199.033V199.107C208.84 199.323 208.927 199.529 209.08 199.682C209.233 199.835 209.44 199.923 209.656 199.926H227.151C228.204 199.926 228.208 198.288 227.151 198.288Z" fill="black"/>
<path d="M244.647 198.288H227.151L227.97 199.107V159.377C227.997 158.839 227.997 158.301 227.97 157.763V157.693L227.151 158.512H244.647L243.828 157.693V193.998C243.828 195.671 243.761 197.359 243.828 199.033C243.83 199.057 243.83 199.082 243.828 199.107C243.828 200.16 245.466 200.16 245.466 199.107V162.798C245.466 161.125 245.532 159.436 245.466 157.763V157.693C245.463 157.476 245.375 157.27 245.222 157.117C245.069 156.964 244.863 156.877 244.647 156.874H227.151C226.935 156.877 226.728 156.964 226.575 157.117C226.422 157.27 226.335 157.476 226.332 157.693V193.998C226.332 195.671 226.266 197.359 226.332 199.033V199.107C226.335 199.323 226.422 199.529 226.575 199.682C226.728 199.835 226.935 199.923 227.151 199.926H244.647C245.7 199.926 245.7 198.288 244.647 198.288Z" fill="black"/>
<path d="M69.8603 158.777C68.6357 162.431 67.4852 166.105 66.3503 169.787C66.1865 170.317 67.0211 170.547 67.181 170.013C68.2886 166.327 69.3767 162.638 70.3868 158.925C70.4064 158.854 70.3971 158.778 70.3609 158.714C70.3247 158.65 70.2646 158.603 70.1937 158.584C70.1229 158.564 70.0471 158.573 69.9831 158.61C69.9191 158.646 69.8721 158.706 69.8525 158.777H69.8603Z" fill="black"/>
<path d="M31.9403 134.788C30.2243 139.449 28.7469 144.195 27.5138 149.007L27.6893 148.781L27.3617 148.992C27.2964 149.052 27.2539 149.134 27.2412 149.222C27.2286 149.31 27.2466 149.4 27.2922 149.477C27.3378 149.553 27.4083 149.612 27.4919 149.643C27.5755 149.674 27.6672 149.675 27.7517 149.647C27.9479 149.564 28.1178 149.429 28.2431 149.257C28.3617 148.947 28.4467 148.625 28.4966 148.297C28.6526 147.689 28.8125 147.085 28.9763 146.476C29.3312 145.174 29.6861 143.867 30.0644 142.576C30.8132 140.01 31.627 137.467 32.5058 134.948C32.6306 134.593 32.0729 134.445 31.9481 134.792L31.9403 134.788Z" fill="#18C4FF"/>
<path d="M27.6349 151.527L27.9469 151.226C27.9782 151.196 28.0022 151.158 28.0171 151.117C28.0381 151.076 28.0475 151.03 28.0444 150.985C28.0474 150.94 28.0379 150.895 28.0171 150.856C28.0031 150.814 27.979 150.777 27.9469 150.747L27.8767 150.692C27.8248 150.661 27.7655 150.645 27.7051 150.645H27.6154C27.5576 150.661 27.5051 150.692 27.4633 150.735L27.163 151.043C27.1068 151.11 27.0727 151.194 27.0655 151.281C27.0643 151.325 27.0751 151.368 27.0967 151.406C27.1086 151.447 27.1315 151.485 27.163 151.515L27.2332 151.566C27.2836 151.597 27.3417 151.613 27.4009 151.612H27.4867C27.5424 151.596 27.5933 151.567 27.6349 151.527Z" fill="#18C4FF"/>
<path d="M74.3025 122.265C75.0825 124.582 76.1979 126.766 76.9779 129.082C77.3771 130.219 77.653 131.396 77.8008 132.592C77.9105 133.812 77.8236 135.042 77.5434 136.235C77.5244 136.324 77.5403 136.417 77.5877 136.496C77.6351 136.574 77.7106 136.631 77.7986 136.655C77.8867 136.679 77.9807 136.669 78.0616 136.627C78.1424 136.584 78.204 136.512 78.2337 136.426C79.0566 134.164 78.5301 131.411 77.7774 129.207C76.9506 126.777 75.7221 124.527 74.8563 122.097C74.7315 121.754 74.1855 121.895 74.3025 122.246V122.265Z" fill="#18C4FF"/>
<path d="M52.334 129.87C53.374 131.199 54.4374 132.521 55.5242 133.836C55.7905 134.133 56.0368 134.447 56.2613 134.776C56.3806 134.962 56.4488 135.176 56.459 135.396C56.4693 135.617 56.4213 135.836 56.3198 136.032C56.0234 136.738 55.6763 137.424 55.3877 138.138C54.2276 141.014 53.5008 144.046 53.231 147.135C53.0653 148.921 53.0458 150.717 53.1725 152.506C53.2076 152.966 53.9174 152.977 53.8979 152.506C53.7542 149.226 54.0799 145.943 54.8651 142.756C55.2573 141.162 55.7617 139.598 56.3744 138.076C56.6669 137.35 57.131 136.609 57.2753 135.833C57.3213 135.502 57.29 135.164 57.1837 134.847C57.0775 134.529 56.8993 134.241 56.663 134.004C55.3994 132.463 54.0539 130.989 52.7318 129.503C52.4861 129.226 52.1156 129.624 52.3418 129.893L52.334 129.87Z" fill="#18C4FF"/>
<path d="M20.9313 279.076C21.9356 280.76 23.3969 282.124 25.1456 283.01C26.8942 283.897 28.8584 284.269 30.81 284.084C31.6641 284.01 32.5338 283.889 33.3684 284.15C33.9585 284.363 34.5122 284.666 35.0103 285.047C35.997 285.749 36.9603 286.607 38.1888 286.837C39.5616 287.11 40.872 286.611 42.0888 286.057C43.3056 285.503 44.6238 284.833 46.0629 284.77C47.38 284.756 48.6894 284.972 49.9317 285.41C52.4004 286.19 54.8262 287.379 57.4548 287.461C58.7858 287.473 60.1025 287.187 61.308 286.623C62.5872 286.069 63.8235 285.347 65.208 285.063C67.938 284.466 70.1844 286.404 72.618 287.204C73.8382 287.63 75.1687 287.619 76.3815 287.173C77.7153 286.666 78.9087 285.792 80.34 285.57C83.0427 285.145 86.0145 286.56 88.53 285.055C89.1033 284.716 89.5869 284.24 90.1719 283.92C90.9051 283.53 91.5057 283.737 92.1921 284.111C93.3278 284.774 94.6739 284.98 95.9556 284.684C96.5815 284.532 97.1712 284.257 97.6911 283.877C98.0811 283.596 97.6911 282.945 97.3011 283.23C96.7612 283.63 96.1347 283.898 95.4721 284.012C94.8096 284.126 94.1296 284.082 93.4869 283.885C92.8356 283.682 92.2935 283.245 91.6461 283.035C91.0665 282.86 90.441 282.921 89.9067 283.206C89.3568 283.536 88.828 283.899 88.3233 284.294C87.7386 284.677 87.0692 284.912 86.3733 284.977C85.0044 285.121 83.6433 284.856 82.2627 284.774C80.9199 284.659 79.57 284.888 78.3393 285.437C77.0406 286.026 75.8043 286.849 74.3223 286.783C71.7912 286.669 69.7632 284.712 67.3023 284.29C64.4904 283.807 62.2752 285.679 59.7168 286.435C57.1584 287.192 54.5688 286.252 52.1586 285.382C49.8186 284.536 47.3031 283.62 44.7759 284.173C43.4109 284.47 42.2097 285.223 40.9149 285.733C39.6201 286.244 38.3487 286.315 37.1085 285.585C36.036 284.953 35.1585 284.053 33.9885 283.565C32.5884 282.972 31.1454 283.401 29.6985 283.397C27.0557 283.361 24.5337 282.285 22.6785 280.402C22.2082 279.918 21.7899 279.386 21.4305 278.815C21.2316 278.503 20.7363 278.788 20.9313 279.107V279.076Z" fill="white"/>
<path d="M100.589 283.343C100.612 283.441 100.656 283.532 100.718 283.611C100.78 283.69 100.858 283.754 100.948 283.799C101.049 283.854 101.161 283.886 101.275 283.893C101.331 283.899 101.387 283.899 101.443 283.893C101.501 283.882 101.558 283.862 101.611 283.834C101.663 283.803 101.706 283.757 101.733 283.702C101.76 283.647 101.77 283.586 101.762 283.525C101.754 283.464 101.728 283.407 101.688 283.361C101.648 283.315 101.596 283.281 101.537 283.265C101.456 283.246 101.371 283.257 101.299 283.296H101.264L101.338 283.265C101.306 283.28 101.271 283.289 101.236 283.292H101.318C101.282 283.298 101.245 283.298 101.209 283.292H101.287C101.247 283.287 101.207 283.277 101.17 283.261L101.24 283.292C101.202 283.274 101.165 283.252 101.131 283.226L101.19 283.273L101.115 283.199L101.158 283.257C101.139 283.231 101.123 283.202 101.112 283.171L101.139 283.238C101.137 283.225 101.137 283.212 101.139 283.199C101.119 283.128 101.073 283.068 101.01 283.031C100.978 283.011 100.942 282.998 100.905 282.992C100.868 282.986 100.83 282.988 100.793 282.997C100.757 283.007 100.723 283.024 100.693 283.047C100.663 283.07 100.638 283.099 100.62 283.132C100.586 283.197 100.576 283.272 100.593 283.343H100.589Z" fill="white"/>
<path d="M22.9787 259.74C24.5548 261.586 26.5801 262.994 28.859 263.829C31.138 264.664 33.5937 264.897 35.9891 264.506C38.7854 264.026 41.6948 262.486 44.5691 263.492C46.7297 264.249 48.4691 266.171 50.8715 266.222C52.1585 266.253 53.3129 265.649 54.4478 265.114C55.612 264.524 56.9124 264.255 58.2152 264.334C60.6917 264.506 63.0434 265.606 65.5511 265.524C66.7012 265.482 67.8201 265.139 68.7959 264.529C69.7475 263.952 70.6133 263.219 71.6195 262.735C72.1023 262.486 72.6363 262.353 73.1795 262.345C73.8653 262.407 74.5255 262.636 75.1022 263.012C76.2956 263.675 77.3837 264.139 78.7838 263.952C80.4413 263.726 81.9935 262.926 83.573 262.392C85.1761 261.859 86.8107 261.427 88.4675 261.097C91.8044 260.436 95.2101 260.189 98.6075 260.36C99.1106 260.384 99.1067 259.608 98.6075 259.58C92.6522 259.298 86.7051 260.288 81.1628 262.486C79.8251 263.004 78.3275 263.578 76.8728 263.102C75.6716 262.712 74.7161 261.772 73.4135 261.643C71.1164 261.409 69.4784 263.5 67.5635 264.354C65.2508 265.38 62.6651 264.432 60.3485 263.94C59.1686 263.647 57.949 263.547 56.7371 263.644C55.5125 263.788 54.4556 264.33 53.3519 264.845C52.1195 265.419 50.9144 265.723 49.5845 265.286C48.4769 264.919 47.5058 264.233 46.4957 263.66C45.4507 263.012 44.2715 262.612 43.0481 262.49C41.6904 262.461 40.3371 262.656 39.0428 263.067C37.5218 263.457 36.0164 263.94 34.433 264.034C33.082 264.109 31.7273 263.978 30.416 263.644C27.6885 262.975 25.2366 261.475 23.3999 259.35C23.162 259.069 22.7642 259.475 23.0099 259.74H22.9787Z" fill="white"/>
<path d="M23.3693 241.332C25.6762 242.577 28.3597 242.934 30.9119 242.334C32.2769 242.034 33.6692 241.554 35.0849 241.679C36.5006 241.804 37.5107 242.779 38.7353 243.341C40.9115 244.347 43.2437 243.731 45.4199 243.06C46.6117 242.646 47.8369 242.335 49.082 242.132C50.3629 241.997 51.6576 242.149 52.8728 242.576C54.113 242.966 55.3298 243.461 56.6246 243.645C57.9194 243.828 59.1947 243.551 60.4739 243.157C61.7039 242.731 63.0033 242.542 64.3037 242.6C65.4831 242.711 66.6551 242.891 67.8137 243.138C69.9977 243.528 72.4079 243.918 74.4125 242.701C75.368 242.128 76.109 241.168 77.1425 240.751C78.3983 240.252 79.4825 241.27 80.6993 241.441C81.9161 241.613 83.1446 241.184 84.3029 240.794C85.6796 240.334 86.9432 240.014 88.3433 240.548C88.9846 240.847 89.6626 241.059 90.3596 241.18C91.0763 241.244 91.7986 241.154 92.4773 240.915C93.854 240.447 95.0396 239.569 96.1784 238.684C96.5684 238.391 96.0263 237.869 95.6519 238.157C94.5833 238.992 93.4367 239.842 92.1419 240.248C91.5545 240.443 90.9308 240.505 90.3167 240.427C89.6561 240.276 89.013 240.056 88.3979 239.772C87.3331 239.419 86.1828 239.419 85.118 239.772C83.9753 240.092 82.856 240.63 81.6626 240.735C81.1071 240.783 80.5482 240.703 80.0285 240.501C79.4688 240.235 78.8816 240.031 78.2774 239.893C77.1893 239.745 76.2923 240.318 75.4811 240.969C74.5685 241.703 73.7378 242.389 72.5678 242.654C71.4578 242.859 70.3198 242.859 69.2099 242.654C66.9206 242.307 64.6079 241.609 62.2757 241.956C60.9575 242.155 59.7329 242.736 58.4186 242.947C57.1043 243.157 55.7432 242.775 54.4679 242.354C53.3182 241.915 52.1263 241.596 50.9111 241.402C49.7541 241.308 48.5897 241.419 47.4713 241.73C45.2015 242.299 42.8342 243.493 40.4513 243.149C39.0317 242.943 37.9748 242.011 36.7073 241.441C35.4398 240.872 34.0046 240.938 32.6279 241.242C31.1303 241.574 29.699 242.022 28.1507 242.022C26.5853 241.993 25.0494 241.592 23.6696 240.852C23.3459 240.685 23.0573 241.172 23.381 241.348L23.3693 241.332Z" fill="white"/>
<path d="M24.9836 220.826C25.7948 222.663 28.2284 222.709 29.8898 222.238C31.2353 221.848 32.5847 221.169 34.0121 221.259C35.2874 221.341 36.2195 222.226 37.2101 222.928C38.1322 223.599 39.2332 223.981 40.373 224.024C41.5467 224.023 42.7147 223.86 43.844 223.54C45.0456 223.203 46.2731 222.966 47.5139 222.83C48.7426 222.775 49.9673 223.007 51.0902 223.509C52.2992 224.008 53.4731 224.632 54.764 224.886C55.998 225.093 57.2609 225.056 58.4807 224.776C61.0508 224.269 63.5507 223.216 66.1988 223.903C67.4897 224.234 68.7689 224.765 70.1261 224.601C71.261 224.461 72.275 223.899 73.3007 223.431C74.3849 222.951 75.4691 222.651 76.6001 223.17C77.6258 223.642 78.6047 224.297 79.763 223.844C80.3232 223.566 80.8582 223.24 81.362 222.869C81.8632 222.576 82.4169 222.382 82.9922 222.3C84.0982 222.176 85.2153 222.186 86.3189 222.331C88.3235 222.499 90.7337 222.721 92.1221 220.954C92.4068 220.592 91.8959 220.077 91.6112 220.444C90.3905 222.004 88.2767 221.77 86.5139 221.614C84.6224 221.458 82.5515 221.243 80.8745 222.323C80.4322 222.671 79.9505 222.966 79.4393 223.201C78.8036 223.419 78.203 223.17 77.6336 222.885C76.643 222.39 75.7577 222.023 74.6306 222.23C73.5035 222.436 72.5636 223.01 71.5535 223.447C70.3938 223.941 69.0963 224.009 67.8914 223.638C66.6512 223.302 65.4617 222.908 64.163 222.94C62.9351 223.004 61.7183 223.207 60.536 223.544C59.3095 223.907 58.0523 224.156 56.7803 224.289C55.5128 224.347 54.2494 224.108 53.0909 223.591C51.9209 223.115 50.8133 222.522 49.5809 222.253C48.4698 222.033 47.3262 222.033 46.2152 222.253C43.9922 222.643 41.6171 223.704 39.3434 223.142C38.0174 222.815 37.1165 221.82 35.9777 221.146C34.7492 220.416 33.4076 220.436 32.0777 220.814C30.7478 221.192 29.5661 221.809 28.205 221.84C27.1247 221.867 25.9742 221.567 25.475 220.506C25.319 220.167 24.8276 220.459 24.9758 220.798L24.9836 220.826Z" fill="white"/>
<path d="M28.3574 203.724C29.6795 205.214 31.7816 205.382 33.638 205.101C36.0599 204.73 38.4272 203.365 40.931 203.83C43.0877 204.22 44.8544 205.803 47.1476 205.592C49.4408 205.382 51.3245 203.939 53.5787 203.88C55.8329 203.822 58.0091 205.187 60.3374 204.933C61.4294 204.816 62.3927 204.309 63.395 203.9C64.3801 203.423 65.5102 203.341 66.554 203.67C67.5173 204.001 68.387 204.559 69.362 204.84C70.2197 205.114 71.1441 205.096 71.9906 204.789C73.6013 204.2 74.8103 202.839 76.421 202.281C77.4623 201.891 78.2228 202.246 79.0925 202.855C79.4466 203.144 79.8679 203.341 80.3177 203.425C80.7675 203.51 81.2313 203.48 81.6665 203.338C82.4861 202.989 83.2601 202.541 83.9714 202.004C84.6344 201.575 85.469 201.057 86.2763 201.404C86.7014 201.583 87.0563 200.959 86.6429 200.776C85.1219 200.128 83.8193 201.275 82.6064 202.055C81.9941 202.445 81.2726 202.882 80.516 202.761C79.5449 202.601 78.9014 201.661 77.9225 201.454C76.2962 201.115 74.8532 202.285 73.5857 203.124C72.8965 203.633 72.1229 204.018 71.3003 204.258C70.2902 204.492 69.3503 204.13 68.426 203.709C67.5017 203.287 66.6593 202.835 65.696 202.734C64.643 202.624 63.6563 203.01 62.7125 203.424C61.6283 203.892 60.6065 204.309 59.4053 204.235C58.2041 204.161 57.1316 203.767 56.0123 203.49C54.9691 203.197 53.8785 203.113 52.8026 203.241C51.7166 203.459 50.6555 203.787 49.6358 204.22C48.6142 204.669 47.5109 204.902 46.3949 204.906C45.2249 204.844 44.1836 204.301 43.1462 203.853C41.9943 203.292 40.7216 203.024 39.4412 203.073C38.0885 203.237 36.7567 203.542 35.4671 203.982C33.3338 204.606 30.5024 205.152 28.8371 203.26C28.5719 202.96 28.1312 203.4 28.3964 203.697L28.3574 203.724Z" fill="white"/>
<path d="M31.6287 188.9C33.7698 190.538 36.6285 188.737 38.8008 188.101C40.1853 187.711 41.4372 187.664 42.6072 188.6C43.2195 189.084 43.8201 189.528 44.6352 189.501C45.3807 189.418 46.1034 189.193 46.7646 188.838C47.5446 188.487 48.348 188.218 49.2138 188.503C49.9938 188.764 50.6919 189.283 51.5031 189.489C53.3205 189.953 54.7518 188.401 56.4639 188.124C58.2735 187.828 60.1182 188.409 61.8654 188.803C63.6126 189.197 65.3754 189.45 67.1499 188.959C68.2302 188.659 69.3612 188.14 70.5 188.39C71.5491 188.616 72.3915 189.17 73.4952 188.803C74.5989 188.436 75.5466 187.766 76.6386 187.387C77.7606 187.006 78.93 186.782 80.1135 186.72C80.5659 186.697 80.5698 185.987 80.1135 186.014C78.147 186.127 76.2282 186.664 74.4897 187.59C74.0751 187.839 73.6326 188.038 73.1715 188.183C72.6046 188.291 72.0181 188.219 71.4945 187.976C70.6335 187.642 69.6924 187.573 68.7918 187.777C67.8441 187.988 66.9432 188.393 65.9721 188.518C65.0726 188.611 64.1642 188.569 63.2772 188.393C61.5378 188.089 59.8413 187.52 58.0707 187.395C57.236 187.325 56.3956 187.407 55.5903 187.637C54.7245 187.902 53.9874 188.44 53.1411 188.741C52.1817 189.084 51.4017 188.791 50.5359 188.351C49.8339 188 49.1046 187.645 48.3012 187.695C46.8075 187.789 45.2085 189.423 43.7343 188.596C43.0791 188.23 42.5955 187.66 41.8779 187.387C41.3179 187.19 40.7203 187.123 40.1307 187.192C38.6565 187.34 37.3032 188.003 35.9226 188.483C34.6122 188.939 33.138 189.318 31.9329 188.413C31.6443 188.191 31.3674 188.682 31.6482 188.897L31.6287 188.9Z" fill="white"/>
<path d="M81.3503 186.985H81.9587C82.0474 186.984 82.1322 186.949 82.1966 186.888C82.2432 186.841 82.2749 186.78 82.2877 186.715C82.3004 186.65 82.2937 186.582 82.2684 186.521C82.243 186.459 82.2001 186.407 82.1451 186.369C82.09 186.332 82.0252 186.312 81.9587 186.311H81.3503C81.2617 186.313 81.1771 186.348 81.1124 186.408C81.0497 186.472 81.0146 186.558 81.0146 186.648C81.0146 186.738 81.0497 186.824 81.1124 186.888C81.1771 186.948 81.2617 186.983 81.3503 186.985Z" fill="white"/>
<path d="M69.1155 165.968C70.274 166.543 71.6055 166.662 72.8478 166.304C73.4337 166.081 74.0009 165.813 74.5443 165.5C74.9811 165.29 76.1043 165.091 76.0536 165.914C76.055 165.965 76.0679 166.015 76.0913 166.061C76.1147 166.106 76.148 166.146 76.1887 166.177C76.2295 166.208 76.2767 166.23 76.3269 166.24C76.377 166.251 76.4289 166.25 76.4787 166.238C76.9155 166.148 77.3484 166.05 77.7813 165.949C78.2142 165.848 78.0114 165.255 77.6136 165.333C77.2158 165.411 76.7361 165.5 76.2993 165.594L76.7244 165.914C76.7203 165.648 76.6309 165.391 76.4694 165.18C76.3078 164.97 76.0827 164.817 75.8274 164.744C75.18 164.518 74.5443 164.779 73.9788 165.099C73.3239 165.521 72.5856 165.796 71.8143 165.906C70.9878 165.99 70.1543 165.845 69.4041 165.489C69.0726 165.333 68.784 165.82 69.1155 165.984V165.968Z" fill="white"/>
<path d="M76.7009 177.173C78.0285 177.42 79.4007 177.219 80.6009 176.6C80.9909 176.401 80.6438 175.82 80.2655 176.023C79.2191 176.579 78.0174 176.773 76.8491 176.572C76.8092 176.561 76.7674 176.558 76.7262 176.563C76.685 176.568 76.6451 176.581 76.6089 176.601C76.5727 176.621 76.5408 176.648 76.5151 176.681C76.4894 176.714 76.4704 176.751 76.4591 176.791C76.4473 176.831 76.4436 176.873 76.4482 176.914C76.4528 176.956 76.4657 176.996 76.4861 177.032C76.5064 177.068 76.5338 177.1 76.5667 177.126C76.5996 177.151 76.6373 177.17 76.6775 177.181L76.7009 177.173Z" fill="white"/>
</svg>
