<svg width="165" height="127" viewBox="0 0 165 127" fill="none" xmlns="http://www.w3.org/2000/svg">
<path d="M156.822 59.562C160.798 68.7895 163.322 79.0552 164.279 89.2742C164.743 94.221 161.084 98.5775 156.108 99.006C151.132 99.436 146.723 95.7731 146.26 90.8268C145.472 82.4262 143.399 73.9913 140.191 66.5475C122.945 26.5228 76.3898 7.75953 36.2086 24.6388C28.4026 27.9187 21.3667 32.3066 15.1232 37.7354C11.3745 40.9947 5.65616 40.6014 2.35141 36.856C-0.953783 33.1117 -0.593862 27.4335 3.15521 24.1731C10.8311 17.4993 19.496 12.0953 29.07 8.07339C78.4364 -12.6649 135.633 10.3875 156.822 59.562ZM119.538 84.142C122.552 91.1333 124.218 98.8993 124.472 106.551C124.637 111.514 120.721 115.644 115.727 115.776C110.731 115.909 106.549 111.993 106.384 107.03C106.202 101.564 105.009 96.0052 102.908 91.129C93.4672 69.2191 67.9852 58.949 45.99 68.189C41.1213 70.2341 36.6042 73.2947 32.6485 77.1443C29.0898 80.6079 23.3605 80.5316 19.8514 76.9748C16.3427 73.417 16.3828 67.726 19.9414 64.2623C25.459 58.8921 31.8446 54.566 38.8519 51.6225C70.0313 38.5248 106.156 53.0842 119.538 84.142ZM78.8804 101.566C82.824 110.716 78.5734 121.262 69.3867 125.121C60.2005 128.979 49.5581 124.69 45.6145 115.54C41.6725 106.39 45.9231 95.8433 55.1082 91.9848C64.2949 88.1256 74.9373 92.4148 78.8804 101.566Z" fill="url(#paint0_linear_119_1611)" fill-opacity="0.29"/>
<defs>
<linearGradient id="paint0_linear_119_1611" x1="103.524" y1="7.60488" x2="56.0428" y2="125.414" gradientUnits="userSpaceOnUse">
<stop stop-color="white"/>
<stop offset="1" stop-color="#00A2F6"/>
</linearGradient>
</defs>
</svg>
