<svg width="231" height="215" viewBox="0 0 231 215" fill="none" xmlns="http://www.w3.org/2000/svg">
<path d="M181.27 105.65L115.878 163.979C107.867 171.125 97.2982 174.847 86.4973 174.327C75.6964 173.807 65.5479 169.088 58.2843 161.206C51.0206 153.325 47.2369 142.928 47.7654 132.303C48.2939 121.677 53.0914 111.693 61.1025 104.548L126.495 46.2186C131.836 41.4547 138.881 38.9732 146.082 39.3198C153.283 39.6664 160.048 42.8129 164.891 48.0669C169.733 53.321 172.256 60.2522 171.903 67.336C171.551 74.4197 168.353 81.0756 163.012 85.8394L130.282 115.002L97.5515 144.165C94.8811 146.547 91.3583 147.788 87.758 147.615C84.1577 147.441 80.7749 145.868 78.3537 143.241C75.9324 140.614 74.6712 137.148 74.8474 133.607C75.0235 130.065 76.6227 126.737 79.2931 124.355L139.701 70.5354" stroke="url(#paint0_linear_117_1707)" stroke-opacity="0.2" stroke-width="11" stroke-linecap="round" stroke-linejoin="round"/>
<defs>
<linearGradient id="paint0_linear_117_1707" x1="118.546" y1="37.9942" x2="111.924" y2="175.551" gradientUnits="userSpaceOnUse">
<stop stop-color="white"/>
<stop offset="1" stop-color="#0070DA"/>
</linearGradient>
</defs>
</svg>
