<svg width="219" height="199" viewBox="0 0 219 199" fill="none" xmlns="http://www.w3.org/2000/svg">
<path d="M144.59 178.377C144.352 179.167 143.318 179.353 142.83 178.692L62.8754 70.3954C62.435 69.7989 62.7783 68.942 63.5103 68.8107L182.519 47.4578C183.251 47.3264 183.859 48.0126 183.644 48.7267L144.59 178.377Z" stroke="white" stroke-opacity="0.5" stroke-width="4"/>
<path opacity="0.4" d="M31.8394 140.519C31.1182 140.891 30.2826 140.268 30.4098 139.453L38.8391 85.4296C38.955 84.6864 39.8002 84.3346 40.3983 84.7806L79.7585 114.13C80.3566 114.576 80.2864 115.506 79.6289 115.845L31.8394 140.519Z" stroke="white" stroke-width="4"/>
<mask id="path-3-inside-1_119_75" fill="white">
<rect width="29.05" height="27.7581" rx="3" transform="matrix(-0.777306 -0.629122 0.612762 -0.790267 91.4219 168.643)"/>
</mask>
<rect width="29.05" height="27.7581" rx="3" transform="matrix(-0.777306 -0.629122 0.612762 -0.790267 91.4219 168.643)" stroke="white" stroke-opacity="0.5" stroke-width="8" mask="url(#path-3-inside-1_119_75)"/>
</svg>
