<svg width="225" height="233" viewBox="0 0 225 233" fill="none" xmlns="http://www.w3.org/2000/svg">
<path d="M62.0449 53.4057C61.8841 52.5969 62.6917 51.9395 63.4275 52.2803L184.362 108.296C185.033 108.607 185.143 109.534 184.564 110.005L90.0549 186.936C89.4761 187.407 88.6167 187.09 88.4699 186.352L62.0449 53.4057L60.1048 53.8162L62.0449 53.4057Z" stroke="white" stroke-opacity="0.5" stroke-width="4"/>
<path d="M178.785 31.6055C179.245 30.9245 180.287 31.0653 180.557 31.8452L198.452 83.3959C198.697 84.0999 198.117 84.8113 197.38 84.7116L149.081 78.181C148.344 78.0814 147.965 77.2404 148.38 76.6256L178.785 31.6055Z" stroke="white" stroke-opacity="0.5" stroke-width="4"/>
<mask id="path-3-inside-1_119_67" fill="white">
<rect width="28.8259" height="27.9685" rx="3" transform="matrix(0.98478 0.173804 -0.166716 0.986005 113.308 36.0002)"/>
</mask>
<rect width="28.8259" height="27.9685" rx="3" transform="matrix(0.98478 0.173804 -0.166716 0.986005 113.308 36.0002)" stroke="white" stroke-opacity="0.5" stroke-width="8" mask="url(#path-3-inside-1_119_67)"/>
</svg>
