<svg width="184" height="184" viewBox="0 0 184 184" fill="none" xmlns="http://www.w3.org/2000/svg">
<g clip-path="url(#clip0_35_10)">
<path d="M73.666 81.1111C79.522 71.1454 92.3628 67.81 102.328 73.666C112.294 79.522 115.63 92.3628 109.774 102.328C103.918 112.294 91.0769 115.63 81.1112 109.774C71.1455 103.918 67.81 91.0769 73.666 81.1111ZM102.552 98.085C106.06 92.1152 104.055 84.3955 98.085 80.8875C92.1152 77.3796 84.3955 79.3848 80.8875 85.3546C77.3796 91.3244 79.3848 99.0442 85.3546 102.552C91.3244 106.06 99.0442 104.055 102.552 98.085Z" fill="url(#paint0_linear_35_10)" fill-opacity="0.26"/>
<path d="M33.5808 78.3464C34.1749 77.3354 34.9134 76.4093 35.7482 75.5397C38.3206 73.0357 41.6693 71.6356 45.2507 71.6028L46.5531 71.5909C53.1328 71.6359 55.4243 67.7363 52.1828 62.0103L51.5792 60.9432C49.8167 57.7702 49.3621 54.1352 50.3457 50.6977C51.3095 47.1837 53.5817 44.309 56.7263 42.5946L66.3584 37.1146C68.0471 36.1495 69.9094 35.5268 71.839 35.282C73.7685 35.0373 75.7274 35.1753 77.6035 35.6882C79.4797 36.2012 81.2363 37.079 82.7729 38.2714C84.3095 39.4638 85.596 40.9474 86.5588 42.6375C88.1937 45.4764 90.182 47.1629 92.0591 47.1649C93.9361 47.1668 95.971 45.5776 97.6401 42.7371C101.77 35.7081 110.866 33.3455 117.895 37.4759L126.368 42.4549C133.397 46.5852 135.76 55.6807 131.629 62.7097C129.96 65.5502 129.562 68.1012 130.478 69.7401C131.393 71.3789 133.805 72.3433 137.109 72.3417C141.036 72.3824 144.757 73.986 147.522 76.7762C150.335 79.5948 151.834 83.3257 151.765 87.3007L151.637 98.4302C151.666 105.766 145.573 111.836 138.113 111.856L136.811 111.868C130.231 111.823 127.939 115.723 131.181 121.449L131.785 122.516C135.445 129.071 133.108 137.348 126.609 140.913L116.977 146.393C115.288 147.358 113.426 147.981 111.496 148.225C109.567 148.47 107.608 148.332 105.732 147.819C103.856 147.306 102.099 146.428 100.563 145.236C99.0259 144.044 97.7394 142.56 96.7767 140.87C95.1418 138.031 93.1535 136.344 91.2764 136.342C89.3993 136.34 87.3644 137.93 85.6953 140.77C81.565 147.799 72.4694 150.162 65.4405 146.031L56.9672 141.052C49.9382 136.922 47.5757 127.827 51.706 120.798C53.3751 117.957 53.7731 115.406 52.8579 113.767C51.9426 112.128 49.53 111.164 46.226 111.166C42.2991 111.125 38.5498 109.569 35.8136 106.731C34.4307 105.355 33.3415 103.713 32.6121 101.904C31.8828 100.095 31.5284 98.1567 31.5704 96.2066L31.6983 85.0771C31.7623 82.6535 32.3926 80.3685 33.5808 78.3464ZM60.4749 73.3596C57.9571 77.6444 52.913 80.056 46.5343 79.9995L45.3084 79.9916C43.9579 79.9752 42.67 80.5138 41.7021 81.4995C40.7343 82.4852 40.1998 83.7255 40.2117 85.0278L40.132 96.1857C40.1182 97.8876 40.7767 99.5262 41.9642 100.745C43.1517 101.965 44.7723 102.666 46.474 102.697C52.8046 102.726 57.8651 105.246 60.3274 109.542C62.7897 113.839 62.3337 119.465 59.1087 124.953C57.2981 128.034 58.3106 131.933 61.3918 133.743L69.8651 138.722C72.8981 140.504 76.8444 139.52 78.6549 136.439C81.88 130.951 86.5726 127.814 91.5244 127.874C96.4763 127.934 101.141 131.128 104.246 136.645C105.074 138.103 106.453 139.172 108.124 139.636C109.794 140.099 111.487 139.864 112.993 139.065L122.653 133.536C123.243 133.207 123.762 132.765 124.181 132.234C124.6 131.704 124.91 131.097 125.093 130.446C125.277 129.796 125.33 129.116 125.251 128.445C125.171 127.774 124.96 127.126 124.629 126.537L124.026 125.47C120.872 119.925 120.524 114.345 123.042 110.06C125.559 105.775 130.604 103.363 136.982 103.42L138.256 103.456C139.592 103.436 140.867 102.895 141.81 101.95C142.752 101.004 143.289 99.7271 143.305 98.3916L143.385 87.2338C143.398 85.5319 142.74 83.8933 141.552 82.674C140.365 81.4547 138.744 80.7533 137.043 80.7221C130.712 80.6939 125.651 78.1736 123.189 73.877C120.727 69.5804 121.183 63.9546 124.408 58.4662C126.218 55.385 125.206 51.4869 122.125 49.6764L113.651 44.6974C110.618 42.9151 106.672 43.8994 104.862 46.9806C101.637 52.4689 96.9439 55.6052 91.9921 55.5452C87.0403 55.4852 82.3759 52.291 79.2703 46.7744C78.4429 45.3167 77.0636 44.2471 75.393 43.7836C73.7224 43.3201 72.0295 43.5558 70.5236 44.3549L60.8633 49.8831C59.6433 50.5263 58.7917 51.645 58.4298 52.9221C58.0398 54.2473 58.2443 55.6628 58.8875 56.8827L59.491 57.9498C62.5966 63.4664 62.9927 69.0748 60.4749 73.3596Z" fill="url(#paint1_linear_35_10)" fill-opacity="0.26"/>
</g>
<defs>
<linearGradient id="paint0_linear_35_10" x1="109.774" y1="102.328" x2="73.666" y2="81.1111" gradientUnits="userSpaceOnUse">
<stop stop-color="#4DB4FF"/>
<stop offset="1" stop-color="#74E6FF" stop-opacity="0"/>
</linearGradient>
<linearGradient id="paint1_linear_35_10" x1="140.739" y1="120.589" x2="42.6139" y2="62.929" gradientUnits="userSpaceOnUse">
<stop stop-color="#4DB4FF"/>
<stop offset="1" stop-color="#74E6FF" stop-opacity="0"/>
</linearGradient>
<clipPath id="clip0_35_10">
<rect width="134.016" height="134.016" fill="white" transform="translate(183.44 67.8953) rotate(120.439)"/>
</clipPath>
</defs>
</svg>
