<svg width="120" height="116" viewBox="0 0 120 116" fill="none" xmlns="http://www.w3.org/2000/svg">
<path d="M59.2197 0.969312C26.3787 1.39365 0.0836833 27.3364 0.525512 58.8772C0.967341 90.418 27.9795 115.672 60.8205 115.248C93.6616 114.823 119.957 88.8805 119.515 57.3397C119.073 25.7989 92.0607 0.544976 59.2197 0.969312ZM54.0664 87.6174C54.0744 88.1888 53.9626 88.7046 53.7327 89.279C53.2711 90.3137 52.4502 91.1815 51.3262 91.6532C50.786 91.8911 50.2 92.0179 49.6058 92.0256C49.0115 92.0333 48.4222 91.9216 47.8755 91.6978C47.3412 91.4883 46.8526 91.1845 46.4348 90.8021L28.1051 73.6654C27.264 72.8697 26.7834 71.7876 26.7675 70.6538C26.7516 69.52 27.2018 68.4259 28.0203 67.6087C29.7224 65.9294 32.5782 65.8925 34.3267 67.5272L44.9387 77.4484L44.2583 28.8801C44.2255 26.5374 46.2211 24.5686 48.6604 24.537C51.0996 24.5055 53.1497 26.4221 53.1825 28.7648L54.0069 87.6181L54.0664 87.6174ZM91.9613 48.6661C91.0808 49.5347 89.9561 49.9493 88.8257 49.9639C87.6953 49.9785 86.5593 49.5932 85.6548 48.7476L75.0429 38.8264L75.7233 87.3947C75.7561 89.7374 73.7605 91.7063 71.3212 91.7378C68.8819 91.7693 66.8319 89.8527 66.7991 87.51L65.9738 28.5995C65.9658 28.0282 66.0776 27.5124 66.3076 26.9379C66.7691 25.9032 67.5901 25.0354 68.7141 24.5637C69.7786 24.0927 71.0279 24.0766 72.1052 24.5199C72.6439 24.7415 73.1239 25.021 73.5459 25.4156L91.8756 42.5522C93.625 44.2441 93.6626 46.9297 91.9613 48.6661Z" fill="url(#paint0_linear_119_35)" fill-opacity="0.2"/>
<defs>
<linearGradient id="paint0_linear_119_35" x1="59.2197" y1="0.969312" x2="60.6963" y2="115.249" gradientUnits="userSpaceOnUse">
<stop stop-color="#00F0FF"/>
<stop offset="1" stop-color="#0071DA"/>
</linearGradient>
</defs>
</svg>
