<svg width="198" height="198" viewBox="0 0 198 198" fill="none" xmlns="http://www.w3.org/2000/svg">
<path d="M141.364 42.6557C152.45 51.0922 160.786 62.6267 165.317 75.8006C169.847 88.9745 170.37 103.196 166.818 116.667C163.266 130.138 155.8 142.253 145.362 151.48C134.925 160.707 121.986 166.633 108.181 168.506C94.3768 170.38 80.3265 168.118 67.8075 162.006C55.2884 155.894 44.8628 146.208 37.849 134.171C30.8352 122.134 27.5482 108.288 28.4037 94.3828C29.2593 80.4779 34.2189 67.1389 42.6554 56.0527C53.9685 41.1866 70.7237 31.4234 89.2352 28.911C107.747 26.3985 126.498 31.3427 141.364 42.6557ZM62.1462 146.754C71.6486 153.985 83.082 158.236 95.0005 158.97C106.919 159.703 118.787 156.886 129.105 150.874C139.422 144.862 147.725 135.926 152.963 125.195C158.202 114.464 160.141 102.421 158.535 90.5887C156.929 78.7562 151.85 67.6655 143.941 58.7193C136.032 49.7731 125.648 43.3732 114.101 40.3288C102.555 37.2843 90.3648 37.7322 79.0729 41.6157C67.781 45.4992 57.8943 52.644 50.663 62.1464C40.9661 74.8888 36.7283 90.9614 38.8818 106.828C41.0353 122.695 49.4038 137.057 62.1462 146.754Z" fill="url(#paint0_linear_119_1873)" fill-opacity="0.33"/>
<path d="M125.954 87.8301C127.016 88.6382 127.713 89.835 127.893 91.1572C128.072 92.4795 127.719 93.8189 126.911 94.8807L102.536 126.911C101.728 127.973 100.532 128.67 99.2093 128.85C97.887 129.029 96.5477 128.676 95.4858 127.868C94.4239 127.06 93.7266 125.863 93.5471 124.541C93.3676 123.219 93.7208 121.879 94.5289 120.817L118.904 88.787C119.712 87.7252 120.908 87.0278 122.231 86.8483C123.553 86.6689 124.892 87.022 125.954 87.8301Z" fill="url(#paint1_linear_119_1873)" fill-opacity="0.33"/>
<path d="M101.931 69.5493C102.993 70.3574 103.69 71.5542 103.869 72.8765C104.049 74.1987 103.696 75.5381 102.888 76.6L78.513 108.63C77.7049 109.692 76.5081 110.389 75.1859 110.569C73.8636 110.748 72.5242 110.395 71.4624 109.587C70.4005 108.779 69.7031 107.582 69.5237 106.26C69.3442 104.938 69.6974 103.598 70.5054 102.536L94.8802 70.5063C95.6882 69.4444 96.885 68.747 98.2073 68.5676C99.5295 68.3881 100.869 68.7413 101.931 69.5493Z" fill="url(#paint2_linear_119_1873)" fill-opacity="0.33"/>
<defs>
<linearGradient id="paint0_linear_119_1873" x1="141.364" y1="42.6557" x2="56.0525" y2="154.761" gradientUnits="userSpaceOnUse">
<stop stop-color="#0081E3"/>
<stop offset="1" stop-color="white"/>
</linearGradient>
<linearGradient id="paint1_linear_119_1873" x1="125.954" y1="87.8301" x2="95.4858" y2="127.868" gradientUnits="userSpaceOnUse">
<stop stop-color="#0081E3"/>
<stop offset="1" stop-color="white"/>
</linearGradient>
<linearGradient id="paint2_linear_119_1873" x1="101.931" y1="69.5493" x2="71.4624" y2="109.587" gradientUnits="userSpaceOnUse">
<stop stop-color="#0081E3"/>
<stop offset="1" stop-color="white"/>
</linearGradient>
</defs>
</svg>
