<svg width="243" height="229" viewBox="0 0 243 229" fill="none" xmlns="http://www.w3.org/2000/svg">
<g clip-path="url(#clip0_119_1861)">
<path d="M147.113 28.9592C100.28 14.7411 50.745 41.3526 36.4604 88.4056C22.1757 135.458 48.5557 185.117 95.3895 199.335C142.223 213.553 191.758 186.941 206.042 139.888C220.327 92.8355 193.947 43.1774 147.113 28.9592ZM193.072 118.506L184.229 115.821C181.421 114.969 178.388 116.592 177.529 119.421L176.834 121.708C176.241 123.663 174.615 125.123 172.625 125.475L166.701 126.491C164.804 126.824 162.876 126.102 161.668 124.6L156.877 118.741C155.819 117.465 154.25 116.717 152.563 116.795L151.587 116.815C148.063 116.881 145.606 120.36 146.592 123.748L148.995 131.703C149.482 133.402 150.842 134.76 152.564 135.283L155.292 136.111C158.139 136.976 159.718 139.999 158.86 142.827L157.71 146.614C157.369 147.737 156.68 148.709 155.733 149.376L147.03 155.82C146.359 156.298 145.811 156.949 145.424 157.649L141.708 164.836C141.18 165.857 140.315 166.685 139.233 167.219C135.233 169.14 131.48 171.546 128.027 174.401L121.725 179.574C120.98 180.197 120.053 180.433 119.179 180.796C116.139 180.711 113.084 180.426 110.023 179.906C108.035 178.456 106.611 176.309 106.186 173.765C105.48 169.597 105.742 165.272 106.979 161.195L109.998 151.253C110.846 148.422 109.268 145.399 106.419 144.534L97.8409 141.93C93.0681 140.481 89.0351 137.166 86.6624 132.721C84.3244 128.304 83.8076 123.096 85.2724 118.27L86.6968 113.578C88.4263 107.882 92.7561 103.287 98.3647 101.264L109.566 97.1233C113.418 95.7416 117.621 95.6002 121.53 96.7867L121.811 96.8719C124.618 97.7243 127.223 99.2418 129.331 101.245L133.478 105.184C134.488 106.172 135.882 106.704 137.305 106.664L154.58 106.184C156.88 106.11 158.931 104.552 159.6 102.348C160.472 99.4777 158.84 96.4838 156.032 95.6314L152.664 94.6088C151.3 94.1948 150.181 93.2644 149.508 92.0153L147.929 88.9919C147.249 87.7315 146.086 86.7968 144.728 86.3846L114.886 77.3248C112.078 76.4724 110.459 73.4369 111.318 70.6084L111.762 69.1442C112.482 66.7733 114.718 65.1789 117.181 65.2943L122.348 65.5907C123.692 65.6354 125.002 65.2153 126.012 64.3409L129.924 61.1236C131.287 60 133.176 59.6176 134.865 60.1304L142.887 62.5658C145.735 63.4303 148.728 61.795 149.586 58.9665L152.595 49.0568C178.964 61.7902 194.87 89.4683 193.072 118.506Z" fill="url(#paint0_linear_119_1861)" fill-opacity="0.28"/>
</g>
<defs>
<linearGradient id="paint0_linear_119_1861" x1="147.113" y1="28.9592" x2="95.3895" y2="199.335" gradientUnits="userSpaceOnUse">
<stop stop-color="white"/>
<stop offset="1" stop-color="#0073DB"/>
</linearGradient>
<clipPath id="clip0_119_1861">
<rect width="199.378" height="178.054" fill="white" transform="translate(51.7236) rotate(16.8876)"/>
</clipPath>
</defs>
</svg>
