<svg width="662" height="583" viewBox="0 0 662 583" fill="none" xmlns="http://www.w3.org/2000/svg">
<g clip-path="url(#clip0_119_1453)">
<path d="M426.345 350.584H247.919C243.137 350.579 238.553 348.599 235.171 345.078C231.79 341.558 229.888 336.785 229.883 331.807V85.8395C229.888 80.8611 231.79 76.0883 235.171 72.5681C238.553 69.0478 243.137 67.0677 247.919 67.062H426.345C431.127 67.0676 435.712 69.0478 439.093 72.568C442.474 76.0883 444.376 80.8611 444.382 85.8395V331.807C444.376 336.785 442.474 341.558 439.093 345.078C435.712 348.599 431.127 350.579 426.345 350.584Z" fill="#E6E6E6"/>
<path d="M413.803 334.935H260.46C256.215 334.93 252.144 333.172 249.142 330.046C246.14 326.92 244.451 322.683 244.446 318.262V99.3847C244.451 94.9645 246.14 90.7267 249.142 87.6012C252.144 84.4756 256.215 82.7174 260.46 82.7124H413.803C418.049 82.7174 422.119 84.4756 425.121 87.6011C428.124 90.7267 429.812 94.9645 429.817 99.3847V318.262C429.812 322.683 428.124 326.92 425.121 330.046C422.119 333.172 418.049 334.93 413.803 334.935Z" fill="white"/>
<path d="M398.507 124.308H275.758C275.232 124.308 274.711 124.201 274.224 123.992C273.738 123.783 273.296 123.476 272.924 123.089C272.551 122.702 272.256 122.242 272.054 121.736C271.853 121.23 271.749 120.688 271.749 120.14C271.749 119.592 271.853 119.05 272.054 118.544C272.256 118.038 272.551 117.578 272.924 117.191C273.296 116.804 273.738 116.497 274.224 116.288C274.711 116.079 275.232 115.971 275.758 115.972H398.507C399.033 115.971 399.554 116.079 400.04 116.288C400.527 116.497 400.969 116.804 401.341 117.191C401.713 117.578 402.009 118.038 402.21 118.544C402.412 119.05 402.516 119.592 402.516 120.14C402.516 120.688 402.412 121.23 402.21 121.736C402.009 122.242 401.713 122.702 401.341 123.089C400.969 123.476 400.527 123.783 400.04 123.992C399.554 124.201 399.033 124.308 398.507 124.308Z" fill="#E4E4E4"/>
<path d="M398.507 140.777H275.758C274.697 140.777 273.678 140.338 272.927 139.556C272.177 138.774 271.755 137.714 271.755 136.609C271.755 135.503 272.177 134.443 272.927 133.662C273.678 132.88 274.697 132.441 275.758 132.441H398.507C399.569 132.441 400.587 132.88 401.338 133.662C402.088 134.443 402.51 135.503 402.51 136.609C402.51 137.714 402.088 138.774 401.338 139.556C400.587 140.338 399.569 140.777 398.507 140.777Z" fill="#E4E4E4"/>
<path d="M328.967 157.246H275.758C274.697 157.246 273.678 156.807 272.927 156.025C272.177 155.243 271.755 154.183 271.755 153.078C271.755 151.972 272.177 150.912 272.927 150.13C273.678 149.349 274.697 148.91 275.758 148.91H328.967C330.029 148.91 331.047 149.349 331.798 150.13C332.548 150.912 332.97 151.972 332.97 153.078C332.97 154.183 332.548 155.243 331.798 156.025C331.047 156.807 330.029 157.246 328.967 157.246Z" fill="#E4E4E4"/>
<path d="M398.507 191.738H275.758C275.232 191.739 274.711 191.631 274.224 191.422C273.738 191.213 273.296 190.906 272.924 190.519C272.551 190.132 272.256 189.672 272.054 189.166C271.853 188.66 271.749 188.118 271.749 187.57C271.749 187.022 271.853 186.48 272.054 185.974C272.256 185.468 272.551 185.008 272.924 184.621C273.296 184.234 273.738 183.927 274.224 183.718C274.711 183.509 275.232 183.402 275.758 183.402H398.507C399.033 183.402 399.554 183.509 400.04 183.718C400.527 183.927 400.969 184.234 401.341 184.621C401.713 185.008 402.009 185.468 402.21 185.974C402.412 186.48 402.516 187.022 402.516 187.57C402.516 188.118 402.412 188.66 402.21 189.166C402.009 189.672 401.713 190.132 401.341 190.519C400.969 190.906 400.527 191.213 400.04 191.422C399.554 191.631 399.033 191.739 398.507 191.738Z" fill="#E4E4E4"/>
<path d="M398.507 208.207H275.758C274.697 208.207 273.678 207.767 272.927 206.986C272.177 206.204 271.755 205.144 271.755 204.039C271.755 202.933 272.177 201.873 272.927 201.091C273.678 200.31 274.697 199.871 275.758 199.871H398.507C399.569 199.871 400.587 200.31 401.338 201.091C402.088 201.873 402.51 202.933 402.51 204.039C402.51 205.144 402.088 206.204 401.338 206.986C400.587 207.767 399.569 208.207 398.507 208.207Z" fill="#E4E4E4"/>
<path d="M328.966 224.676H275.757C274.697 224.674 273.68 224.234 272.93 223.453C272.181 222.671 271.76 221.612 271.76 220.508C271.76 219.403 272.181 218.344 272.93 217.563C273.68 216.781 274.697 216.341 275.757 216.34H328.966C330.028 216.34 331.046 216.779 331.797 217.561C332.548 218.342 332.969 219.402 332.969 220.508C332.969 221.613 332.548 222.673 331.797 223.455C331.046 224.237 330.028 224.676 328.966 224.676Z" fill="#E4E4E4"/>
<path d="M398.507 259.168H275.758C275.232 259.168 274.711 259.061 274.224 258.852C273.738 258.643 273.296 258.336 272.924 257.949C272.551 257.562 272.256 257.102 272.054 256.596C271.853 256.09 271.749 255.548 271.749 255C271.749 254.452 271.853 253.91 272.054 253.403C272.256 252.897 272.551 252.438 272.924 252.051C273.296 251.664 273.738 251.357 274.224 251.148C274.711 250.938 275.232 250.831 275.758 250.832H398.507C399.033 250.831 399.554 250.938 400.04 251.148C400.527 251.357 400.969 251.664 401.341 252.051C401.713 252.438 402.009 252.897 402.21 253.403C402.412 253.91 402.516 254.452 402.516 255C402.516 255.548 402.412 256.09 402.21 256.596C402.009 257.102 401.713 257.562 401.341 257.949C400.969 258.336 400.527 258.643 400.04 258.852C399.554 259.061 399.033 259.168 398.507 259.168Z" fill="#E4E4E4"/>
<path d="M398.507 275.637H275.758C274.697 275.637 273.678 275.198 272.927 274.416C272.177 273.634 271.755 272.574 271.755 271.469C271.755 270.363 272.177 269.303 272.927 268.522C273.678 267.74 274.697 267.301 275.758 267.301H398.507C399.569 267.301 400.587 267.74 401.338 268.522C402.088 269.303 402.51 270.363 402.51 271.469C402.51 272.574 402.088 273.634 401.338 274.416C400.587 275.198 399.569 275.637 398.507 275.637Z" fill="#E4E4E4"/>
<path d="M328.967 292.105H275.758C274.697 292.105 273.678 291.666 272.927 290.885C272.177 290.103 271.755 289.043 271.755 287.938C271.755 286.832 272.177 285.772 272.927 284.99C273.678 284.209 274.697 283.77 275.758 283.77H328.967C330.029 283.77 331.047 284.209 331.798 284.99C332.548 285.772 332.97 286.832 332.97 287.938C332.97 289.043 332.548 290.103 331.798 290.885C331.047 291.666 330.029 292.105 328.967 292.105Z" fill="#E4E4E4"/>
<path d="M301.775 207.59L168.415 88.8333H78.8213V87.084H169.036L302.867 206.261L301.775 207.59Z" fill="#2F2E41"/>
<path d="M78.8215 101.955C86.2462 101.955 92.2651 95.6889 92.2651 87.959C92.2651 80.2292 86.2462 73.9629 78.8215 73.9629C71.3968 73.9629 65.3779 80.2292 65.3779 87.959C65.3779 95.6889 71.3968 101.955 78.8215 101.955Z" fill="white"/>
<path d="M126.752 135.036H4.00325C3.47753 135.036 2.95697 134.928 2.47127 134.719C1.98558 134.51 1.54426 134.203 1.17252 133.816C0.800788 133.429 0.505914 132.969 0.304733 132.463C0.103551 131.958 0 131.416 0 130.868C0 130.321 0.103551 129.779 0.304733 129.274C0.505914 128.768 0.800788 128.308 1.17252 127.921C1.54426 127.534 1.98558 127.227 2.47127 127.018C2.95697 126.808 3.47753 126.701 4.00325 126.701H126.752C127.277 126.701 127.798 126.808 128.284 127.018C128.769 127.227 129.211 127.534 129.583 127.921C129.954 128.308 130.249 128.768 130.45 129.274C130.651 129.779 130.755 130.321 130.755 130.868C130.755 131.416 130.651 131.958 130.45 132.463C130.249 132.969 129.954 133.429 129.583 133.816C129.211 134.203 128.769 134.51 128.284 134.719C127.798 134.928 127.277 135.036 126.752 135.036Z" fill="#18C4FF"/>
<path d="M126.752 151.505H4.00343C2.94166 151.505 1.92336 151.066 1.17257 150.284C0.421783 149.503 0 148.442 0 147.337C0 146.232 0.421783 145.171 1.17257 144.39C1.92336 143.608 2.94166 143.169 4.00343 143.169H126.752C127.814 143.169 128.832 143.608 129.583 144.39C130.334 145.171 130.755 146.232 130.755 147.337C130.755 148.442 130.334 149.503 129.583 150.284C128.832 151.066 127.814 151.505 126.752 151.505Z" fill="#18C4FF"/>
<path d="M57.212 167.974H4.00343C2.94166 167.974 1.92336 167.535 1.17257 166.753C0.421783 165.972 0 164.912 0 163.806C0 162.701 0.421783 161.641 1.17257 160.859C1.92336 160.077 2.94166 159.638 4.00343 159.638H57.212C58.2737 159.638 59.292 160.077 60.0428 160.859C60.7936 161.641 61.2154 162.701 61.2154 163.806C61.2154 164.912 60.7936 165.972 60.0428 166.753C59.292 167.535 58.2737 167.974 57.212 167.974Z" fill="#18C4FF"/>
<path d="M337.132 132.298L470.963 13.1211H561.178V14.8705H471.584L338.224 133.628L337.132 132.298Z" fill="#2F2E41"/>
<path d="M561.178 27.9923C568.603 27.9923 574.622 21.726 574.622 13.9962C574.622 6.26629 568.603 0 561.178 0C553.753 0 547.734 6.26629 547.734 13.9962C547.734 21.726 553.753 27.9923 561.178 27.9923Z" fill="white"/>
<path d="M652.588 60.5826H529.839C529.313 60.5834 528.792 60.4762 528.305 60.2671C527.819 60.058 527.377 59.7511 527.005 59.364C526.632 58.9769 526.337 58.5172 526.135 58.0112C525.934 57.5051 525.83 56.9627 525.83 56.4148C525.83 55.867 525.934 55.3246 526.135 54.8185C526.337 54.3125 526.632 53.8528 527.005 53.4657C527.377 53.0786 527.819 52.7717 528.305 52.5626C528.792 52.3535 529.313 52.2463 529.839 52.2471H652.588C653.114 52.2463 653.635 52.3535 654.121 52.5626C654.608 52.7717 655.05 53.0786 655.422 53.4657C655.794 53.8528 656.09 54.3125 656.291 54.8185C656.493 55.3246 656.597 55.867 656.597 56.4148C656.597 56.9627 656.493 57.5051 656.291 58.0112C656.09 58.5172 655.794 58.9769 655.422 59.364C655.05 59.7511 654.608 60.058 654.121 60.2671C653.635 60.4762 653.114 60.5834 652.588 60.5826Z" fill="#18C4FF"/>
<path d="M652.587 77.0518H529.838C528.777 77.0518 527.758 76.6127 527.008 75.831C526.257 75.0494 525.835 73.9892 525.835 72.8838C525.835 71.7784 526.257 70.7182 527.008 69.9366C527.758 69.155 528.777 68.7158 529.838 68.7158H652.587C653.113 68.7158 653.633 68.8236 654.119 69.0331C654.605 69.2426 655.046 69.5496 655.418 69.9366C655.79 70.3236 656.084 70.7831 656.286 71.2888C656.487 71.7945 656.59 72.3365 656.59 72.8838C656.59 73.4311 656.487 73.9731 656.286 74.4788C656.084 74.9845 655.79 75.444 655.418 75.831C655.046 76.218 654.605 76.525 654.119 76.7345C653.633 76.944 653.113 77.0518 652.587 77.0518Z" fill="#18C4FF"/>
<path d="M583.047 93.5205H529.838C528.777 93.5205 527.758 93.0814 527.007 92.2998C526.257 91.5181 525.835 90.458 525.835 89.3525C525.835 88.2471 526.257 87.187 527.007 86.4053C527.758 85.6237 528.777 85.1846 529.838 85.1846H583.047C584.109 85.1846 585.127 85.6237 585.878 86.4053C586.629 87.187 587.05 88.2471 587.05 89.3525C587.05 90.458 586.629 91.5181 585.878 92.2998C585.127 93.0814 584.109 93.5205 583.047 93.5205Z" fill="#18C4FF"/>
<path d="M556.352 395.246C555.66 394.462 555.142 393.53 554.833 392.515C554.525 391.5 554.434 390.427 554.567 389.372C554.7 388.316 555.053 387.304 555.603 386.406C556.152 385.508 556.884 384.747 557.747 384.175L552.015 358.997L564.146 363.611L567.729 386.814C568.556 388.386 568.799 390.219 568.414 391.966C568.028 393.713 567.041 395.252 565.638 396.291C564.236 397.331 562.516 397.798 560.804 397.606C559.093 397.413 557.509 396.573 556.352 395.246Z" fill="white"/>
<path d="M527.179 289.734L532.047 302.768C532.047 302.768 529.961 315.802 533.438 318.699C536.916 321.595 535.525 321.595 535.525 323.767C535.645 325.326 536.078 326.84 536.797 328.213C537.516 329.585 538.505 330.784 539.698 331.733C542.48 333.905 555 378.076 555 378.076H567.52C567.115 374.71 567.115 371.305 567.52 367.939C568.215 362.87 565.433 349.836 564.042 347.663C562.651 345.491 564.042 342.595 564.042 338.25C564.042 333.905 561.26 331.733 561.26 324.492C561.26 317.25 552.913 260.769 553.609 254.252C554.304 247.735 546.654 241.942 546.654 241.942H539.698L527.179 289.734Z" fill="#38CCFF"/>
<path d="M497.72 317.38L486.148 371.145L560.302 366.342L540.139 313.54L497.72 317.38Z" fill="white"/>
<path d="M659.359 519.452C657.151 527.761 653.705 535.657 649.145 542.853C638.955 558.893 624.373 571.159 608.345 580.977C607.235 581.666 606.108 582.337 604.982 583H593.739L593.347 582.065V582.056L592.89 580.977L592.832 580.849L592.808 580.977L592.359 583H586.84C586.382 582.328 585.933 581.657 585.492 580.977C584.847 579.982 584.227 578.979 583.639 577.959C582.601 576.175 581.674 574.324 580.863 572.417C580.765 572.205 580.683 571.992 580.602 571.78L580.969 571.363L579.442 564.41L582.512 563.883L579.148 553.079C579.271 552.679 579.41 552.28 579.557 551.88C581.443 546.908 584.986 543.193 589.191 540.073C593.518 536.852 598.556 534.268 603.185 531.582C605.357 530.315 607.496 528.981 609.578 527.569V527.561C612.24 525.767 614.823 523.849 617.327 521.806C617.369 521.778 617.41 521.747 617.449 521.713C617.484 521.687 617.517 521.659 617.547 521.628C628.772 512.498 638.271 501.277 645.56 488.536C645.562 488.536 645.563 488.536 645.564 488.535C645.565 488.535 645.566 488.534 645.566 488.534C645.567 488.533 645.568 488.532 645.568 488.531C645.568 488.53 645.569 488.529 645.569 488.528C645.813 488.12 646.042 487.711 646.271 487.295V487.286C649.256 481.941 651.825 476.356 653.954 470.583V470.575C654.117 470.15 654.264 469.725 654.419 469.3C654.631 469.674 654.835 470.048 655.031 470.422C655.032 470.422 655.034 470.422 655.035 470.422C655.036 470.423 655.036 470.423 655.037 470.424C655.038 470.425 655.039 470.426 655.039 470.427C655.039 470.428 655.04 470.429 655.04 470.43C662.959 485.178 663.711 502.944 659.359 519.452Z" fill="#18C4FF"/>
<path d="M655.039 470.43C655.119 478.301 654.333 486.156 652.696 493.84C651.961 497.357 651.045 500.83 649.953 504.245C647.832 510.925 645.061 517.362 641.682 523.455C641.494 523.787 641.315 524.11 641.119 524.433V524.441C639.674 526.976 638.108 529.433 636.424 531.803C633.876 535.577 630.728 538.872 627.116 541.544C624.166 543.574 620.829 544.916 617.335 545.48C616.682 545.607 616.012 545.701 615.334 545.786C612.632 546.117 609.839 546.245 607.161 546.84C605.805 547.119 604.484 547.561 603.226 548.157C598.915 550.24 596.49 554.601 595.429 559.259C595.241 560.075 595.094 560.899 594.98 561.724C594.09 568.057 595.069 574.636 594.563 580.977C594.506 581.649 594.433 582.329 594.343 583H593.739L593.347 582.065V582.057C593.387 581.7 593.42 581.343 593.453 580.977C593.649 577.861 593.673 574.737 593.526 571.618C593.494 570.216 593.469 568.805 593.486 567.394C593.502 566.263 593.543 565.132 593.624 564.01V564.002C593.681 563.305 593.747 562.616 593.837 561.928C594.096 559.82 594.595 557.751 595.323 555.765C596.033 553.719 597.151 551.852 598.603 550.288C600.055 548.723 601.809 547.496 603.749 546.687C604.934 546.224 606.155 545.869 607.398 545.624C610.133 545.08 612.958 544.944 615.71 544.587C616.004 544.553 616.298 544.511 616.584 544.46C616.951 544.4 617.31 544.332 617.669 544.264C621.27 543.599 624.67 542.065 627.598 539.784C631.077 536.917 634.102 533.497 636.563 529.652C637.902 527.655 639.175 525.614 640.359 523.515C640.359 523.514 640.359 523.513 640.36 523.512C640.36 523.511 640.361 523.51 640.362 523.509C640.362 523.508 640.363 523.507 640.364 523.507C640.365 523.507 640.366 523.506 640.367 523.506C640.425 523.404 640.482 523.311 640.539 523.209L640.547 523.192C645.625 514.157 649.332 504.36 651.537 494.146C651.61 493.772 651.692 493.398 651.774 493.024C653.289 485.65 654.02 478.124 653.954 470.583V470.575C653.954 470.218 653.945 469.869 653.937 469.512C653.921 468.781 655.007 468.62 655.023 469.351C655.031 469.708 655.039 470.065 655.031 470.422C655.032 470.422 655.033 470.422 655.034 470.422C655.035 470.423 655.036 470.424 655.037 470.424C655.038 470.425 655.038 470.426 655.039 470.427C655.039 470.428 655.039 470.429 655.039 470.43Z" fill="white"/>
<path d="M640.653 524.203C643.764 525.848 647.335 526.288 650.73 525.445C654.124 524.601 657.119 522.529 659.182 519.599C659.597 519.004 658.729 518.305 658.313 518.9C656.398 521.632 653.607 523.562 650.445 524.341C647.283 525.119 643.957 524.695 641.069 523.145C640.441 522.809 640.028 523.868 640.653 524.203Z" fill="white"/>
<path d="M617.774 544.603C615.501 537.563 615.859 529.891 618.778 523.115C619.068 522.443 618.052 522.011 617.763 522.681C614.738 529.738 614.381 537.724 616.762 545.044C616.989 545.741 618.001 545.296 617.774 544.603V544.603Z" fill="white"/>
<path d="M652.089 493.128C650.758 492.753 649.537 492.039 648.536 491.051C647.535 490.063 646.786 488.832 646.355 487.468C646.137 486.768 645.126 487.213 645.343 487.909C645.826 489.413 646.655 490.772 647.758 491.866C648.861 492.961 650.205 493.757 651.672 494.185C651.808 494.238 651.957 494.235 652.09 494.177C652.223 494.119 652.329 494.011 652.388 493.874C652.443 493.734 652.442 493.577 652.386 493.437C652.33 493.297 652.223 493.187 652.089 493.128H652.089Z" fill="white"/>
<path d="M609.579 527.561V527.57C609.326 533.639 608.597 539.678 607.399 545.624V545.633C607.334 546.041 607.244 546.44 607.162 546.84C605.192 556.036 602.429 565.029 598.908 573.709C597.936 576.157 596.918 578.58 595.854 580.977C595.56 581.657 595.258 582.329 594.948 583H593.739L593.347 582.065V582.057L592.89 580.977L592.833 580.85L592.809 580.977L592.359 583H580.684L578.414 580.977L575.107 578.027L579.729 572.774L580.488 571.907L580.602 571.78L580.97 571.363L579.443 564.41L582.513 563.883L579.149 553.079L577.557 547.97L577.157 546.687L574.83 539.215L567.808 540.584L566.665 536.418C568.77 531.339 570.521 526.11 571.907 520.769C571.915 520.727 571.931 520.693 571.939 520.65C575.649 506.266 576.762 491.29 575.222 476.483V476.474C575.173 475.998 575.116 475.514 575.05 475.046V475.029C574.35 468.893 573.171 462.826 571.523 456.889C571.409 456.439 571.278 455.997 571.156 455.555C571.531 455.725 571.899 455.886 572.274 456.056L572.282 456.065H572.299C572.895 456.337 573.491 456.626 574.07 456.932C588 463.979 598.246 477.205 604.068 492.455C604.084 492.497 604.1 492.531 604.117 492.574C607.154 500.568 608.964 509.01 609.481 517.59C609.677 520.91 609.709 524.238 609.579 527.561Z" fill="#18C4FF"/>
<path d="M588.391 583H587.101C586.693 582.312 586.252 581.64 585.811 580.977C585.109 579.949 584.385 578.943 583.639 577.959C582.994 577.109 582.349 576.268 581.704 575.426C581.035 574.551 580.374 573.675 579.729 572.774L580.488 571.907C580.61 572.077 580.733 572.247 580.864 572.417C582.954 575.282 585.215 578.036 587.15 580.977C587.583 581.64 587.999 582.312 588.391 583Z" fill="white"/>
<path d="M570.884 456.03C571.096 456.31 571.317 456.599 571.521 456.888C573.113 459.039 574.618 461.258 576.036 463.544C578.561 467.579 580.804 471.797 582.747 476.167C582.902 476.507 583.058 476.856 583.205 477.204C587.363 486.753 590.073 496.915 591.239 507.329C591.255 507.431 591.263 507.525 591.271 507.627C591.541 510.058 591.715 512.497 591.794 514.946C592.054 519.556 591.616 524.18 590.496 528.648C590.332 529.235 590.153 529.813 589.957 530.374C589.466 531.749 588.851 533.072 588.12 534.326C587.595 535.242 587.011 536.119 586.373 536.953C585.989 537.463 585.589 537.964 585.164 538.449C584.919 538.729 584.666 539.01 584.413 539.29C584.201 539.503 583.997 539.724 583.784 539.937C581.58 542.164 579.147 544.229 577.154 546.686L577.555 547.969C579.473 545.436 581.947 543.337 584.176 541.127C585.576 539.757 586.849 538.254 587.981 536.638C588.128 536.417 588.283 536.196 588.422 535.967C589.178 534.816 589.832 533.595 590.373 532.32C590.651 531.683 590.904 531.028 591.133 530.348C592.466 525.953 593.074 521.354 592.929 516.748C592.903 513.797 592.734 510.849 592.423 507.916C592.39 507.533 592.349 507.159 592.3 506.777C591.472 499.795 589.962 492.919 587.793 486.257C585.048 477.805 581.272 469.754 576.558 462.303C575.211 460.169 573.782 458.087 572.272 456.055C572.076 455.775 571.872 455.503 571.66 455.222C571.227 454.644 570.451 455.452 570.884 456.03Z" fill="white"/>
<path d="M591.912 508.023C595.348 507.387 598.454 505.499 600.676 502.699C602.899 499.898 604.092 496.366 604.044 492.733C604.041 492.585 603.983 492.444 603.881 492.34C603.78 492.235 603.644 492.176 603.502 492.174C603.36 492.173 603.222 492.228 603.119 492.33C603.015 492.432 602.953 492.571 602.947 492.719C602.998 496.102 601.885 499.392 599.811 501.995C597.736 504.599 594.836 506.345 591.633 506.918C590.937 507.043 591.22 508.148 591.912 508.023Z" fill="white"/>
<path d="M585.442 538.652C579.556 534.457 575.406 528.106 573.817 520.866C573.661 520.148 572.599 520.439 572.756 521.156C574.422 528.687 578.755 535.287 584.889 539.639C585.474 540.053 586.024 539.064 585.442 538.652Z" fill="white"/>
<path d="M583.073 476.044C581.793 476.578 580.405 476.774 579.035 476.612C577.664 476.45 576.354 475.937 575.221 475.118C574.642 474.696 574.092 475.685 574.668 476.105C575.923 477.003 577.371 477.569 578.885 477.751C580.399 477.933 581.932 477.726 583.351 477.149C583.49 477.106 583.607 477.01 583.68 476.88C583.752 476.751 583.775 476.597 583.743 476.451C583.705 476.305 583.614 476.18 583.488 476.104C583.363 476.028 583.213 476.006 583.073 476.044Z" fill="white"/>
<path d="M510.069 565.522H501.739L497.776 532.072L510.07 532.072L510.069 565.522Z" fill="white"/>
<path d="M514.55 581.989H508.64L507.585 576.179L504.882 581.989H489.206C488.454 581.989 487.723 581.739 487.117 581.275C486.512 580.811 486.065 580.159 485.841 579.412C485.618 578.665 485.629 577.863 485.874 577.123C486.119 576.384 486.585 575.745 487.203 575.301L499.722 566.299V560.426L512.89 561.244L514.55 581.989Z" fill="black"/>
<path d="M588.798 561.207L580.657 563.046L569.973 531.231L581.988 528.518L588.798 561.207Z" fill="white"/>
<path d="M596.53 576.311L590.754 577.615L588.539 572.171L587.082 578.445L571.761 581.905C571.027 582.071 570.261 581.988 569.575 581.668C568.889 581.349 568.319 580.81 567.949 580.129C567.578 579.448 567.426 578.662 567.515 577.886C567.604 577.109 567.929 576.382 568.443 575.811L578.844 564.251L577.648 558.511L590.683 556.404L596.53 576.311Z" fill="black"/>
<path d="M647.463 581.989C647.463 582.122 647.438 582.253 647.389 582.376C647.341 582.499 647.269 582.611 647.179 582.705C647.089 582.799 646.981 582.873 646.863 582.924C646.745 582.975 646.619 583.001 646.491 583H417.642C417.384 583 417.137 582.894 416.955 582.704C416.772 582.514 416.67 582.257 416.67 581.989C416.67 581.72 416.772 581.463 416.955 581.273C417.137 581.084 417.384 580.977 417.642 580.977H646.491C646.619 580.977 646.745 581.003 646.863 581.053C646.981 581.104 647.089 581.178 647.179 581.272C647.269 581.366 647.341 581.478 647.389 581.601C647.438 581.724 647.463 581.856 647.463 581.989Z" fill="white"/>
<path d="M484.256 416.102C490.101 449.551 491.563 463.993 491.563 463.993C491.563 463.993 487.179 469.314 490.101 472.357C493.024 475.4 490.101 481.478 490.101 481.478L496.674 555.218L501.965 554.326L514.71 552.192L519.307 551.419L516.384 482.243C516.384 482.243 519.307 476.157 517.845 474.635C516.384 473.114 519.307 463.993 519.307 463.993L522.956 391.774L545.597 470.836C545.597 470.836 543.401 473.879 545.597 476.157C547.785 478.435 552.162 489.842 552.162 489.842L565.625 538.889L566.768 543.054L573.79 541.686L581.432 540.19L582.837 539.918L585.335 539.425L586.943 539.11L587.49 539.008L590.136 538.49L589.336 534.792L588.919 532.846L577.53 480.178L577.268 478.962L576.991 477.679C576.991 477.679 578.452 473.879 576.264 471.592C575.624 470.895 575.156 470.047 574.902 469.12C574.647 468.193 574.613 467.215 574.803 466.271C574.874 466.192 574.94 466.106 574.998 466.016C575.257 465.647 575.435 465.223 575.521 464.775C575.717 463.823 575.545 462.488 574.068 460.95C573.651 460.49 573.302 459.968 573.031 459.403C570.81 455.025 569.691 445.751 569.691 445.751C569.691 445.751 567.716 372.3 561.249 361.08C560.906 360.493 554.041 349.233 553.682 349.004C546.383 344.447 486.149 350.741 486.149 350.741C486.149 350.741 482.704 360.374 482.549 361.377C481.708 367.013 479.3 387.728 484.256 416.102Z" fill="black"/>
<path d="M484.598 395.152C485.29 394.368 485.808 393.436 486.116 392.421C486.425 391.406 486.516 390.333 486.383 389.278C486.25 388.222 485.896 387.21 485.347 386.312C484.797 385.415 484.066 384.653 483.203 384.082L488.935 358.903L476.803 363.517L473.22 386.72C472.394 388.292 472.151 390.126 472.536 391.872C472.921 393.619 473.909 395.158 475.311 396.197C476.714 397.237 478.434 397.705 480.145 397.512C481.857 397.319 483.441 396.48 484.598 395.152Z" fill="white"/>
<path d="M494.297 241.848C494.297 241.848 500.305 232.528 512.129 220.218C518.388 218.046 529.234 219.312 532.995 220.218C550.383 244.114 551.477 242.526 556.003 255.878C557.177 259.34 557.764 262.666 557.242 265.382C555.156 276.244 558.5 331.124 559.196 334.02C559.892 336.917 564.76 340.537 559.892 340.537C555.023 340.537 481.296 337.641 482.687 335.469C484.078 333.296 494.297 241.848 494.297 241.848Z" fill="#38CCFF"/>
<path d="M501.252 241.848H494.297C494.297 241.848 486.646 247.641 487.342 254.158C488.037 260.675 479.691 317.156 479.691 324.397C479.691 331.639 476.909 333.811 476.909 338.156C476.909 342.5 478.3 345.397 476.909 347.569C475.518 349.741 472.736 362.776 473.431 367.845C473.836 371.211 473.836 374.616 473.431 377.982H485.951C485.951 377.982 498.47 333.811 501.252 331.639C502.446 330.69 503.434 329.491 504.153 328.118C504.872 326.746 505.306 325.231 505.426 323.673C505.426 321.501 504.034 321.501 507.512 318.604C510.99 315.708 508.903 302.674 508.903 302.674L513.772 289.64L501.252 241.848Z" fill="#38CCFF"/>
<path d="M515.538 210.95C526.661 210.95 535.678 201.563 535.678 189.982C535.678 178.402 526.661 169.014 515.538 169.014C504.415 169.014 495.397 178.402 495.397 189.982C495.397 201.563 504.415 210.95 515.538 210.95Z" fill="white"/>
<path d="M501.432 229.277L499.542 220.656C498.921 217.771 498.861 214.785 499.366 211.876C499.87 208.966 500.928 206.191 502.479 203.714C503.903 201.379 504.697 198.687 504.777 195.922C504.857 193.156 504.221 190.42 502.934 187.999C500.742 183.846 496.961 181.366 492.819 181.366H492.316V180.843C492.316 173.324 497.945 168.017 503.177 167.713C503.366 166.149 504.432 164.746 506.287 163.632C510.717 160.973 519.283 160.396 525.755 163.941C525.875 162.795 526.29 161.704 526.957 160.784C527.624 159.863 528.517 159.148 529.543 158.714C530.607 158.329 531.752 158.26 532.851 158.516C532.945 156.631 533.693 154.846 534.955 153.491C536.742 151.688 539.608 151.003 542.821 151.607C547.232 152.441 551.58 155.366 555.064 159.846C558.152 163.818 560.296 168.499 562.37 173.025C564.409 177.477 566.518 182.081 569.574 185.978C572.923 190.248 577.072 193.015 581.257 193.768C586.138 194.648 591.148 192.555 593.44 188.682L593.895 187.913L594.31 188.706C596.885 193.633 595.832 200.403 591.804 204.804C588.193 208.75 582.525 210.761 576.647 210.177C571.672 209.684 566.653 207.483 561.731 203.634C556.841 199.812 553.817 195.586 552.743 191.075C552.443 189.679 552.227 188.265 552.097 186.841C551.764 183.858 551.451 181.041 549.687 178.967C548.104 177.102 545.652 176.294 543.478 175.684L543.052 175.565C542.974 176.405 542.721 177.217 542.311 177.945C541.9 178.673 541.342 179.299 540.676 179.779C540.275 180.03 539.836 180.206 539.378 180.3C541.898 190.861 540.862 198.946 536.295 204.337C528.586 213.437 513.773 211.565 513.146 211.482L512.729 211.426L512.708 210.989C512.652 209.816 512.514 208.648 512.296 207.496C510.174 212.818 503.037 226.891 502.082 228.31L501.432 229.277Z" fill="black"/>
</g>
<defs>
<clipPath id="clip0_119_1453">
<rect width="662" height="583" fill="white"/>
</clipPath>
</defs>
</svg>
