<svg width="219" height="219" viewBox="0 0 219 219" fill="none" xmlns="http://www.w3.org/2000/svg">
<g clip-path="url(#clip0_117_1687)">
<path d="M177.555 154.091L82.544 186.499C78.9442 187.727 75.0041 187.474 71.5905 185.797C68.1768 184.12 65.5692 181.155 64.3413 177.556L31.9334 82.5447C30.7055 78.9449 30.958 75.0048 32.6352 71.5911C34.3123 68.1774 37.2769 65.5699 40.8767 64.342L115.528 38.8786L161.035 61.2368L186.498 135.888C187.726 139.488 187.474 143.428 185.797 146.842C184.119 150.256 181.155 152.863 177.555 154.091Z" stroke="url(#paint0_linear_117_1687)" stroke-opacity="0.29" stroke-width="10" stroke-linecap="round" stroke-linejoin="round"/>
<path d="M159.353 145.148L145.464 104.429L77.5986 127.577L91.4877 168.296" stroke="url(#paint1_linear_117_1687)" stroke-opacity="0.29" stroke-width="9" stroke-linecap="round" stroke-linejoin="round"/>
<path d="M56.1318 64.4087V64.4087C61.2577 79.4363 77.5953 87.4632 92.6229 82.3374L120.336 72.8844" stroke="url(#paint2_linear_117_1687)" stroke-opacity="0.29" stroke-width="10" stroke-linecap="round" stroke-linejoin="round"/>
</g>
<defs>
<linearGradient id="paint0_linear_117_1687" x1="88.3822" y1="48.138" x2="130.049" y2="170.295" gradientUnits="userSpaceOnUse">
<stop stop-color="white"/>
<stop offset="1" stop-color="#0099F0"/>
</linearGradient>
<linearGradient id="paint1_linear_117_1687" x1="111.531" y1="116.003" x2="125.42" y2="156.722" gradientUnits="userSpaceOnUse">
<stop stop-color="white"/>
<stop offset="1" stop-color="#0099F0"/>
</linearGradient>
<linearGradient id="paint2_linear_117_1687" x1="83.5935" y1="55.0416" x2="92.8747" y2="82.2515" gradientUnits="userSpaceOnUse">
<stop stop-color="white"/>
<stop offset="1" stop-color="white"/>
</linearGradient>
<clipPath id="clip0_117_1687">
<rect width="172.09" height="172.09" fill="white" transform="translate(0 55.5566) rotate(-18.8343)"/>
</clipPath>
</defs>
</svg>
