<svg width="136" height="134" viewBox="0 0 136 134" fill="none" xmlns="http://www.w3.org/2000/svg">
<path d="M72.8835 79.7892C79.9457 77.0385 83.4041 69.1765 80.608 62.2289C77.8119 55.2813 69.8202 51.879 62.758 54.6297C55.6958 57.3805 52.2374 65.2425 55.0335 72.1901C57.8296 79.1377 65.8213 82.5399 72.8835 79.7892Z" stroke="url(#paint0_linear_117_1718)" stroke-opacity="0.28" stroke-width="11" stroke-linecap="round" stroke-linejoin="round"/>
<path d="M105.325 67.5102C105.265 69.0325 105.67 70.5374 106.488 71.8311C107.306 73.1247 108.499 74.1477 109.913 74.7681L110.279 74.9238C111.412 75.4055 112.438 76.1023 113.297 76.9742C114.156 77.8461 114.833 78.8761 115.287 80.0053C115.742 81.1345 115.965 82.3407 115.946 83.5551C115.926 84.7694 115.663 85.968 115.172 87.0823C114.682 88.1971 113.974 89.2061 113.088 90.0515C112.202 90.8969 111.155 91.5622 110.007 92.0093C108.859 92.4564 107.633 92.6765 106.398 92.6571C105.164 92.6376 103.946 92.3791 102.813 91.8961L102.447 91.7404C101.019 91.1508 99.4448 90.9956 97.9264 91.2947C96.408 91.5938 95.0155 92.3335 93.9285 93.4184C92.856 94.4661 92.1183 95.7995 91.8063 97.2544C91.4942 98.7092 91.6214 100.222 92.1722 101.607L92.4661 102.337C93.3833 104.616 93.3427 107.16 92.3532 109.409C91.3637 111.659 89.5064 113.429 87.1899 114.332C84.8735 115.234 82.2875 115.194 80.001 114.221C77.7145 113.247 75.9147 111.42 74.9975 109.141L74.8419 108.754C74.2358 107.346 73.2129 106.149 71.9061 105.319C70.5993 104.49 69.0692 104.067 67.5145 104.104C65.9672 104.045 64.4374 104.444 63.1224 105.248C61.8074 106.053 60.7675 107.226 60.1369 108.618L59.9786 108.978C59.489 110.092 58.7807 111.101 57.8944 111.947C57.0081 112.792 55.9611 113.458 54.8133 113.905C53.6655 114.352 52.4393 114.572 51.205 114.552C49.9706 114.533 48.7523 114.274 47.6196 113.791C46.4863 113.31 45.4607 112.613 44.6013 111.741C43.742 110.869 43.0658 109.839 42.6113 108.71C42.1569 107.581 41.9331 106.375 41.9528 105.16C41.9726 103.946 42.2354 102.747 42.7263 101.633L42.8846 101.273C43.4839 99.8684 43.6417 98.3193 43.3377 96.8256C43.0337 95.3319 42.2818 93.962 41.1789 92.8926C40.1139 91.8375 38.7586 91.1118 37.2797 90.8048C35.8008 90.4978 34.263 90.6229 32.8555 91.1648L32.113 91.454C29.7966 92.3562 27.2106 92.3162 24.9241 91.3428C22.6376 90.3694 20.8378 88.5423 19.9206 86.2634C19.0035 83.9845 19.0441 81.4405 20.0336 79.1911C21.0231 76.9417 22.8803 75.1711 25.1968 74.2688L25.5899 74.1158C27.022 73.5195 28.2386 72.5131 29.0817 71.2276C29.9247 69.942 30.3551 68.4367 30.3169 66.9073C30.3767 65.385 29.9716 63.88 29.1538 62.5864C28.3361 61.2928 27.1431 60.2698 25.7288 59.6494L25.3631 59.4937C24.2298 59.012 23.2042 58.3152 22.3448 57.4433C21.4855 56.5714 20.8093 55.5414 20.3548 54.4122C19.9004 53.283 19.6766 52.0768 19.6963 50.8624C19.7161 49.6481 19.9789 48.4495 20.4698 47.3352C20.9595 46.2203 21.6677 45.2114 22.554 44.366C23.4403 43.5205 24.4873 42.8553 25.6351 42.4082C26.783 41.9611 28.0091 41.741 29.2435 41.7604C30.4778 41.7799 31.6962 42.0384 32.8289 42.5214L33.1947 42.6771C34.6225 43.2667 36.1972 43.4219 37.7155 43.1228C39.2339 42.8237 40.6264 42.084 41.7135 40.9991L42.0628 40.863C43.1353 39.8153 43.873 38.4819 44.185 37.027C44.4971 35.5722 44.3699 34.0593 43.8191 32.6746L43.5252 31.9442C42.608 29.6654 42.6487 27.1214 43.6381 24.872C44.6276 22.6226 46.4849 20.852 48.8014 19.9497C51.1178 19.0474 53.7038 19.0874 55.9903 20.0608C58.2768 21.0342 60.0766 22.8614 60.9938 25.1403L61.1494 25.5269C61.7114 26.9072 62.6714 28.0957 63.9112 28.9462C65.151 29.7966 66.6166 30.2718 68.1274 30.3133C69.6748 30.3722 71.2046 29.9736 72.5196 29.1691C73.8345 28.3646 74.8744 27.1911 75.505 25.7997L75.6633 25.4399C76.153 24.325 76.8612 23.3161 77.7475 22.4706C78.6338 21.6252 79.6808 20.96 80.8286 20.5129C81.9764 20.0658 83.2026 19.8457 84.4369 19.8651C85.6713 19.8845 86.8896 20.1431 88.0224 20.6261C89.1556 21.1078 90.1812 21.8045 91.0406 22.6764C91.8999 23.5484 92.5762 24.5783 93.0306 25.7075C93.4851 26.8367 93.7088 28.043 93.6891 29.2573C93.6693 30.4716 93.4065 31.6702 92.9156 32.7845L92.7573 33.1444C92.158 34.5491 92.0002 36.0981 92.3042 37.5919C92.6083 39.0856 93.3602 40.4555 94.463 41.5249L94.6013 41.8686C95.6663 42.9237 97.0217 43.6494 98.5006 43.9564C99.9794 44.2634 101.517 44.1382 102.925 43.5964L103.667 43.3072C105.984 42.405 108.57 42.4449 110.856 43.4184C113.143 44.3918 114.942 46.2189 115.86 48.4978C116.777 50.7767 116.736 53.3207 115.747 55.5701C114.757 57.8195 112.9 59.5901 110.583 60.4923L110.19 60.6454C108.787 61.1983 107.579 62.1427 106.715 63.3624C105.85 64.5821 105.367 66.0239 105.325 67.5102Z" stroke="url(#paint1_linear_117_1718)" stroke-opacity="0.28" stroke-width="11" stroke-linecap="round" stroke-linejoin="round"/>
<defs>
<linearGradient id="paint0_linear_117_1718" x1="62.758" y1="54.6297" x2="72.6005" y2="79.8995" gradientUnits="userSpaceOnUse">
<stop stop-color="white"/>
<stop offset="1" stop-color="#0269D6"/>
</linearGradient>
<linearGradient id="paint1_linear_117_1718" x1="48.8014" y1="19.9497" x2="85.7773" y2="114.882" gradientUnits="userSpaceOnUse">
<stop stop-color="white"/>
<stop offset="1" stop-color="#0269D6"/>
</linearGradient>
</defs>
</svg>
